<?xml version="1.0" standalone="no"?>
<!DOCTYPE svg PUBLIC "-//W3C//DTD SVG 1.1//EN" "http://www.w3.org/Graphics/SVG/1.1/DTD/svg11.dtd" >
<svg xmlns="http://www.w3.org/2000/svg">
<metadata>Generated by IcoMoon</metadata>
<defs>
<font id="sofarsounds-icon-font" horiz-adv-x="1024">
<font-face units-per-em="1024" ascent="870.850439882698" descent="-153.14956011730206" />
<missing-glyph horiz-adv-x="1024" />
<glyph unicode="&#x20;" horiz-adv-x="0" d="" />
<glyph unicode="&#xe830;" glyph-name="icon-search2" d="M1002.006-212.444c-13.709 0-27.425 5.273-36.916 15.819l-232.044 230.988c-73.832-56.956-164.54-88.597-258.411-88.597-233.098 0-421.896 188.798-421.896 421.896s188.798 421.896 421.896 421.896c233.098 0 421.896-188.798 421.896-421.896 0-93.871-31.643-184.58-88.597-258.411l230.988-232.044c15.819-14.764 20.041-37.971 11.6-56.956-8.437-20.041-27.425-32.698-48.516-32.698v0zM474.634 684.084c-175.087 0-316.423-141.335-316.423-316.423 0-174.032 142.391-316.423 316.423-316.423s316.423 142.391 316.423 316.423c0 174.032-142.391 316.423-316.423 316.423v0z" />
<glyph unicode="&#xe900;" glyph-name="rock" horiz-adv-x="742" d="M353.021-155.712c-194.649 0-352.993 158.344-352.993 352.993v442.889c-0.66 29.181 10.29 57.296 30.87 78.823s48.281 33.752 78.040 34.412c0.947 0 2.058 0.041 3.169 0.041 28.361 0 55.443-10.991 76.269-30.911 21.527-20.58 33.752-48.281 34.412-78.040 0.041-1.689 0.041-3.333 0-4.981v-102.613c15.148 7.613 31.858 11.606 48.982 11.606l3.333-0.041c29.8-0.66 57.747-13.254 77.999-34.494 20.826 21.896 49.68 34.535 80.387 34.535l2.595-0.041c16.464-0.369 32.518-4.403 47.088-11.688 0 0-0.041 186.499 0 188.227 1.357 60.054 51.327 108.91 111.381 108.91l2.595-0.041c61.371-1.398 110.186-52.479 108.828-113.891v-550.029c0-0.369 0-0.742-0.041-1.152-0.578-71.825-36.056-151.595-95-213.541-68.037-71.538-159.621-110.968-257.913-110.968zM110.256 691.662c-13.213-0.287-25.561-5.764-34.74-15.353s-14.078-22.187-13.746-35.441v-443.588c0-160.609 130.643-291.252 291.252-291.252 180.449 0 291.253 153.736 291.253 263.963-1.234 36.261-20.293 70.755-50.958 91.747-23.216 16.71-50.093 25.479-78.081 25.52-0.369-0.041-0.742-0.041-1.152-0.041-0.328 0-0.701 0-1.070 0.041h-139.864c-26.053-0.578-47.252-21.896-47.831-48.527-0.287-13.254 4.567-25.848 13.746-35.441s21.527-15.025 34.781-15.353h139.988c17.247 0 31.116-13.829 31.116-30.87s-13.829-30.87-30.87-30.87c-34.781-0.041-67.463-13.623-92.078-38.237s-38.156-57.296-38.115-91.995c0-8.232-3.21-16.013-9.015-21.855-5.846-5.846-13.582-9.056-21.814-9.056-17.042 0-30.87 13.829-30.911 30.87-0.041 48.776 18.481 95.124 50.958 130.273-30.295 0.701-58.121 12.885-78.701 34.412-7.449 7.781-13.664 16.464-18.522 25.848-1.111-0.041-2.263-0.041-3.374-0.041-18.932 0-37.786 4.94-54.496 14.324-26.012 14.611-44.744 38.444-52.809 67.132-2.759 9.798-4.157 19.879-4.157 30.046 0 0 0.041 344.431 0 345.214-0.578 27.208-22.474 48.527-49.805 48.527h-0.988zM272.634 486.763c-27.332 0-49.187-21.322-49.805-48.568v-140.235c0-4.526 0.619-9.015 1.853-13.377 3.579-12.844 11.979-23.503 23.585-30.005 4.94-2.759 10.331-4.694 15.845-5.639 3.747 36.757 25.602 69.315 58.038 86.767v103.19c-0.619 26.053-21.896 47.252-48.527 47.831l-0.988 0.041zM544.954 346.694c30.169-4.653 58.9-16.423 83.886-34.454 5.35-3.665 10.495-7.654 15.435-11.938v420.373c0.619 27.906-21.158 50.876-48.527 51.491h-0.947c-26.877 0-49.228-21.773-49.805-48.568-0.082-0.742-0.041-376.908-0.041-376.908zM433.697 486.763c-26.878 0-49.229-21.773-49.805-48.568v-89.195h99.322v89.896c-0.578 26.053-21.896 47.252-48.527 47.831l-0.988 0.041z" />
<glyph unicode="&#xe901;" glyph-name="alert-triangle" horiz-adv-x="1163" d="M490.049 771.547l-465.305-805.321c-0.026-0.045-0.051-0.089-0.077-0.134-18.546-31.601-17.905-70.304 1.612-101.314 19.365-30.763 53.853-48.676 90.042-48.68h930.602c36.189 0.004 70.676 17.916 90.040 48.68 19.515 31.008 20.157 69.714 1.613 101.319-0.027 0.040-0.053 0.085-0.080 0.129l-465.303 805.32c-18.992 32.23-54.354 51.182-91.568 51.182s-72.578-18.948-91.568-51.182zM116.316-116.795c-14.469 0-26.864 7.185-33.244 17.324-6.2 9.854-6.359 21.689-0.498 31.641l465.295 805.308c0.022 0.034 0.040 0.067 0.062 0.101zM547.929 737.578c6.227 10.484 18.834 18.041 33.69 18.041s27.462-7.552 33.69-18.041c0.022-0.034 0.040-0.067 0.062-0.101l465.294-805.308c5.862-9.952 5.702-21.787-0.499-31.641-6.379-10.139-18.776-17.324-33.244-17.324 0.004 0 0 0 0 0h-930.598zM581.617 84.543c-26.344 0-51.45-20.527-51.45-50.332s25.107-50.332 51.45-50.332c26.344 0 51.45 20.527 51.45 50.332s-25.107 50.332-51.45 50.332zM581.617 520.756c18.531 0 33.556-15.025 33.556-33.556v-301.993c0-18.531-15.025-33.556-33.556-33.556s-33.556 15.025-33.556 33.556v301.993c0 18.531 15.025 33.556 33.556 33.556z" />
<glyph unicode="&#xe902;" glyph-name="check-circle" d="M1008.443 817.136c12.592-10.495 14.292-29.212 3.797-41.807l-456.15-547.269c-18.683-22.414-46.702-34.899-75.858-33.811-29.155 1.084-56.166 15.62-73.126 39.358l-139.229 194.833c-9.53 13.338-6.444 31.877 6.894 41.407s31.877 6.444 41.407-6.893l139.228-194.833c6.269-8.773 16.255-14.15 27.038-14.552 10.781-0.398 21.14 4.214 28.043 12.498 0 0 0-0.004 0 0l456.15 547.268c10.495 12.591 29.211 14.293 41.807 3.798zM121.422 592.562c151.233 179.123 410.91 220.431 610.29 97.087 13.941-8.623 18.25-26.917 9.623-40.861s-26.919-18.252-40.861-9.624c-174.359 107.865-401.448 71.739-533.695-84.899-132.245-156.632-129.724-386.477 5.924-540.176s363.478-184.843 535.425-73.181 236.092 332.396 150.763 518.763c-6.829 14.907-0.272 32.523 14.63 39.344s32.522 0.272 39.342-14.63c97.586-213.143 24.223-465.58-172.403-593.264s-457.147-92.078-612.271 83.691c-155.126 175.767-158.010 438.63-6.775 617.756z" />
<glyph unicode="&#xe903;" glyph-name="grid" d="M96.376 583.154c-53.157 0-96.376 43.218-96.376 96.376v64.252c0 53.157 43.219 96.376 96.376 96.376h64.252c53.158 0 96.376-43.219 96.376-96.376v-64.252c0-53.158-43.218-96.376-96.376-96.376h-64.252zM96.376 775.906c-17.732 0-32.124-14.392-32.124-32.124v-64.252c0-17.732 14.392-32.124 32.124-32.124h64.252c17.732 0 32.124 14.392 32.124 32.124v64.252c0 17.732-14.392 32.124-32.124 32.124h-64.252zM481.88 583.065c-53.158 0-96.376 43.218-96.376 96.376v64.252c0 53.157 43.218 96.376 96.376 96.376h64.252c53.158 0 96.376-43.219 96.376-96.376v-64.252c0-53.158-43.218-96.376-96.376-96.376h-64.252zM481.88 775.817c-17.732 0-32.124-14.392-32.124-32.124v-64.252c0-17.732 14.392-32.124 32.124-32.124h64.252c17.732 0 32.124 14.392 32.124 32.124v64.252c0 17.732-14.392 32.124-32.124 32.124h-64.252zM867.383 583.065c-53.156 0-96.376 43.218-96.376 96.376v64.252c0 53.157 43.22 96.376 96.376 96.376h64.252c53.156 0 96.376-43.219 96.376-96.376v-64.252c0-53.158-43.22-96.376-96.376-96.376h-64.252zM867.383 775.817c-17.732 0-32.124-14.392-32.124-32.124v-64.252c0-17.732 14.392-32.124 32.124-32.124h64.252c17.732 0 32.124 14.392 32.124 32.124v64.252c0 17.732-14.392 32.124-32.124 32.124h-64.252zM96.376 197.561c-53.157 0-96.376 43.218-96.376 96.376v64.252c0 53.158 43.219 96.376 96.376 96.376h64.252c53.158 0 96.376-43.218 96.376-96.376v-64.252c0-53.158-160.627-96.376-160.627-96.376zM96.376 390.312c-17.732 0-32.124-14.392-32.124-32.124v-64.252c0-17.732 14.392-32.124 32.124-32.124h64.252c17.732 0 32.124 14.392 32.124 32.124v64.252c0 17.732-14.392 32.124-32.124 32.124h-64.252zM481.88 197.561c-53.158 0-96.376 43.218-96.376 96.376v64.252c0 53.158 43.218 96.376 96.376 96.376h64.252c53.158 0 96.376-43.218 96.376-96.376v-64.252c0-53.158-43.218-96.376-96.376-96.376h-64.252zM481.88 390.312c-17.732 0-32.124-14.392-32.124-32.124v-64.252c0-17.732 14.392-32.124 32.124-32.124h64.252c17.732 0 32.124 14.392 32.124 32.124v64.252c0 17.732-14.392 32.124-32.124 32.124h-64.252zM867.383 197.561c-53.156 0-96.376 43.218-96.376 96.376v64.252c0 53.158 43.22 96.376 96.376 96.376h64.252c53.156 0 96.376-43.218 96.376-96.376v-64.252c0-53.158-43.22-96.376-96.376-96.376h-64.252zM867.383 390.312c-17.732 0-32.124-14.392-32.124-32.124v-64.252c0-17.732 14.392-32.124 32.124-32.124h64.252c17.732 0 32.124 14.392 32.124 32.124v64.252c0 17.732-14.392 32.124-32.124 32.124h-64.252zM96.376-187.944c-53.157 0-96.376 43.22-96.376 96.376v64.252c0 53.156 43.219 96.376 96.376 96.376h64.252c53.158 0 96.376-43.22 96.376-96.376v-64.252c0-53.156-43.218-96.376-96.376-96.376h-64.252zM96.376 4.808c-17.732 0-32.124-14.392-32.124-32.124v-64.252c0-17.732 14.392-32.124 32.124-32.124h64.252c17.732 0 32.124 14.392 32.124 32.124v64.252c0 17.732-14.392 32.124-32.124 32.124h-64.252zM481.88-187.944c-53.158 0-96.376 43.22-96.376 96.376v64.252c0 53.156 43.218 96.376 96.376 96.376h64.252c53.158 0 96.376-43.22 96.376-96.376v-64.252c0-53.156-43.218-96.376-96.376-96.376h-64.252zM481.88 4.808c-17.732 0-32.124-14.392-32.124-32.124v-64.252c0-17.732 14.392-32.124 32.124-32.124h64.252c17.732 0 32.124 14.392 32.124 32.124v64.252c0 17.732-14.392 32.124-32.124 32.124h-64.252zM867.383-187.944c-53.156 0-96.376 43.22-96.376 96.376v64.252c0 53.156 43.22 96.376 96.376 96.376h64.252c53.156 0 96.376-43.22 96.376-96.376v-64.252c0-53.156-43.22-96.376-96.376-96.376h-64.252zM867.383 4.808c-17.732 0-32.124-14.392-32.124-32.124v-64.252c0-17.732 14.392-32.124 32.124-32.124h64.252c17.732 0 32.124 14.392 32.124 32.124v64.252c0 17.732-14.392 32.124-32.124 32.124h-64.252z" />
<glyph unicode="&#xe904;" glyph-name="pencil" d="M31.984-195.103c-8.488 0-16.763 3.428-22.766 9.432-7.976 7.976-11.191 19.764-8.403 30.699l75.89 296.056c0.256 0.944 0.901 2.703 1.285 3.604 0.043 0.171 0.299 0.858 0.645 1.589 1.759 3.86 3.86 6.99 6.473 9.56l622.812 622.811c35.372 35.546 82.535 55.139 132.828 55.267 50.506 0 97.627-19.466 133.173-54.837l1.242-1.242c35.199-36.058 54.196-83.521 53.636-133.815-0.602-50.293-20.665-97.286-56.595-132.357l-621.441-621.44c-2.66-2.66-5.875-4.846-9.906-6.601-2.058-0.901-3.343-1.413-4.761-1.802l-296.184-75.975c-2.618-0.645-5.273-0.944-7.933-0.944zM76.619-118.312l189.081 48.491-140.674 140.418-48.406-188.909zM328.212-41.35l558.242 558.241-174.675 174.675-558.37-558.412 174.804-174.503zM931.857 562.424c44.204 48.235 43.517 123.139-2.527 170.302l-0.858 0.858c-23.326 23.198-54.366 36.015-87.337 36.015h-0.043c-31.472-0.085-60.924-11.618-83.78-32.672l174.546-174.503z" />
<glyph unicode="&#xe905;" glyph-name="feedback" d="M225.097-195.103c-4.974 0-9.949 1.157-14.406 3.386-10.935 5.486-17.749 16.507-17.749 28.769v160.784h-96.47c-53.209 0-96.47 43.261-96.47 96.47v643.134c0 53.209 43.261 96.47 96.47 96.47h836.074c53.209 0 96.47-43.261 96.47-96.47v-643.134c0-53.209-43.261-96.47-96.47-96.47h-439.475l-248.679-186.509c-5.529-4.159-12.391-6.43-19.295-6.43zM96.47 769.6c-17.749 0-32.155-14.406-32.155-32.155v-643.134c0-17.749 14.406-32.155 32.155-32.155h128.626c17.749 0 32.155-14.406 32.155-32.155v-128.626l205.803 154.352c5.529 4.159 12.391 6.43 19.295 6.43h450.194c17.749 0 32.155 14.406 32.155 32.155v643.134c0 17.749-14.406 32.155-32.155 32.155h-836.074zM413.022 490.906c-12.348 0-23.411 6.904-28.855 17.965-7.502 15.264-20.495 26.711-36.617 32.198-6.691 2.271-13.633 3.428-20.623 3.428-9.731 0-19.124-2.229-27.996-6.558-12.561-6.174-22.894-16.464-29.068-29.068-5.444-11.063-16.507-17.965-28.855-17.965-4.889 0-9.778 1.114-14.193 3.3-15.907 7.805-22.467 27.095-14.662 43.047 12.433 25.298 33.184 46.049 58.44 58.44 17.792 8.749 36.745 13.164 56.339 13.164 14.065 0 27.996-2.314 41.416-6.904 32.372-11.020 58.482-34 73.532-64.699 7.805-15.907 1.242-35.199-14.661-43.047-4.372-2.186-9.304-3.3-14.193-3.3zM626.627 490.906c-4.889 0-9.821 1.157-14.193 3.3-7.672 3.775-13.462 10.333-16.251 18.479s-2.229 16.848 1.589 24.568c12.433 25.298 33.184 46.006 58.44 58.44 17.792 8.749 36.745 13.164 56.339 13.164 14.065 0 27.996-2.314 41.416-6.904 32.372-11.020 58.482-34 73.533-64.699 3.775-7.72 4.329-16.421 1.589-24.568-2.788-8.147-8.531-14.705-16.251-18.479-4.415-2.186-9.304-3.3-14.193-3.3-12.348 0-23.411 6.904-28.855 18.010-7.502 15.222-20.495 26.669-36.617 32.155-6.691 2.271-13.633 3.428-20.623 3.428-9.731 0-19.167-2.229-28.039-6.558-12.561-6.174-22.894-16.507-29.068-29.068-5.401-11.106-16.464-17.965-28.812-17.965zM519.825 190.349c-69.287 0-135.959 25.981-187.667 73.144-13.078 11.964-14.022 32.329-2.101 45.404 6.089 6.691 14.747 10.503 23.752 10.503 8.061 0 15.734-3.002 21.652-8.403 39.79-36.314 91.069-56.296 144.363-56.296s104.531 20.023 144.363 56.296c5.918 5.401 13.59 8.403 21.652 8.403 9.005 0 17.664-3.817 23.752-10.503 5.79-6.345 8.792-14.577 8.36-23.155-0.384-8.573-4.116-16.507-10.461-22.297-51.706-47.121-118.379-73.102-187.667-73.102z" />
<glyph unicode="&#xe906;" glyph-name="tree" d="M523.813-184.383c-17.749 0-32.155 14.406-32.155 32.155v96.47h-255.839c-14.363 0-28.428 4.846-39.662 13.633-13.505 10.546-22.081 25.768-24.184 42.791-2.101 17.066 2.575 33.872 13.121 47.377l144.405 185.609c-13.334 0.299-26.498 4.846-37.172 12.819-13.718 10.29-22.638 25.341-25.037 42.36-2.442 17.024 1.887 33.957 12.22 47.677l115.765 154.352h-4.287c-13.164 0.043-25.037 3.647-35.802 10.807-14.278 9.517-24.008 24.051-27.399 40.904s0 34 9.56 48.278l132.915 199.286c4.718 7.075 10.674 13.035 17.749 17.749 10.631 7.118 22.979 10.85 35.716 10.85 21.609 0 41.633-10.674 53.593-28.598l132.915-199.328c7.075-10.589 10.807-22.894 10.807-35.674 0-35.459-28.855-64.315-64.315-64.315h-4.287l115.765-154.352c8.232-11.020 12.775-24.653 12.819-38.372 0.085-35.071-27.996-63.713-62.854-64.528l144.363-185.652c8.792-11.276 13.59-25.341 13.548-39.662-0.043-17.152-6.734-33.269-18.906-45.404-12.135-12.049-28.212-18.735-45.319-18.735h-255.882v-96.342c0-17.749-14.406-32.155-32.155-32.155zM395.227 297.967c12.177 0 23.539-7.075 28.897-18.010 5.359-10.978 3.988-24.269-3.514-33.872l-184.793-237.531c0 0 575.99 0.043 576.034 0.043l-184.793 237.488c-7.502 9.645-8.877 22.937-3.514 33.872s16.72 18.010 28.897 18.010h64.315l-154.352 205.803c-7.331 9.821-8.488 22.723-3.044 33.658s16.507 17.792 28.769 17.792h68.602l-132.915 199.286-132.958-199.328h68.687c12.263 0 23.283-6.819 28.769-17.749 5.486-10.978 4.329-23.88-3.044-33.701l-154.352-205.803 64.315 0.043z" />
<glyph unicode="&#xe907;" glyph-name="pet" d="M514.85-195.103c-71.987 0-136.988 21.865-193.283 64.998-1.802 1.114-3.471 2.399-4.974 3.817-94.156 75.032-156.024 205.417-178.92 377.134-2.357 17.578 10.034 33.786 27.612 36.143 1.498 0.213 2.874 0.299 4.244 0.299 16.037 0 29.756-12.007 31.856-27.911 19.722-147.792 69.887-260.426 145.263-326.499 50.721 18.223 92.783 70.403 116.192 105.088-46.092 14.877-76.62 49.093-76.62 88.494 0 54.11 56.51 96.47 128.626 96.47s128.626-42.36 128.626-96.47c0-39.401-30.529-73.619-76.62-88.451 23.454-34.687 65.515-86.91 116.149-105.131 75.419 66.070 125.583 178.662 145.263 326.455 2.143 15.907 15.819 27.911 31.899 27.911 1.37 0 2.788-0.085 4.201-0.256 17.621-2.357 30.012-18.565 27.698-36.143-22.979-172.36-85.236-303.045-179.992-377.906-0.858-0.73-1.717-1.37-2.66-2.015-56.552-43.82-121.982-66.027-194.569-66.027zM408.776-107.808c32.843-15.264 68.388-22.979 106.073-22.979s73.273 7.72 106.073 22.979c-46.518 28.983-82.794 73.403-106.073 107.618-23.283-34.213-59.554-78.592-106.073-107.618zM514.85 158.621c-36.228 0-64.315-17.28-64.315-32.155s28.082-32.155 64.315-32.155c36.228 0 64.315 17.28 64.315 32.155s-28.082 32.155-64.315 32.155zM877.578 349.284c-16.251 0-32.416 4.201-46.779 12.22-16.464 9.176-29.756 22.809-38.503 39.488-43.346 80.008-78.376 165.116-104.059 252.754-0.043 0.213-0.256 0.986-0.299 1.157-3.988 15.776-4.932 31.942-2.746 48.15-47.206 41.288-107.060 63.969-169.53 63.969-2.314 0-4.676-0.043-7.032-0.085-63.67-1.546-123.782-26.109-170.173-69.417 1.285-14.278 0.128-28.599-3.428-42.706-0.043-0.213-0.256-0.986-0.341-1.2-25.64-87.55-60.711-172.746-104.231-253.053-8.573-16.379-21.865-29.969-38.329-39.102-14.363-7.976-30.529-12.22-46.779-12.22-8.92 0-17.877 1.242-26.583 3.732-24.781 7.075-45.319 23.368-57.837 45.878-46.518 82.623-90.253 200.745-34.17 294.213 31.814 58.997 88.323 102.473 154.61 118.68 9.688 2.186 19.338 3.258 28.983 3.258 10.631 0 21.225-1.328 31.472-3.903 29.414-7.416 55.054-25.037 72.632-49.477 54.665 43.303 122.365 67.871 192.553 69.588 2.831 0.085 5.662 0.128 8.488 0.128 70.702 0 139.432-23.454 195.47-66.33 17.493 22.851 41.848 38.974 70.143 46.134 10.29 2.618 20.879 3.903 31.558 3.903 9.602 0 19.21-1.072 28.471-3.172 66.672-16.293 123.352-60.069 155.768-120.052 55.438-92.311 11.575-210.39-34.986-293.099-12.476-22.382-32.971-38.675-57.752-45.707-8.701-2.485-17.621-3.732-26.583-3.732zM812.75 750.729c-5.358 0-10.717-0.645-15.862-1.973-34.256-8.659-55.225-43.648-46.648-77.948 24.227-82.535 57.539-163.399 98.828-239.632 3.087-5.875 7.544-10.461 13.036-13.505 4.804-2.66 10.205-4.073 15.563-4.073 3.002 0 5.961 0.427 8.877 1.242 8.275 2.357 15.136 7.805 19.295 15.307 38.286 67.957 75.419 162.885 35.242 229.856-24.397 45.063-66.027 77.39-114.651 89.267-4.244 0.944-8.92 1.456-13.676 1.456zM210.263 750.729c-4.804 0-9.56-0.517-14.193-1.589-48.192-11.79-89.652-43.863-113.449-87.897-40.819-68.128-3.775-163.142 34.43-230.971 4.244-7.63 11.106-13.078 19.38-15.435 2.959-0.858 5.918-1.285 8.92-1.285 5.358 0 10.76 1.413 15.563 4.073 5.486 3.044 9.949 7.587 12.865 13.164 41.459 76.577 74.818 157.482 99.172 240.618 3.945 15.952 1.413 33.184-7.374 47.894-8.834 14.79-22.851 25.256-39.532 29.457-5.102 1.285-10.418 1.973-15.776 1.973zM370.144 351.562c-1.887 0-3.775 0.171-5.614 0.517-21.993 2.575-39.532 20.153-42.104 42.104-0.341 1.845-0.517 3.732-0.517 5.614s0.171 3.775 0.517 5.614c2.575 21.993 20.153 39.532 42.104 42.104 1.845 0.341 3.732 0.517 5.614 0.517s3.775-0.171 5.614-0.517c21.993-2.575 39.532-20.153 42.104-42.104 0.341-1.845 0.517-3.732 0.517-5.614s-0.171-3.775-0.517-5.614c-2.575-21.993-20.153-39.532-42.104-42.104-1.845-0.341-3.732-0.517-5.614-0.517zM659.555 351.562c-1.887 0-3.775 0.171-5.614 0.469-21.993 2.575-39.532 20.153-42.146 42.146-0.299 1.802-0.469 3.689-0.469 5.572s0.171 3.775 0.469 5.572c2.575 21.993 20.153 39.575 42.146 42.146 1.845 0.384 3.732 0.56 5.614 0.56s3.775-0.171 5.614-0.469c21.993-2.575 39.532-20.153 42.104-42.146 0.341-1.802 0.469-3.689 0.469-5.572s-0.171-3.775-0.469-5.572c-2.575-21.993-20.111-39.575-42.104-42.146-1.845-0.384-3.732-0.56-5.614-0.56z" />
<glyph unicode="&#xe908;" glyph-name="byob" d="M289.411-195.103c-53.209 0-96.47 43.261-96.47 96.47v487.882c0 25.768 10.034 49.952 28.212 68.172l100.415 100.415v211.763c0 35.459 28.855 64.315 64.315 64.315h64.315c35.459 0 64.315-28.855 64.315-64.315v-211.763l100.373-100.373c6.089-6.046 9.432-14.15 9.432-22.723s-3.343-16.677-9.432-22.723c-6.089-6.046-14.15-9.432-22.723-9.432s-16.677 3.343-22.723 9.432l-109.804 109.762c-6.089 6.089-9.432 14.15-9.432 22.723v64.315h-64.315v-64.315c0-8.573-3.343-16.677-9.432-22.723l-109.804-109.804c-6.046-6.089-9.389-14.15-9.389-22.723v-487.882c0-17.749 14.406-32.155 32.155-32.155h160.784c17.749 0 32.155-14.406 32.155-32.155s-14.406-32.155-32.155-32.155h-160.784zM450.194 673.13v96.47h-64.315v-96.47h64.315zM578.821-195.103c-17.749 0-32.155 14.406-32.155 32.155s14.406 32.155 32.155 32.155h64.315v134.844c-74.26 15.008-128.626 80.347-128.626 157.482v157.869c0 17.749 14.406 32.155 32.155 32.155h257.253c17.749 0 32.155-14.406 32.155-32.155v-157.869c0-77.132-54.366-142.476-128.626-157.482v-134.844h64.315c17.749 0 32.155-14.406 32.155-32.155s-14.406-32.155-32.155-32.155h-192.94zM578.821 161.537c0-53.209 43.261-96.47 96.47-96.47s96.47 43.261 96.47 96.47v125.712h-192.94v-125.712z" />
<glyph unicode="&#xe909;" glyph-name="media" d="M849.366 694.568h-669.716c-47.645 0-93.34-18.925-127.032-52.616s-52.616-79.384-52.616-127.032v-391.025c0-47.646 18.925-93.34 52.616-127.033s79.384-52.616 127.032-52.616h669.716c23.59 0 46.954 4.65 68.747 13.671 21.797 9.031 41.603 22.263 58.286 38.944s29.914 36.488 38.944 58.286c9.026 21.792 13.671 45.157 13.671 68.747v391.025c0 23.592-4.65 46.954-13.671 68.748-9.031 21.795-22.263 41.602-38.944 58.284s-36.488 29.914-58.286 38.943c-21.792 9.029-45.157 13.673-68.747 13.673zM964.7 123.891c0-15.149-2.985-30.144-8.783-44.136-5.794-13.996-14.291-26.707-24.999-37.417s-23.424-19.205-37.417-24.999c-13.992-5.799-28.987-8.783-44.136-8.783h-669.716c-30.59 0-59.924 12.152-81.554 33.782s-33.781 50.968-33.781 81.553v391.025c0 30.59 12.152 59.924 33.781 81.554s50.967 33.781 81.554 33.781h669.716c15.149 0 30.144-2.984 44.136-8.781 13.996-5.798 26.707-14.292 37.417-25s19.21-23.426 24.999-37.417c5.799-13.995 8.783-28.989 8.783-44.137v-391.025zM424.469 548.778c-4.852 3.059-10.431 4.766-16.165 4.941s-11.406-1.183-16.436-3.94c-5.030-2.757-9.231-6.807-12.169-11.729s-4.502-10.545-4.536-16.282v-371.301c0.034-5.739 1.603-11.357 4.536-16.285s7.139-8.975 12.169-11.729c5.030-2.758 10.702-4.116 16.436-3.941s11.313 1.883 16.165 4.944l290.267 185.652c4.513 2.912 8.223 6.913 10.793 11.63 2.575 4.718 3.92 10.004 3.92 15.38 0 5.371-1.345 10.657-3.92 15.375-2.57 4.723-6.276 8.72-10.793 11.635l-290.267 185.65zM439.475 209.206v253.822l198.514-128.624-198.514-125.197z" />
<glyph unicode="&#xe90a;" glyph-name="concert" d="M144.705 480.188c-79.793 0-144.705 64.912-144.705 144.705s64.912 144.705 144.705 144.705c79.793 0 144.705-64.912 144.705-144.705s-64.912-144.705-144.705-144.705zM144.705 705.285c-44.332 0-80.391-36.058-80.391-80.391s36.058-80.391 80.391-80.391c44.332 0 80.391 36.058 80.391 80.391s-36.058 80.391-80.391 80.391zM884.31 480.188c-79.793 0-144.705 64.912-144.705 144.705s64.912 144.705 144.705 144.705c79.793 0 144.705-64.912 144.705-144.705s-64.912-144.705-144.705-144.705zM884.31 705.285c-44.332 0-80.391-36.058-80.391-80.391s36.058-80.391 80.391-80.391c44.332 0 80.391 36.058 80.391 80.391s-36.058 80.391-80.391 80.391zM716.648 319.448c-9.731 0-18.863 4.329-24.995 11.921-43.431 53.636-108.089 84.421-177.42 84.421-52.010 0-102.856-18.010-143.246-50.677-12.348-10.034-23.71-21.353-33.701-33.701-6.131-7.587-15.264-11.921-24.995-11.921-7.331 0-14.534 2.527-20.239 7.16-12.22 9.906-15.264 26.967-8.019 40.344-28.385 49.392-82.192 80.864-139.688 80.864-21.652 0-42.791-4.372-62.854-12.95-10.76-4.633-21.097-10.418-30.614-17.28-5.486-3.945-11.964-6.046-18.735-6.046-10.333 0-20.111 5.017-26.109 13.377-5.017 6.99-7.032 15.478-5.662 23.966s6.003 15.907 12.993 20.921c13.334 9.56 27.74 17.706 42.834 24.184 28.343 12.135 58.098 18.266 88.537 18.266 28.641 0 56.808-5.486 83.737-16.251 41.848-16.763 76.663-44.678 101.7-81.334 0.128 0.128 0.256 0.213 0.384 0.341 52.65 42.662 116.062 65.171 183.335 65.171 10.333 0 20.836-0.56 31.169-1.631 57.155-6.003 109.932-27.954 153.795-63.798 25.037 36.617 59.853 64.528 101.658 81.291 26.925 10.76 55.097 16.251 83.737 16.251 30.443 0 60.199-6.131 88.537-18.266 15.094-6.473 29.5-14.577 42.834-24.184 14.406-10.375 17.664-30.486 7.331-44.892-6.046-8.403-15.819-13.42-26.154-13.42-6.776 0-13.249 2.101-18.778 6.046-9.517 6.862-19.807 12.647-30.614 17.28-20.239 8.659-41.502 13.078-63.2 13.078-20.452 0-40.561-3.903-59.853-11.618-33.616-13.462-61.569-37.902-79.491-69.331 3.13-5.662 4.415-12.177 3.732-18.778-0.901-8.531-5.060-16.208-11.746-21.609-5.705-4.676-12.865-7.203-20.196-7.203zM514.506 480.188c-97.542 0-176.862 79.318-176.862 176.862s79.318 176.862 176.862 176.862c97.499 0 176.862-79.318 176.862-176.862s-79.362-176.862-176.862-176.862zM514.506 769.6c-62.041 0-112.549-50.506-112.549-112.549s50.464-112.549 112.549-112.549c62.084 0 112.549 50.506 112.549 112.549s-50.506 112.549-112.549 112.549zM305.488-195.107c-62.084 0-112.549 50.464-112.549 112.549s50.506 112.549 112.549 112.549c16.805 0 33.269-3.775 48.235-10.935v118.122c0 41.59 26.541 78.376 65.984 91.538l194.484 54.068c8.834 2.959 18.821 4.585 28.983 4.585 41.546 0 78.332-26.583 91.496-66.114 3.3-9.821 4.932-20.111 4.932-30.486v-209.019c0-62.084-50.464-112.549-112.549-112.549s-112.549 50.464-112.549 112.549c0 62.084 50.464 112.549 112.549 112.549 16.805 0 33.269-3.775 48.235-10.935v107.404c0 3.471-0.56 6.862-1.631 10.119-4.372 13.206-16.677 22.037-30.571 22.037-3.428 0-6.862-0.56-10.162-1.631l-194.441-54.068c-11.703-3.945-20.452-16.379-20.452-30.012v-219.738c0-62.127-50.506-112.593-112.549-112.593zM305.488-34.323c-26.626 0-48.235-21.652-48.235-48.235s21.609-48.235 48.235-48.235c26.626 0 48.235 21.652 48.235 48.235s-21.652 48.235-48.235 48.235zM627.056 29.99c-26.583 0-48.235-21.652-48.235-48.235s21.609-48.235 48.235-48.235c26.626 0 48.235 21.652 48.235 48.235s-21.652 48.235-48.235 48.235z" />
<glyph unicode="&#xe90b;" glyph-name="fan-experience" d="M225.097 383.718c-35.459 0-64.315 28.855-64.315 64.315v96.47c0 17.749 14.406 32.155 32.155 32.155s32.155 14.406 32.155 32.155c0 17.749-14.406 32.155-32.155 32.155s-32.155 14.406-32.155 32.155v96.47c0 35.459 28.855 64.315 64.315 64.315h578.821c35.459 0 64.315-28.855 64.315-64.315v-96.47c0-17.749-14.406-32.155-32.155-32.155s-32.155-14.406-32.155-32.155c0-17.749 14.406-32.155 32.155-32.155s32.155-14.406 32.155-32.155v-96.47c0-35.459-28.855-64.315-64.315-64.315h-578.821zM225.097 448.032h578.821v69.844c-37.945 13.462-64.315 49.823-64.315 90.94s26.37 77.519 64.315 90.94v69.844h-578.821v-69.844c37.945-13.462 64.315-49.823 64.315-90.94 0-41.16-26.37-77.519-64.315-90.94v-69.844zM385.88 512.345c-17.749 0-32.155 14.406-32.155 32.155v128.626c0 17.749 14.406 32.155 32.155 32.155s32.155-14.406 32.155-32.155v-128.626c0-17.749-14.406-32.155-32.155-32.155zM836.074 29.994c-70.916 0-128.626 57.709-128.626 128.626s57.709 128.626 128.626 128.626c70.916 0 128.626-57.709 128.626-128.626s-57.709-128.626-128.626-128.626zM836.074 222.934c-35.459 0-64.315-28.855-64.315-64.315s28.855-64.315 64.315-64.315c35.459 0 64.315 28.855 64.315 64.315s-28.855 64.315-64.315 64.315zM996.859-195.103c-17.749 0-32.155 14.406-32.155 32.155 0 70.916-57.709 128.626-128.626 128.626s-128.626-57.709-128.626-128.626c0-17.749-14.406-32.155-32.155-32.155s-32.155 14.406-32.155 32.155c0 70.916-57.709 128.626-128.626 128.626s-128.626-57.709-128.626-128.626c0-17.749-14.406-32.155-32.155-32.155s-32.155 14.406-32.155 32.155c0 70.916-57.709 128.626-128.626 128.626s-128.626-57.709-128.626-128.626c0-17.749-14.406-32.155-32.155-32.155s-32.155 14.406-32.155 32.155c0 106.375 86.565 192.94 192.94 192.94 65.041 0 125.367-33.227 160.784-86.694 35.416 53.465 95.74 86.694 160.784 86.694s125.367-33.227 160.784-86.694c35.416 53.465 95.74 86.694 160.784 86.694 106.375 0 192.94-86.565 192.94-192.94 0-17.749-14.406-32.155-32.155-32.155zM514.506 29.994c-70.916 0-128.626 57.709-128.626 128.626s57.709 128.626 128.626 128.626c70.916 0 128.626-57.709 128.626-128.626s-57.709-128.626-128.626-128.626zM514.506 222.934c-35.459 0-64.315-28.855-64.315-64.315s28.855-64.315 64.315-64.315c35.459 0 64.315 28.855 64.315 64.315s-28.855 64.315-64.315 64.315zM192.94 29.994c-70.916 0-128.626 57.709-128.626 128.626s57.709 128.626 128.626 128.626c70.916 0 128.626-57.709 128.626-128.626s-57.709-128.626-128.626-128.626zM192.94 222.934c-35.459 0-64.315-28.855-64.315-64.315s28.855-64.315 64.315-64.315c35.459 0 64.315 28.855 64.315 64.315s-28.855 64.315-64.315 64.315z" />
<glyph unicode="&#xe90c;" glyph-name="event-set-up" d="M96.47-195.103c-53.209 0-96.47 43.261-96.47 96.47v64.315c0 0.602 0.043 1.285 0.128 1.887 0.043 0.341 0.085 0.688 0.085 0.901 0.085 1.413 0.384 3.471 0.944 5.444 0.171 0.688 0.384 1.37 0.645 2.058 0.602 1.759 1.328 3.386 2.143 4.932 0.299 0.645 0.645 1.285 0.944 1.802l141.875 227.026c17.749 28.428 48.32 45.361 81.808 45.361h571.874c33.488 0 64.055-16.981 81.808-45.361l141.875-227.026c0.341-0.56 0.688-1.242 0.986-1.887 0.773-1.456 1.498-3.044 2.058-4.761l0.56-1.759c0.645-2.399 0.986-4.457 1.114-6.515 0.128-0.645 0.171-1.413 0.171-2.101v-64.315c0-53.209-43.261-96.47-96.47-96.47h-836.074zM64.315-98.633c0-17.749 14.406-32.155 32.155-32.155h836.074c17.749 0 32.155 14.406 32.155 32.155v32.155h-900.388v-32.155zM938.847-2.162l-111.133 177.805c-5.918 9.474-16.123 15.136-27.271 15.136h-571.874c-11.148 0-21.353-5.662-27.271-15.136l-111.133-177.805h848.68zM482.351 62.151c-17.749 0-32.155 14.406-32.155 32.155s14.406 32.155 32.155 32.155h64.315c17.749 0 32.155-14.406 32.155-32.155s-14.406-32.155-32.155-32.155h-64.315zM289.412 29.994c-4.932 0-9.906 1.157-14.363 3.386-15.862 7.933-22.297 27.271-14.406 43.133l32.155 64.315c5.486 10.978 16.507 17.749 28.812 17.749 4.932 0 9.906-1.157 14.321-3.386 15.862-7.976 22.339-27.314 14.406-43.133l-32.155-64.315c-5.486-10.935-16.507-17.749-28.769-17.749zM739.604 29.994c-12.263 0-23.283 6.819-28.769 17.792l-32.155 64.315c-7.933 15.862-1.456 35.199 14.363 43.133 4.5 2.229 9.432 3.386 14.363 3.386 12.263 0 23.283-6.819 28.769-17.749l32.155-64.315c7.933-15.862 1.456-35.199-14.363-43.133-4.457-2.271-9.432-3.428-14.363-3.428zM514.506 287.248c-106.375 0-192.94 86.565-192.94 192.94s86.565 192.94 192.94 192.94c106.375 0 192.94-86.565 192.94-192.94s-86.565-192.94-192.94-192.94zM514.506 608.815c-70.916 0-128.626-57.709-128.626-128.626s57.709-128.626 128.626-128.626c70.916 0 128.626 57.709 128.626 128.626s-57.709 128.626-128.626 128.626zM771.761 319.405c-17.749 0-32.155 14.406-32.155 32.155v192.94c0 124.125-100.972 225.097-225.097 225.097s-225.097-100.972-225.097-225.097v-192.94c0-17.749-14.406-32.155-32.155-32.155-88.667 0-160.784 72.115-160.784 160.784 0 82.277 63.969 151.737 144.833 159.84 40.302 114.693 151.051 193.884 273.204 193.884s232.9-79.19 273.16-193.884c80.864-8.104 144.876-77.563 144.876-159.84 0-88.667-72.115-160.784-160.784-160.784zM803.918 389.249c37.689 13.42 64.315 49.692 64.315 90.94s-26.626 77.519-64.315 90.94v-181.878zM225.097 571.127c-37.689-13.42-64.315-49.692-64.315-90.94s26.626-77.519 64.315-90.94v181.878z" />
<glyph unicode="&#xe90d;" glyph-name="info" horiz-adv-x="517" d="M356.724-195.103c-118.052 0-214.035 92.29-214.035 205.803v343.005h-71.345c-39.381 0-71.345 30.733-71.345 68.602s31.962 68.602 71.345 68.602h71.345c78.671 0 142.689-61.558 142.689-137.202v-343.005c0-37.868 31.962-68.602 71.345-68.602h71.345c39.38 0 71.346-30.733 71.346-68.602s-31.963-68.602-71.346-68.602h-71.345zM178.364 628.11c59.105 0 107.017 46.071 107.017 102.9s-47.915 102.9-107.017 102.9c-59.105 0-107.017-46.071-107.017-102.9s47.915-102.9 107.017-102.9z" />
<glyph unicode="&#xe90e;" glyph-name="guest-parking" d="M225.097-191.522c-70.916 0-128.626 57.709-128.626 128.626s57.709 128.626 128.626 128.626c70.916 0 128.626-57.709 128.626-128.626s-57.709-128.626-128.626-128.626zM225.097 1.418c-35.459 0-64.315-28.855-64.315-64.315s28.855-64.315 64.315-64.315c35.459 0 64.315 28.855 64.315 64.315s-28.855 64.315-64.315 64.315zM803.918-191.522c-70.916 0-128.626 57.709-128.626 128.626s57.709 128.626 128.626 128.626c70.916 0 128.626-57.709 128.626-128.626s-57.709-128.626-128.626-128.626zM803.918 1.418c-35.459 0-64.315-28.855-64.315-64.315s28.855-64.315 64.315-64.315c35.459 0 64.315 28.855 64.315 64.315s-28.855 64.315-64.315 64.315zM409.848 33.575c-10.503 0-20.409 5.145-26.413 13.804-36.015 51.75-95.142 82.664-158.211 82.664-0.171 0-0.341 0-0.56 0-65.6-0.128-127.77-31.343-166.744-83.564-6.046-8.061-15.691-12.908-25.768-12.908-3.471 0-6.904 0.56-10.162 1.631-13.164 4.372-21.993 16.677-21.993 30.529v225.097c0 0.469 0 1.029 0.043 1.546 0.085 0.901 0.171 1.887 0.299 2.874 0.171 1.072 0.299 1.973 0.517 2.874 0.171 0.773 0.427 1.674 0.73 2.575 0.384 1.114 0.688 1.973 1.029 2.788 0.171 0.469 0.384 0.986 0.602 1.37l110.19 224.968c17.834 31.387 50.080 50.378 84.55 50.421h428.799c42.834 0 80.95-28.769 92.739-69.972l42.834-122.796h170.516c53.209 0 96.47-43.261 96.47-96.47v-225.097c0-13.848-8.834-26.109-21.993-30.529-3.3-1.114-6.691-1.674-10.162-1.674-10.077 0-19.722 4.846-25.768 12.908-39.059 52.223-100.842 83.392-165.285 83.392h-2.015c-63.414 0-122.581-30.913-158.597-82.664-5.918-8.616-15.819-13.761-26.327-13.761h-209.319zM603.046 97.888c48.448 60.498 122.796 96.385 200.529 96.47 0.213 0 0.427 0 0.56 0 58.653 0 114.478-18.309 160.913-52.138v148.778c0 17.749-14.406 32.155-32.155 32.155h-190.11c-0.944-0.085-1.887-0.128-2.831-0.128-0.986 0-1.973 0.043-2.959 0.128h-74.173c-6.387 0-12.519-1.887-17.834-5.401l-64.012-42.834c-15.952-10.631-34.43-16.251-53.551-16.251h-463.099v-116.493c46.305 33.872 101.658 52.18 159.068 52.18h1.887c77.82 0 152.208-35.93 200.701-96.47h177.076zM527.371 322.985c6.345 0 12.519 1.887 17.834 5.401l64.012 42.834c15.907 10.631 34.43 16.251 53.551 16.251h31.558l-36.015 103.374c-4.457 15.35-16.981 25.080-31.472 25.080h-305.275v-192.94h205.803zM257.253 322.985v192.94h-59.17c-11.49 0-22.126-6.217-27.826-16.208l-86.565-176.733h173.56z" />
<glyph unicode="&#xe90f;" glyph-name="artist-parking" d="M514.506-195.103c-283.708 0-514.506 230.8-514.506 514.506s230.8 514.506 514.506 514.506c283.708 0 514.506-230.8 514.506-514.506s-230.8-514.506-514.506-514.506zM514.506 769.6c-248.249 0-450.194-201.944-450.194-450.194s201.944-450.194 450.194-450.194c248.249 0 450.194 201.944 450.194 450.194s-201.944 450.194-450.194 450.194zM450.194 62.151c-17.749 0-32.155 14.406-32.155 32.155v385.88c0 17.749 14.406 32.155 32.155 32.155h96.47c70.916 0 128.626-57.709 128.626-128.626s-57.709-128.626-128.626-128.626h-64.315v-160.784c0-17.749-14.406-32.155-32.155-32.155zM546.664 319.405c35.459 0 64.315 28.855 64.315 64.315s-28.855 64.315-64.315 64.315h-64.315v-128.626h64.315z" />
<glyph unicode="&#xe910;" glyph-name="disabled" d="M803.918-195.103c-17.749 0-32.155 14.406-32.155 32.155v192.94c0 41.16-26.626 77.39-64.315 90.811v-26.498c0-159.583-129.828-289.411-289.411-289.411s-289.411 129.828-289.411 289.411c0 147.963 111.82 271.488 257.253 287.61v133.728c-74.26 15.008-128.626 80.347-128.626 157.482 0 88.667 72.115 160.784 160.784 160.784s160.784-72.115 160.784-160.784c0-77.132-54.366-142.476-128.626-157.482v-131.928h225.097c17.749 0 32.155-14.406 32.155-32.155s-14.406-32.155-32.155-32.155h-225.097v-96.47c0-17.749 14.406-32.155 32.155-32.155h192.94c88.667 0 160.784-72.115 160.784-160.784v-160.784h32.155c17.749 0 32.155-14.406 32.155-32.155s-14.406-32.155-32.155-32.155h-64.315zM385.88 317.046c-109.506-15.734-192.94-110.448-192.94-222.739 0-124.125 100.972-225.097 225.097-225.097s225.097 100.972 225.097 225.097v32.155h-160.784c-53.209 0-96.47 43.261-96.47 96.47v94.113zM418.037 769.6c-53.209 0-96.47-43.261-96.47-96.47s43.261-96.47 96.47-96.47c53.209 0 96.47 43.261 96.47 96.47s-43.261 96.47-96.47 96.47z" />
<glyph unicode="&#xe911;" glyph-name="photos" d="M610.977 29.994c-141.832 0-257.253 115.421-257.253 257.253s115.421 257.253 257.253 257.253c141.832 0 257.253-115.421 257.253-257.253s-115.421-257.253-257.253-257.253zM610.977 480.188c-106.375 0-192.94-86.565-192.94-192.94s86.565-192.94 192.94-192.94c106.375 0 192.94 86.565 192.94 192.94s-86.565 192.94-192.94 192.94zM96.47-98.633c-53.209 0-96.47 43.261-96.47 96.47v514.506c0 53.209 43.261 96.47 96.47 96.47h96.47v32.155c0 17.749 14.406 32.155 32.155 32.155s32.155-14.406 32.155-32.155v-32.155h108.733l37.646 75.289c16.464 32.885 49.52 53.337 86.308 53.337h242.075c36.788 0 69.844-20.409 86.308-53.337l37.646-75.289h76.577c53.209 0 96.47-43.261 96.47-96.47v-514.506c0-53.209-43.261-96.47-96.47-96.47h-836.074zM96.47 544.501c-17.749 0-32.155-14.406-32.155-32.155v-514.506c0-17.749 14.406-32.155 32.155-32.155h836.074c17.749 0 32.155 14.406 32.155 32.155v514.506c0 17.749-14.406 32.155-32.155 32.155h-96.47c-12.263 0-23.283 6.819-28.769 17.792l-46.518 93.084c-5.486 10.935-16.507 17.749-28.769 17.749h-242.075c-12.263 0-23.283-6.819-28.769-17.792l-46.518-93.042c-5.486-10.978-16.507-17.792-28.769-17.792h-289.411zM176.862 383.718c26.64 0 48.235 21.595 48.235 48.235s-21.595 48.235-48.235 48.235c-26.64 0-48.235-21.595-48.235-48.235s21.595-48.235 48.235-48.235z" />
<glyph unicode="&#xe912;" glyph-name="reset" d="M549.117-195.103c-63.482 0-125.452 13.287-184.215 39.413-8.478 3.775-15.082 10.837-18.563 19.901s-3.481 19.073 0.046 28.137c5.362 13.774 17.828 22.651 31.765 22.651 4.535 0 8.985-0.931 13.156-2.797 50.375-22.403 103.452-33.778 157.908-33.778 106.478 0 207.454 43.337 284.368 122.020 79.203 81.086 124.168 190.458 126.599 308.019 2.425 117.561-38 228.992-113.767 313.705-78.195 87.409-183.713 135.551-297.158 135.551-106.478 0-207.408-43.238-284.136-121.826-73.934-75.646-118.625-177.173-125.867-285.958-6.416-98.048 17.19-193.545 67.011-273.993v133.343c0 20.298 15.401 36.771 34.377 36.771s34.378-16.473 34.378-36.771v-220.608c0-20.298-15.401-36.767-34.378-36.767h-10.911c-0.735-0.098-1.419-0.149-2.063-0.149-0.78 0-1.561 0.051-2.336 0.149h-190.953c-18.976 0-34.378 16.468-34.378 36.767s15.401 36.771 34.378 36.771h120.825c-57.661 88.632-87.915 195.259-85.667 304.095 0.228 11.323 0.917 23.189 2.154 37.304l0.32 3.728c0.273 3.236 0.552 6.421 0.872 9.658l0.273 2.203c13.842 117.904 65.179 227.227 144.751 308.656 90.023 92.069 208.279 142.806 332.952 142.806 63.487 0 125.501-13.188 184.22-39.218 4.581-2.010 8.612-5.050 11.917-8.826 56.198-27.059 106.341-65.004 149.104-112.805 182.933-204.479 176.198-530.051-14.987-725.704-89.747-91.822-207.638-142.417-331.9-142.417h-0.094v-0.047z" />
<glyph unicode="&#xe913;" glyph-name="arrow-up" d="M514.506-195.103c-18.932 0-34.298 14.406-34.298 32.155v887.054l-421.668-395.314c-6.447-6.046-15.094-9.389-24.241-9.389s-17.789 3.343-24.241 9.432c-6.493 6.046-10.062 14.15-10.062 22.723s3.565 16.677 10.062 22.723l480.161 450.194c3.202 3.002 6.951 5.358 11.204 6.99 0.367 0.128 0.735 0.256 1.144 0.384 3.933 1.37 7.912 2.058 11.938 2.058 4.069 0 8.095-0.688 11.938-2.058 0.32-0.085 0.641-0.213 0.961-0.299 4.436-1.717 8.185-4.073 11.434-7.118l480.112-450.151c6.494-6.046 10.064-14.15 10.064-22.723s-3.565-16.677-10.064-22.723c-6.49-6.046-15.094-9.432-24.239-9.432s-17.787 3.343-24.239 9.432l-421.669 395.314v-887.096c0-17.749-15.367-32.155-34.298-32.155z" />
<glyph unicode="&#xe914;" glyph-name="map" d="M353.723-195.099c-12.263 0-24.355 2.314-35.844 6.947l-257.253 102.896c-36.831 14.705-60.626 49.909-60.626 89.561v400.871c-0.043 8.232 1.498 16.335 4.633 24.094 9.821 24.524 33.314 40.386 59.767 40.386 8.189 0 16.208-1.546 23.838-4.585l253.524-101.269c3.817-1.498 7.848-2.271 12.007-2.314 1.114 0 2.229-0.085 3.343-0.256 0.688-0.043 2.357-0.256 3.044-0.384 1.2-0.256 2.271-0.602 3.343-0.944 0.944-0.256 1.887-0.56 2.788-0.944s1.845-0.901 2.788-1.413c0.901-0.469 1.759-0.944 2.527-1.456 0.602-0.384 1.844-1.37 2.399-1.845 0.943-0.73 1.717-1.37 2.442-2.101 0.469-0.469 1.498-1.674 1.887-2.186 0.773-0.858 1.413-1.674 2.015-2.527 0.384-0.602 1.157-1.973 1.498-2.618 0.56-0.901 1.072-1.93 1.498-2.959 0.256-0.645 0.773-2.186 0.944-2.831 0.341-1.029 0.687-2.101 0.901-3.215 0.128-0.688 0.342-2.314 0.384-3.044 0.213-1.242 0.299-2.314 0.299-3.428v-449.705l253.567 101.44c1.2 0.469 2.442 0.944 3.689 1.37v423.081l-18.607-7.461c-3.817-1.546-7.848-2.314-11.921-2.314-13.249 0-24.952 7.933-29.884 20.197-6.601 16.463 1.456 35.198 17.877 41.803l38.846 15.562c11.49 4.585 23.539 6.947 35.844 6.947s24.355-2.314 35.802-6.947l257.253-102.894c36.873-14.705 60.668-49.866 60.668-89.561v-401.045c0.043-8.185-1.498-16.332-4.585-24.047-9.863-24.568-33.314-40.43-59.767-40.43-8.189 0-16.208 1.546-23.838 4.585l-253.567 101.44c-3.604 1.456-7.374 2.229-11.234 2.271-0.213 0-1.114 0-1.328 0-3.817-0.085-7.63-0.858-11.234-2.271l-273.888-109.501c-11.49-4.585-23.582-6.947-35.844-6.947zM64.359 405.35h-0.043v-401.043c0-13.249 7.933-24.952 20.239-29.879l237.016-94.797v423.080c-1.2 0.427-2.442 0.901-3.604 1.328l-253.609 101.314zM711.092-18.931l253.567-101.44v401.217c0 13.245-7.933 24.948-20.196 29.837l-237.016 94.838v-423.039c1.242-0.469 2.442-0.901 3.647-1.413zM482.351 126.494c-17.749 0-32.155 14.406-32.155 32.155v357.009c-74.26 15.050-128.626 80.344-128.626 157.475 0 88.662 72.115 160.777 160.784 160.777s160.784-72.112 160.784-160.777c0-77.129-54.366-142.471-128.626-157.475v-357.009c0-17.706-14.406-32.155-32.155-32.155zM482.351 769.603c-53.209 0-96.47-43.259-96.47-96.466s43.261-96.466 96.47-96.466c53.209 0 96.47 43.259 96.47 96.466s-43.261 96.466-96.47 96.466z" />
<glyph unicode="&#xe915;" glyph-name="commercial" d="M32.155-195.103c-17.749 0-32.155 14.406-32.155 32.155s14.406 32.155 32.155 32.155h96.47v803.918c0 2.186 0.213 4.372 0.688 6.558 0.085 0.469 0.213 0.986 0.384 1.498 0.469 1.759 0.986 3.3 1.674 4.804 0.213 0.602 0.517 1.2 0.773 1.759l64.185 128.369c5.486 10.978 16.507 17.792 28.769 17.792h578.821c12.263 0 23.283-6.819 28.769-17.792l64.315-128.626c0.256-0.517 0.469-1.072 0.73-1.674 0.816-1.887 1.413-3.647 1.802-5.401 0.043-0.171 0.085-0.384 0.128-0.56 0.517-2.357 0.73-4.543 0.73-6.734v-803.918h96.47c17.749 0 32.155-14.406 32.155-32.155s-14.406-32.155-32.155-32.155h-964.7zM836.074-130.789v771.761h-643.134v-771.761h192.94v64.315c0 70.916 57.709 128.626 128.626 128.626s128.626-57.709 128.626-128.626v-64.315h192.94zM578.821-130.789v64.315c0 35.459-28.855 64.315-64.315 64.315s-64.315-28.855-64.315-64.315v-64.315h128.626zM816.223 705.285l-32.155 64.315h-539.074l-32.155-64.315h603.389zM321.567 496.266c-1.887 0-3.775 0.171-5.614 0.517-21.993 2.575-39.532 20.153-42.104 42.104-0.341 1.845-0.517 3.732-0.517 5.614s0.171 3.775 0.517 5.614c2.575 21.993 20.153 39.532 42.104 42.104 1.845 0.341 3.732 0.517 5.614 0.517s3.775-0.171 5.614-0.517c21.993-2.575 39.532-20.153 42.104-42.104 0.341-1.845 0.517-3.732 0.517-5.614s-0.171-3.775-0.517-5.614c-2.575-21.993-20.153-39.532-42.104-42.104-1.845-0.341-3.732-0.517-5.614-0.517zM321.567 303.326c-1.887 0-3.775 0.171-5.614 0.469-21.993 2.618-39.532 20.153-42.104 42.104-0.341 1.845-0.517 3.732-0.517 5.614s0.171 3.775 0.517 5.614c2.575 21.993 20.153 39.532 42.104 42.104 1.845 0.341 3.732 0.517 5.614 0.517s3.775-0.171 5.614-0.517c21.993-2.575 39.532-20.153 42.104-42.104 0.341-1.845 0.517-3.732 0.517-5.614s-0.171-3.775-0.517-5.614c-2.575-21.993-20.153-39.532-42.104-42.104-1.845-0.299-3.732-0.469-5.614-0.469zM321.566 110.386c-1.887 0-3.775 0.171-5.572 0.469-21.993 2.575-39.575 20.153-42.146 42.104-0.341 1.845-0.469 3.732-0.469 5.614s0.171 3.775 0.469 5.614c2.575 21.993 20.153 39.532 42.146 42.146 1.802 0.299 3.689 0.469 5.572 0.469s3.775-0.171 5.572-0.469c21.993-2.618 39.575-20.153 42.146-42.146 0.341-1.845 0.469-3.732 0.469-5.614s-0.171-3.775-0.469-5.614c-2.575-21.993-20.153-39.532-42.146-42.104-1.802-0.299-3.689-0.469-5.572-0.469zM514.506 496.266c-1.887 0-3.775 0.171-5.614 0.517-21.993 2.575-39.532 20.153-42.104 42.104-0.341 1.845-0.517 3.732-0.517 5.614s0.171 3.775 0.517 5.614c2.575 21.993 20.153 39.532 42.104 42.104 1.845 0.341 3.732 0.517 5.614 0.517s3.775-0.171 5.614-0.517c21.993-2.575 39.532-20.153 42.146-42.146 0.299-1.802 0.469-3.689 0.469-5.572s-0.171-3.775-0.469-5.572c-2.618-21.993-20.153-39.532-42.146-42.146-1.845-0.341-3.732-0.517-5.614-0.517zM514.506 303.326c-1.887 0-3.775 0.171-5.614 0.469-21.993 2.618-39.532 20.153-42.104 42.104-0.341 1.845-0.517 3.732-0.517 5.614s0.171 3.775 0.517 5.614c2.575 21.993 20.153 39.532 42.104 42.104 1.845 0.341 3.732 0.517 5.614 0.517s3.775-0.171 5.614-0.517c21.993-2.575 39.532-20.153 42.146-42.146 0.299-1.802 0.469-3.689 0.469-5.572s-0.171-3.775-0.469-5.572c-2.618-21.993-20.153-39.532-42.146-42.146-1.845-0.299-3.732-0.469-5.614-0.469zM514.506 110.386c-1.887 0-3.775 0.171-5.572 0.469-21.993 2.575-39.575 20.153-42.146 42.104-0.341 1.845-0.469 3.732-0.469 5.614s0.171 3.775 0.469 5.614c2.575 21.993 20.153 39.532 42.146 42.146 1.802 0.299 3.689 0.469 5.572 0.469s3.775-0.171 5.572-0.469c21.993-2.618 39.575-20.153 42.146-42.146 0.341-1.802 0.469-3.689 0.469-5.614s-0.171-3.775-0.469-5.614c-2.575-21.993-20.153-39.575-42.146-42.146-1.802-0.256-3.689-0.427-5.572-0.427zM707.448 496.268c-1.887 0-3.775 0.171-5.614 0.469-21.993 2.575-39.532 20.153-42.104 42.146-0.341 1.802-0.469 3.689-0.469 5.572s0.171 3.775 0.469 5.572c2.575 21.993 20.153 39.575 42.104 42.146 1.845 0.341 3.732 0.469 5.614 0.469s3.775-0.171 5.614-0.469c21.993-2.575 39.532-20.153 42.146-42.146 0.299-1.802 0.469-3.689 0.469-5.572s-0.171-3.775-0.469-5.572c-2.618-21.993-20.153-39.575-42.146-42.146-1.845-0.299-3.732-0.469-5.614-0.469zM707.448 303.326c-1.887 0-3.775 0.171-5.614 0.469-21.993 2.618-39.532 20.153-42.104 42.146-0.341 1.802-0.469 3.689-0.469 5.572s0.171 3.775 0.469 5.572c2.575 21.993 20.153 39.575 42.104 42.146 1.845 0.341 3.732 0.469 5.614 0.469s3.775-0.171 5.614-0.469c21.993-2.575 39.532-20.153 42.146-42.146 0.299-1.802 0.469-3.689 0.469-5.572s-0.171-3.775-0.469-5.572c-2.618-21.993-20.153-39.532-42.146-42.146-1.845-0.299-3.732-0.469-5.614-0.469zM707.448 110.386c-1.887 0-3.775 0.171-5.572 0.469-21.993 2.575-39.575 20.153-42.146 42.146-0.299 1.802-0.469 3.689-0.469 5.572s0.171 3.775 0.469 5.614c2.575 21.993 20.153 39.575 42.146 42.146 1.802 0.341 3.689 0.469 5.614 0.469s3.775-0.171 5.614-0.469c21.993-2.575 39.575-20.153 42.146-42.146 0.341-1.802 0.469-3.689 0.469-5.614s-0.171-3.775-0.469-5.614c-2.575-21.993-20.153-39.575-42.146-42.146-1.887-0.256-3.775-0.427-5.662-0.427z" />
<glyph unicode="&#xe916;" glyph-name="residential" d="M610.977-66.476c-17.749 0-32.155 14.406-32.155 32.155v192.94c0 17.749 14.406 32.155 32.155 32.155h192.94c17.749 0 32.155-14.406 32.155-32.155v-192.94c0-17.749-14.406-32.155-32.155-32.155h-192.94zM771.761-2.162v128.626h-128.626v-128.626h128.626zM32.154-195.103c-17.749 0-32.155 14.406-32.155 32.155s14.406 32.155 32.155 32.155h32.155v433.901l-13.121-9.645c-5.572-4.073-12.177-6.217-19.039-6.217-10.205 0-19.892 4.932-25.938 13.164-5.102 6.904-7.16 15.392-5.875 23.923 1.328 8.488 5.833 15.952 12.775 21.052l444.321 325.855c16.763 12.22 36.488 18.693 57.069 18.693s40.302-6.473 57.026-18.735l71.603-52.522v54.452c0 17.749 14.406 32.155 32.155 32.155h192.94c17.706 0 32.155-14.406 32.155-32.155v-243.104l115.464-84.68c14.278-10.461 17.408-30.657 6.947-44.935-6.046-8.232-15.734-13.164-25.938-13.164-6.904 0-13.462 2.143-19.039 6.259l-13.121 9.602v-433.901h32.155c17.749 0 32.155-14.406 32.155-32.155s-14.406-32.155-32.155-32.155h-964.701zM900.388-130.789v481.064l-366.844 269.044c-5.614 4.116-12.22 6.259-19.039 6.259-6.862 0-13.42-2.186-19.039-6.259l-366.845-269.044v-481.064h128.626v225.097c0 53.209 43.261 96.47 96.47 96.47h64.315c53.211 0 96.471-43.261 96.471-96.47v-225.097h385.88zM450.194-130.789v225.097c0 17.749-14.406 32.155-32.156 32.155h-64.315c-17.749 0-32.155-14.406-32.155-32.155v-225.097h128.627zM836.074 477.186v163.785h-128.626v-69.46l128.626-94.327z" />
<glyph unicode="&#xe917;" glyph-name="calendar" d="M896.531 736.824h-52.735v105.476h-105.476v-105.476h-421.896v105.476h-105.476v-105.476h-52.735c-58.011 0-104.42-47.462-104.42-105.476l-1.055-738.319c0-58.011 47.462-105.476 105.476-105.476h738.319c58.011 0 105.476 47.462 105.476 105.476v738.319c0 58.011-47.462 105.476-105.476 105.476v0zM896.531-106.969h-738.319v580.108h738.319v-580.108z" />
<glyph unicode="&#xe918;" glyph-name="close" d="M1054.741 735.77l-106.53 106.53-420.842-420.842-420.842 420.842-106.53-106.53 420.842-420.842-420.842-420.842 106.53-106.53 420.842 420.842 420.842-420.842 106.53 106.53-420.842 420.842z" />
<glyph unicode="&#xe919;" glyph-name="caret-down" d="M0 578.612l527.372-527.372 527.372 527.372z" />
<glyph unicode="&#xe91a;" glyph-name="alert-circle" d="M527.372 842.297c-290.053 0-527.372-237.318-527.372-527.372s237.318-527.372 527.372-527.372c290.053 0 527.372 237.318 527.372 527.372s-237.318 527.372-527.372 527.372v0zM580.108 51.241h-105.476v105.476h105.476v-105.476zM580.108 262.189h-105.476v316.423h105.476v-316.423z" />
<glyph unicode="&#xe91b;" glyph-name="caret-circle-down" d="M527.372 842.297c-291.108 0-527.372-236.262-527.372-527.372s236.262-527.372 527.372-527.372c291.108 0 527.372 236.262 527.372 527.372s-236.262 527.372-527.372 527.372v0zM527.372 209.452l-210.948 210.948h421.896l-210.948-210.948z" />
<glyph unicode="&#xe91c;" glyph-name="eye" d="M527.372 458.371c-79.105 0-143.445-64.341-143.445-143.445s64.341-143.445 143.445-143.445c79.105 0 143.445 64.341 143.445 143.445s-64.341 143.445-143.445 143.445v0zM527.372 75.5c-131.843 0-239.427 107.585-239.427 239.427s107.585 239.427 239.427 239.427c132.898 0 239.427-106.53 239.427-239.427s-106.53-239.427-239.427-239.427v0zM527.372 674.592c-239.427 0-444.046-148.719-527.372-359.667 83.324-209.894 287.944-359.667 527.372-359.667s444.046 149.774 527.372 359.667c-83.324 210.948-287.944 359.667-527.372 359.667z" />
<glyph unicode="&#xe91d;" glyph-name="music-love" d="M363.886-209.279c-61.176 0-110.748 49.571-110.748 110.748s49.571 110.748 110.748 110.748c16.873 0 32.698-3.164 47.462-10.546v186.689c0 41.134 26.37 76.996 65.396 89.652l190.908 53.79c8.437 3.164 18.985 4.218 28.48 4.218 14.764 0 29.534-3.164 42.189-10.546 31.643-15.819 52.735-47.462 52.735-84.378 0 0 0 0 0 0v0-244.7c0-61.176-49.571-110.748-110.748-110.748s-110.748 49.571-110.748 110.748c0 61.176 49.571 110.748 110.748 110.748 16.873 0 32.698-3.164 47.462-10.546v144.5c0 16.873-13.709 31.643-31.643 31.643v0c0 0 0 0 0 0-3.164 0-7.382-1.055-10.546-2.109h1.055l-191.963-52.735c-11.6-4.218-20.041-15.819-20.041-29.534v-286.89c0-61.176-49.571-110.748-110.748-110.748zM363.886-51.069c-26.37 0-47.462-21.098-47.462-47.462s21.098-47.462 47.462-47.462c26.37 0 47.462 21.098 47.462 47.462s-21.098 47.462-47.462 47.462zM680.308 43.858c-26.37 0-47.462-21.098-47.462-47.462s21.098-47.462 47.462-47.462c26.37 0 47.462 21.098 47.462 47.462s-21.098 47.462-47.462 47.462zM811.096 473.137c-15.819 1.055-29.534 7.382-39.025 17.929v0l-148.719 152.938c-20.041 21.098-32.698 49.571-32.698 82.269s13.709 63.287 36.916 85.433v0c18.985 18.985 46.407 30.589 75.941 30.589h4.218c29.534-1.055 56.956-12.655 78.051-34.807l26.37-27.425 27.425 27.425c20.041 22.152 48.516 34.807 80.16 34.807 0 0 0 0 0 0v0h3.164c30.589-1.055 58.011-13.709 78.051-34.807v0c20.041-21.098 32.698-49.571 32.698-81.214s-12.655-61.176-32.698-82.269v0l-149.774-155.047c-10.546-10.546-24.261-15.819-39.025-15.819h-1.055zM704.567 779.013c-12.655 0-24.261-4.218-33.752-13.709 0 0-1.055-1.055-1.055-1.055-9.491-10.546-15.819-23.207-15.819-37.971s6.327-28.48 15.819-39.025v0l142.391-147.665 143.445 148.719c20.041 21.098 20.041 54.846 0 75.941-9.491 8.437-21.098 14.764-34.807 14.764v0h-2.109c-12.655 0-25.316-5.273-33.752-14.764v0l-49.571-51.68c-6.327-5.273-13.709-9.491-23.207-9.491 0 0 0 0 0 0v0c0 0 0 0 0 0-8.437 0-16.873 4.218-22.152 9.491v0l-50.626 51.68c-8.437 8.437-20.041 14.764-33.752 14.764v0h-1.055zM284.781 209.452c-8.437 0-16.873 4.218-23.207 9.491v0l-215.168 225.714c-28.48 28.48-46.407 67.505-46.407 111.803 0 26.37 6.327 50.626 17.929 71.723h-1.055c26.37 51.68 80.16 87.542 142.391 87.542 0 0 0 0 0 0v0c25.316 0 49.571-5.273 71.723-16.873 14.764-7.382 29.534-17.929 41.134-29.534l12.655-12.655 12.655 12.655c29.534 28.48 68.559 46.407 112.858 46.407 0 0 0 0 0 0v0c0 0 0 0 1.055 0 43.244 0 83.324-17.929 111.803-46.407v0c28.48-29.534 46.407-68.559 46.407-112.858s-17.929-83.324-46.407-112.858v0l-215.168-224.66c-6.327-5.273-13.709-9.491-23.207-9.491v0zM159.266 652.444c0 0 0 0 0 0-37.971 0-69.614-21.098-85.433-52.735v0c-6.327-12.655-10.546-27.425-10.546-43.244 0-26.37 10.546-50.626 28.48-67.505v0l193.017-202.511 193.017 201.456c17.929 17.929 28.48 42.189 28.48 68.559s-10.546 50.626-27.425 67.505v0c-17.929 17.929-41.134 28.48-68.559 28.48 0 0 0 0 0 0v0c-25.316 0-49.571-9.491-67.505-28.48l-35.862-34.807c-5.273-5.273-12.655-9.491-22.152-9.491s-16.873 4.218-22.152 9.491l-34.807 34.807c-17.929 17.929-42.189 28.48-68.559 28.48v0z" />
<glyph unicode="&#xe91e;" glyph-name="facebook-outline" d="M0 314.927c0 291.108 236.262 527.372 527.372 527.372s527.372-236.262 527.372-527.372-236.262-527.372-527.372-527.372-527.372 236.262-527.372 527.372zM52.735 314.927c0-261.575 213.057-474.634 474.634-474.634s474.634 213.057 474.634 474.634-212.003 474.634-474.634 474.634-474.634-212.003-474.634-474.634zM565.341 22.762v286.89h79.105l10.546 99.146h-89.652v48.516c0 26.37 2.109 40.080 39.025 40.080h49.571v99.146h-79.105c-94.927 0-128.678-48.516-128.678-128.678v-60.121h-59.066v-98.092h59.066v-286.89h119.185z" />
<glyph unicode="&#xe91f;" glyph-name="heart-pulse" d="M527.372-135.448c-16.873 0-32.698 6.327-45.353 17.929l-2.109 2.109-197.237 206.729c-6.327 5.273-9.491 13.709-9.491 22.152 0 0 0 1.055 0 1.055v0c0 8.437 4.218 16.873 10.546 23.207v0c5.273 5.273 13.709 8.437 22.152 8.437 9.491 0 17.929-3.164 24.261-9.491v0l197.237-205.674 197.237 205.674c6.327 6.327 14.764 9.491 24.261 9.491 8.437 0 16.873-3.164 22.152-8.437v0c6.327-6.327 10.546-14.764 10.546-24.261 0-8.437-3.164-16.873-9.491-23.207v1.055l-197.237-206.729c-11.6-12.655-28.48-20.041-46.407-20.041h-1.055zM64.341 344.459c0 0 0 0 0 0-11.6 0-23.207 6.327-28.48 16.873v0c-22.152 39.025-35.862 86.487-35.862 137.117 0 46.407 11.6 89.652 30.589 127.624l-1.055-1.055c33.752 66.45 91.762 117.076 161.375 140.281l2.109 1.055c26.37 9.491 58.011 14.764 89.652 14.764v0c43.244 0 86.487-10.546 125.514-30.589 27.425-13.709 52.735-30.589 73.832-52.735l45.353-45.353 45.353 45.353c50.626 51.68 121.294 83.324 199.346 83.324 0 0 0 0 1.055 0h-1.055c75.941 0 146.609-29.534 200.401-83.324 50.626-50.626 82.269-121.294 82.269-199.346 0-50.626-12.655-98.092-35.862-138.171v1.055c-5.273-10.546-15.819-16.873-28.48-16.873-14.764 0-27.425 9.491-31.643 23.207v1.055c-1.055 2.109-1.055 5.273-1.055 8.437 0 6.327 1.055 11.6 4.218 16.873v-1.055c16.873 30.589 27.425 67.505 27.425 105.476 0 60.121-24.261 113.912-63.287 152.938v0c-39.025 39.025-92.817 63.287-152.938 63.287 0 0 0 0-1.055 0h1.055c-1.055 0-1.055 0-1.055 0-60.121 0-113.912-24.261-152.938-63.287l-68.559-68.559c-5.273-6.327-13.709-9.491-23.207-9.491-8.437 0-16.873 3.164-23.207 9.491v0l-68.559 68.559c-15.819 15.819-34.807 29.534-54.846 40.080l-2.109 1.055c-27.425 13.709-61.176 22.152-95.981 22.152-24.261 0-48.516-4.218-70.669-11.6l2.109 1.055c-86.487-29.534-147.665-110.748-147.665-205.674 0-39.025 9.491-74.887 27.425-106.53v1.055c2.109-4.218 4.218-9.491 4.218-15.819 0-17.929-14.764-32.698-33.752-32.698v0zM530.536 112.416c-22.152 0-41.134 13.709-47.462 34.807l-62.231 206.729-56.956-113.912c-8.437-16.873-25.316-27.425-44.298-27.425 0 0 0 0 0 0h-286.89c-17.929 0-32.698 14.764-32.698 32.698s14.764 32.698 32.698 32.698v0h276.343l71.723 142.391c5.273 11.6 15.819 21.098 27.425 25.316 5.273 2.109 10.546 2.109 16.873 2.109 7.382 0 14.764-1.055 21.098-4.218v0c12.655-6.327 22.152-17.929 26.37-31.643l60.121-201.456 51.68 119.185c7.382 17.929 25.316 29.534 45.353 29.534 16.873 0 31.643-8.437 41.134-21.098v-1.055l39.025-58.011h312.203c17.929 0 32.698-14.764 32.698-33.752s-14.764-32.698-32.698-32.698v0h-330.133c-10.546 0-21.098 6.327-27.425 14.764v0l-31.643 48.516-56.956-132.898c-6.327-13.709-16.873-23.207-29.534-27.425h-1.055c-4.218-2.109-9.491-3.164-14.764-3.164v0z" />
<glyph unicode="&#xe920;" glyph-name="facebook" d="M0 314.927c0 291.108 236.262 527.372 527.372 527.372s527.372-236.262 527.372-527.372c0-291.108-236.262-527.372-527.372-527.372s-527.372 236.262-527.372 527.372zM564.286 22.762v286.89h80.16l10.546 98.092h-90.707l1.055 49.571c0 26.37 2.109 40.080 39.025 40.080h49.571v99.146h-79.105c-94.927 0-128.678-48.516-128.678-128.678v-60.121h-59.066v-98.092h59.066v-286.89h119.185z" />
<glyph unicode="&#xe921;" glyph-name="video" d="M1023.098 569.119c-18.985 11.6-43.244 12.655-63.287 2.109l-168.758-83.324v90.707c0 72.778-59.066 131.843-131.843 131.843h-527.372c-72.778 0-131.843-59.066-131.843-131.843v-527.372c0-72.778 59.066-131.843 131.843-131.843h527.372c72.778 0 131.843 59.066 131.843 131.843v90.707l168.758-83.324c8.437-5.273 18.985-7.382 29.534-7.382 11.6 0 23.207 3.164 33.752 9.491 20.041 12.655 31.643 33.752 31.643 56.956v395.528c0 22.152-11.6 43.244-31.643 55.901zM131.843 51.241v527.372h527.372v-527.372h-527.372zM922.899 224.218l-131.843 65.396v50.626l131.843 65.396v-181.415z" />
<glyph unicode="&#xe922;" glyph-name="happy-mask" d="M527.372-212.444c-11.6 0-23.207 2.109-34.807 6.327-200.401 74.887-338.572 189.854-412.404 339.626-32.698 72.778-48.516 151.883-47.462 230.988v378.652c0 11.6 2.109 22.152 6.327 32.698 8.437 25.316 26.37 45.353 49.571 56.956 13.709 6.327 28.48 9.491 43.244 9.491 11.6 0 22.152-2.109 32.698-5.273 116.021-42.189 238.372-63.287 362.831-63.287s246.81 21.098 362.831 63.287c10.546 3.164 22.152 5.273 32.698 5.273 54.846 0 99.146-44.298 99.146-99.146v-379.706c2.109-78.051-14.764-157.156-47.462-228.879-73.832-150.828-212.003-265.795-412.404-340.681-11.6-4.218-23.207-6.327-34.807-6.327zM131.843 776.904c-5.273 0-9.491-1.055-14.764-4.218-7.382-3.164-13.709-10.546-15.819-17.929-2.109-4.218-2.109-7.382-2.109-11.6v-379.706c-2.109-69.614 12.655-139.226 41.134-201.456 65.396-133.952 191.963-237.318 375.488-306.93 4.218-1.055 7.382-2.109 11.6-2.109s8.437 1.055 11.6 2.109c183.525 69.614 310.094 172.977 375.488 307.984 28.48 62.231 43.244 130.787 41.134 200.401v379.706c0 18.985-14.764 33.752-32.698 33.752-3.164 0-7.382-1.055-10.546-2.109-123.404-44.298-253.137-66.45-384.98-66.45s-261.575 22.152-384.98 66.45c-3.164 1.055-7.382 2.109-10.546 2.109zM535.809 51.241c-3.164 0-5.273 0-8.437 0-2.109 0-5.273 0-7.382 0-120.24 0-217.277 93.871-223.605 213.057 0 8.437 3.164 16.873 8.437 23.207s14.764 10.546 23.207 10.546c0 0 1.055 0 1.055 0 17.929 0 32.698-13.709 33.752-30.589 3.164-84.378 72.778-150.828 156.101-150.828 2.109 0 5.273 0 7.382 1.055 0 0 2.109 0 2.109 0 3.164 0 5.273-1.055 7.382-1.055 0 0 0 0 0 0 84.378 0 152.938 66.45 156.101 150.828 1.055 16.873 15.819 31.643 32.698 31.643 1.055 0 2.109 0 3.164-1.055 7.382 0 15.819-3.164 22.152-10.546s8.437-14.764 8.437-23.207c-5.273-119.185-103.365-213.057-222.55-213.057 0 0 0 0 0 0zM395.528 429.893c-17.929 0-32.698 14.764-32.698 33.752 0 27.425-22.152 49.571-49.571 49.571s-49.571-22.152-49.571-49.571c0-18.985-14.764-33.752-32.698-33.752s-32.698 14.764-32.698 33.752c0 63.287 51.68 114.967 114.967 114.967s114.967-51.68 114.967-114.967c0-18.985-14.764-33.752-32.698-33.752zM823.753 429.893c-17.929 0-32.698 14.764-32.698 33.752 0 27.425-22.152 49.571-49.571 49.571s-49.571-22.152-49.571-49.571c0-18.985-14.764-33.752-32.698-33.752s-32.698 14.764-32.698 33.752c0 63.287 51.68 114.967 114.967 114.967s116.021-51.68 116.021-114.967c0-18.985-14.764-33.752-33.752-33.752z" />
<glyph unicode="&#xe923;" glyph-name="home-world" d="M428.225-123.847c-127.624 9.491-239.427 69.614-316.423 160.321h-1.055c-65.396 75.941-106.53 174.032-110.748 282.671v0c0 6.327 0 12.655 0 18.985 0 139.226 62.231 264.741 160.321 349.12h1.055c15.819 13.709 32.698 26.37 51.68 39.025l2.109 1.055c69.614 44.298 153.992 70.669 244.7 70.669 13.709 0 26.37 0 39.025-1.055h-2.109c202.511-15.819 367.049-160.321 413.459-350.174v-3.164c1.055-2.109 1.055-5.273 1.055-7.382 0-18.985-14.764-33.752-32.698-33.752v0c0 0 0 0 0 0-15.819 0-28.48 10.546-31.643 25.316h-1.055c-22.152 95.981-76.996 176.142-152.938 229.934l-1.055 1.055v-15.819c0-44.298-31.643-82.269-74.887-89.652l-156.101-25.316v-32.698c0 0 0 0 0 0 0-32.698-16.873-61.176-43.244-76.996v0c-13.709-8.437-29.534-12.655-46.407-12.655-7.382 0-14.764 1.055-22.152 3.164v0c-1.055 0-2.109 0-2.109 0v0l-82.269 28.48c-39.025 10.546-67.505 45.353-67.505 86.487 0 1.055 0 1.055 0 1.055v0 106.53c-74.887-67.505-123.404-162.43-130.787-268.959v-2.109l156.101 39.025c7.382 2.109 14.764 3.164 22.152 3.164 34.807 0 64.341-18.985 79.105-47.462h1.055l54.846-104.42c12.655-24.261 13.709-52.735 3.164-79.105-10.546-22.152-33.752-40.080-53.79-51.68v-156.101c30.589-10.546 64.341-17.929 100.201-21.098h2.109c16.873-1.055 30.589-15.819 30.589-32.698 0-1.055 0-2.109 0-3.164v0c-2.109-16.873-15.819-29.534-33.752-30.589v0zM68.559 292.777c8.437-82.269 42.189-155.047 92.817-214.112v1.055c28.48-33.752 62.231-62.231 100.201-84.378l2.109-1.055v144.5c0 13.709 7.382 25.316 18.985 30.589 17.929 7.382 35.862 22.152 39.025 29.534 2.109 2.109 2.109 6.327 2.109 9.491 0 4.218-1.055 8.437-2.109 11.6v0l-55.901 103.365c-4.218 8.437-11.6 12.655-21.098 12.655-2.109 0-4.218 0-6.327 0h1.055l-170.868-43.244zM365.995 472.083c2.109 0 3.164-1.055 5.273-1.055 11.6 0 21.098 8.437 23.207 18.985v0c1.055 1.055 1.055 3.164 1.055 5.273 0 0 0 0 0 0v0 61.176c0 15.819 11.6 29.534 27.425 31.643l183.525 30.589c10.546 2.109 20.041 11.6 20.041 23.207 0 0 0 1.055 0 1.055v0 53.79c-48.516 22.152-105.476 35.862-164.54 35.862 0 0-1.055 0-1.055 0v0c-72.778 0-140.281-20.041-199.346-54.846l2.109 1.055v-153.992c0 0 0-1.055 0-1.055 0-10.546 7.382-20.041 17.929-23.207v0c1.055 0 2.109 0 3.164-1.055l81.214-27.425zM669.761-168.145c0 0-1.055 0-1.055 0v0h-64.341c-54.846 0-99.146 44.298-99.146 99.146v181.415l-10.546-9.491c-6.327-5.273-13.709-8.437-22.152-8.437-9.491 0-18.985 4.218-25.316 11.6v0c-4.218 6.327-7.382 13.709-7.382 22.152 0 9.491 4.218 17.929 10.546 24.261v0l199.346 174.032c22.152 20.041 52.735 32.698 86.487 32.698 0 0 0 0 0 0v0c0 0 0 0 0 0 33.752 0 63.287-12.655 86.487-32.698v0l199.346-174.032c6.327-6.327 10.546-14.764 10.546-24.261 0-18.985-14.764-33.752-32.698-33.752v0c0 0 0 0 0 0-8.437 0-15.819 3.164-22.152 8.437v0l-10.546 10.546v-182.47c0-54.846-44.298-99.146-99.146-99.146h-64.341c0 0-1.055 0-2.109 0h-131.843zM868.052-102.751c17.929 0 32.698 14.764 32.698 33.752v0 239.427l-121.294 106.53c-11.6 9.491-26.37 15.819-43.244 15.819 0 0 0 0 0 0v0c-15.819 0-31.643-5.273-43.244-15.819l-121.294-106.53v-239.427c0-18.985 14.764-33.752 32.698-33.752h32.698v99.146c0 54.846 44.298 99.146 99.146 99.146v0c54.846 0 99.146-44.298 99.146-99.146v-99.146h32.698zM768.906-102.751v99.146c0 17.929-14.764 32.698-32.698 32.698s-32.698-14.764-32.698-32.698v0-99.146h65.396z" />
<glyph unicode="&#xe924;" glyph-name="instagram-outline" d="M527.372 596.542c-75.941 0-85.433-1.055-116.021-2.109-29.534-1.055-50.626-6.327-68.559-12.655-18.985-7.382-35.862-18.985-49.571-32.698v0c-13.709-13.709-25.316-30.589-31.643-48.516l-1.055-1.055c-6.327-17.929-11.6-39.025-12.655-68.559s-2.109-40.080-2.109-116.021 1.055-85.433 2.109-116.021c1.055-29.534 6.327-50.626 12.655-68.559 7.382-18.985 18.985-35.862 32.698-49.571v0c13.709-13.709 30.589-25.316 48.516-31.643l1.055-1.055c17.929-6.327 39.025-11.6 68.559-12.655 30.589-1.055 40.080-2.109 116.021-2.109s86.487 1.055 116.021 2.109c29.534 1.055 50.626 6.327 68.559 12.655 18.985 7.382 35.862 18.985 49.571 32.698v0c13.709 13.709 25.316 30.589 31.643 49.571h1.055c6.327 17.929 11.6 39.025 12.655 68.559 1.055 30.589 2.109 40.080 2.109 116.021s-1.055 86.487-2.109 116.021c-1.055 29.534-6.327 50.626-12.655 68.559-7.382 18.985-18.985 35.862-32.698 49.571v0c-13.709 13.709-30.589 25.316-48.516 31.643l-1.055 1.055c-17.929 6.327-39.025 11.6-68.559 12.655-30.589 1.055-40.080 2.109-116.021 2.109v0zM502.056 545.915h25.316c74.887 0 84.378-1.055 113.912-2.109 27.425-1.055 42.189-5.273 51.68-9.491 13.709-5.273 23.207-11.6 32.698-21.098s15.819-18.985 21.098-32.698c4.218-9.491 8.437-24.261 9.491-51.68 1.055-29.534 2.109-39.025 2.109-113.912s-1.055-83.324-2.109-113.912c-1.055-27.425-5.273-42.189-9.491-51.68-5.273-12.655-11.6-23.207-21.098-32.698v0c-8.437-8.437-20.041-15.819-31.643-21.098h-1.055c-9.491-3.164-24.261-8.437-51.68-9.491-29.534-1.055-39.025-1.055-113.912-1.055s-84.378 0-113.912 1.055c-27.425 1.055-42.189 6.327-51.68 9.491-12.655 5.273-23.207 12.655-32.698 21.098v0c-9.491 9.491-15.819 20.041-21.098 31.643v1.055c-3.164 9.491-8.437 24.261-9.491 51.68-1.055 30.589-2.109 39.025-2.109 113.912s1.055 84.378 2.109 113.912c1.055 27.425 6.327 42.189 9.491 51.68 5.273 13.709 11.6 23.207 21.098 32.698s20.041 16.873 31.643 21.098h1.055c9.491 4.218 24.261 8.437 51.68 9.491 26.37 1.055 35.862 2.109 88.597 2.109v0zM677.144 498.451c-17.929 0-33.752-14.764-33.752-33.752s15.819-33.752 33.752-33.752v0c18.985 0 33.752 15.819 33.752 33.752s-14.764 33.752-33.752 33.752v0zM527.372 459.426c-80.16 0-144.5-64.341-144.5-144.5s64.341-144.5 144.5-144.5v0c80.16 0 144.5 64.341 144.5 144.5s-64.341 144.5-144.5 144.5v0zM527.372 408.798c1.055 0 1.055 0 2.109 0 51.68 0 93.871-42.189 93.871-93.871s-42.189-93.871-93.871-93.871c-1.055 0-1.055 0-2.109 0v0c-50.626 1.055-91.762 43.244-91.762 93.871s41.134 92.817 91.762 93.871v0zM527.372-212.444c291.108 0 527.372 236.262 527.372 527.372s-236.262 527.372-527.372 527.372-527.372-236.262-527.372-527.372 236.262-527.372 527.372-527.372zM527.372-159.707c-261.575 0-474.634 213.057-474.634 474.634s213.057 474.634 474.634 474.634 474.634-212.003 474.634-474.634-212.003-474.634-474.634-474.634z" />
<glyph unicode="&#xe925;" glyph-name="help-circle-outline" d="M474.634-1.497h105.476v105.476h-105.476v-105.476zM527.372 842.297c-291.108 0-527.372-236.262-527.372-527.372s236.262-527.372 527.372-527.372c291.108 0 527.372 236.262 527.372 527.372s-236.262 527.372-527.372 527.372v0zM527.372-106.969c-232.044 0-421.896 189.854-421.896 421.896s189.854 421.896 421.896 421.896c233.098 0 421.896-188.798 421.896-421.896s-188.798-421.896-421.896-421.896v0zM527.372 631.349c-116.021 0-210.948-93.871-210.948-210.948h105.476c0 58.011 47.462 105.476 105.476 105.476s105.476-47.462 105.476-105.476c0-105.476-158.211-91.762-158.211-263.686h105.476c0 119.185 158.211 131.843 158.211 263.686 0 117.076-93.871 210.948-210.948 210.948v0z" />
<glyph unicode="&#xe926;" glyph-name="music-ticket" d="M99.146-113.299c-54.846 0-99.146 44.298-99.146 99.146v164.54c0 17.929 14.764 32.698 32.698 32.698v0c72.778 0 131.843 59.066 131.843 131.843s-59.066 131.843-131.843 131.843c-17.929 0-32.698 14.764-32.698 32.698v0 165.594c0 53.79 44.298 98.092 99.146 98.092h856.45c54.846 0 99.146-44.298 99.146-98.092v-165.594c0-17.929-14.764-32.698-32.698-32.698v0c-72.778 0-131.843-59.066-131.843-131.843s59.066-131.843 131.843-131.843c17.929 0 32.698-14.764 32.698-32.698v0-164.54c0-54.846-44.298-99.146-99.146-99.146h-856.45zM66.45-14.154c0-18.985 14.764-33.752 32.698-33.752h856.45c18.985 0 33.752 14.764 33.752 33.752v0 133.952c-93.871 15.819-165.594 99.146-165.594 195.128s71.723 179.306 165.594 195.128v135.007c0 17.929-14.764 32.698-33.752 32.698v0h-856.45c-17.929 0-32.698-14.764-32.698-32.698v0-135.007c92.817-15.819 164.54-99.146 164.54-195.128s-71.723-179.306-164.54-195.128v-133.952zM362.831 18.544c-54.846 0-99.146 44.298-99.146 99.146v0c0 53.79 44.298 98.092 99.146 98.092 11.6 0 23.207-2.109 33.752-5.273h-1.055v119.185c0 45.353 30.589 84.378 74.887 95.981l131.843 32.698c7.382 2.109 15.819 3.164 24.261 3.164 27.425 0 51.68-11.6 69.614-29.534v0c18.985-17.929 29.534-43.244 29.534-69.614v-179.306c0-54.846-44.298-99.146-99.146-99.146v0c-54.846 0-99.146 44.298-99.146 99.146v0c0 54.846 44.298 99.146 99.146 99.146 11.6 0 23.207-2.109 33.752-6.327h-1.055v86.487c0 0 0 0 0 0 0 17.929-14.764 32.698-32.698 32.698-3.164 0-5.273 0-8.437-1.055v0l-131.843-32.698c-13.709-3.164-24.261-16.873-24.261-31.643 0 0 0 0 0 0v0-212.003c0-54.846-44.298-99.146-99.146-99.146v0zM362.831 150.387c-17.929 0-32.698-14.764-32.698-32.698s14.764-33.752 32.698-33.752v0c17.929 0 32.698 14.764 32.698 33.752s-14.764 32.698-32.698 32.698v0zM626.516 215.78c-17.929 0-32.698-14.764-32.698-32.698s14.764-32.698 32.698-32.698v0c17.929 0 32.698 14.764 32.698 32.698s-14.764 32.698-32.698 32.698v0zM263.686 561.735c0-26.37-22.152-48.516-49.571-48.516s-49.571 22.152-49.571 48.516c0 27.425 22.152 49.571 49.571 49.571s49.571-22.152 49.571-49.571zM461.976 561.735c0-26.37-22.152-48.516-49.571-48.516s-49.571 22.152-49.571 48.516c0 27.425 22.152 49.571 49.571 49.571s49.571-22.152 49.571-49.571zM691.91 561.735c0-26.37-22.152-48.516-49.571-48.516s-48.516 22.152-48.516 48.516c0 27.425 22.152 49.571 48.516 49.571s49.571-22.152 49.571-49.571zM890.201 561.735c0-26.37-22.152-48.516-49.571-48.516s-49.571 22.152-49.571 48.516c0 27.425 22.152 49.571 49.571 49.571s49.571-22.152 49.571-49.571z" />
<glyph unicode="&#xe927;" glyph-name="spotify-outline" d="M527.372-212.444c291.108 0 527.372 236.262 527.372 527.372s-236.262 527.372-527.372 527.372-527.372-236.262-527.372-527.372 236.262-527.372 527.372-527.372zM527.372-159.707c-261.575 0-474.634 213.057-474.634 474.634s213.057 474.634 474.634 474.634 474.634-212.003 474.634-474.634-212.003-474.634-474.634-474.634zM757.305 93.43c-8.437-15.819-28.48-20.041-44.298-10.546-121.294 73.832-275.288 90.707-455.649 49.571-3.164 0-5.273-1.055-7.382-1.055-17.929 0-32.698 14.764-32.698 32.698 0 14.764 10.546 28.48 25.316 31.643v0c197.237 45.353 367.049 25.316 504.165-58.011 15.819-9.491 20.041-29.534 10.546-44.298zM821.643 234.766c-12.655-18.985-36.916-25.316-55.901-13.709-140.281 86.487-352.283 110.748-517.878 61.176-3.164-1.055-7.382-2.109-11.6-2.109-17.929 0-33.752 11.6-39.025 28.48v0c-1.055 3.164-1.055 7.382-1.055 11.6 0 18.985 11.6 33.752 28.48 39.025v0c188.798 56.956 422.951 29.534 583.272-68.559 18.985-11.6 25.316-36.916 13.709-55.901zM826.918 381.375c-167.704 100.201-444.046 108.639-603.311 60.121-4.218-1.055-9.491-2.109-14.764-2.109-26.37 0-48.516 22.152-48.516 49.571 0 21.098 14.764 40.080 34.807 45.353v1.055c183.525 54.846 488.346 44.298 681.362-69.614 13.709-8.437 23.207-24.261 23.207-42.189 0-26.37-21.098-48.516-48.516-48.516-8.437 0-16.873 2.109-24.261 7.382v-1.055z" />
<glyph unicode="&#xe928;" glyph-name="travel-world" d="M362.831-8.879c0 0 0 0 0 0-2.109 0-4.218 0-5.273 0v0c-107.585 18.985-199.346 74.887-262.629 155.047l-1.055 1.055c-2.109 1.055-3.164 3.164-4.218 5.273v0c-55.901 71.723-89.652 163.484-89.652 261.575 0 25.316 2.109 49.571 6.327 73.832v-3.164c17.929 105.476 72.778 196.182 149.774 259.466v0c7.382 6.327 14.764 11.6 23.207 17.929l1.055 1.055c68.559 49.571 155.047 79.105 247.864 79.105 25.316 0 49.571-2.109 73.832-6.327h-2.109c91.762-14.764 170.868-58.011 232.044-119.185v0c1.055-1.055 3.164-3.164 4.218-5.273v0c58.011-60.121 99.146-137.117 114.967-223.605v-2.109c0-2.109 0-3.164 0-5.273 0-18.985-14.764-32.698-32.698-32.698 0 0 0 0 0 0v0c0 0 0 0 0 0-15.819 0-29.534 11.6-32.698 26.37v1.055c-10.546 62.231-36.916 118.131-73.832 164.54v-1.055l-17.929-24.261c-12.655-16.873-20.041-36.916-20.041-59.066 0-11.6 2.109-22.152 5.273-31.643v0l11.6-33.752c1.055-3.164 2.109-6.327 2.109-10.546 0-13.709-9.491-26.37-22.152-30.589h-1.055c-3.164-1.055-6.327-2.109-10.546-2.109-13.709 0-26.37 9.491-30.589 22.152v0l-11.6 33.752c-5.273 15.819-8.437 33.752-8.437 52.735 0 36.916 11.6 70.669 32.698 98.092v0l25.316 33.752c-63.287 55.901-146.609 89.652-237.318 89.652-1.055 0-1.055 0-1.055 0v0c0 0 0 0 0 0-65.396 0-126.568-17.929-179.306-48.516l2.109 1.055 177.197-67.505c37.971-13.709 64.341-49.571 64.341-91.762 0-7.382-1.055-13.709-2.109-21.098v1.055l-13.709-68.559c-8.437-37.971-35.862-66.45-71.723-76.996h-1.055l-74.887-17.929-45.353-111.803c-12.655-31.643-33.752-56.956-60.121-75.941h-1.055l-55.901-35.862c52.735-54.846 122.349-92.817 199.346-106.53h2.109c15.819-3.164 27.425-16.873 27.425-32.698 0-2.109 0-4.218 0-5.273v0c-3.164-15.819-16.873-27.425-32.698-27.425 0 0 0 0 0 0v0zM186.689 684.084c-60.121-53.79-101.255-125.514-114.967-207.784l-1.055-2.109c-3.164-17.929-4.218-39.025-4.218-61.176 0-73.832 22.152-142.391 60.121-199.346l-1.055 1.055 61.176 39.025c15.819 11.6 28.48 27.425 35.862 45.353l51.68 127.624c3.164 9.491 11.6 16.873 22.152 18.985v0l91.762 23.207c11.6 3.164 21.098 12.655 23.207 25.316v0l14.764 68.559c0 2.109 0 5.273 0 7.382 0 13.709-8.437 25.316-21.098 30.589v0l-218.331 83.324zM768.906-212.444c-29.534 0-53.79 18.985-62.231 44.298l-1.055 1.055-59.066 179.306-179.306 60.121c-26.37 8.437-45.353 33.752-45.353 62.231 0 27.425 16.873 50.626 40.080 61.176h1.055l546.356 222.55c4.218 2.109 8.437 3.164 12.655 3.164 9.491 0 16.873-4.218 23.207-10.546v0c6.327-5.273 9.491-13.709 9.491-23.207 0-4.218-1.055-8.437-2.109-12.655v1.055l-222.55-547.411c-10.546-24.261-33.752-41.134-61.176-41.134 0 0 0 0 0 0v0zM768.906-145.996l193.017 473.579-474.634-193.017 176.142-59.066 106.53 107.585c6.327 5.273 13.709 9.491 23.207 9.491 0 0 0 0 0 0v0c17.929 0 32.698-14.764 32.698-33.752 0-8.437-3.164-16.873-9.491-23.207l-106.53-106.53 59.066-175.087z" />
<glyph unicode="&#xe929;" glyph-name="instagram" d="M0 314.927c0 291.108 236.262 527.372 527.372 527.372s527.372-236.262 527.372-527.372c0-291.108-236.262-527.372-527.372-527.372s-527.372 236.262-527.372 527.372zM527.372 596.542c-75.941 0-85.433-1.055-116.021-2.109-29.534-1.055-50.626-6.327-68.559-12.655-17.929-7.382-33.752-16.873-49.571-32.698s-25.316-31.643-32.698-49.571c-6.327-17.929-11.6-39.025-12.655-68.559s-2.109-40.080-2.109-116.021 1.055-85.433 2.109-116.021c1.055-29.534 6.327-50.626 12.655-68.559 7.382-17.929 16.873-33.752 32.698-49.571s31.643-25.316 49.571-32.698c17.929-6.327 39.025-11.6 68.559-12.655 30.589-1.055 40.080-2.109 116.021-2.109s86.487 1.055 116.021 2.109c29.534 1.055 50.626 6.327 68.559 12.655 17.929 7.382 33.752 16.873 49.571 32.698s25.316 31.643 32.698 49.571c6.327 17.929 11.6 39.025 12.655 68.559 1.055 30.589 2.109 40.080 2.109 116.021s-1.055 86.487-2.109 116.021c-1.055 29.534-6.327 50.626-12.655 68.559-7.382 17.929-16.873 33.752-32.698 49.571s-31.643 25.316-49.571 32.698c-17.929 6.327-39.025 11.6-68.559 12.655-30.589 1.055-40.080 2.109-116.021 2.109v0zM502.056 545.915c7.382 0 15.819 0 25.316 0 74.887 0 84.378-1.055 113.912-2.109 27.425-1.055 42.189-5.273 51.68-9.491 13.709-5.273 23.207-11.6 32.698-21.098s15.819-18.985 21.098-32.698c4.218-9.491 8.437-24.261 9.491-51.68 1.055-29.534 2.109-39.025 2.109-113.912s-1.055-84.378-2.109-113.912c-1.055-27.425-5.273-42.189-9.491-51.68-5.273-13.709-11.6-22.152-21.098-32.698-9.491-9.491-18.985-15.819-32.698-21.098-9.491-3.164-24.261-8.437-51.68-9.491-29.534-1.055-39.025-1.055-113.912-1.055s-84.378 0-113.912 1.055c-27.425 1.055-42.189 6.327-51.68 9.491-13.709 5.273-23.207 11.6-32.698 21.098s-15.819 18.985-21.098 32.698c-3.164 9.491-8.437 24.261-9.491 51.68-1.055 30.589-2.109 39.025-2.109 113.912s1.055 84.378 2.109 113.912c1.055 27.425 6.327 42.189 9.491 51.68 5.273 13.709 11.6 23.207 21.098 32.698s18.985 15.819 32.698 21.098c9.491 4.218 24.261 8.437 51.68 9.491 26.37 1.055 35.862 2.109 88.597 2.109v0zM677.144 498.451c-17.929 0-33.752-14.764-33.752-33.752 0-17.929 15.819-33.752 33.752-33.752s33.752 15.819 33.752 33.752c0 18.985-14.764 33.752-33.752 33.752v0zM527.372 459.426c-80.16 0-144.5-64.341-144.5-144.5s64.341-144.5 144.5-144.5c80.16 0 144.5 64.341 144.5 144.5s-64.341 144.5-144.5 144.5v0zM527.372 408.798c51.68 0 93.871-42.189 93.871-93.871s-42.189-93.871-93.871-93.871c-51.68 0-93.871 42.189-93.871 93.871s42.189 93.871 93.871 93.871v0z" />
<glyph unicode="&#xe92a;" glyph-name="chevron-left" d="M803.713-57.397l-371.27 372.324 371.27 372.324-113.912 114.967-487.29-487.29 487.29-487.29z" />
<glyph unicode="&#xe92b;" glyph-name="ellipsis-h" d="M131.843 446.77c-72.778 0-131.843-59.066-131.843-131.843s59.066-131.843 131.843-131.843c72.778 0 131.843 59.066 131.843 131.843s-59.066 131.843-131.843 131.843v0zM922.899 446.77c-72.778 0-131.843-59.066-131.843-131.843s59.066-131.843 131.843-131.843c72.778 0 131.843 59.066 131.843 131.843s-59.066 131.843-131.843 131.843v0zM527.372 446.77c-72.778 0-131.843-59.066-131.843-131.843s59.066-131.843 131.843-131.843c72.778 0 131.843 59.066 131.843 131.843s-59.066 131.843-131.843 131.843v0z" />
<glyph unicode="&#xe92c;" glyph-name="move-vertical" d="M627.571 313.872c0-52.735-44.298-95.981-100.201-95.981s-100.201 43.244-100.201 95.981c0 53.79 44.298 97.036 100.201 97.036s100.201-43.244 100.201-97.036zM678.198 535.367l-150.828 144.5-150.828-144.5-70.669 67.505 221.495 213.057 221.495-213.057zM527.372-188.186l-221.495 213.057 70.669 67.505 150.828-144.5 150.828 144.5 70.669-67.505z" />
<glyph unicode="&#xe92d;" glyph-name="twitter-outline" d="M527.372-212.444c291.108 0 527.372 236.262 527.372 527.372s-236.262 527.372-527.372 527.372-527.372-236.262-527.372-527.372 236.262-527.372 527.372-527.372zM527.372-159.707c-261.575 0-474.634 213.057-474.634 474.634s213.057 474.634 474.634 474.634 474.634-212.003 474.634-474.634-212.003-474.634-474.634-474.634zM511.55 414.072l1.055-18.985-17.929 2.109c-67.505 9.491-126.568 37.971-176.142 86.487l-24.261 24.261-6.327-17.929c-12.655-39.025-4.218-81.214 23.207-109.694 14.764-15.819 11.6-17.929-13.709-8.437-9.491 3.164-16.873 5.273-17.929 4.218-2.109-3.164 6.327-36.916 13.709-50.626 9.491-17.929 28.48-36.916 50.626-47.462l17.929-8.437h-22.152c-20.041 0-21.098-1.055-18.985-8.437 7.382-24.261 36.916-49.571 69.614-61.176l22.152-7.382-20.041-12.655c-27.425-15.819-62.231-26.37-98.092-27.425v0c-16.873 0-30.589-2.109-30.589-3.164 0-3.164 45.353-24.261 71.723-32.698 78.051-24.261 171.923-13.709 241.536 27.425 49.571 29.534 99.146 88.597 122.349 144.5 12.655 30.589 25.316 85.433 25.316 111.803 0 17.929 1.055 20.041 22.152 40.080 11.6 11.6 23.207 25.316 25.316 28.48 4.218 7.382 4.218 7.382-14.764 1.055-31.643-11.6-35.862-9.491-21.098 7.382 11.6 11.6 25.316 32.698 25.316 39.025 0 2.109-5.273 0-11.6-3.164-6.327-4.218-21.098-9.491-32.698-12.655l-20.041-6.327-17.929 11.6c-9.491 7.382-24.261 14.764-31.643 16.873-17.929 5.273-47.462 4.218-64.341-2.109-45.353-16.873-74.887-60.121-71.723-106.53z" />
<glyph unicode="&#xe92e;" glyph-name="youtube-outline" d="M0 314.927c0 291.108 236.262 527.372 527.372 527.372s527.372-236.262 527.372-527.372-236.262-527.372-527.372-527.372-527.372 236.262-527.372 527.372zM52.735 314.927c0-261.575 213.057-474.634 474.634-474.634s474.634 213.057 474.634 474.634-212.003 474.634-474.634 474.634-474.634-212.003-474.634-474.634zM794.221 438.331s5.273-46.407 5.273-92.817v-43.244c0-46.407-5.273-92.817-5.273-92.817s-5.273-40.080-22.152-56.956c-21.098-23.207-45.353-23.207-56.956-25.316-78.051-5.273-196.182-5.273-196.182-5.273s-146.609 1.055-191.963 5.273c-11.6 2.109-40.080 2.109-61.176 25.316-16.873 16.873-23.207 56.956-23.207 56.956s-5.273 46.407-5.273 92.817v43.244c0 46.407 5.273 92.817 5.273 92.817s6.327 40.080 23.207 56.956c21.098 23.207 45.353 23.207 55.901 25.316 79.105 5.273 197.237 5.273 197.237 5.273v0s118.131 0 196.182-5.273c11.6-2.109 35.862-2.109 56.956-25.316 16.873-16.873 22.152-56.956 22.152-56.956zM448.265 232.656l151.883 80.16-151.883 81.214v-161.375z" />
<glyph unicode="&#xe92f;" glyph-name="no" d="M1054.741 240.040h-1054.741v149.774h1054.741z" />
<glyph unicode="&#xe930;" glyph-name="read-glasses" d="M527.372-212.444c-3.164 0-6.327 0-9.491 1.055-1.055 0-1.055 1.055-2.109 1.055l-386.036 146.609c-37.971 12.655-63.287 48.516-63.287 89.652v321.697c0 52.735 42.189 94.927 93.871 94.927 10.546 0 20.041-1.055 29.534-4.218l337.517-130.787 335.408 129.733c10.546 3.164 21.098 5.273 31.643 5.273 41.134 0 76.996-26.37 89.652-65.396 3.164-9.491 5.273-18.985 5.273-29.534v-321.697c0-41.134-26.37-76.996-65.396-89.652l-384.98-146.609c0 0-1.055-1.055-2.109-1.055-3.164-1.055-6.327-1.055-9.491-1.055zM160.321 377.157c-15.819 0-28.48-13.709-28.48-29.534v-321.697c0-12.655 8.437-23.207 20.041-27.425l342.79-130.787v381.817l-326.97 126.568c-1.055 0-4.218 1.055-7.382 1.055zM560.067-132.284l341.736 130.787c0 0 1.055 0 1.055 0 11.6 4.218 20.041 14.764 20.041 27.425v321.697c0 3.164 0 6.327-1.055 9.491-4.218 11.6-14.764 20.041-27.425 20.041-3.164 0-6.327-1.055-9.491-2.109l-324.86-125.514v-381.817zM758.359 446.77c-106.53 0-193.017 83.324-197.237 189.854-1.055 1.055-1.055 3.164-1.055 5.273 0 17.929-14.764 32.698-32.698 32.698s-32.698-14.764-32.698-32.698c0-2.109 0-4.218-1.055-5.273-4.218-106.53-90.707-189.854-197.237-189.854-95.981 0-178.251 71.723-194.073 164.54h-69.614c-17.929 0-32.698 14.764-32.698 33.752s14.764 32.698 32.698 32.698h69.614c15.819 92.817 98.092 164.54 194.073 164.54 79.105 0 148.719-45.353 180.36-116.021 14.764 9.491 32.698 13.709 50.626 13.709s35.862-4.218 50.626-13.709c31.643 70.669 101.255 116.021 180.36 116.021 95.981 0 179.306-71.723 195.128-164.54h68.559c17.929 0 32.698-14.764 32.698-32.698s-14.764-33.752-32.698-33.752h-68.559c-15.819-92.817-99.146-164.54-195.128-164.54zM758.359 776.904c-72.778 0-131.843-60.121-131.843-131.843s59.066-131.843 131.843-131.843c72.778 0 131.843 59.066 131.843 131.843s-59.066 131.843-131.843 131.843zM296.382 776.904c-72.778 0-131.843-60.121-131.843-131.843s59.066-131.843 131.843-131.843c72.778 0 131.843 59.066 131.843 131.843s-59.066 131.843-131.843 131.843zM691.91 117.689c-13.709 0-26.37 8.437-30.589 22.152-3.164 8.437-2.109 16.873 1.055 25.316s11.6 13.709 18.985 15.819l99.146 33.752c3.164 1.055 7.382 1.055 10.546 1.055 14.764 0 26.37-8.437 31.643-22.152 5.273-16.873-4.218-35.862-21.098-42.189l-99.146-32.698c-3.164-1.055-6.327-1.055-10.546-1.055z" />
<glyph unicode="&#xe931;" glyph-name="chevron-down" d="M135.007 591.269l372.324-371.27 372.324 371.27 113.912-113.912-486.236-487.29-487.29 487.29z" />
<glyph unicode="&#xe932;" glyph-name="caret-up" d="M1054.741 51.241l-527.372 527.372-527.372-527.372z" />
<glyph unicode="&#xe933;" glyph-name="caret-left" d="M791.057 842.297l-527.372-527.372 527.372-527.372z" />
<glyph unicode="&#xe934;" glyph-name="caret-right" d="M263.686-212.444l527.372 527.372-527.372 527.372z" />
<glyph unicode="&#xe935;" glyph-name="plus" d="M989.345 249.532h-922.899v131.843h922.899zM461.976-147.050v923.954h131.843v-923.954z" />
<glyph unicode="&#xe936;" glyph-name="padlock" horiz-adv-x="821" d="M718.278 491.068h-51.68v100.201c0 138.171-114.967 251.028-256.302 251.028s-256.302-112.858-256.302-251.028v-100.201h-51.68c-55.901 0-102.311-45.353-102.311-101.255v-502.056c0-54.846 46.407-100.201 102.311-100.201h615.969c55.901 0 102.311 45.353 102.311 100.201v502.056c0 55.901-46.407 101.255-102.311 101.255zM410.295 38.584c-56.956 0-102.311 45.353-102.311 100.201s45.353 101.255 102.311 101.255 102.311-45.353 102.311-101.255-46.407-100.201-102.311-100.201zM569.561 491.068h-318.532v100.201c0 85.433 71.723 156.101 159.266 156.101s159.266-70.669 159.266-156.101v-100.201z" />
<glyph unicode="&#xe937;" glyph-name="spotify" d="M527.372 842.297c291.108 0 527.372-236.262 527.372-527.372s-236.262-527.372-527.372-527.372c-291.108 0-527.372 236.262-527.372 527.372s236.262 527.372 527.372 527.372zM757.305 93.43c9.491 14.764 5.273 34.807-10.546 44.298-137.117 83.324-306.93 103.365-504.165 58.011-17.929-4.218-28.48-21.098-24.261-39.025 4.218-16.873 21.098-28.48 39.025-24.261 180.36 41.134 334.354 24.261 455.649-49.571 15.819-9.491 35.862-5.273 44.298 10.546zM821.643 234.766c11.6 18.985 5.273 44.298-13.709 55.901-160.321 98.092-394.472 125.514-583.272 68.559-21.098-6.327-33.752-29.534-27.425-50.626s29.534-33.752 50.626-26.37c165.594 49.571 377.597 25.316 517.878-61.176 18.985-11.6 43.244-5.273 55.901 13.709zM826.918 381.375c23.207-13.709 52.735-5.273 66.45 17.929 13.709 22.152 6.327 52.735-16.873 66.45-193.017 113.912-497.838 124.459-681.362 69.614-25.316-8.437-40.080-35.862-32.698-61.176 8.437-25.316 34.807-40.080 61.176-32.698 159.266 48.516 435.608 40.080 603.311-60.121z" />
<glyph unicode="&#xe938;" glyph-name="check" d="M328.024 103.979l-245.755 245.755-82.269-81.214 328.024-329.079 703.512 703.512-82.269 82.269z" />
<glyph unicode="&#xe939;" glyph-name="time-hand" d="M32.698-212.444c-17.929 0-32.698 14.764-32.698 32.698v395.528c0 17.929 14.764 32.698 32.698 32.698s33.752-14.764 33.752-32.698v-32.698h197.237c79.105 0 146.609-55.901 161.375-131.843h135.007c90.707 0 165.594-73.832 165.594-164.54 0-18.985-14.764-33.752-33.752-33.752h-625.462v-32.698c0-17.929-14.764-32.698-33.752-32.698zM653.94-80.601c-13.709 39.025-51.68 65.396-93.871 65.396h-296.382c-17.929 0-32.698 14.764-32.698 33.752s14.764 32.698 32.698 32.698h92.817c-13.709 39.025-50.626 65.396-92.817 65.396h-197.237v-197.237h587.491zM747.811 61.789c-14.764 0-28.48 10.546-31.643 25.316-2.109 8.437-1.055 16.873 3.164 25.316s12.655 12.655 21.098 14.764c24.261 6.327 48.516 15.819 70.669 27.425 161.375 83.324 224.66 283.726 140.281 444.046-56.956 109.694-168.758 177.197-293.218 177.197-51.68 0-104.42-12.655-150.828-36.916-161.375-84.378-224.66-283.726-140.281-445.101 4.218-7.382 5.273-16.873 2.109-25.316s-8.437-14.764-15.819-18.985c-5.273-2.109-10.546-3.164-15.819-3.164-11.6 0-23.207 6.327-29.534 16.873-100.201 194.073-25.316 433.499 168.758 533.699 55.901 29.534 119.185 45.353 181.415 45.353 148.719 0 283.726-81.214 352.283-213.057 48.516-92.817 58.011-200.401 26.37-301.656s-101.255-182.47-195.128-232.044c-26.37-13.709-55.901-25.316-85.433-32.698-3.164 0-5.273-1.055-8.437-1.055zM626.516 380.321c-17.929 0-32.698 14.764-32.698 33.752v263.686c0 17.929 14.764 32.698 32.698 32.698s32.698-14.764 32.698-32.698v-230.988h131.843c17.929 0 32.698-14.764 32.698-32.698s-14.764-33.752-32.698-33.752h-164.54z" />
<glyph unicode="&#xe93a;" glyph-name="time" d="M527.372 842.297c-291.108 0-527.372-236.262-527.372-527.372s236.262-527.372 527.372-527.372c291.108 0 527.372 236.262 527.372 527.372s-236.262 527.372-527.372 527.372v0zM527.372-106.969c-233.098 0-421.896 188.798-421.896 421.896s188.798 421.896 421.896 421.896c233.098 0 421.896-188.798 421.896-421.896s-188.798-421.896-421.896-421.896v0zM593.819 578.612h-66.45v-316.423l230.988-165.594 32.698 64.341-197.237 141.335z" />
<glyph unicode="&#xe93b;" glyph-name="up" d="M919.734 38.584l-372.324 371.27-372.324-371.27-113.912 113.912 486.236 487.29 487.29-487.29z" />
<glyph unicode="&#xe93c;" glyph-name="right" d="M251.028-77.437l371.27 372.324-371.27 372.324 113.912 113.912 487.29-486.236-487.29-487.29z" />
<glyph unicode="&#xe93d;" glyph-name="calendar-add" d="M527.372-47.641c-18.196 0-32.96 14.764-32.96 32.96v98.881h-98.881c-18.196 0-32.96 14.764-32.96 32.96s14.764 32.96 32.96 32.96h98.881v98.881c0 18.196 14.764 32.96 32.96 32.96s32.96-14.764 32.96-32.96v-98.881h98.881c18.196 0 32.96-14.764 32.96-32.96s-14.764-32.96-32.96-32.96h-98.881v-98.881c0-18.196-14.764-32.96-32.96-32.96zM98.881-212.444c-54.538 0-98.881 44.345-98.881 98.881v725.134c0 54.538 44.342 98.881 98.881 98.881h164.803v98.881c0 18.196 14.764 32.96 32.96 32.96s32.96-14.764 32.96-32.96v-98.881h395.528v98.881c0 18.196 14.764 32.96 32.96 32.96s32.96-14.764 32.96-32.96v-98.881h164.803c54.535 0 98.881-44.342 98.881-98.881v-725.134c0-54.535-44.345-98.881-98.881-98.881h-856.977zM65.92-113.563c0-18.196 14.764-32.96 32.96-32.96h856.977c18.196 0 32.96 14.764 32.96 32.96v494.409h-922.899v-494.409zM988.821 611.573c0 18.196-14.764 32.96-32.96 32.96h-164.803v-65.92c0-18.196-14.764-32.96-32.96-32.96s-32.96 14.764-32.96 32.96v65.92h-395.528v-65.92c0-18.196-14.764-32.96-32.96-32.96s-32.96 14.764-32.96 32.96v65.92h-164.803c-18.196 0-32.96-14.764-32.96-32.96v-164.803h922.899v164.803z" />
<glyph unicode="&#xe93e;" glyph-name="expand-horizontal" d="M197.763 117.158c-8.792 0-17.097 3.426-23.294 9.665l-164.802 164.802c-3.077 3.077-5.491 6.682-7.164 10.766-0.131 0.349-0.306 0.748-0.436 1.143-1.404 3.781-2.065 7.557-2.065 11.425 0 3.913 0.704 7.737 2.109 11.469 0.087 0.306 0.218 0.617 0.349 0.924 1.76 4.262 4.174 7.868 7.295 10.945l164.759 164.759c6.239 6.24 14.502 9.665 23.294 9.665s17.097-3.426 23.294-9.665c6.239-6.196 9.665-14.502 9.665-23.294s-3.426-17.097-9.665-23.294l-108.55-108.55h282.976c18.196 0 32.96-14.764 32.96-32.96s-14.764-32.96-32.96-32.96h-283.021l108.55-108.55c12.833-12.833 12.833-33.752 0-46.626-6.196-6.239-14.502-9.665-23.294-9.665zM856.977 117.158c-8.789 0-17.094 3.426-23.29 9.665-12.836 12.833-12.836 33.752 0 46.626l108.549 108.55h-282.975c-18.196 0-32.96 14.764-32.96 32.96s14.764 32.96 32.96 32.96h282.975l-108.549 108.55c-6.243 6.196-9.669 14.502-9.669 23.294s3.426 17.097 9.669 23.294c6.238 6.196 14.502 9.665 23.29 9.665 8.794 0 17.099-3.426 23.296-9.665l164.802-164.802c3.075-3.077 5.493-6.682 7.162-10.766 0.131-0.349 0.309-0.748 0.44-1.142 1.359-3.557 2.062-7.469 2.062-11.382 0-3.825-0.703-7.644-2.062-11.338-0.089-0.262-0.178-0.48-0.262-0.704-1.847-4.567-4.307-8.174-7.382-11.295l-164.761-164.758c-6.196-6.284-14.502-9.709-23.296-9.709zM527.367 84.202c-18.196 0-32.96 14.764-32.96 32.96v395.526c0 18.196 14.764 32.96 32.96 32.96s32.96-14.764 32.96-32.96v-395.526c0-18.196-14.764-32.96-32.96-32.96z" />
<glyph unicode="&#xe93f;" glyph-name="twitter" d="M527.372-212.444c-291.108 0-527.372 236.262-527.372 527.372s236.262 527.372 527.372 527.372c291.108 0 527.372-236.262 527.372-527.372s-236.262-527.372-527.372-527.372zM511.55 414.072l1.055-18.985-17.929 2.109c-67.505 9.491-126.568 37.971-176.142 86.487l-24.261 24.261-6.327-17.929c-12.655-39.025-4.218-81.214 23.207-109.694 14.764-15.819 11.6-17.929-13.709-8.437-9.491 3.164-16.873 5.273-17.929 4.218-2.109-3.164 6.327-36.916 13.709-50.626 9.491-17.929 28.48-36.916 50.626-47.462l17.929-8.437h-22.152c-20.041 0-21.098-1.055-18.985-8.437 7.382-24.261 36.916-49.571 69.614-61.176l22.152-7.382-20.041-12.655c-29.534-16.873-63.287-26.37-98.092-27.425-16.873 0-30.589-2.109-30.589-3.164 0-3.164 45.353-24.261 71.723-32.698 78.051-24.261 171.923-13.709 241.536 27.425 49.571 29.534 99.146 88.597 122.349 144.5 12.655 30.589 25.316 85.433 25.316 111.803 0 17.929 1.055 20.041 22.152 40.080 11.6 11.6 23.207 25.316 25.316 28.48 4.218 7.382 3.164 7.382-14.764 1.055-31.643-11.6-35.862-9.491-21.098 7.382 11.6 11.6 25.316 32.698 25.316 39.025 0 2.109-5.273 0-11.6-3.164-6.327-4.218-21.098-9.491-32.698-12.655l-20.041-6.327-17.929 11.6c-9.491 7.382-24.261 14.764-31.643 16.873-17.929 5.273-47.462 4.218-64.341-2.109-45.353-16.873-74.887-60.121-71.723-106.53z" />
<glyph unicode="&#xe940;" glyph-name="no-wine-b" d="M0 338.981c0-282.879 230.125-513.001 513.001-513.001 135.774 0 263.727 52.667 360.513 148.429 0.811 0.558 1.623 1.238 2.223 1.837 0.855 0.814 1.494 1.628 2.008 2.352 95.63 96.744 148.258 224.694 148.258 360.384 0 282.877-230.123 513.001-513.001 513.001-135.861 0-263.895-52.754-360.725-148.599-0.77-0.557-1.495-1.154-2.052-1.711-0.727-0.77-1.367-1.495-1.839-2.18-95.674-96.785-148.386-224.737-148.386-360.512zM64.126 338.981c0 108.288 38.86 211.955 109.825 293.694l108.348-108.349-2.218-14.466c-0.212-1.404-0.366-2.81-0.519-4.214l-0.183-1.589c-0.366-1.56-0.551-3.085-0.551-4.579-8.581-79.422 24.702-159.61 86.934-209.444 36.064-28.857 78.844-46.263 124.341-50.689v-220.989h-68.705c-12.609 0-22.901-10.26-22.901-22.901s10.26-22.901 22.901-22.901h183.215c12.641 0 22.901 10.26 22.901 22.901s-10.26 22.901-22.901 22.901h-68.705v221.019c9.156 0.892 18.202 2.308 27.105 4.238l243.681-243.681c-81.739-70.965-185.365-109.826-293.694-109.826-247.523 0-448.876 201.353-448.876 448.876zM628.654 268.656l223.397-223.368c70.965 81.739 109.826 185.365 109.826 293.694 0 247.523-201.353 448.876-448.876 448.876-108.329 0-211.955-38.903-293.737-109.867l75.087-75.076 9.76 63.625c3.449 22.535 22.504 38.872 45.254 38.872h327.222c22.779 0 41.803-16.337 45.254-38.842l24.092-156.678c0.202-1.336 0.351-2.7 0.495-4.036l0.024-0.21 0.183-1.56c0.334-1.586 0.519-3.083 0.551-4.579 8.579-79.422-24.673-159.61-86.937-209.444-10.041-8.035-20.6-15.18-31.596-21.407zM375.080 522.195l-40.574 40.569 14.827 96.842h327.254l21.132-137.411h-322.639zM420.92 476.36h281.867c0.672-58.324-25.438-113.988-71.148-150.571-11.457-9.158-23.869-16.925-36.934-23.188l-173.786 173.759zM330.263 476.36l192.252-192.252c-3.163-0.163-6.334-0.246-9.507-0.246-42.69 0-84.797 14.905-118.602 41.927-45.712 36.612-71.849 92.279-71.148 150.603v-0.032h7.006z" />
<glyph unicode="&#xe941;" glyph-name="file-folder" d="M224.657-116.853c-88.493 0-160.47 71.975-160.47 160.47v385.127c0 17.715 14.378 32.093 32.093 32.093s32.093-14.378 32.093-32.093v-385.127c0-53.105 43.177-96.282 96.282-96.282h577.691c53.105 0 96.282 43.177 96.282 96.282v385.127c0 17.715 14.378 32.093 32.093 32.093s32.093-14.378 32.093-32.093v-385.127c0-88.493-71.975-160.47-160.47-160.47h-577.691zM32.093 525.025c-17.715 0-32.093 14.378-32.093 32.093v128.375c0 53.105 43.177 96.282 96.282 96.282h834.442c53.105 0 96.282-43.177 96.282-96.282v-128.375c0-17.715-14.378-32.093-32.093-32.093h-962.817zM962.817 589.214v96.282c0 17.715-14.378 32.093-32.093 32.093h-834.442c-17.715 0-32.093-14.378-32.093-32.093v-96.282h898.631zM449.315 268.274c-53.105 0-96.282 43.177-96.282 96.282s43.177 96.282 96.282 96.282h128.375c53.105 0 96.282-43.177 96.282-96.282s-43.177-96.282-96.282-96.282h-128.375zM449.315 396.65c-17.715 0-32.093-14.378-32.093-32.093s14.378-32.093 32.093-32.093h128.375c17.715 0 32.093 14.378 32.093 32.093s-14.378 32.093-32.093 32.093h-128.375z" />
<glyph unicode="&#xe942;" glyph-name="mail" horiz-adv-x="1458" d="M182.552-161.735c-75.516 0-136.913 61.396-136.913 136.913v730.205c0 30.67 9.982 59.693 28.964 83.975 0.424 0.672 0.913 1.337 1.337 1.887 0.362 0.484 0.913 1.095 1.398 1.645 25.861 31.277 64.259 49.409 105.21 49.409h1095.309c40.836 0 79.162-18.075 105.336-49.531 0.603-0.611 1.152-1.277 1.577-1.887 0.371-0.424 0.732-1.034 1.095-1.585 18.926-24.282 28.907-53.245 28.907-83.914v-730.205c0-75.52-61.404-136.913-136.913-136.913h-1095.309zM136.913-24.822c0-25.194 20.446-45.637 45.637-45.637h1095.309c25.194 0 45.637 20.446 45.637 45.637v711.221l-442.748-340.519c-42.84-32.98-96.327-51.176-150.544-51.176s-107.706 18.196-150.544 51.176l-442.748 340.519v-711.221zM635.278 418.231c27.016-20.809 60.728-32.248 94.927-32.248s67.848 11.439 94.87 32.248l432.704 332.852h-1055.205l432.708-332.852z" />
<glyph unicode="&#xe943;" glyph-name="music" d="M197.764-212.519c-109.033 0-197.764 88.727-197.764 197.764 0 109.027 88.729 197.764 197.764 197.764 49.047 0 95.892-18.415 131.843-50.626v414.554c0 71.019 45.265 133.864 112.594 156.321l487.156 135.315c8.616 2.371 17.49 3.607 26.327 3.607 44.341 0 83.548-29.84 95.368-72.515 2.374-8.525 3.608-17.404 3.608-26.327v-84.334c0.086-1.404 0.043-2.814-0.043-4.218l0.043-470.062c0.043-0.308 0.086-1.012 0.086-1.714 0-109.035-88.727-197.764-197.764-197.764s-197.764 88.727-197.764 197.764c0 109.029 88.727 197.761 197.764 197.761 49.004 0 95.806-18.37 131.756-50.582v282.319l-593.205-177.987v-449.273c0-109.035-88.729-197.764-197.764-197.764zM197.764 117.088c-72.69 0-131.843-59.159-131.843-131.843 0-72.692 59.155-131.843 131.843-131.843s131.843 59.153 131.843 131.843c0 72.686-59.155 131.843-131.843 131.843zM856.977 314.849c-72.692 0-131.843-59.154-131.843-131.839 0-72.692 59.153-131.843 131.843-131.843 72.161 0 131.142 58.538 131.799 130.607-0.043 0.438-0.043 2.905-0.043 2.905-0.839 71.721-59.901 130.172-131.756 130.172zM955.726 776.297c-2.942 0-5.889-0.393-8.744-1.186l-485.491-134.832c-39.156-13.141-65.964-50.714-65.964-93.345v-43.595l593.205 177.943v62.053c0 2.946-0.395 5.891-1.184 8.699-3.959 14.284-17.058 24.261-31.822 24.261z" />
<glyph unicode="&#xe944;" glyph-name="check-square" d="M399.035 79.305c-5.007 0-10.057 0.515-15.064 1.496-20.199 4.023-37.615 15.618-49.040 32.693l-104.413 148.146c-10.185 14.463-6.72 34.534 7.747 44.719 5.434 3.852 11.812 5.863 18.486 5.863 10.441 0 20.241-5.092 26.275-13.607l104.839-148.787c2.31-3.465 5.135-5.391 8.6-6.077 0.856-0.171 1.713-0.256 2.569-0.256 2.481 0 4.922 0.771 7.018 2.182 1.198 0.814 2.225 1.798 3.081 2.91l336.002 425.137c6.077 7.704 15.234 12.153 25.119 12.153 7.189 0 14.25-2.438 19.854-6.89 6.72-5.306 10.998-12.924 11.983-21.439s-1.368-16.902-6.677-23.621l-335.617-424.624c-4.836-6.375-10.998-12.153-18.102-16.947-12.708-8.557-27.473-13.052-42.665-13.052zM96.282-180.999c-53.105 0-96.282 43.177-96.282 96.282v834.442c0 53.105 43.177 96.282 96.282 96.282h834.442c53.105 0 96.282-43.177 96.282-96.282v-834.442c0-53.105-43.177-96.282-96.282-96.282h-834.442zM96.282 781.821c-17.715 0-32.093-14.378-32.093-32.093v-834.442c0-17.715 14.378-32.093 32.093-32.093h834.442c17.715 0 32.093 14.378 32.093 32.093v834.442c0 17.715-14.378 32.093-32.093 32.093h-834.442z" />
<glyph unicode="&#xe945;" glyph-name="youtube" d="M0 314.927c0 291.108 236.262 527.372 527.372 527.372s527.372-236.262 527.372-527.372c0-291.108-236.262-527.372-527.372-527.372s-527.372 236.262-527.372 527.372zM794.221 438.331c0 0-5.273 40.080-22.152 56.956-21.098 23.207-45.353 23.207-56.956 25.316-78.051 5.273-196.182 5.273-196.182 5.273v0c0 0-118.131 0-197.237-5.273-10.546-2.109-34.807-2.109-55.901-25.316-16.873-16.873-23.207-56.956-23.207-56.956s-5.273-46.407-5.273-92.817v-43.244c0-46.407 5.273-92.817 5.273-92.817s6.327-40.080 23.207-56.956c21.098-23.207 49.571-23.207 61.176-25.316 45.353-4.218 191.963-5.273 191.963-5.273s118.131 0 196.182 5.273c11.6 2.109 35.862 2.109 56.956 24.261 16.873 17.929 22.152 58.011 22.152 58.011s5.273 46.407 5.273 92.817v43.244c0 46.407-5.273 92.817-5.273 92.817zM448.265 232.656v161.375l151.883-81.214z" />
<glyph unicode="&#xe946;" glyph-name="concert-outline" d="M1030.021 312.867c0-284.433-230.577-515.009-515.009-515.009s-515.009 230.577-515.009 515.009c0 284.432 230.578 515.009 515.009 515.009s515.009-230.578 515.009-515.009zM515.009-149.323c255.26 0 462.188 206.928 462.188 462.188s-206.928 462.188-462.188 462.188c-255.26 0-462.188-206.928-462.188-462.188s206.928-462.188 462.188-462.188zM374.037 363.665c-34.405 0-62.397 27.989-62.397 62.397s27.989 62.397 62.397 62.397c34.405 0 62.397-27.989 62.397-62.397s-27.989-62.397-62.397-62.397zM374.037 460.724c-19.118 0-34.666-15.547-34.666-34.666s15.547-34.666 34.666-34.666c19.118 0 34.666 15.547 34.666 34.666s-15.547 34.666-34.666 34.666zM692.939 363.665c-34.405 0-62.397 27.989-62.397 62.397s27.989 62.397 62.397 62.397c34.405 0 62.397-27.989 62.397-62.397s-27.989-62.397-62.397-62.397zM692.939 460.724c-19.118 0-34.666-15.547-34.666-34.666s15.547-34.666 34.666-34.666c19.118 0 34.666 15.547 34.666 34.666s-15.547 34.666-34.666 34.666zM620.651 294.377c-4.196 0-8.135 1.868-10.778 5.139-18.726 23.129-46.606 36.401-76.501 36.401-22.426 0-44.35-7.767-61.766-21.851-5.323-4.325-10.224-9.207-14.53-14.53-2.646-3.271-6.579-5.139-10.778-5.139-3.161 0-6.267 1.090-8.726 3.087-5.268 4.27-6.579 11.627-3.455 17.397-12.239 21.299-35.441 34.868-60.234 34.868-9.336 0-18.451-1.887-27.1-5.581-4.643-1.997-9.097-4.49-13.201-7.449-2.365-1.703-5.158-2.61-8.080-2.61-4.453 0-8.668 2.162-11.259 5.77-2.162 3.014-3.032 6.674-2.438 10.334s2.591 6.861 5.599 9.023c5.752 4.123 11.964 7.633 18.469 10.426 12.221 5.231 25.048 7.878 38.176 7.878 12.349 0 24.497-2.365 36.105-7.008 18.046-7.228 33.055-19.265 43.854-35.070 0.055 0.055 0.11 0.092 0.165 0.147 22.702 18.396 50.047 28.099 79.053 28.099 4.453 0 8.986-0.239 13.44-0.704 24.644-2.591 47.401-12.055 66.316-27.511 10.799 15.786 25.808 27.823 43.836 35.052 11.608 4.643 23.756 7.008 36.105 7.008 13.127 0 25.955-2.646 38.176-7.878 6.506-2.793 12.717-6.285 18.469-10.426 6.212-4.472 7.614-13.146 3.161-19.357-2.61-3.626-6.824-5.789-11.277-5.789-2.922 0-5.715 0.907-8.098 2.61-4.104 2.959-8.539 5.452-13.201 7.449-8.726 3.737-17.893 5.637-27.252 5.637-8.821 0-17.489-1.685-25.808-5.011-14.494-5.807-26.549-16.343-34.274-29.894 1.348-2.438 1.905-5.25 1.611-8.098-0.386-3.682-2.181-6.989-5.066-9.317-2.456-2.015-5.544-3.106-8.706-3.106zM533.483 363.686c-42.059 0-76.259 34.2-76.259 76.259s34.2 76.259 76.259 76.259c42.041 0 76.259-34.2 76.259-76.259s-34.218-76.259-76.259-76.259zM533.483 488.476c-26.751 0-48.528-21.777-48.528-48.528s21.759-48.528 48.528-48.528c26.769 0 48.528 21.777 48.528 48.528s-21.777 48.528-48.528 48.528zM443.364 72.483c-26.769 0-48.528 21.759-48.528 48.528s21.777 48.528 48.528 48.528c7.247 0 14.346-1.629 20.797-4.717v50.934c0 17.931 11.443 33.796 28.454 39.47l83.86 23.315c3.81 1.274 8.117 1.979 12.497 1.979 17.912 0 33.777-11.461 39.451-28.509 1.421-4.233 2.126-8.668 2.126-13.146v-90.128c0-26.769-21.759-48.528-48.528-48.528s-48.528 21.759-48.528 48.528c0 26.769 21.759 48.528 48.528 48.528 7.247 0 14.346-1.629 20.797-4.717v46.311c0 1.495-0.239 2.959-0.704 4.362-1.887 5.697-7.192 9.501-13.183 9.501-1.476 0-2.959-0.239-4.38-0.704l-83.842-23.315c-5.048-1.703-8.821-7.063-8.821-12.944v-94.748c0-26.788-21.777-48.547-48.528-48.547zM443.364 141.811c-11.48 0-20.797-9.336-20.797-20.797s9.317-20.797 20.797-20.797c11.48 0 20.797 9.336 20.797 20.797s-9.336 20.797-20.797 20.797zM582.020 169.542c-11.461 0-20.797-9.336-20.797-20.797s9.317-20.797 20.797-20.797c11.48 0 20.797 9.336 20.797 20.797s-9.336 20.797-20.797 20.797z" />
</font>
</defs>
</svg>
