<?xml version="1.0" standalone="no"?>
<!DOCTYPE svg PUBLIC "-//W3C//DTD SVG 1.1//EN" "http://www.w3.org/Graphics/SVG/1.1/DTD/svg11.dtd" >
<svg xmlns="http://www.w3.org/2000/svg">
<metadata>Generated by IcoMoon</metadata>
<defs>
<font id="sofarsounds-icon-font" horiz-adv-x="1024">
<font-face units-per-em="1024" ascent="870.850439882698" descent="-153.14956011730206" />
<missing-glyph horiz-adv-x="1024" />
<glyph unicode="&#x20;" horiz-adv-x="0" d="" />
<glyph unicode="&#xe830;" glyph-name="icon-search2" d="M970.966-159.994c-13.774 0-27.56 5.298-37.096 15.896l-233.18 232.119c-74.192-57.236-165.345-89.032-259.677-89.032-234.24 0-423.962 189.723-423.962 423.962s189.723 423.962 423.962 423.962c234.24 0 423.962-189.723 423.962-423.962 0-94.331-31.798-185.484-89.032-259.677l232.119-233.18c15.896-14.834 20.141-38.156 11.655-57.236-8.477-20.141-27.56-32.858-48.754-32.858v0zM441.013 740.924c-175.944 0-317.973-142.027-317.973-317.973 0-174.884 143.088-317.973 317.973-317.973s317.973 143.088 317.973 317.973c0 174.884-143.088 317.973-317.973 317.973v0z" />
<glyph unicode="&#xe900;" glyph-name="rock" horiz-adv-x="747" d="M354.749-190.793c-195.602 0-354.721 159.119-354.721 354.721v445.058c-0.665 29.326 10.34 57.576 31.020 79.208s48.516 33.917 78.422 34.582c0.952 0 2.068 0.041 3.184 0.041 28.501 0 55.713-11.046 76.644-31.061 21.632-20.68 33.917-48.516 34.582-78.422 0.041-1.699 0.041-3.348 0-5.006v-103.116c15.223 7.648 32.013 11.661 49.222 11.661l3.348-0.041c29.945-0.665 58.031-13.319 78.38-34.664 20.926 22.001 49.925 34.705 80.782 34.705l2.61-0.041c16.544-0.369 32.678-4.423 47.318-11.743 0 0-0.041 187.412 0 189.149 1.362 60.349 51.577 109.444 111.926 109.444l2.61-0.041c61.671-1.403 110.726-52.734 109.361-114.449v-552.723c0-0.369 0-0.747-0.041-1.157-0.583-72.175-36.231-152.337-95.465-214.587-68.372-71.888-160.402-111.512-259.176-111.512zM110.796 660.731c-13.278-0.287-25.686-5.794-34.91-15.428s-14.148-22.297-13.811-35.616v-445.76c0-161.395 131.283-292.679 292.679-292.679 181.333 0 292.68 154.489 292.68 265.256-1.239 36.439-20.393 71.1-51.208 92.197-23.331 16.79-50.338 25.604-78.463 25.645-0.369-0.041-0.747-0.041-1.157-0.041-0.328 0-0.706 0-1.075 0.041h-140.549c-26.181-0.583-47.482-22.001-48.066-48.765-0.287-13.319 4.587-25.973 13.811-35.616s21.632-15.1 34.951-15.428h140.673c17.332 0 31.268-13.899 31.268-31.020s-13.899-31.020-31.020-31.020c-34.951-0.041-67.793-13.688-92.528-38.423s-38.341-57.576-38.3-92.445c0-8.272-3.225-16.093-9.060-21.96-5.876-5.876-13.647-9.101-21.919-9.101-17.127 0-31.020 13.899-31.061 31.020-0.041 49.016 18.571 95.589 51.208 130.911-30.445 0.706-58.406 12.95-79.086 34.582-7.484 7.821-13.729 16.544-18.612 25.973-1.116-0.041-2.273-0.041-3.389-0.041-19.027 0-37.971 4.965-54.761 14.394-26.139 14.681-44.964 38.634-53.069 67.462-2.774 9.848-4.177 19.975-4.177 30.191 0 0 0.041 346.118 0 346.904-0.583 27.343-22.584 48.765-50.050 48.765h-0.993zM273.97 454.827c-27.467 0-49.427-21.427-50.050-48.807v-140.921c0-4.546 0.624-9.060 1.863-13.442 3.598-12.909 12.039-23.618 23.7-30.15 4.965-2.774 10.381-4.719 15.924-5.669 3.767 36.937 25.727 69.655 58.323 87.192v103.695c-0.624 26.181-22.001 47.482-48.765 48.066l-0.993 0.041zM547.623 314.072c30.318-4.678 59.19-16.503 84.296-34.624 5.375-3.685 10.545-7.691 15.51-11.998v422.432c0.624 28.041-21.263 51.126-48.765 51.742h-0.952c-27.007 0-49.468-21.878-50.050-48.807-0.082-0.747-0.041-378.754-0.041-378.754zM435.821 454.827c-27.008 0-49.469-21.878-50.050-48.807v-89.631h99.807v90.336c-0.583 26.181-22.001 47.482-48.765 48.066l-0.993 0.041z" />
<glyph unicode="&#xe901;" glyph-name="alert-triangle" horiz-adv-x="1168" d="M492.448 741.007l-467.584-809.265c-0.026-0.045-0.051-0.089-0.077-0.134-18.636-31.756-17.995-70.649 1.622-101.809 19.46-30.913 54.118-48.916 90.482-48.92h935.159c36.365 0.004 71.021 18.006 90.48 48.92 19.61 31.158 20.257 70.054 1.623 101.814-0.027 0.040-0.053 0.085-0.080 0.129l-467.582 809.264c-19.087 32.39-54.619 51.432-92.018 51.432s-72.933-19.043-92.018-51.432zM116.886-151.686c-14.539 0-26.994 7.22-33.408 17.409-6.23 9.904-6.389 21.794-0.498 31.796l467.574 809.252c0.022 0.034 0.040 0.067 0.062 0.101zM550.613 706.873c6.257 10.534 18.924 18.131 33.855 18.131s27.597-7.587 33.855-18.131c0.022-0.034 0.040-0.067 0.062-0.101l467.573-809.252c5.892-10.002 5.732-21.892-0.499-31.796-6.409-10.189-18.866-17.409-33.408-17.409 0.004 0 0 0 0 0h-935.155zM584.466 50.638c-26.474 0-51.7-20.627-51.7-50.577s25.232-50.577 51.7-50.577c26.474 0 51.7 20.627 51.7 50.577s-25.232 50.577-51.7 50.577zM584.466 488.987c18.621 0 33.721-15.1 33.721-33.721v-303.471c0-18.621-15.1-33.721-33.721-33.721s-33.721 15.1-33.721 33.721v303.471c0 18.621 15.1 33.721 33.721 33.721z" />
<glyph unicode="&#xe902;" glyph-name="check-circle" d="M1013.383 786.818c12.652-10.545 14.362-29.357 3.817-42.012l-458.384-549.949c-18.773-22.524-46.932-35.069-76.228-33.976-29.299 1.089-56.441 15.695-73.485 39.552l-139.91 195.787c-9.575 13.403-6.474 32.032 6.929 41.611s32.032 6.474 41.611-6.928l139.909-195.787c6.299-8.818 16.335-14.22 27.17-14.622 10.836-0.398 21.245 4.234 28.179 12.558 0 0 0-0.004 0 0l458.384 549.948c10.545 12.651 29.356 14.363 42.012 3.818zM122.017 561.145c151.973 180 412.922 221.51 613.279 97.562 14.011-8.663 18.34-27.047 9.668-41.061s-27.049-18.342-41.061-9.669c-175.213 108.394-403.414 72.089-536.309-85.314-132.893-157.399-130.359-388.37 5.954-542.822s365.258-185.748 538.046-73.541 237.248 334.024 151.502 521.304c-6.864 14.982-0.272 32.683 14.7 39.537s32.682 0.272 39.535-14.7c98.064-214.187 24.343-467.86-173.248-596.169s-459.386-92.528-615.27 84.101c-155.886 176.627-158.784 440.778-6.81 620.781z" />
<glyph unicode="&#xe903;" glyph-name="grid" d="M96.847 551.69c-53.417 0-96.847 43.428-96.847 96.847v64.567c0 53.417 43.429 96.847 96.847 96.847h64.567c53.418 0 96.847-43.429 96.847-96.847v-64.567c0-53.418-43.428-96.847-96.847-96.847h-64.567zM96.847 745.386c-17.817 0-32.28-14.462-32.28-32.28v-64.567c0-17.817 14.462-32.28 32.28-32.28h64.567c17.817 0 32.28 14.462 32.28 32.28v64.567c0 17.817-14.462 32.28-32.28 32.28h-64.567zM484.24 551.601c-53.418 0-96.847 43.428-96.847 96.847v64.567c0 53.417 43.428 96.847 96.847 96.847h64.567c53.418 0 96.847-43.429 96.847-96.847v-64.567c0-53.418-43.428-96.847-96.847-96.847h-64.567zM484.24 745.297c-17.817 0-32.28-14.462-32.28-32.28v-64.567c0-17.817 14.462-32.28 32.28-32.28h64.567c17.817 0 32.28 14.462 32.28 32.28v64.567c0 17.817-14.462 32.28-32.28 32.28h-64.567zM871.631 551.601c-53.416 0-96.847 43.428-96.847 96.847v64.567c0 53.417 43.43 96.847 96.847 96.847h64.567c53.416 0 96.847-43.429 96.847-96.847v-64.567c0-53.418-43.43-96.847-96.847-96.847h-64.567zM871.631 745.297c-17.817 0-32.28-14.462-32.28-32.28v-64.567c0-17.817 14.462-32.28 32.28-32.28h64.567c17.817 0 32.28 14.462 32.28 32.28v64.567c0 17.817-14.462 32.28-32.28 32.28h-64.567zM96.847 164.21c-53.417 0-96.847 43.428-96.847 96.847v64.567c0 53.418 43.429 96.847 96.847 96.847h64.567c53.418 0 96.847-43.428 96.847-96.847v-64.567c0-53.418-161.413-96.847-161.413-96.847zM96.847 357.904c-17.817 0-32.28-14.462-32.28-32.28v-64.567c0-17.817 14.462-32.28 32.28-32.28h64.567c17.817 0 32.28 14.462 32.28 32.28v64.567c0 17.817-14.462 32.28-32.28 32.28h-64.567zM484.24 164.21c-53.418 0-96.847 43.428-96.847 96.847v64.567c0 53.418 43.428 96.847 96.847 96.847h64.567c53.418 0 96.847-43.428 96.847-96.847v-64.567c0-53.418-43.428-96.847-96.847-96.847h-64.567zM484.24 357.904c-17.817 0-32.28-14.462-32.28-32.28v-64.567c0-17.817 14.462-32.28 32.28-32.28h64.567c17.817 0 32.28 14.462 32.28 32.28v64.567c0 17.817-14.462 32.28-32.28 32.28h-64.567zM871.631 164.21c-53.416 0-96.847 43.428-96.847 96.847v64.567c0 53.418 43.43 96.847 96.847 96.847h64.567c53.416 0 96.847-43.428 96.847-96.847v-64.567c0-53.418-43.43-96.847-96.847-96.847h-64.567zM871.631 357.904c-17.817 0-32.28-14.462-32.28-32.28v-64.567c0-17.817 14.462-32.28 32.28-32.28h64.567c17.817 0 32.28 14.462 32.28 32.28v64.567c0 17.817-14.462 32.28-32.28 32.28h-64.567zM96.847-223.184c-53.417 0-96.847 43.43-96.847 96.847v64.567c0 53.416 43.429 96.847 96.847 96.847h64.567c53.418 0 96.847-43.43 96.847-96.847v-64.567c0-53.416-43.428-96.847-96.847-96.847h-64.567zM96.847-29.488c-17.817 0-32.28-14.462-32.28-32.28v-64.567c0-17.817 14.462-32.28 32.28-32.28h64.567c17.817 0 32.28 14.462 32.28 32.28v64.567c0 17.817-14.462 32.28-32.28 32.28h-64.567zM484.24-223.184c-53.418 0-96.847 43.43-96.847 96.847v64.567c0 53.416 43.428 96.847 96.847 96.847h64.567c53.418 0 96.847-43.43 96.847-96.847v-64.567c0-53.416-43.428-96.847-96.847-96.847h-64.567zM484.24-29.488c-17.817 0-32.28-14.462-32.28-32.28v-64.567c0-17.817 14.462-32.28 32.28-32.28h64.567c17.817 0 32.28 14.462 32.28 32.28v64.567c0 17.817-14.462 32.28-32.28 32.28h-64.567zM871.631-223.184c-53.416 0-96.847 43.43-96.847 96.847v64.567c0 53.416 43.43 96.847 96.847 96.847h64.567c53.416 0 96.847-43.43 96.847-96.847v-64.567c0-53.416-43.43-96.847-96.847-96.847h-64.567zM871.631-29.488c-17.817 0-32.28-14.462-32.28-32.28v-64.567c0-17.817 14.462-32.28 32.28-32.28h64.567c17.817 0 32.28 14.462 32.28 32.28v64.567c0 17.817-14.462 32.28-32.28 32.28h-64.567z" />
<glyph unicode="&#xe904;" glyph-name="pencil" d="M32.139-230.378c-8.528 0-16.843 3.443-22.876 9.477-8.016 8.016-11.246 19.859-8.443 30.849l76.26 297.506c0.256 0.949 0.906 2.718 1.29 3.624 0.043 0.171 0.299 0.863 0.65 1.599 1.769 3.88 3.88 7.025 6.503 9.605l625.862 625.861c35.547 35.721 82.94 55.409 133.478 55.537 50.753 0 98.106-19.561 133.825-55.107l1.247-1.247c35.371-36.233 54.461-83.931 53.899-134.47-0.607-50.538-20.765-97.761-56.871-133.006l-624.484-624.483c-2.675-2.675-5.905-4.871-9.956-6.631-2.068-0.906-3.358-1.418-4.786-1.812l-297.635-76.346c-2.633-0.65-5.298-0.949-7.973-0.949zM76.994-153.211l190.007 48.728-141.364 141.106-48.642-189.834zM329.819-75.872l560.976 560.975-175.53 175.53-561.104-561.146 175.66-175.358zM936.421 530.859c44.419 48.47 43.732 123.742-2.537 171.136l-0.863 0.863c-23.441 23.313-54.631 36.19-87.765 36.19h-0.043c-31.627-0.085-61.224-11.673-84.19-32.832l175.401-175.358z" />
<glyph unicode="&#xe905;" glyph-name="feedback" d="M226.199-230.378c-4.999 0-9.999 1.162-14.476 3.401-10.99 5.511-17.834 16.587-17.834 28.909v161.571h-96.942c-53.469 0-96.942 43.471-96.942 96.942v646.284c0 53.469 43.471 96.942 96.942 96.942h840.168c53.469 0 96.942-43.471 96.942-96.942v-646.284c0-53.469-43.471-96.942-96.942-96.942h-441.627l-249.897-187.422c-5.554-4.179-12.451-6.46-19.39-6.46zM96.942 739.050c-17.834 0-32.312-14.476-32.312-32.312v-646.284c0-17.834 14.476-32.312 32.312-32.312h129.256c17.834 0 32.312-14.476 32.312-32.312v-129.256l206.811 155.107c5.554 4.179 12.451 6.46 19.39 6.46h452.399c17.834 0 32.312 14.476 32.312 32.312v646.284c0 17.834-14.476 32.312-32.312 32.312h-840.168zM415.045 458.99c-12.408 0-23.526 6.939-28.995 18.055-7.537 15.339-20.595 26.841-36.797 32.357-6.726 2.281-13.698 3.443-20.723 3.443-9.781 0-19.219-2.239-28.131-6.588-12.621-6.204-23.004-16.544-29.209-29.209-5.469-11.118-16.587-18.055-28.995-18.055-4.914 0-9.828 1.119-14.263 3.315-15.987 7.845-22.577 27.229-14.732 43.257 12.493 25.423 33.347 46.274 58.725 58.725 17.877 8.794 36.925 13.229 56.614 13.229 14.135 0 28.131-2.324 41.62-6.939 32.532-11.075 58.767-34.165 73.892-65.014 7.845-15.987 1.247-35.371-14.731-43.257-4.392-2.196-9.349-3.315-14.263-3.315zM629.696 458.99c-4.914 0-9.871 1.162-14.263 3.315-7.711 3.795-13.527 10.383-16.331 18.569s-2.239 16.931 1.599 24.688c12.493 25.423 33.347 46.231 58.725 58.725 17.877 8.794 36.925 13.229 56.614 13.229 14.135 0 28.131-2.324 41.62-6.939 32.532-11.075 58.767-34.165 73.893-65.014 3.795-7.76 4.349-16.501 1.599-24.688-2.803-8.187-8.571-14.775-16.331-18.569-4.435-2.196-9.349-3.315-14.263-3.315-12.408 0-23.526 6.939-28.995 18.1-7.537 15.297-20.595 26.799-36.797 32.312-6.726 2.281-13.698 3.443-20.723 3.443-9.781 0-19.262-2.239-28.175-6.588-12.621-6.204-23.004-16.587-29.209-29.209-5.426-11.161-16.544-18.055-28.952-18.055zM522.371 156.963c-69.627 0-136.624 26.106-188.586 73.503-13.143 12.024-14.092 32.489-2.111 45.626 6.119 6.726 14.817 10.553 23.867 10.553 8.101 0 15.809-3.017 21.757-8.443 39.985-36.493 91.514-56.571 145.070-56.571s105.042 20.123 145.070 56.571c5.948 5.426 13.655 8.443 21.757 8.443 9.050 0 17.749-3.837 23.867-10.553 5.82-6.375 8.837-14.647 8.4-23.27-0.384-8.613-4.136-16.587-10.511-22.407-51.961-47.351-118.959-73.461-188.586-73.461z" />
<glyph unicode="&#xe906;" glyph-name="tree" d="M526.379-219.605c-17.834 0-32.312 14.476-32.312 32.312v96.942h-257.092c-14.433 0-28.568 4.871-39.857 13.698-13.57 10.596-22.191 25.893-24.304 43.001-2.111 17.151 2.59 34.037 13.186 47.607l145.112 186.518c-13.399 0.299-26.628 4.871-37.352 12.884-13.783 10.34-22.748 25.466-25.16 42.567-2.452 17.109 1.897 34.122 12.28 47.912l116.331 155.107h-4.307c-13.229 0.043-25.16 3.667-35.977 10.862-14.348 9.562-24.126 24.171-27.534 41.104s0 34.165 9.605 48.513l133.565 200.262c4.743 7.11 10.724 13.1 17.834 17.834 10.681 7.153 23.092 10.905 35.891 10.905 21.714 0 41.838-10.724 53.855-28.738l133.565-200.304c7.11-10.639 10.862-23.004 10.862-35.849 0-35.634-28.995-64.63-64.63-64.63h-4.307l116.331-155.107c8.272-11.075 12.838-24.773 12.884-38.562 0.085-35.241-28.131-64.024-63.163-64.843l145.070-186.561c8.837-11.331 13.655-25.466 13.613-39.857-0.043-17.237-6.769-33.434-18.999-45.626-12.195-12.109-28.352-18.825-45.539-18.825h-257.135v-96.813c0-17.834-14.476-32.312-32.312-32.312zM397.162 265.107c12.237 0 23.654-7.11 29.037-18.1 5.384-11.033 4.008-24.389-3.529-34.037l-185.698-238.694c0 0 578.811 0.043 578.855 0.043l-185.698 238.651c-7.537 9.69-8.922 23.048-3.529 34.037s16.8 18.1 29.037 18.1h64.63l-155.107 206.811c-7.366 9.871-8.528 22.833-3.059 33.823s16.587 17.877 28.909 17.877h68.937l-133.565 200.262-133.608-200.304h69.022c12.323 0 23.398-6.854 28.909-17.834 5.511-11.033 4.349-23.995-3.059-33.866l-155.107-206.811 64.63 0.043z" />
<glyph unicode="&#xe907;" glyph-name="pet" d="M517.371-230.378c-72.34 0-137.658 21.97-194.229 65.318-1.812 1.119-3.486 2.409-4.999 3.837-94.616 75.399-156.789 206.423-179.796 378.981-2.367 17.663 10.084 33.951 27.747 36.318 1.503 0.213 2.889 0.299 4.264 0.299 16.117 0 29.901-12.067 32.011-28.046 19.817-148.516 70.229-261.702 145.974-328.097 50.971 18.313 93.238 70.748 116.762 105.603-46.317 14.952-76.995 49.333-76.995 88.929 0 54.375 56.785 96.942 129.256 96.942s129.256-42.567 129.256-96.942c0-39.596-30.679-73.979-76.995-88.885 23.569-34.857 65.835-87.335 116.719-105.646 75.789 66.395 126.198 179.537 145.974 328.053 2.153 15.987 15.896 28.046 32.054 28.046 1.375 0 2.803-0.085 4.221-0.256 17.706-2.367 30.157-18.655 27.833-36.318-23.092-173.204-85.653-304.529-180.873-379.756-0.863-0.735-1.727-1.375-2.675-2.025-56.827-44.035-122.579-66.352-195.522-66.352zM410.778-142.655c33.003-15.339 68.723-23.092 106.593-23.092s73.633 7.76 106.593 23.092c-46.747 29.123-83.199 73.763-106.593 108.145-23.398-34.381-59.844-78.977-106.593-108.145zM517.371 125.079c-36.405 0-64.63-17.365-64.63-32.312s28.22-32.312 64.63-32.312c36.405 0 64.63 17.365 64.63 32.312s-28.22 32.312-64.63 32.312zM881.876 316.676c-16.331 0-32.576 4.221-47.009 12.28-16.544 9.221-29.901 22.919-38.693 39.683-43.557 80.399-78.761 165.925-104.569 253.992-0.043 0.213-0.256 0.991-0.299 1.162-4.008 15.851-4.957 32.097-2.761 48.385-47.436 41.489-107.585 64.284-170.36 64.284-2.324 0-4.701-0.043-7.067-0.085-63.98-1.556-124.387-26.239-171.007-69.757 1.29-14.348 0.128-28.739-3.443-42.916-0.043-0.213-0.256-0.991-0.341-1.205-25.765-87.98-61.008-173.592-104.741-254.292-8.613-16.459-21.97-30.114-38.518-39.292-14.433-8.016-30.679-12.28-47.009-12.28-8.965 0-17.965 1.247-26.713 3.752-24.901 7.11-45.539 23.483-58.122 46.103-46.747 83.028-90.694 201.728-34.336 295.654 31.969 59.287 88.756 102.974 155.367 119.26 9.734 2.196 19.433 3.273 29.123 3.273 10.681 0 21.33-1.333 31.627-3.923 29.559-7.451 55.324-25.16 72.987-49.719 54.933 43.513 122.965 68.203 193.496 69.928 2.846 0.085 5.692 0.128 8.528 0.128 71.047 0 140.115-23.569 196.427-66.655 17.578 22.961 42.053 39.164 70.488 46.359 10.34 2.633 20.979 3.923 31.713 3.923 9.647 0 19.305-1.077 28.611-3.187 66.997-16.373 123.957-60.364 156.531-120.64 55.708-92.762 11.63-211.42-35.156-294.535-12.536-22.492-33.131-38.865-58.036-45.932-8.746-2.495-17.706-3.752-26.713-3.752zM816.73 720.084c-5.383 0-10.769-0.65-15.942-1.983-34.425-8.699-55.495-43.863-46.878-78.328 24.347-82.94 57.819-164.199 99.313-240.805 3.102-5.905 7.579-10.511 13.101-13.57 4.829-2.675 10.255-4.093 15.638-4.093 3.017 0 5.991 0.427 8.922 1.247 8.315 2.367 15.211 7.845 19.39 15.382 38.473 68.29 75.789 163.683 35.415 230.982-24.517 45.283-66.352 77.77-115.212 89.704-4.264 0.949-8.965 1.461-13.741 1.461zM211.293 720.084c-4.829 0-9.605-0.522-14.263-1.599-48.427-11.85-90.092-44.078-114.004-88.327-41.019-68.463-3.795-163.941 34.6-232.102 4.264-7.665 11.161-13.143 19.475-15.51 2.974-0.863 5.948-1.29 8.965-1.29 5.383 0 10.815 1.418 15.638 4.093 5.511 3.059 9.999 7.622 12.93 13.229 41.664 76.952 75.183 158.253 99.657 241.796 3.965 16.032 1.418 33.347-7.409 48.129-8.879 14.861-22.961 25.381-39.727 29.602-5.127 1.29-10.468 1.983-15.851 1.983zM371.957 318.964c-1.897 0-3.795 0.171-5.641 0.522-22.102 2.59-39.727 20.253-42.309 42.309-0.341 1.855-0.522 3.752-0.522 5.641s0.171 3.795 0.522 5.641c2.59 22.102 20.253 39.727 42.309 42.309 1.855 0.341 3.752 0.522 5.641 0.522s3.795-0.171 5.641-0.522c22.102-2.59 39.727-20.253 42.309-42.309 0.341-1.855 0.522-3.752 0.522-5.641s-0.171-3.795-0.522-5.641c-2.59-22.102-20.253-39.727-42.309-42.309-1.855-0.341-3.752-0.522-5.641-0.522zM662.785 318.964c-1.897 0-3.795 0.171-5.641 0.469-22.102 2.59-39.727 20.253-42.351 42.351-0.299 1.812-0.469 3.709-0.469 5.597s0.171 3.795 0.469 5.597c2.59 22.102 20.253 39.77 42.351 42.351 1.855 0.384 3.752 0.565 5.641 0.565s3.795-0.171 5.641-0.469c22.102-2.59 39.727-20.253 42.309-42.351 0.341-1.812 0.469-3.709 0.469-5.597s-0.171-3.795-0.469-5.597c-2.59-22.102-20.211-39.77-42.309-42.351-1.855-0.384-3.752-0.565-5.641-0.565z" />
<glyph unicode="&#xe908;" glyph-name="byob" d="M290.828-230.378c-53.469 0-96.942 43.471-96.942 96.942v490.271c0 25.893 10.084 50.197 28.352 68.507l100.906 100.906v212.8c0 35.634 28.995 64.63 64.63 64.63h64.63c35.634 0 64.63-28.995 64.63-64.63v-212.8l100.863-100.863c6.119-6.076 9.477-14.22 9.477-22.833s-3.358-16.757-9.477-22.833c-6.119-6.076-14.22-9.477-22.833-9.477s-16.757 3.358-22.833 9.477l-110.342 110.3c-6.119 6.119-9.477 14.22-9.477 22.833v64.63h-64.63v-64.63c0-8.613-3.358-16.757-9.477-22.833l-110.342-110.342c-6.076-6.119-9.434-14.22-9.434-22.833v-490.271c0-17.834 14.476-32.312 32.312-32.312h161.571c17.834 0 32.312-14.476 32.312-32.312s-14.476-32.312-32.312-32.312h-161.571zM452.399 642.107v96.942h-64.63v-96.942h64.63zM581.655-230.378c-17.834 0-32.312 14.476-32.312 32.312s14.476 32.312 32.312 32.312h64.63v135.504c-74.625 15.083-129.256 80.742-129.256 158.253v158.642c0 17.834 14.476 32.312 32.312 32.312h258.512c17.834 0 32.312-14.476 32.312-32.312v-158.642c0-77.51-54.631-143.174-129.256-158.253v-135.504h64.63c17.834 0 32.312-14.476 32.312-32.312s-14.476-32.312-32.312-32.312h-193.885zM581.655 128.008c0-53.469 43.471-96.942 96.942-96.942s96.942 43.471 96.942 96.942v126.327h-193.885v-126.327z" />
<glyph unicode="&#xe909;" glyph-name="media" d="M853.526 663.649h-672.996c-47.88 0-93.797-19.019-127.654-52.874s-52.874-79.774-52.874-127.654v-392.94c0-47.881 19.019-93.797 52.874-127.655s79.774-52.874 127.654-52.874h672.996c23.705 0 47.184 4.675 69.082 13.736 21.902 9.076 41.808 22.373 58.571 39.134s30.059 36.668 39.134 58.571c9.071 21.897 13.736 45.377 13.736 69.082v392.94c0 23.707-4.675 47.184-13.736 69.083-9.076 21.9-22.373 41.807-39.134 58.569s-36.668 30.059-58.571 39.133c-21.897 9.074-45.377 13.738-69.082 13.738zM969.425 90.179c0-15.224-3-30.292-8.828-44.351-5.824-14.066-14.361-26.837-25.121-37.602s-23.539-19.3-37.602-25.121c-14.062-5.829-29.127-8.828-44.351-8.828h-672.996c-30.74 0-60.219 12.212-81.954 33.947s-33.946 51.218-33.946 81.953v392.94c0 30.74 12.212 60.219 33.946 81.954s51.217 33.946 81.954 33.946h672.996c15.224 0 30.292-2.999 44.351-8.826 14.066-5.828 26.837-14.362 37.602-25.122s19.305-23.541 25.121-37.602c5.829-14.065 8.828-29.129 8.828-44.352v-392.94zM426.548 517.146c-4.877 3.074-10.481 4.791-16.245 4.966s-11.461-1.188-16.516-3.96c-5.055-2.772-9.276-6.842-12.229-11.785s-4.522-10.595-4.556-16.362v-373.119c0.034-5.769 1.613-11.412 4.556-16.365s7.174-9.020 12.229-11.785c5.055-2.773 10.753-4.136 16.516-3.961s11.368 1.893 16.245 4.969l291.689 186.561c4.533 2.927 8.263 6.948 10.848 11.685 2.59 4.743 3.94 10.054 3.94 15.455 0 5.396-1.35 10.707-3.94 15.45-2.585 4.748-6.306 8.765-10.848 11.69l-291.689 186.559zM441.627 175.912v255.065l199.486-129.254-199.486-125.811z" />
<glyph unicode="&#xe90a;" glyph-name="concert" d="M145.414 448.22c-80.183 0-145.414 65.231-145.414 145.414s65.231 145.414 145.414 145.414c80.183 0 145.414-65.231 145.414-145.414s-65.231-145.414-145.414-145.414zM145.414 674.42c-44.548 0-80.786-36.233-80.786-80.786s36.233-80.786 80.786-80.786c44.548 0 80.786 36.233 80.786 80.786s-36.233 80.786-80.786 80.786zM888.64 448.22c-80.183 0-145.414 65.231-145.414 145.414s65.231 145.414 145.414 145.414c80.183 0 145.414-65.231 145.414-145.414s-65.231-145.414-145.414-145.414zM888.64 674.42c-44.548 0-80.786-36.233-80.786-80.786s36.233-80.786 80.786-80.786c44.548 0 80.786 36.233 80.786 80.786s-36.233 80.786-80.786 80.786zM720.158 286.693c-9.781 0-18.954 4.349-25.117 11.981-43.644 53.899-108.619 84.836-178.289 84.836-52.265 0-103.361-18.1-143.947-50.927-12.408-10.084-23.825-21.458-33.866-33.866-6.161-7.622-15.339-11.981-25.117-11.981-7.366 0-14.604 2.537-20.339 7.195-12.28 9.956-15.339 27.097-8.059 40.542-28.525 49.632-82.595 81.259-140.373 81.259-21.757 0-43.001-4.392-63.163-13.015-10.815-4.658-21.202-10.468-30.764-17.365-5.511-3.965-12.024-6.076-18.825-6.076-10.383 0-20.211 5.042-26.239 13.442-5.042 7.025-7.067 15.553-5.692 24.082s6.033 15.987 13.058 21.023c13.399 9.605 27.875 17.791 43.044 24.304 28.483 12.195 58.383 18.356 88.972 18.356 28.781 0 57.088-5.511 84.147-16.331 42.053-16.843 77.038-44.898 102.199-81.734 0.128 0.128 0.256 0.213 0.384 0.341 52.909 42.872 116.631 65.491 184.233 65.491 10.383 0 20.936-0.565 31.322-1.641 57.435-6.033 110.471-28.089 154.548-64.11 25.16 36.797 60.148 64.843 102.156 81.69 27.055 10.815 55.367 16.331 84.147 16.331 30.593 0 60.494-6.161 88.972-18.356 15.169-6.503 29.645-14.647 43.044-24.304 14.476-10.425 17.749-30.636 7.366-45.112-6.076-8.443-15.896-13.485-26.284-13.485-6.811 0-13.314 2.111-18.868 6.076-9.562 6.897-19.902 12.707-30.764 17.365-20.339 8.699-41.707 13.143-63.51 13.143-20.552 0-40.761-3.923-60.148-11.673-33.781-13.527-61.869-38.087-79.881-69.671 3.145-5.692 4.435-12.237 3.752-18.868-0.906-8.571-5.085-16.288-11.804-21.714-5.735-4.701-12.93-7.238-20.296-7.238zM517.025 448.22c-98.020 0-177.728 79.708-177.728 177.728s79.708 177.728 177.728 177.728c97.976 0 177.728-79.708 177.728-177.728s-79.752-177.728-177.728-177.728zM517.025 739.050c-62.346 0-113.099-50.753-113.099-113.099s50.71-113.099 113.099-113.099c62.389 0 113.099 50.753 113.099 113.099s-50.753 113.099-113.099 113.099zM306.984-230.382c-62.389 0-113.099 50.71-113.099 113.099s50.753 113.099 113.099 113.099c16.885 0 33.434-3.795 48.47-10.99v118.701c0 41.795 26.671 78.761 66.309 91.987l195.436 54.333c8.879 2.974 18.911 4.605 29.123 4.605 41.751 0 78.717-26.713 91.945-66.439 3.315-9.871 4.957-20.211 4.957-30.636v-210.043c0-62.389-50.71-113.099-113.099-113.099s-113.099 50.71-113.099 113.099c0 62.389 50.71 113.099 113.099 113.099 16.885 0 33.434-3.795 48.47-10.99v107.929c0 3.486-0.565 6.897-1.641 10.169-4.392 13.271-16.757 22.147-30.721 22.147-3.443 0-6.897-0.565-10.212-1.641l-195.393-54.333c-11.758-3.965-20.552-16.459-20.552-30.157v-220.814c0-62.432-50.753-113.143-113.099-113.143zM306.984-68.81c-26.756 0-48.47-21.757-48.47-48.47s21.714-48.47 48.47-48.47c26.756 0 48.47 21.757 48.47 48.47s-21.757 48.47-48.47 48.47zM630.127-4.182c-26.713 0-48.47-21.757-48.47-48.47s21.714-48.47 48.47-48.47c26.756 0 48.47 21.757 48.47 48.47s-21.757 48.47-48.47 48.47z" />
<glyph unicode="&#xe90b;" glyph-name="fan-experience" d="M226.199 351.278c-35.634 0-64.63 28.995-64.63 64.63v96.942c0 17.834 14.476 32.312 32.312 32.312s32.312 14.476 32.312 32.312c0 17.834-14.476 32.312-32.312 32.312s-32.312 14.476-32.312 32.312v96.942c0 35.634 28.995 64.63 64.63 64.63h581.655c35.634 0 64.63-28.995 64.63-64.63v-96.942c0-17.834-14.476-32.312-32.312-32.312s-32.312-14.476-32.312-32.312c0-17.834 14.476-32.312 32.312-32.312s32.312-14.476 32.312-32.312v-96.942c0-35.634-28.995-64.63-64.63-64.63h-581.655zM226.199 415.907h581.655v70.185c-38.13 13.527-64.63 50.068-64.63 91.385s26.5 77.899 64.63 91.385v70.185h-581.655v-70.185c38.13-13.527 64.63-50.068 64.63-91.385 0-41.36-26.5-77.899-64.63-91.385v-70.185zM387.77 480.535c-17.834 0-32.312 14.476-32.312 32.312v129.256c0 17.834 14.476 32.312 32.312 32.312s32.312-14.476 32.312-32.312v-129.256c0-17.834-14.476-32.312-32.312-32.312zM840.168-4.178c-71.263 0-129.256 57.992-129.256 129.256s57.992 129.256 129.256 129.256c71.263 0 129.256-57.992 129.256-129.256s-57.992-129.256-129.256-129.256zM840.168 189.707c-35.634 0-64.63-28.995-64.63-64.63s28.995-64.63 64.63-64.63c35.634 0 64.63 28.995 64.63 64.63s-28.995 64.63-64.63 64.63zM1001.739-230.378c-17.834 0-32.312 14.476-32.312 32.312 0 71.263-57.992 129.256-129.256 129.256s-129.256-57.992-129.256-129.256c0-17.834-14.476-32.312-32.312-32.312s-32.312 14.476-32.312 32.312c0 71.263-57.992 129.256-129.256 129.256s-129.256-57.992-129.256-129.256c0-17.834-14.476-32.312-32.312-32.312s-32.312 14.476-32.312 32.312c0 71.263-57.992 129.256-129.256 129.256s-129.256-57.992-129.256-129.256c0-17.834-14.476-32.312-32.312-32.312s-32.312 14.476-32.312 32.312c0 106.895 86.99 193.885 193.885 193.885 65.361 0 125.982-33.391 161.571-87.119 35.591 53.725 96.21 87.119 161.571 87.119s125.982-33.391 161.571-87.119c35.591 53.725 96.21 87.119 161.571 87.119 106.895 0 193.885-86.99 193.885-193.885 0-17.834-14.476-32.312-32.312-32.312zM517.025-4.178c-71.263 0-129.256 57.992-129.256 129.256s57.992 129.256 129.256 129.256c71.263 0 129.256-57.992 129.256-129.256s-57.992-129.256-129.256-129.256zM517.025 189.707c-35.634 0-64.63-28.995-64.63-64.63s28.995-64.63 64.63-64.63c35.634 0 64.63 28.995 64.63 64.63s-28.995 64.63-64.63 64.63zM193.885-4.178c-71.263 0-129.256 57.992-129.256 129.256s57.992 129.256 129.256 129.256c71.263 0 129.256-57.992 129.256-129.256s-57.992-129.256-129.256-129.256zM193.885 189.707c-35.634 0-64.63-28.995-64.63-64.63s28.995-64.63 64.63-64.63c35.634 0 64.63 28.995 64.63 64.63s-28.995 64.63-64.63 64.63z" />
<glyph unicode="&#xe90c;" glyph-name="event-set-up" d="M96.942-230.378c-53.469 0-96.942 43.471-96.942 96.942v64.63c0 0.607 0.043 1.29 0.128 1.897 0.043 0.341 0.085 0.693 0.085 0.906 0.085 1.418 0.384 3.486 0.949 5.469 0.171 0.693 0.384 1.375 0.65 2.068 0.607 1.769 1.333 3.401 2.153 4.957 0.299 0.65 0.65 1.29 0.949 1.812l142.57 228.138c17.834 28.568 48.555 45.582 82.208 45.582h574.675c33.653 0 64.37-17.066 82.208-45.582l142.57-228.138c0.341-0.565 0.693-1.247 0.991-1.897 0.778-1.461 1.503-3.059 2.068-4.786l0.565-1.769c0.65-2.409 0.991-4.477 1.119-6.545 0.128-0.65 0.171-1.418 0.171-2.111v-64.63c0-53.469-43.471-96.942-96.942-96.942h-840.168zM64.63-133.435c0-17.834 14.476-32.312 32.312-32.312h840.168c17.834 0 32.312 14.476 32.312 32.312v32.312h-904.798v-32.312zM943.445-36.492l-111.678 178.675c-5.948 9.519-16.203 15.211-27.406 15.211h-574.675c-11.203 0-21.458-5.692-27.406-15.211l-111.678-178.675h852.836zM484.713 28.136c-17.834 0-32.312 14.476-32.312 32.312s14.476 32.312 32.312 32.312h64.63c17.834 0 32.312-14.476 32.312-32.312s-14.476-32.312-32.312-32.312h-64.63zM290.829-4.178c-4.957 0-9.956 1.162-14.433 3.401-15.942 7.973-22.407 27.406-14.476 43.343l32.312 64.63c5.511 11.033 16.587 17.834 28.952 17.834 4.957 0 9.956-1.162 14.391-3.401 15.942-8.016 22.449-27.449 14.476-43.343l-32.312-64.63c-5.511-10.99-16.587-17.834-28.909-17.834zM743.226-4.178c-12.323 0-23.398 6.854-28.909 17.877l-32.312 64.63c-7.973 15.942-1.461 35.371 14.433 43.343 4.52 2.239 9.477 3.401 14.433 3.401 12.323 0 23.398-6.854 28.909-17.834l32.312-64.63c7.973-15.942 1.461-35.371-14.433-43.343-4.477-2.281-9.477-3.443-14.433-3.443zM517.025 254.335c-106.895 0-193.885 86.99-193.885 193.885s86.99 193.885 193.885 193.885c106.895 0 193.885-86.99 193.885-193.885s-86.99-193.885-193.885-193.885zM517.025 577.477c-71.263 0-129.256-57.992-129.256-129.256s57.992-129.256 129.256-129.256c71.263 0 129.256 57.992 129.256 129.256s-57.992 129.256-129.256 129.256zM775.54 286.65c-17.834 0-32.312 14.476-32.312 32.312v193.885c0 124.733-101.467 226.199-226.199 226.199s-226.199-101.467-226.199-226.199v-193.885c0-17.834-14.476-32.312-32.312-32.312-89.102 0-161.571 72.469-161.571 161.571 0 82.681 64.284 152.48 145.543 160.623 40.499 115.254 151.791 194.834 274.542 194.834s234.041-79.578 274.498-194.834c81.259-8.144 145.586-77.943 145.586-160.623 0-89.102-72.469-161.571-161.571-161.571zM807.855 356.836c37.874 13.485 64.63 49.937 64.63 91.385s-26.756 77.899-64.63 91.385v-182.768zM226.199 539.605c-37.874-13.485-64.63-49.937-64.63-91.385s26.756-77.899 64.63-91.385v182.768z" />
<glyph unicode="&#xe90d;" glyph-name="info" horiz-adv-x="522" d="M358.471-230.378c-118.631 0-215.083 92.741-215.083 206.811v344.685h-71.695c-39.575 0-71.695 30.883-71.695 68.937s32.117 68.937 71.695 68.937h71.695c79.056 0 143.388-61.858 143.388-137.874v-344.685c0-38.053 32.117-68.937 71.695-68.937h71.695c39.574 0 71.696-30.883 71.696-68.937s-32.118-68.937-71.696-68.937h-71.695zM179.238 596.866c59.395 0 107.542 46.296 107.542 103.405s-48.15 103.405-107.542 103.405c-59.395 0-107.542-46.296-107.542-103.405s48.15-103.405 107.542-103.405z" />
<glyph unicode="&#xe90e;" glyph-name="guest-parking" d="M226.199-226.779c-71.263 0-129.256 57.992-129.256 129.256s57.992 129.256 129.256 129.256c71.263 0 129.256-57.992 129.256-129.256s-57.992-129.256-129.256-129.256zM226.199-32.894c-35.634 0-64.63-28.995-64.63-64.63s28.995-64.63 64.63-64.63c35.634 0 64.63 28.995 64.63 64.63s-28.995 64.63-64.63 64.63zM807.855-226.779c-71.263 0-129.256 57.992-129.256 129.256s57.992 129.256 129.256 129.256c71.263 0 129.256-57.992 129.256-129.256s-57.992-129.256-129.256-129.256zM807.855-32.894c-35.634 0-64.63-28.995-64.63-64.63s28.995-64.63 64.63-64.63c35.634 0 64.63 28.995 64.63 64.63s-28.995 64.63-64.63 64.63zM411.855-0.58c-10.553 0-20.509 5.17-26.543 13.873-36.19 52.005-95.607 83.069-158.986 83.069-0.171 0-0.341 0-0.565 0-65.92-0.128-128.395-31.498-167.56-83.974-6.076-8.101-15.766-12.973-25.893-12.973-3.486 0-6.939 0.565-10.212 1.641-13.229 4.392-22.102 16.757-22.102 30.679v226.199c0 0.469 0 1.034 0.043 1.556 0.085 0.906 0.171 1.897 0.299 2.889 0.171 1.077 0.299 1.983 0.522 2.889 0.171 0.778 0.427 1.684 0.735 2.59 0.384 1.119 0.693 1.983 1.034 2.803 0.171 0.469 0.384 0.991 0.607 1.375l110.73 226.070c17.919 31.542 50.325 50.623 84.965 50.666h430.899c43.044 0 81.345-28.909 93.194-70.315l43.044-123.397h171.351c53.469 0 96.942-43.471 96.942-96.942v-226.199c0-13.918-8.879-26.239-22.102-30.679-3.315-1.119-6.726-1.684-10.212-1.684-10.127 0-19.817 4.871-25.893 12.973-39.249 52.478-101.337 83.802-166.095 83.802h-2.025c-63.724 0-123.181-31.063-159.373-83.069-5.948-8.656-15.896-13.827-26.457-13.827h-210.344zM605.999 64.048c48.684 60.793 123.397 96.856 201.511 96.942 0.213 0 0.427 0 0.565 0 58.94 0 115.038-18.399 161.701-52.393v149.507c0 17.834-14.476 32.312-32.312 32.312h-191.041c-0.949-0.085-1.897-0.128-2.846-0.128-0.991 0-1.983 0.043-2.974 0.128h-74.538c-6.417 0-12.579-1.897-17.919-5.426l-64.327-43.044c-16.032-10.681-34.6-16.331-53.812-16.331h-465.367v-117.063c46.53 34.037 102.156 52.435 159.847 52.435h1.897c78.2 0 152.953-36.105 201.684-96.942h177.943zM529.955 290.248c6.375 0 12.579 1.897 17.919 5.426l64.327 43.044c15.987 10.681 34.6 16.331 53.812 16.331h31.713l-36.19 103.879c-4.477 15.425-17.066 25.205-31.627 25.205h-306.77v-193.885h206.811zM258.512 290.248v193.885h-59.46c-11.545 0-22.236-6.247-27.961-16.288l-86.99-177.598h174.41z" />
<glyph unicode="&#xe90f;" glyph-name="artist-parking" d="M517.025-230.378c-285.097 0-517.025 231.93-517.025 517.025s231.93 517.025 517.025 517.025c285.097 0 517.025-231.93 517.025-517.025s-231.93-517.025-517.025-517.025zM517.025 739.050c-249.465 0-452.399-202.933-452.399-452.399s202.933-452.399 452.399-452.399c249.465 0 452.399 202.933 452.399 452.399s-202.933 452.399-452.399 452.399zM452.399 28.136c-17.834 0-32.312 14.476-32.312 32.312v387.77c0 17.834 14.476 32.312 32.312 32.312h96.942c71.263 0 129.256-57.992 129.256-129.256s-57.992-129.256-129.256-129.256h-64.63v-161.571c0-17.834-14.476-32.312-32.312-32.312zM549.34 286.65c35.634 0 64.63 28.995 64.63 64.63s-28.995 64.63-64.63 64.63h-64.63v-129.256h64.63z" />
<glyph unicode="&#xe910;" glyph-name="disabled" d="M807.855-230.378c-17.834 0-32.312 14.476-32.312 32.312v193.885c0 41.36-26.756 77.77-64.63 91.256v-26.628c0-160.364-130.463-290.828-290.828-290.828s-290.828 130.463-290.828 290.828c0 148.688 112.368 272.817 258.512 289.018v134.383c-74.625 15.083-129.256 80.742-129.256 158.253 0 89.102 72.469 161.571 161.571 161.571s161.571-72.469 161.571-161.571c0-77.51-54.631-143.174-129.256-158.253v-132.573h226.199c17.834 0 32.312-14.476 32.312-32.312s-14.476-32.312-32.312-32.312h-226.199v-96.942c0-17.834 14.476-32.312 32.312-32.312h193.885c89.102 0 161.571-72.469 161.571-161.571v-161.571h32.312c17.834 0 32.312-14.476 32.312-32.312s-14.476-32.312-32.312-32.312h-64.63zM387.77 284.279c-110.041-15.809-193.885-110.988-193.885-223.83 0-124.733 101.467-226.199 226.199-226.199s226.199 101.467 226.199 226.199v32.312h-161.571c-53.469 0-96.942 43.471-96.942 96.942v94.573zM420.084 739.050c-53.469 0-96.942-43.471-96.942-96.942s43.471-96.942 96.942-96.942c53.469 0 96.942 43.471 96.942 96.942s-43.471 96.942-96.942 96.942z" />
<glyph unicode="&#xe911;" glyph-name="photos" d="M613.969-4.178c-142.527 0-258.512 115.986-258.512 258.512s115.986 258.512 258.512 258.512c142.527 0 258.512-115.986 258.512-258.512s-115.986-258.512-258.512-258.512zM613.969 448.22c-106.895 0-193.885-86.99-193.885-193.885s86.99-193.885 193.885-193.885c106.895 0 193.885 86.99 193.885 193.885s-86.99 193.885-193.885 193.885zM96.942-133.435c-53.469 0-96.942 43.471-96.942 96.942v517.025c0 53.469 43.471 96.942 96.942 96.942h96.942v32.312c0 17.834 14.476 32.312 32.312 32.312s32.312-14.476 32.312-32.312v-32.312h109.265l37.831 75.659c16.544 33.045 49.763 53.597 86.731 53.597h243.261c36.968 0 70.185-20.509 86.731-53.597l37.831-75.659h76.952c53.469 0 96.942-43.471 96.942-96.942v-517.025c0-53.469-43.471-96.942-96.942-96.942h-840.168zM96.942 512.848c-17.834 0-32.312-14.476-32.312-32.312v-517.025c0-17.834 14.476-32.312 32.312-32.312h840.168c17.834 0 32.312 14.476 32.312 32.312v517.025c0 17.834-14.476 32.312-32.312 32.312h-96.942c-12.323 0-23.398 6.854-28.909 17.877l-46.747 93.539c-5.511 10.99-16.587 17.834-28.909 17.834h-243.261c-12.323 0-23.398-6.854-28.909-17.877l-46.747-93.497c-5.511-11.033-16.587-17.877-28.909-17.877h-290.828zM177.728 351.278c26.77 0 48.47 21.7 48.47 48.47s-21.7 48.47-48.47 48.47c-26.77 0-48.47-21.7-48.47-48.47s21.7-48.47 48.47-48.47z" />
<glyph unicode="&#xe912;" glyph-name="reset" d="M551.806-230.378c-63.792 0-126.067 13.352-185.117 39.608-8.518 3.795-15.157 10.892-18.653 19.998s-3.496 19.168 0.046 28.277c5.387 13.841 17.913 22.761 31.92 22.761 4.555 0 9.030-0.936 13.221-2.812 50.62-22.513 103.958-33.943 158.682-33.943 106.998 0 208.47 43.548 285.761 122.618 79.591 81.482 124.776 191.391 127.219 309.527 2.435 118.136-38.185 230.114-114.324 315.242-78.579 87.838-184.613 136.216-298.613 136.216-106.998 0-208.424-43.448-285.528-122.422-74.295-76.016-119.205-178.041-126.483-287.359-6.446-98.528 17.275-194.493 67.341-275.335v133.996c0 20.398 15.476 36.951 34.547 36.951s34.548-16.553 34.548-36.951v-221.688c0-20.398-15.476-36.947-34.548-36.947h-10.966c-0.74-0.098-1.424-0.149-2.073-0.149-0.785 0-1.571 0.051-2.346 0.149h-191.888c-19.071 0-34.548 16.548-34.548 36.947s15.476 36.951 34.548 36.951h121.416c-57.943 89.067-88.345 196.215-86.087 305.584 0.228 11.378 0.922 23.304 2.164 37.488l0.32 3.748c0.273 3.251 0.557 6.451 0.877 9.703l0.273 2.213c13.912 118.481 65.499 228.34 145.46 310.168 90.463 92.519 209.299 143.506 334.582 143.506 63.797 0 126.116-13.253 185.122-39.408 4.601-2.020 8.652-5.075 11.977-8.871 56.473-27.192 106.861-65.324 149.834-113.357 183.829-205.48 177.061-532.647-15.062-729.257-90.187-92.272-208.655-143.114-333.525-143.114h-0.094v-0.047z" />
<glyph unicode="&#xe913;" glyph-name="arrow-up" d="M517.025-230.378c-19.027 0-34.468 14.476-34.468 32.312v891.399l-423.733-397.25c-6.477-6.076-15.169-9.434-24.361-9.434s-17.874 3.358-24.361 9.477c-6.523 6.076-10.112 14.22-10.112 22.833s3.58 16.757 10.112 22.833l482.512 452.399c3.217 3.017 6.986 5.383 11.259 7.025 0.367 0.128 0.74 0.256 1.149 0.384 3.953 1.375 7.952 2.068 11.998 2.068 4.089 0 8.135-0.693 11.998-2.068 0.32-0.085 0.646-0.213 0.966-0.299 4.456-1.727 8.225-4.093 11.489-7.153l482.463-452.355c6.524-6.076 10.114-14.22 10.114-22.833s-3.58-16.757-10.114-22.833c-6.52-6.076-15.169-9.477-24.359-9.477s-17.872 3.358-24.359 9.477l-423.734 397.25v-891.441c0-17.834-15.442-32.312-34.468-32.312z" />
<glyph unicode="&#xe914;" glyph-name="map" d="M355.455-230.374c-12.323 0-24.475 2.324-36.019 6.982l-258.512 103.401c-37.011 14.775-60.921 50.154-60.921 90.001v402.834c-0.043 8.272 1.503 16.415 4.658 24.214 9.871 24.644 33.479 40.585 60.060 40.585 8.229 0 16.288-1.556 23.953-4.605l254.766-101.764c3.837-1.503 7.888-2.281 12.067-2.324 1.119 0 2.239-0.085 3.358-0.256 0.693-0.043 2.367-0.256 3.059-0.384 1.205-0.256 2.281-0.607 3.358-0.949 0.949-0.256 1.897-0.565 2.803-0.949s1.855-0.906 2.803-1.418c0.906-0.469 1.769-0.949 2.537-1.461 0.607-0.384 1.854-1.375 2.409-1.855 0.948-0.735 1.727-1.375 2.452-2.111 0.469-0.469 1.503-1.684 1.897-2.196 0.778-0.863 1.418-1.684 2.025-2.537 0.384-0.607 1.162-1.983 1.503-2.633 0.565-0.906 1.077-1.94 1.503-2.974 0.256-0.65 0.778-2.196 0.949-2.846 0.341-1.034 0.692-2.111 0.906-3.23 0.128-0.693 0.342-2.324 0.384-3.059 0.213-1.247 0.299-2.324 0.299-3.443v-451.907l254.809 101.936c1.205 0.469 2.452 0.949 3.709 1.375v425.153l-18.697-7.496c-3.837-1.556-7.888-2.324-11.981-2.324-13.314 0-25.072 7.973-30.029 20.297-6.631 16.543 1.461 35.37 17.965 42.008l39.036 15.637c11.545 4.605 23.654 6.982 36.019 6.982s24.475-2.324 35.977-6.982l258.512-103.399c37.053-14.775 60.964-50.111 60.964-90.001v-403.009c0.043-8.225-1.503-16.412-4.605-24.167-9.913-24.688-33.479-40.63-60.060-40.63-8.229 0-16.288 1.556-23.953 4.605l-254.809 101.936c-3.624 1.461-7.409 2.239-11.289 2.281-0.213 0-1.119 0-1.333 0-3.837-0.085-7.665-0.863-11.289-2.281l-275.23-110.036c-11.545-4.605-23.697-6.982-36.019-6.982zM64.674 373.016h-0.043v-403.007c0-13.314 7.973-25.072 20.339-30.024l238.177-95.262v425.152c-1.205 0.427-2.452 0.906-3.624 1.333l-254.851 101.809zM714.574-53.343l254.809-101.936v403.182c0 13.31-7.973 25.068-20.296 29.982l-238.177 95.303v-425.111c1.247-0.469 2.452-0.906 3.667-1.418zM484.713 92.794c-17.834 0-32.312 14.476-32.312 32.312v358.757c-74.625 15.125-129.256 80.739-129.256 158.246 0 89.097 72.469 161.564 161.571 161.564s161.571-72.466 161.571-161.564c0-77.507-54.631-143.169-129.256-158.246v-358.757c0-17.791-14.476-32.312-32.312-32.312zM484.713 739.053c-53.469 0-96.942-43.469-96.942-96.938s43.471-96.938 96.942-96.938c53.469 0 96.942 43.469 96.942 96.938s-43.471 96.938-96.942 96.938z" />
<glyph unicode="&#xe915;" glyph-name="commercial" d="M32.312-230.378c-17.834 0-32.312 14.476-32.312 32.312s14.476 32.312 32.312 32.312h96.942v807.855c0 2.196 0.213 4.392 0.693 6.588 0.085 0.469 0.213 0.991 0.384 1.503 0.469 1.769 0.991 3.315 1.684 4.829 0.213 0.607 0.522 1.205 0.778 1.769l64.5 128.998c5.511 11.033 16.587 17.877 28.909 17.877h581.655c12.323 0 23.398-6.854 28.909-17.877l64.63-129.256c0.256-0.522 0.469-1.077 0.735-1.684 0.821-1.897 1.418-3.667 1.812-5.426 0.043-0.171 0.085-0.384 0.128-0.565 0.522-2.367 0.735-4.563 0.735-6.769v-807.855h96.942c17.834 0 32.312-14.476 32.312-32.312s-14.476-32.312-32.312-32.312h-969.425zM840.168-165.749v775.54h-646.284v-775.54h193.885v64.63c0 71.263 57.992 129.256 129.256 129.256s129.256-57.992 129.256-129.256v-64.63h193.885zM581.655-165.749v64.63c0 35.634-28.995 64.63-64.63 64.63s-64.63-28.995-64.63-64.63v-64.63h129.256zM820.22 674.42l-32.312 64.63h-541.714l-32.312-64.63h606.344zM323.142 464.377c-1.897 0-3.795 0.171-5.641 0.522-22.102 2.59-39.727 20.253-42.309 42.309-0.341 1.855-0.522 3.752-0.522 5.641s0.171 3.795 0.522 5.641c2.59 22.102 20.253 39.727 42.309 42.309 1.855 0.341 3.752 0.522 5.641 0.522s3.795-0.171 5.641-0.522c22.102-2.59 39.727-20.253 42.309-42.309 0.341-1.855 0.522-3.752 0.522-5.641s-0.171-3.795-0.522-5.641c-2.59-22.102-20.253-39.727-42.309-42.309-1.855-0.341-3.752-0.522-5.641-0.522zM323.142 270.492c-1.897 0-3.795 0.171-5.641 0.469-22.102 2.633-39.727 20.253-42.309 42.309-0.341 1.855-0.522 3.752-0.522 5.641s0.171 3.795 0.522 5.641c2.59 22.102 20.253 39.727 42.309 42.309 1.855 0.341 3.752 0.522 5.641 0.522s3.795-0.171 5.641-0.522c22.102-2.59 39.727-20.253 42.309-42.309 0.341-1.855 0.522-3.752 0.522-5.641s-0.171-3.795-0.522-5.641c-2.59-22.102-20.253-39.727-42.309-42.309-1.855-0.299-3.752-0.469-5.641-0.469zM323.141 76.607c-1.897 0-3.795 0.171-5.597 0.469-22.102 2.59-39.77 20.253-42.351 42.309-0.341 1.855-0.469 3.752-0.469 5.641s0.171 3.795 0.469 5.641c2.59 22.102 20.253 39.727 42.351 42.351 1.812 0.299 3.709 0.469 5.597 0.469s3.795-0.171 5.597-0.469c22.102-2.633 39.77-20.253 42.351-42.351 0.341-1.855 0.469-3.752 0.469-5.641s-0.171-3.795-0.469-5.641c-2.59-22.102-20.253-39.727-42.351-42.309-1.812-0.299-3.709-0.469-5.597-0.469zM517.025 464.377c-1.897 0-3.795 0.171-5.641 0.522-22.102 2.59-39.727 20.253-42.309 42.309-0.341 1.855-0.522 3.752-0.522 5.641s0.171 3.795 0.522 5.641c2.59 22.102 20.253 39.727 42.309 42.309 1.855 0.341 3.752 0.522 5.641 0.522s3.795-0.171 5.641-0.522c22.102-2.59 39.727-20.253 42.351-42.351 0.299-1.812 0.469-3.709 0.469-5.597s-0.171-3.795-0.469-5.597c-2.633-22.102-20.253-39.727-42.351-42.351-1.855-0.341-3.752-0.522-5.641-0.522zM517.025 270.492c-1.897 0-3.795 0.171-5.641 0.469-22.102 2.633-39.727 20.253-42.309 42.309-0.341 1.855-0.522 3.752-0.522 5.641s0.171 3.795 0.522 5.641c2.59 22.102 20.253 39.727 42.309 42.309 1.855 0.341 3.752 0.522 5.641 0.522s3.795-0.171 5.641-0.522c22.102-2.59 39.727-20.253 42.351-42.351 0.299-1.812 0.469-3.709 0.469-5.597s-0.171-3.795-0.469-5.597c-2.633-22.102-20.253-39.727-42.351-42.351-1.855-0.299-3.752-0.469-5.641-0.469zM517.025 76.607c-1.897 0-3.795 0.171-5.597 0.469-22.102 2.59-39.77 20.253-42.351 42.309-0.341 1.855-0.469 3.752-0.469 5.641s0.171 3.795 0.469 5.641c2.59 22.102 20.253 39.727 42.351 42.351 1.812 0.299 3.709 0.469 5.597 0.469s3.795-0.171 5.597-0.469c22.102-2.633 39.77-20.253 42.351-42.351 0.341-1.812 0.469-3.709 0.469-5.641s-0.171-3.795-0.469-5.641c-2.59-22.102-20.253-39.77-42.351-42.351-1.812-0.256-3.709-0.427-5.597-0.427zM710.913 464.379c-1.897 0-3.795 0.171-5.641 0.469-22.102 2.59-39.727 20.253-42.309 42.351-0.341 1.812-0.469 3.709-0.469 5.597s0.171 3.795 0.469 5.597c2.59 22.102 20.253 39.77 42.309 42.351 1.855 0.341 3.752 0.469 5.641 0.469s3.795-0.171 5.641-0.469c22.102-2.59 39.727-20.253 42.351-42.351 0.299-1.812 0.469-3.709 0.469-5.597s-0.171-3.795-0.469-5.597c-2.633-22.102-20.253-39.77-42.351-42.351-1.855-0.299-3.752-0.469-5.641-0.469zM710.913 270.492c-1.897 0-3.795 0.171-5.641 0.469-22.102 2.633-39.727 20.253-42.309 42.351-0.341 1.812-0.469 3.709-0.469 5.597s0.171 3.795 0.469 5.597c2.59 22.102 20.253 39.77 42.309 42.351 1.855 0.341 3.752 0.469 5.641 0.469s3.795-0.171 5.641-0.469c22.102-2.59 39.727-20.253 42.351-42.351 0.299-1.812 0.469-3.709 0.469-5.597s-0.171-3.795-0.469-5.597c-2.633-22.102-20.253-39.727-42.351-42.351-1.855-0.299-3.752-0.469-5.641-0.469zM710.913 76.607c-1.897 0-3.795 0.171-5.597 0.469-22.102 2.59-39.77 20.253-42.351 42.351-0.299 1.812-0.469 3.709-0.469 5.597s0.171 3.795 0.469 5.641c2.59 22.102 20.253 39.77 42.351 42.351 1.812 0.341 3.709 0.469 5.641 0.469s3.795-0.171 5.641-0.469c22.102-2.59 39.77-20.253 42.351-42.351 0.341-1.812 0.469-3.709 0.469-5.641s-0.171-3.795-0.469-5.641c-2.59-22.102-20.253-39.77-42.351-42.351-1.897-0.256-3.795-0.427-5.692-0.427z" />
<glyph unicode="&#xe916;" glyph-name="residential" d="M613.969-101.121c-17.834 0-32.312 14.476-32.312 32.312v193.885c0 17.834 14.476 32.312 32.312 32.312h193.885c17.834 0 32.312-14.476 32.312-32.312v-193.885c0-17.834-14.476-32.312-32.312-32.312h-193.885zM775.54-36.492v129.256h-129.256v-129.256h129.256zM32.311-230.378c-17.834 0-32.312 14.476-32.312 32.312s14.476 32.312 32.312 32.312h32.312v436.026l-13.186-9.69c-5.597-4.093-12.237-6.247-19.134-6.247-10.255 0-19.989 4.957-26.063 13.229-5.127 6.939-7.195 15.467-5.905 24.038 1.333 8.528 5.863 16.032 12.838 21.157l446.497 327.451c16.843 12.28 36.668 18.783 57.349 18.783s40.499-6.503 57.306-18.825l71.953-52.778v54.717c0 17.834 14.476 32.312 32.312 32.312h193.885c17.791 0 32.312-14.476 32.312-32.312v-244.295l116.029-85.095c14.348-10.511 17.493-30.807 6.982-45.155-6.076-8.272-15.809-13.229-26.063-13.229-6.939 0-13.527 2.153-19.134 6.289l-13.186 9.647v-436.026h32.312c17.834 0 32.312-14.476 32.312-32.312s-14.476-32.312-32.312-32.312h-969.426zM904.798-165.749v483.42l-368.641 270.362c-5.641 4.136-12.28 6.289-19.134 6.289-6.897 0-13.485-2.196-19.134-6.289l-368.642-270.362v-483.42h129.256v226.199c0 53.469 43.471 96.942 96.942 96.942h64.63c53.471 0 96.943-43.471 96.943-96.942v-226.199h387.77zM452.399-165.749v226.199c0 17.834-14.476 32.312-32.313 32.312h-64.63c-17.834 0-32.312-14.476-32.312-32.312v-226.199h129.257zM840.168 445.204v164.587h-129.256v-69.8l129.256-94.788z" />
<glyph unicode="&#xe917;" glyph-name="calendar" d="M900.921 706.114h-52.995v105.992h-105.992v-105.992h-423.962v105.992h-105.992v-105.992h-52.995c-58.296 0-104.93-47.694-104.93-105.992l-1.060-741.935c0-58.296 47.694-105.992 105.992-105.992h741.935c58.296 0 105.992 47.694 105.992 105.992v741.935c0 58.296-47.694 105.992-105.992 105.992v0zM900.921-141.812h-741.935v582.949h741.935v-582.949z" />
<glyph unicode="&#xe918;" glyph-name="close" d="M1059.906 705.055l-107.051 107.051-422.903-422.903-422.903 422.903-107.051-107.051 422.903-422.903-422.903-422.903 107.051-107.051 422.903 422.903 422.903-422.903 107.051 107.051-422.903 422.903z" />
<glyph unicode="&#xe919;" glyph-name="caret-down" d="M0 547.127l529.956-529.956 529.956 529.956z" />
<glyph unicode="&#xe91a;" glyph-name="alert-circle" d="M529.956 812.102c-291.474 0-529.956-238.48-529.956-529.956s238.48-529.956 529.956-529.956c291.474 0 529.956 238.48 529.956 529.956s-238.48 529.956-529.956 529.956v0zM582.949 17.173h-105.992v105.992h105.992v-105.992zM582.949 229.153h-105.992v317.973h105.992v-317.973z" />
<glyph unicode="&#xe91b;" glyph-name="caret-circle-down" d="M529.956 812.102c-292.534 0-529.956-237.419-529.956-529.956s237.419-529.956 529.956-529.956c292.534 0 529.956 237.419 529.956 529.956s-237.419 529.956-529.956 529.956v0zM529.956 176.158l-211.981 211.981h423.962l-211.981-211.981z" />
<glyph unicode="&#xe91c;" glyph-name="eye" d="M529.956 426.297c-79.492 0-144.147-64.656-144.147-144.147s64.656-144.147 144.147-144.147c79.492 0 144.147 64.656 144.147 144.147s-64.656 144.147-144.147 144.147v0zM529.956 41.55c-132.488 0-240.6 108.111-240.6 240.6s108.111 240.6 240.6 240.6c133.548 0 240.6-107.051 240.6-240.6s-107.051-240.6-240.6-240.6v0zM529.956 643.577c-240.6 0-446.22-149.448-529.956-361.429 83.733-210.922 289.354-361.429 529.956-361.429s446.22 150.508 529.956 361.429c-83.733 211.981-289.354 361.429-529.956 361.429z" />
<glyph unicode="&#xe91d;" glyph-name="music-love" d="M365.668-244.624c-61.476 0-111.29 49.815-111.29 111.29s49.815 111.29 111.29 111.29c16.957 0 32.858-3.179 47.694-10.596v187.603c0 41.334 26.5 77.372 65.716 90.092l191.843 54.055c8.477 3.179 19.080 4.238 28.62 4.238 14.834 0 29.679-3.179 42.394-10.596 31.798-15.896 52.995-47.694 52.995-84.792 0 0 0 0 0 0v0-245.898c0-61.476-49.815-111.29-111.29-111.29s-111.29 49.815-111.29 111.29c0 61.476 49.815 111.29 111.29 111.29 16.957 0 32.858-3.179 47.694-10.596v145.208c0 16.957-13.774 31.798-31.798 31.798v0c0 0 0 0 0 0-3.179 0-7.417-1.060-10.596-2.119h1.060l-192.903-52.995c-11.655-4.238-20.141-15.896-20.141-29.679v-288.295c0-61.476-49.815-111.29-111.29-111.29zM365.668-85.638c-26.5 0-47.694-21.203-47.694-47.694s21.203-47.694 47.694-47.694c26.5 0 47.694 21.203 47.694 47.694s-21.203 47.694-47.694 47.694zM683.64 9.753c-26.5 0-47.694-21.203-47.694-47.694s21.203-47.694 47.694-47.694c26.5 0 47.694 21.203 47.694 47.694s-21.203 47.694-47.694 47.694zM815.068 441.135c-15.896 1.060-29.679 7.417-39.215 18.019v0l-149.448 153.687c-20.141 21.203-32.858 49.815-32.858 82.672s13.774 63.597 37.096 85.853v0c19.080 19.080 46.633 30.739 76.312 30.739h4.238c29.679-1.060 57.236-12.715 78.433-34.977l26.5-27.56 27.56 27.56c20.141 22.262 48.754 34.977 80.553 34.977 0 0 0 0 0 0v0h3.179c30.739-1.060 58.296-13.774 78.433-34.977v0c20.141-21.203 32.858-49.815 32.858-81.612s-12.715-61.476-32.858-82.672v0l-150.508-155.807c-10.596-10.596-24.381-15.896-39.215-15.896h-1.060zM708.017 748.508c-12.715 0-24.381-4.238-33.917-13.774 0 0-1.060-1.060-1.060-1.060-9.536-10.596-15.896-23.322-15.896-38.156s6.357-28.62 15.896-39.215v0l143.088-148.388 144.147 149.448c20.141 21.203 20.141 55.116 0 76.312-9.536 8.477-21.203 14.834-34.977 14.834v0h-2.119c-12.715 0-25.441-5.298-33.917-14.834v0l-49.815-51.935c-6.357-5.298-13.774-9.536-23.322-9.536 0 0 0 0 0 0v0c0 0 0 0 0 0-8.477 0-16.957 4.238-22.262 9.536v0l-50.875 51.935c-8.477 8.477-20.141 14.834-33.917 14.834v0h-1.060zM286.175 176.158c-8.477 0-16.957 4.238-23.322 9.536v0l-216.222 226.82c-28.62 28.62-46.633 67.835-46.633 112.351 0 26.5 6.357 50.875 18.019 72.073h-1.060c26.5 51.935 80.553 87.972 143.088 87.972 0 0 0 0 0 0v0c25.441 0 49.815-5.298 72.073-16.957 14.834-7.417 29.679-18.019 41.334-29.679l12.715-12.715 12.715 12.715c29.679 28.62 68.894 46.633 113.411 46.633 0 0 0 0 0 0v0c0 0 0 0 1.060 0 43.454 0 83.733-18.019 112.351-46.633v0c28.62-29.679 46.633-68.894 46.633-113.411s-18.019-83.733-46.633-113.411v0l-216.222-225.76c-6.357-5.298-13.774-9.536-23.322-9.536v0zM160.046 621.319c0 0 0 0 0 0-38.156 0-69.954-21.203-85.853-52.995v0c-6.357-12.715-10.596-27.56-10.596-43.454 0-26.5 10.596-50.875 28.62-67.835v0l193.962-203.503 193.962 202.443c18.019 18.019 28.62 42.394 28.62 68.894s-10.596 50.875-27.56 67.835v0c-18.019 18.019-41.334 28.62-68.894 28.62 0 0 0 0 0 0v0c-25.441 0-49.815-9.536-67.835-28.62l-36.037-34.977c-5.298-5.298-12.715-9.536-22.262-9.536s-16.957 4.238-22.262 9.536l-34.977 34.977c-18.019 18.019-42.394 28.62-68.894 28.62v0z" />
<glyph unicode="&#xe91e;" glyph-name="facebook-outline" d="M0 282.15c0 292.534 237.419 529.956 529.956 529.956s529.956-237.419 529.956-529.956-237.419-529.956-529.956-529.956-529.956 237.419-529.956 529.956zM52.995 282.15c0-262.856 214.1-476.958 476.958-476.958s476.958 214.1 476.958 476.958-213.041 476.958-476.958 476.958-476.958-213.041-476.958-476.958zM568.11-11.446v288.295h79.492l10.596 99.631h-90.092v48.754c0 26.5 2.119 40.275 39.215 40.275h49.815v99.631h-79.492c-95.392 0-129.308-48.754-129.308-129.308v-60.416h-59.356v-98.572h59.356v-288.295h119.77z" />
<glyph unicode="&#xe91f;" glyph-name="heart-pulse" d="M529.956-170.431c-16.957 0-32.858 6.357-45.574 18.019l-2.119 2.119-198.203 207.741c-6.357 5.298-9.536 13.774-9.536 22.262 0 0 0 1.060 0 1.060v0c0 8.477 4.238 16.957 10.596 23.322v0c5.298 5.298 13.774 8.477 22.262 8.477 9.536 0 18.019-3.179 24.381-9.536v0l198.203-206.681 198.203 206.681c6.357 6.357 14.834 9.536 24.381 9.536 8.477 0 16.957-3.179 22.262-8.477v0c6.357-6.357 10.596-14.834 10.596-24.381 0-8.477-3.179-16.957-9.536-23.322v1.060l-198.203-207.741c-11.655-12.715-28.62-20.141-46.633-20.141h-1.060zM64.656 311.827c0 0 0 0 0 0-11.655 0-23.322 6.357-28.62 16.957v0c-22.262 39.215-36.037 86.912-36.037 137.788 0 46.633 11.655 90.092 30.739 128.249l-1.060-1.060c33.917 66.775 92.212 117.65 162.165 140.968l2.119 1.060c26.5 9.536 58.296 14.834 90.092 14.834v0c43.454 0 86.912-10.596 126.129-30.739 27.56-13.774 52.995-30.739 74.192-52.995l45.574-45.574 45.574 45.574c50.875 51.935 121.889 83.733 200.322 83.733 0 0 0 0 1.060 0h-1.060c76.312 0 147.327-29.679 201.382-83.733 50.875-50.875 82.672-121.889 82.672-200.322 0-50.875-12.715-98.572-36.037-138.847v1.060c-5.298-10.596-15.896-16.957-28.62-16.957-14.834 0-27.56 9.536-31.798 23.322v1.060c-1.060 2.119-1.060 5.298-1.060 8.477 0 6.357 1.060 11.655 4.238 16.957v-1.060c16.957 30.739 27.56 67.835 27.56 105.992 0 60.416-24.381 114.47-63.597 153.687v0c-39.215 39.215-93.272 63.597-153.687 63.597 0 0 0 0-1.060 0h1.060c-1.060 0-1.060 0-1.060 0-60.416 0-114.47-24.381-153.687-63.597l-68.894-68.894c-5.298-6.357-13.774-9.536-23.322-9.536-8.477 0-16.957 3.179-23.322 9.536v0l-68.894 68.894c-15.896 15.896-34.977 29.679-55.116 40.275l-2.119 1.060c-27.56 13.774-61.476 22.262-96.451 22.262-24.381 0-48.754-4.238-71.014-11.655l2.119 1.060c-86.912-29.679-148.388-111.29-148.388-206.681 0-39.215 9.536-75.252 27.56-107.051v1.060c2.119-4.238 4.238-9.536 4.238-15.896 0-18.019-14.834-32.858-33.917-32.858v0zM533.135 78.647c-22.262 0-41.334 13.774-47.694 34.977l-62.536 207.741-57.236-114.47c-8.477-16.957-25.441-27.56-44.513-27.56 0 0 0 0 0 0h-288.295c-18.019 0-32.858 14.834-32.858 32.858s14.834 32.858 32.858 32.858v0h277.696l72.073 143.088c5.298 11.655 15.896 21.203 27.56 25.441 5.298 2.119 10.596 2.119 16.957 2.119 7.417 0 14.834-1.060 21.203-4.238v0c12.715-6.357 22.262-18.019 26.5-31.798l60.416-202.443 51.935 119.77c7.417 18.019 25.441 29.679 45.574 29.679 16.957 0 31.798-8.477 41.334-21.203v-1.060l39.215-58.296h313.731c18.019 0 32.858-14.834 32.858-33.917s-14.834-32.858-32.858-32.858v0h-331.75c-10.596 0-21.203 6.357-27.56 14.834v0l-31.798 48.754-57.236-133.548c-6.357-13.774-16.957-23.322-29.679-27.56h-1.060c-4.238-2.119-9.536-3.179-14.834-3.179v0z" />
<glyph unicode="&#xe920;" glyph-name="facebook" d="M0 282.15c0 292.534 237.419 529.956 529.956 529.956s529.956-237.419 529.956-529.956c0-292.534-237.419-529.956-529.956-529.956s-529.956 237.419-529.956 529.956zM567.050-11.446v288.295h80.553l10.596 98.572h-91.152l1.060 49.815c0 26.5 2.119 40.275 39.215 40.275h49.815v99.631h-79.492c-95.392 0-129.308-48.754-129.308-129.308v-60.416h-59.356v-98.572h59.356v-288.295h119.77z" />
<glyph unicode="&#xe921;" glyph-name="video" d="M1028.108 537.587c-19.080 11.655-43.454 12.715-63.597 2.119l-169.584-83.733v91.152c0 73.133-59.356 132.488-132.488 132.488h-529.956c-73.133 0-132.488-59.356-132.488-132.488v-529.956c0-73.133 59.356-132.488 132.488-132.488h529.956c73.133 0 132.488 59.356 132.488 132.488v91.152l169.584-83.733c8.477-5.298 19.080-7.417 29.679-7.417 11.655 0 23.322 3.179 33.917 9.536 20.141 12.715 31.798 33.917 31.798 57.236v397.465c0 22.262-11.655 43.454-31.798 56.176zM132.488 17.173v529.956h529.956v-529.956h-529.956zM927.419 190.997l-132.488 65.716v50.875l132.488 65.716v-182.304z" />
<glyph unicode="&#xe922;" glyph-name="happy-mask" d="M529.956-247.804c-11.655 0-23.322 2.119-34.977 6.357-201.382 75.252-340.23 190.784-414.424 341.289-32.858 73.133-48.754 152.627-47.694 232.119v380.507c0 11.655 2.119 22.262 6.357 32.858 8.477 25.441 26.5 45.574 49.815 57.236 13.774 6.357 28.62 9.536 43.454 9.536 11.655 0 22.262-2.119 32.858-5.298 116.59-42.394 239.539-63.597 364.608-63.597s248.018 21.203 364.608 63.597c10.596 3.179 22.262 5.298 32.858 5.298 55.116 0 99.631-44.513 99.631-99.631v-381.566c2.119-78.433-14.834-157.926-47.694-230-74.192-151.567-213.041-267.097-414.424-342.349-11.655-4.238-23.322-6.357-34.977-6.357zM132.488 746.389c-5.298 0-9.536-1.060-14.834-4.238-7.417-3.179-13.774-10.596-15.896-18.019-2.119-4.238-2.119-7.417-2.119-11.655v-381.566c-2.119-69.954 12.715-139.907 41.334-202.443 65.716-134.607 192.903-238.48 377.326-308.433 4.238-1.060 7.417-2.119 11.655-2.119s8.477 1.060 11.655 2.119c184.424 69.954 311.612 173.824 377.326 309.492 28.62 62.536 43.454 131.427 41.334 201.382v381.566c0 19.080-14.834 33.917-32.858 33.917-3.179 0-7.417-1.060-10.596-2.119-124.009-44.513-254.376-66.775-386.865-66.775s-262.856 22.262-386.865 66.775c-3.179 1.060-7.417 2.119-10.596 2.119zM538.433 17.173c-3.179 0-5.298 0-8.477 0-2.119 0-5.298 0-7.417 0-120.83 0-218.341 94.331-224.7 214.1 0 8.477 3.179 16.957 8.477 23.322s14.834 10.596 23.322 10.596c0 0 1.060 0 1.060 0 18.019 0 32.858-13.774 33.917-30.739 3.179-84.792 73.133-151.567 156.866-151.567 2.119 0 5.298 0 7.417 1.060 0 0 2.119 0 2.119 0 3.179 0 5.298-1.060 7.417-1.060 0 0 0 0 0 0 84.792 0 153.687 66.775 156.866 151.567 1.060 16.957 15.896 31.798 32.858 31.798 1.060 0 2.119 0 3.179-1.060 7.417 0 15.896-3.179 22.262-10.596s8.477-14.834 8.477-23.322c-5.298-119.77-103.87-214.1-223.64-214.1 0 0 0 0 0 0zM397.465 397.68c-18.019 0-32.858 14.834-32.858 33.917 0 27.56-22.262 49.815-49.815 49.815s-49.815-22.262-49.815-49.815c0-19.080-14.834-33.917-32.858-33.917s-32.858 14.834-32.858 33.917c0 63.597 51.935 115.53 115.53 115.53s115.53-51.935 115.53-115.53c0-19.080-14.834-33.917-32.858-33.917zM827.787 397.68c-18.019 0-32.858 14.834-32.858 33.917 0 27.56-22.262 49.815-49.815 49.815s-49.815-22.262-49.815-49.815c0-19.080-14.834-33.917-32.858-33.917s-32.858 14.834-32.858 33.917c0 63.597 51.935 115.53 115.53 115.53s116.59-51.935 116.59-115.53c0-19.080-14.834-33.917-33.917-33.917z" />
<glyph unicode="&#xe923;" glyph-name="home-world" d="M430.322-158.773c-128.249 9.536-240.6 69.954-317.973 161.106h-1.060c-65.716 76.312-107.051 174.884-111.29 284.055v0c0 6.357 0 12.715 0 19.080 0 139.907 62.536 266.038 161.106 350.83h1.060c15.896 13.774 32.858 26.5 51.935 39.215l2.119 1.060c69.954 44.513 154.747 71.014 245.898 71.014 13.774 0 26.5 0 39.215-1.060h-2.119c203.503-15.896 368.846-161.106 415.484-351.889v-3.179c1.060-2.119 1.060-5.298 1.060-7.417 0-19.080-14.834-33.917-32.858-33.917v0c0 0 0 0 0 0-15.896 0-28.62 10.596-31.798 25.441h-1.060c-22.262 96.451-77.372 177.005-153.687 231.060l-1.060 1.060v-15.896c0-44.513-31.798-82.672-75.252-90.092l-156.866-25.441v-32.858c0 0 0 0 0 0 0-32.858-16.957-61.476-43.454-77.372v0c-13.774-8.477-29.679-12.715-46.633-12.715-7.417 0-14.834 1.060-22.262 3.179v0c-1.060 0-2.119 0-2.119 0v0l-82.672 28.62c-39.215 10.596-67.835 45.574-67.835 86.912 0 1.060 0 1.060 0 1.060v0 107.051c-75.252-67.835-124.009-163.225-131.427-270.276v-2.119l156.866 39.215c7.417 2.119 14.834 3.179 22.262 3.179 34.977 0 64.656-19.080 79.492-47.694h1.060l55.116-104.93c12.715-24.381 13.774-52.995 3.179-79.492-10.596-22.262-33.917-40.275-54.055-51.935v-156.866c30.739-10.596 64.656-18.019 100.691-21.203h2.119c16.957-1.060 30.739-15.896 30.739-32.858 0-1.060 0-2.119 0-3.179v0c-2.119-16.957-15.896-29.679-33.917-30.739v0zM68.894 259.891c8.477-82.672 42.394-155.807 93.272-215.161v1.060c28.62-33.917 62.536-62.536 100.691-84.792l2.119-1.060v145.208c0 13.774 7.417 25.441 19.080 30.739 18.019 7.417 36.037 22.262 39.215 29.679 2.119 2.119 2.119 6.357 2.119 9.536 0 4.238-1.060 8.477-2.119 11.655v0l-56.176 103.87c-4.238 8.477-11.655 12.715-21.203 12.715-2.119 0-4.238 0-6.357 0h1.060l-171.705-43.454zM367.787 440.076c2.119 0 3.179-1.060 5.298-1.060 11.655 0 21.203 8.477 23.322 19.080v0c1.060 1.060 1.060 3.179 1.060 5.298 0 0 0 0 0 0v0 61.476c0 15.896 11.655 29.679 27.56 31.798l184.424 30.739c10.596 2.119 20.141 11.655 20.141 23.322 0 0 0 1.060 0 1.060v0 54.055c-48.754 22.262-105.992 36.037-165.345 36.037 0 0-1.060 0-1.060 0v0c-73.133 0-140.968-20.141-200.322-55.116l2.119 1.060v-154.747c0 0 0-1.060 0-1.060 0-10.596 7.417-20.141 18.019-23.322v0c1.060 0 2.119 0 3.179-1.060l81.612-27.56zM673.041-203.288c0 0-1.060 0-1.060 0v0h-64.656c-55.116 0-99.631 44.513-99.631 99.631v182.304l-10.596-9.536c-6.357-5.298-13.774-8.477-22.262-8.477-9.536 0-19.080 4.238-25.441 11.655v0c-4.238 6.357-7.417 13.774-7.417 22.262 0 9.536 4.238 18.019 10.596 24.381v0l200.322 174.884c22.262 20.141 52.995 32.858 86.912 32.858 0 0 0 0 0 0v0c0 0 0 0 0 0 33.917 0 63.597-12.715 86.912-32.858v0l200.322-174.884c6.357-6.357 10.596-14.834 10.596-24.381 0-19.080-14.834-33.917-32.858-33.917v0c0 0 0 0 0 0-8.477 0-15.896 3.179-22.262 8.477v0l-10.596 10.596v-183.364c0-55.116-44.513-99.631-99.631-99.631h-64.656c0 0-1.060 0-2.119 0h-132.488zM872.303-137.573c18.019 0 32.858 14.834 32.858 33.917v0 240.6l-121.889 107.051c-11.655 9.536-26.5 15.896-43.454 15.896 0 0 0 0 0 0v0c-15.896 0-31.798-5.298-43.454-15.896l-121.889-107.051v-240.6c0-19.080 14.834-33.917 32.858-33.917h32.858v99.631c0 55.116 44.513 99.631 99.631 99.631v0c55.116 0 99.631-44.513 99.631-99.631v-99.631h32.858zM772.672-137.573v99.631c0 18.019-14.834 32.858-32.858 32.858s-32.858-14.834-32.858-32.858v0-99.631h65.716z" />
<glyph unicode="&#xe924;" glyph-name="instagram-outline" d="M529.956 565.144c-76.312 0-85.853-1.060-116.59-2.119-29.679-1.060-50.875-6.357-68.894-12.715-19.080-7.417-36.037-19.080-49.815-32.858v0c-13.774-13.774-25.441-30.739-31.798-48.754l-1.060-1.060c-6.357-18.019-11.655-39.215-12.715-68.894s-2.119-40.275-2.119-116.59 1.060-85.853 2.119-116.59c1.060-29.679 6.357-50.875 12.715-68.894 7.417-19.080 19.080-36.037 32.858-49.815v0c13.774-13.774 30.739-25.441 48.754-31.798l1.060-1.060c18.019-6.357 39.215-11.655 68.894-12.715 30.739-1.060 40.275-2.119 116.59-2.119s86.912 1.060 116.59 2.119c29.679 1.060 50.875 6.357 68.894 12.715 19.080 7.417 36.037 19.080 49.815 32.858v0c13.774 13.774 25.441 30.739 31.798 49.815h1.060c6.357 18.019 11.655 39.215 12.715 68.894 1.060 30.739 2.119 40.275 2.119 116.59s-1.060 86.912-2.119 116.59c-1.060 29.679-6.357 50.875-12.715 68.894-7.417 19.080-19.080 36.037-32.858 49.815v0c-13.774 13.774-30.739 25.441-48.754 31.798l-1.060 1.060c-18.019 6.357-39.215 11.655-68.894 12.715-30.739 1.060-40.275 2.119-116.59 2.119v0zM504.515 514.269h25.441c75.252 0 84.792-1.060 114.47-2.119 27.56-1.060 42.394-5.298 51.935-9.536 13.774-5.298 23.322-11.655 32.858-21.203s15.896-19.080 21.203-32.858c4.238-9.536 8.477-24.381 9.536-51.935 1.060-29.679 2.119-39.215 2.119-114.47s-1.060-83.733-2.119-114.47c-1.060-27.56-5.298-42.394-9.536-51.935-5.298-12.715-11.655-23.322-21.203-32.858v0c-8.477-8.477-20.141-15.896-31.798-21.203h-1.060c-9.536-3.179-24.381-8.477-51.935-9.536-29.679-1.060-39.215-1.060-114.47-1.060s-84.792 0-114.47 1.060c-27.56 1.060-42.394 6.357-51.935 9.536-12.715 5.298-23.322 12.715-32.858 21.203v0c-9.536 9.536-15.896 20.141-21.203 31.798v1.060c-3.179 9.536-8.477 24.381-9.536 51.935-1.060 30.739-2.119 39.215-2.119 114.47s1.060 84.792 2.119 114.47c1.060 27.56 6.357 42.394 9.536 51.935 5.298 13.774 11.655 23.322 21.203 32.858s20.141 16.957 31.798 21.203h1.060c9.536 4.238 24.381 8.477 51.935 9.536 26.5 1.060 36.037 2.119 89.032 2.119v0zM680.461 466.573c-18.019 0-33.917-14.834-33.917-33.917s15.896-33.917 33.917-33.917v0c19.080 0 33.917 15.896 33.917 33.917s-14.834 33.917-33.917 33.917v0zM529.956 427.357c-80.553 0-145.208-64.656-145.208-145.208s64.656-145.208 145.208-145.208v0c80.553 0 145.208 64.656 145.208 145.208s-64.656 145.208-145.208 145.208v0zM529.956 376.481c1.060 0 1.060 0 2.119 0 51.935 0 94.331-42.394 94.331-94.331s-42.394-94.331-94.331-94.331c-1.060 0-1.060 0-2.119 0v0c-50.875 1.060-92.212 43.454-92.212 94.331s41.334 93.272 92.212 94.331v0zM529.956-247.804c292.534 0 529.956 237.419 529.956 529.956s-237.419 529.956-529.956 529.956-529.956-237.419-529.956-529.956 237.419-529.956 529.956-529.956zM529.956-194.808c-262.856 0-476.958 214.1-476.958 476.958s214.1 476.958 476.958 476.958 476.958-213.041 476.958-476.958-213.041-476.958-476.958-476.958z" />
<glyph unicode="&#xe925;" glyph-name="help-circle-outline" d="M476.958-35.824h105.992v105.992h-105.992v-105.992zM529.956 812.102c-292.534 0-529.956-237.419-529.956-529.956s237.419-529.956 529.956-529.956c292.534 0 529.956 237.419 529.956 529.956s-237.419 529.956-529.956 529.956v0zM529.956-141.812c-233.18 0-423.962 190.784-423.962 423.962s190.784 423.962 423.962 423.962c234.24 0 423.962-189.723 423.962-423.962s-189.723-423.962-423.962-423.962v0zM529.956 600.122c-116.59 0-211.981-94.331-211.981-211.981h105.992c0 58.296 47.694 105.992 105.992 105.992s105.992-47.694 105.992-105.992c0-105.992-158.986-92.212-158.986-264.978h105.992c0 119.77 158.986 132.488 158.986 264.978 0 117.65-94.331 211.981-211.981 211.981v0z" />
<glyph unicode="&#xe926;" glyph-name="music-ticket" d="M99.631-148.173c-55.116 0-99.631 44.513-99.631 99.631v165.345c0 18.019 14.834 32.858 32.858 32.858v0c73.133 0 132.488 59.356 132.488 132.488s-59.356 132.488-132.488 132.488c-18.019 0-32.858 14.834-32.858 32.858v0 166.405c0 54.055 44.513 98.572 99.631 98.572h860.644c55.116 0 99.631-44.513 99.631-98.572v-166.405c0-18.019-14.834-32.858-32.858-32.858v0c-73.133 0-132.488-59.356-132.488-132.488s59.356-132.488 132.488-132.488c18.019 0 32.858-14.834 32.858-32.858v0-165.345c0-55.116-44.513-99.631-99.631-99.631h-860.644zM66.775-48.542c0-19.080 14.834-33.917 32.858-33.917h860.644c19.080 0 33.917 14.834 33.917 33.917v0 134.607c-94.331 15.896-166.405 99.631-166.405 196.083s72.073 180.184 166.405 196.083v135.667c0 18.019-14.834 32.858-33.917 32.858v0h-860.644c-18.019 0-32.858-14.834-32.858-32.858v0-135.667c93.272-15.896 165.345-99.631 165.345-196.083s-72.073-180.184-165.345-196.083v-134.607zM364.608-15.684c-55.116 0-99.631 44.513-99.631 99.631v0c0 54.055 44.513 98.572 99.631 98.572 11.655 0 23.322-2.119 33.917-5.298h-1.060v119.77c0 45.574 30.739 84.792 75.252 96.451l132.488 32.858c7.417 2.119 15.896 3.179 24.381 3.179 27.56 0 51.935-11.655 69.954-29.679v0c19.080-18.019 29.679-43.454 29.679-69.954v-180.184c0-55.116-44.513-99.631-99.631-99.631v0c-55.116 0-99.631 44.513-99.631 99.631v0c0 55.116 44.513 99.631 99.631 99.631 11.655 0 23.322-2.119 33.917-6.357h-1.060v86.912c0 0 0 0 0 0 0 18.019-14.834 32.858-32.858 32.858-3.179 0-5.298 0-8.477-1.060v0l-132.488-32.858c-13.774-3.179-24.381-16.957-24.381-31.798 0 0 0 0 0 0v0-213.041c0-55.116-44.513-99.631-99.631-99.631v0zM364.608 116.804c-18.019 0-32.858-14.834-32.858-32.858s14.834-33.917 32.858-33.917v0c18.019 0 32.858 14.834 32.858 33.917s-14.834 32.858-32.858 32.858v0zM629.584 182.517c-18.019 0-32.858-14.834-32.858-32.858s14.834-32.858 32.858-32.858v0c18.019 0 32.858 14.834 32.858 32.858s-14.834 32.858-32.858 32.858v0zM264.978 530.167c0-26.5-22.262-48.754-49.815-48.754s-49.815 22.262-49.815 48.754c0 27.56 22.262 49.815 49.815 49.815s49.815-22.262 49.815-49.815zM464.238 530.167c0-26.5-22.262-48.754-49.815-48.754s-49.815 22.262-49.815 48.754c0 27.56 22.262 49.815 49.815 49.815s49.815-22.262 49.815-49.815zM695.298 530.167c0-26.5-22.262-48.754-49.815-48.754s-48.754 22.262-48.754 48.754c0 27.56 22.262 49.815 48.754 49.815s49.815-22.262 49.815-49.815zM894.561 530.167c0-26.5-22.262-48.754-49.815-48.754s-49.815 22.262-49.815 48.754c0 27.56 22.262 49.815 49.815 49.815s49.815-22.262 49.815-49.815z" />
<glyph unicode="&#xe927;" glyph-name="spotify-outline" d="M529.956-247.804c292.534 0 529.956 237.419 529.956 529.956s-237.419 529.956-529.956 529.956-529.956-237.419-529.956-529.956 237.419-529.956 529.956-529.956zM529.956-194.808c-262.856 0-476.958 214.1-476.958 476.958s214.1 476.958 476.958 476.958 476.958-213.041 476.958-476.958-213.041-476.958-476.958-476.958zM761.013 59.568c-8.477-15.896-28.62-20.141-44.513-10.596-121.889 74.192-276.636 91.152-457.88 49.815-3.179 0-5.298-1.060-7.417-1.060-18.019 0-32.858 14.834-32.858 32.858 0 14.834 10.596 28.62 25.441 31.798v0c198.203 45.574 368.846 25.441 506.634-58.296 15.896-9.536 20.141-29.679 10.596-44.513zM825.667 201.597c-12.715-19.080-37.096-25.441-56.176-13.774-140.968 86.912-354.008 111.29-520.414 61.476-3.179-1.060-7.417-2.119-11.655-2.119-18.019 0-33.917 11.655-39.215 28.62v0c-1.060 3.179-1.060 7.417-1.060 11.655 0 19.080 11.655 33.917 28.62 39.215v0c189.723 57.236 425.022 29.679 586.128-68.894 19.080-11.655 25.441-37.096 13.774-56.176zM830.967 348.923c-168.525 100.691-446.22 109.171-606.265 60.416-4.238-1.060-9.536-2.119-14.834-2.119-26.5 0-48.754 22.262-48.754 49.815 0 21.203 14.834 40.275 34.977 45.574v1.060c184.424 55.116 490.737 44.513 684.699-69.954 13.774-8.477 23.322-24.381 23.322-42.394 0-26.5-21.203-48.754-48.754-48.754-8.477 0-16.957 2.119-24.381 7.417v-1.060z" />
<glyph unicode="&#xe928;" glyph-name="travel-world" d="M364.608-43.242c0 0 0 0 0 0-2.119 0-4.238 0-5.298 0v0c-108.111 19.080-200.322 75.252-263.915 155.807l-1.060 1.060c-2.119 1.060-3.179 3.179-4.238 5.298v0c-56.176 72.073-90.092 164.284-90.092 262.856 0 25.441 2.119 49.815 6.357 74.192v-3.179c18.019 105.992 73.133 197.143 150.508 260.737v0c7.417 6.357 14.834 11.655 23.322 18.019l1.060 1.060c68.894 49.815 155.807 79.492 249.078 79.492 25.441 0 49.815-2.119 74.192-6.357h-2.119c92.212-14.834 171.705-58.296 233.18-119.77v0c1.060-1.060 3.179-3.179 4.238-5.298v0c58.296-60.416 99.631-137.788 115.53-224.7v-2.119c0-2.119 0-3.179 0-5.298 0-19.080-14.834-32.858-32.858-32.858 0 0 0 0 0 0v0c0 0 0 0 0 0-15.896 0-29.679 11.655-32.858 26.5v1.060c-10.596 62.536-37.096 118.71-74.192 165.345v-1.060l-18.019-24.381c-12.715-16.957-20.141-37.096-20.141-59.356 0-11.655 2.119-22.262 5.298-31.798v0l11.655-33.917c1.060-3.179 2.119-6.357 2.119-10.596 0-13.774-9.536-26.5-22.262-30.739h-1.060c-3.179-1.060-6.357-2.119-10.596-2.119-13.774 0-26.5 9.536-30.739 22.262v0l-11.655 33.917c-5.298 15.896-8.477 33.917-8.477 52.995 0 37.096 11.655 71.014 32.858 98.572v0l25.441 33.917c-63.597 56.176-147.327 90.092-238.48 90.092-1.060 0-1.060 0-1.060 0v0c0 0 0 0 0 0-65.716 0-127.188-18.019-180.184-48.754l2.119 1.060 178.065-67.835c38.156-13.774 64.656-49.815 64.656-92.212 0-7.417-1.060-13.774-2.119-21.203v1.060l-13.774-68.894c-8.477-38.156-36.037-66.775-72.073-77.372h-1.060l-75.252-18.019-45.574-112.351c-12.715-31.798-33.917-57.236-60.416-76.312h-1.060l-56.176-36.037c52.995-55.116 122.949-93.272 200.322-107.051h2.119c15.896-3.179 27.56-16.957 27.56-32.858 0-2.119 0-4.238 0-5.298v0c-3.179-15.896-16.957-27.56-32.858-27.56 0 0 0 0 0 0v0zM187.603 653.114c-60.416-54.055-101.75-126.129-115.53-208.802l-1.060-2.119c-3.179-18.019-4.238-39.215-4.238-61.476 0-74.192 22.262-143.088 60.416-200.322l-1.060 1.060 61.476 39.215c15.896 11.655 28.62 27.56 36.037 45.574l51.935 128.249c3.179 9.536 11.655 16.957 22.262 19.080v0l92.212 23.322c11.655 3.179 21.203 12.715 23.322 25.441v0l14.834 68.894c0 2.119 0 5.298 0 7.417 0 13.774-8.477 25.441-21.203 30.739v0l-219.4 83.733zM772.672-247.804c-29.679 0-54.055 19.080-62.536 44.513l-1.060 1.060-59.356 180.184-180.184 60.416c-26.5 8.477-45.574 33.917-45.574 62.536 0 27.56 16.957 50.875 40.275 61.476h1.060l549.032 223.64c4.238 2.119 8.477 3.179 12.715 3.179 9.536 0 16.957-4.238 23.322-10.596v0c6.357-5.298 9.536-13.774 9.536-23.322 0-4.238-1.060-8.477-2.119-12.715v1.060l-223.64-550.092c-10.596-24.381-33.917-41.334-61.476-41.334 0 0 0 0 0 0v0zM772.672-181.031l193.962 475.898-476.958-193.962 177.005-59.356 107.051 108.111c6.357 5.298 13.774 9.536 23.322 9.536 0 0 0 0 0 0v0c18.019 0 32.858-14.834 32.858-33.917 0-8.477-3.179-16.957-9.536-23.322l-107.051-107.051 59.356-175.944z" />
<glyph unicode="&#xe929;" glyph-name="instagram" d="M0 282.15c0 292.534 237.419 529.956 529.956 529.956s529.956-237.419 529.956-529.956c0-292.534-237.419-529.956-529.956-529.956s-529.956 237.419-529.956 529.956zM529.956 565.144c-76.312 0-85.853-1.060-116.59-2.119-29.679-1.060-50.875-6.357-68.894-12.715-18.019-7.417-33.917-16.957-49.815-32.858s-25.441-31.798-32.858-49.815c-6.357-18.019-11.655-39.215-12.715-68.894s-2.119-40.275-2.119-116.59 1.060-85.853 2.119-116.59c1.060-29.679 6.357-50.875 12.715-68.894 7.417-18.019 16.957-33.917 32.858-49.815s31.798-25.441 49.815-32.858c18.019-6.357 39.215-11.655 68.894-12.715 30.739-1.060 40.275-2.119 116.59-2.119s86.912 1.060 116.59 2.119c29.679 1.060 50.875 6.357 68.894 12.715 18.019 7.417 33.917 16.957 49.815 32.858s25.441 31.798 32.858 49.815c6.357 18.019 11.655 39.215 12.715 68.894 1.060 30.739 2.119 40.275 2.119 116.59s-1.060 86.912-2.119 116.59c-1.060 29.679-6.357 50.875-12.715 68.894-7.417 18.019-16.957 33.917-32.858 49.815s-31.798 25.441-49.815 32.858c-18.019 6.357-39.215 11.655-68.894 12.715-30.739 1.060-40.275 2.119-116.59 2.119v0zM504.515 514.269c7.417 0 15.896 0 25.441 0 75.252 0 84.792-1.060 114.47-2.119 27.56-1.060 42.394-5.298 51.935-9.536 13.774-5.298 23.322-11.655 32.858-21.203s15.896-19.080 21.203-32.858c4.238-9.536 8.477-24.381 9.536-51.935 1.060-29.679 2.119-39.215 2.119-114.47s-1.060-84.792-2.119-114.47c-1.060-27.56-5.298-42.394-9.536-51.935-5.298-13.774-11.655-22.262-21.203-32.858-9.536-9.536-19.080-15.896-32.858-21.203-9.536-3.179-24.381-8.477-51.935-9.536-29.679-1.060-39.215-1.060-114.47-1.060s-84.792 0-114.47 1.060c-27.56 1.060-42.394 6.357-51.935 9.536-13.774 5.298-23.322 11.655-32.858 21.203s-15.896 19.080-21.203 32.858c-3.179 9.536-8.477 24.381-9.536 51.935-1.060 30.739-2.119 39.215-2.119 114.47s1.060 84.792 2.119 114.47c1.060 27.56 6.357 42.394 9.536 51.935 5.298 13.774 11.655 23.322 21.203 32.858s19.080 15.896 32.858 21.203c9.536 4.238 24.381 8.477 51.935 9.536 26.5 1.060 36.037 2.119 89.032 2.119v0zM680.461 466.573c-18.019 0-33.917-14.834-33.917-33.917 0-18.019 15.896-33.917 33.917-33.917s33.917 15.896 33.917 33.917c0 19.080-14.834 33.917-33.917 33.917v0zM529.956 427.357c-80.553 0-145.208-64.656-145.208-145.208s64.656-145.208 145.208-145.208c80.553 0 145.208 64.656 145.208 145.208s-64.656 145.208-145.208 145.208v0zM529.956 376.481c51.935 0 94.331-42.394 94.331-94.331s-42.394-94.331-94.331-94.331c-51.935 0-94.331 42.394-94.331 94.331s42.394 94.331 94.331 94.331v0z" />
<glyph unicode="&#xe92a;" glyph-name="chevron-left" d="M807.649-91.998l-373.088 374.147 373.088 374.147-114.47 115.53-489.676-489.676 489.676-489.676z" />
<glyph unicode="&#xe92b;" glyph-name="ellipsis-h" d="M132.488 414.638c-73.133 0-132.488-59.356-132.488-132.488s59.356-132.488 132.488-132.488c73.133 0 132.488 59.356 132.488 132.488s-59.356 132.488-132.488 132.488v0zM927.419 414.638c-73.133 0-132.488-59.356-132.488-132.488s59.356-132.488 132.488-132.488c73.133 0 132.488 59.356 132.488 132.488s-59.356 132.488-132.488 132.488v0zM529.956 414.638c-73.133 0-132.488-59.356-132.488-132.488s59.356-132.488 132.488-132.488c73.133 0 132.488 59.356 132.488 132.488s-59.356 132.488-132.488 132.488v0z" />
<glyph unicode="&#xe92c;" glyph-name="move-vertical" d="M630.644 281.090c0-52.995-44.513-96.451-100.691-96.451s-100.691 43.454-100.691 96.451c0 54.055 44.513 97.511 100.691 97.511s100.691-43.454 100.691-97.511zM681.52 503.67l-151.567 145.208-151.567-145.208-71.014 67.835 222.58 214.1 222.58-214.1zM529.956-223.426l-222.58 214.1 71.014 67.835 151.567-145.208 151.567 145.208 71.014-67.835z" />
<glyph unicode="&#xe92d;" glyph-name="twitter-outline" d="M529.956-247.804c292.534 0 529.956 237.419 529.956 529.956s-237.419 529.956-529.956 529.956-529.956-237.419-529.956-529.956 237.419-529.956 529.956-529.956zM529.956-194.808c-262.856 0-476.958 214.1-476.958 476.958s214.1 476.958 476.958 476.958 476.958-213.041 476.958-476.958-213.041-476.958-476.958-476.958zM514.056 381.78l1.060-19.080-18.019 2.119c-67.835 9.536-127.188 38.156-177.005 86.912l-24.381 24.381-6.357-18.019c-12.715-39.215-4.238-81.612 23.322-110.231 14.834-15.896 11.655-18.019-13.774-8.477-9.536 3.179-16.957 5.298-18.019 4.238-2.119-3.179 6.357-37.096 13.774-50.875 9.536-18.019 28.62-37.096 50.875-47.694l18.019-8.477h-22.262c-20.141 0-21.203-1.060-19.080-8.477 7.417-24.381 37.096-49.815 69.954-61.476l22.262-7.417-20.141-12.715c-27.56-15.896-62.536-26.5-98.572-27.56v0c-16.957 0-30.739-2.119-30.739-3.179 0-3.179 45.574-24.381 72.073-32.858 78.433-24.381 172.765-13.774 242.719 27.56 49.815 29.679 99.631 89.032 122.949 145.208 12.715 30.739 25.441 85.853 25.441 112.351 0 18.019 1.060 20.141 22.262 40.275 11.655 11.655 23.322 25.441 25.441 28.62 4.238 7.417 4.238 7.417-14.834 1.060-31.798-11.655-36.037-9.536-21.203 7.417 11.655 11.655 25.441 32.858 25.441 39.215 0 2.119-5.298 0-11.655-3.179-6.357-4.238-21.203-9.536-32.858-12.715l-20.141-6.357-18.019 11.655c-9.536 7.417-24.381 14.834-31.798 16.957-18.019 5.298-47.694 4.238-64.656-2.119-45.574-16.957-75.252-60.416-72.073-107.051z" />
<glyph unicode="&#xe92e;" glyph-name="youtube-outline" d="M0 282.15c0 292.534 237.419 529.956 529.956 529.956s529.956-237.419 529.956-529.956-237.419-529.956-529.956-529.956-529.956 237.419-529.956 529.956zM52.995 282.15c0-262.856 214.1-476.958 476.958-476.958s476.958 214.1 476.958 476.958-213.041 476.958-476.958 476.958-476.958-213.041-476.958-476.958zM798.11 406.158s5.298-46.633 5.298-93.272v-43.454c0-46.633-5.298-93.272-5.298-93.272s-5.298-40.275-22.262-57.236c-21.203-23.322-45.574-23.322-57.236-25.441-78.433-5.298-197.143-5.298-197.143-5.298s-147.327 1.060-192.903 5.298c-11.655 2.119-40.275 2.119-61.476 25.441-16.957 16.957-23.322 57.236-23.322 57.236s-5.298 46.633-5.298 93.272v43.454c0 46.633 5.298 93.272 5.298 93.272s6.357 40.275 23.322 57.236c21.203 23.322 45.574 23.322 56.176 25.441 79.492 5.298 198.203 5.298 198.203 5.298v0s118.71 0 197.143-5.298c11.655-2.119 36.037-2.119 57.236-25.441 16.957-16.957 22.262-57.236 22.262-57.236zM450.46 199.477l152.627 80.553-152.627 81.612v-162.165z" />
<glyph unicode="&#xe92f;" glyph-name="no" d="M1059.906 206.896h-1059.906v150.508h1059.906z" />
<glyph unicode="&#xe930;" glyph-name="read-glasses" d="M529.956-247.804c-3.179 0-6.357 0-9.536 1.060-1.060 0-1.060 1.060-2.119 1.060l-387.926 147.327c-38.156 12.715-63.597 48.754-63.597 90.092v323.272c0 52.995 42.394 95.392 94.331 95.392 10.596 0 20.141-1.060 29.679-4.238l339.17-131.427 337.051 130.368c10.596 3.179 21.203 5.298 31.798 5.298 41.334 0 77.372-26.5 90.092-65.716 3.179-9.536 5.298-19.080 5.298-29.679v-323.272c0-41.334-26.5-77.372-65.716-90.092l-386.865-147.327c0 0-1.060-1.060-2.119-1.060-3.179-1.060-6.357-1.060-9.536-1.060zM161.106 344.685c-15.896 0-28.62-13.774-28.62-29.679v-323.272c0-12.715 8.477-23.322 20.141-27.56l344.468-131.427v383.687l-328.572 127.188c-1.060 0-4.238 1.060-7.417 1.060zM562.81-167.251l343.409 131.427c0 0 1.060 0 1.060 0 11.655 4.238 20.141 14.834 20.141 27.56v323.272c0 3.179 0 6.357-1.060 9.536-4.238 11.655-14.834 20.141-27.56 20.141-3.179 0-6.357-1.060-9.536-2.119l-326.451-126.129v-383.687zM762.072 414.638c-107.051 0-193.962 83.733-198.203 190.784-1.060 1.060-1.060 3.179-1.060 5.298 0 18.019-14.834 32.858-32.858 32.858s-32.858-14.834-32.858-32.858c0-2.119 0-4.238-1.060-5.298-4.238-107.051-91.152-190.784-198.203-190.784-96.451 0-179.124 72.073-195.023 165.345h-69.954c-18.019 0-32.858 14.834-32.858 33.917s14.834 32.858 32.858 32.858h69.954c15.896 93.272 98.572 165.345 195.023 165.345 79.492 0 149.448-45.574 181.243-116.59 14.834 9.536 32.858 13.774 50.875 13.774s36.037-4.238 50.875-13.774c31.798 71.014 101.75 116.59 181.243 116.59 96.451 0 180.184-72.073 196.083-165.345h68.894c18.019 0 32.858-14.834 32.858-32.858s-14.834-33.917-32.858-33.917h-68.894c-15.896-93.272-99.631-165.345-196.083-165.345zM762.072 746.389c-73.133 0-132.488-60.416-132.488-132.488s59.356-132.488 132.488-132.488c73.133 0 132.488 59.356 132.488 132.488s-59.356 132.488-132.488 132.488zM297.834 746.389c-73.133 0-132.488-60.416-132.488-132.488s59.356-132.488 132.488-132.488c73.133 0 132.488 59.356 132.488 132.488s-59.356 132.488-132.488 132.488zM695.298 83.946c-13.774 0-26.5 8.477-30.739 22.262-3.179 8.477-2.119 16.957 1.060 25.441s11.655 13.774 19.080 15.896l99.631 33.917c3.179 1.060 7.417 1.060 10.596 1.060 14.834 0 26.5-8.477 31.798-22.262 5.298-16.957-4.238-36.037-21.203-42.394l-99.631-32.858c-3.179-1.060-6.357-1.060-10.596-1.060z" />
<glyph unicode="&#xe931;" glyph-name="chevron-down" d="M135.667 559.845l374.147-373.088 374.147 373.088 114.47-114.47-488.617-489.676-489.676 489.676z" />
<glyph unicode="&#xe932;" glyph-name="caret-up" d="M1059.906 17.173l-529.956 529.956-529.956-529.956z" />
<glyph unicode="&#xe933;" glyph-name="caret-left" d="M794.931 812.102l-529.956-529.956 529.956-529.956z" />
<glyph unicode="&#xe934;" glyph-name="caret-right" d="M264.978-247.804l529.956 529.956-529.956 529.956z" />
<glyph unicode="&#xe935;" glyph-name="plus" d="M994.19 216.435h-927.419v132.488h927.419zM464.238-182.090v928.479h132.488v-928.479z" />
<glyph unicode="&#xe936;" glyph-name="padlock" horiz-adv-x="826" d="M721.796 459.154h-51.935v100.691c0 138.847-115.53 252.257-257.558 252.257s-257.558-113.411-257.558-252.257v-100.691h-51.935c-56.176 0-102.811-45.574-102.811-101.75v-504.515c0-55.116 46.633-100.691 102.811-100.691h618.985c56.176 0 102.811 45.574 102.811 100.691v504.515c0 56.176-46.633 101.75-102.811 101.75zM412.304 4.454c-57.236 0-102.811 45.574-102.811 100.691s45.574 101.75 102.811 101.75 102.811-45.574 102.811-101.75-46.633-100.691-102.811-100.691zM572.35 459.154h-320.092v100.691c0 85.853 72.073 156.866 160.046 156.866s160.046-71.014 160.046-156.866v-100.691z" />
<glyph unicode="&#xe937;" glyph-name="spotify" d="M529.956 812.102c292.534 0 529.956-237.419 529.956-529.956s-237.419-529.956-529.956-529.956c-292.534 0-529.956 237.419-529.956 529.956s237.419 529.956 529.956 529.956zM761.013 59.568c9.536 14.834 5.298 34.977-10.596 44.513-137.788 83.733-308.433 103.87-506.634 58.296-18.019-4.238-28.62-21.203-24.381-39.215 4.238-16.957 21.203-28.62 39.215-24.381 181.243 41.334 335.991 24.381 457.88-49.815 15.896-9.536 36.037-5.298 44.513 10.596zM825.667 201.597c11.655 19.080 5.298 44.513-13.774 56.176-161.106 98.572-396.404 126.129-586.128 68.894-21.203-6.357-33.917-29.679-27.56-50.875s29.679-33.917 50.875-26.5c166.405 49.815 379.446 25.441 520.414-61.476 19.080-11.655 43.454-5.298 56.176 13.774zM830.967 348.923c23.322-13.774 52.995-5.298 66.775 18.019 13.774 22.262 6.357 52.995-16.957 66.775-193.962 114.47-500.277 125.069-684.699 69.954-25.441-8.477-40.275-36.037-32.858-61.476 8.477-25.441 34.977-40.275 61.476-32.858 160.046 48.754 437.741 40.275 606.265-60.416z" />
<glyph unicode="&#xe938;" glyph-name="check" d="M329.631 70.169l-246.958 246.958-82.672-81.612 329.631-330.691 706.957 706.957-82.672 82.672z" />
<glyph unicode="&#xe939;" glyph-name="time-hand" d="M32.858-247.804c-18.019 0-32.858 14.834-32.858 32.858v397.465c0 18.019 14.834 32.858 32.858 32.858s33.917-14.834 33.917-32.858v-32.858h198.203c79.492 0 147.327-56.176 162.165-132.488h135.667c91.152 0 166.405-74.192 166.405-165.345 0-19.080-14.834-33.917-33.917-33.917h-628.525v-32.858c0-18.019-14.834-32.858-33.917-32.858zM657.142-115.315c-13.774 39.215-51.935 65.716-94.331 65.716h-297.834c-18.019 0-32.858 14.834-32.858 33.917s14.834 32.858 32.858 32.858h93.272c-13.774 39.215-50.875 65.716-93.272 65.716h-198.203v-198.203h590.368zM751.473 27.772c-14.834 0-28.62 10.596-31.798 25.441-2.119 8.477-1.060 16.957 3.179 25.441s12.715 12.715 21.203 14.834c24.381 6.357 48.754 15.896 71.014 27.56 162.165 83.733 225.76 285.115 140.968 446.22-57.236 110.231-169.584 178.065-294.654 178.065-51.935 0-104.93-12.715-151.567-37.096-162.165-84.792-225.76-285.115-140.968-447.281 4.238-7.417 5.298-16.957 2.119-25.441s-8.477-14.834-15.896-19.080c-5.298-2.119-10.596-3.179-15.896-3.179-11.655 0-23.322 6.357-29.679 16.957-100.691 195.023-25.441 435.622 169.584 536.313 56.176 29.679 119.77 45.574 182.304 45.574 149.448 0 285.115-81.612 354.008-214.1 48.754-93.272 58.296-201.382 26.5-303.133s-101.75-183.364-196.083-233.18c-26.5-13.774-56.176-25.441-85.853-32.858-3.179 0-5.298-1.060-8.477-1.060zM629.584 347.864c-18.019 0-32.858 14.834-32.858 33.917v264.978c0 18.019 14.834 32.858 32.858 32.858s32.858-14.834 32.858-32.858v-232.119h132.488c18.019 0 32.858-14.834 32.858-32.858s-14.834-33.917-32.858-33.917h-165.345z" />
<glyph unicode="&#xe93a;" glyph-name="time" d="M529.956 812.102c-292.534 0-529.956-237.419-529.956-529.956s237.419-529.956 529.956-529.956c292.534 0 529.956 237.419 529.956 529.956s-237.419 529.956-529.956 529.956v0zM529.956-141.812c-234.24 0-423.962 189.723-423.962 423.962s189.723 423.962 423.962 423.962c234.24 0 423.962-189.723 423.962-423.962s-189.723-423.962-423.962-423.962v0zM596.727 547.127h-66.775v-317.973l232.119-166.405 32.858 64.656-198.203 142.027z" />
<glyph unicode="&#xe93b;" glyph-name="up" d="M924.239 4.454l-374.147 373.088-374.147-373.088-114.47 114.47 488.617 489.676 489.676-489.676z" />
<glyph unicode="&#xe93c;" glyph-name="right" d="M252.257-112.135l373.088 374.147-373.088 374.147 114.47 114.47 489.676-488.617-489.676-489.676z" />
<glyph unicode="&#xe93d;" glyph-name="calendar-add" d="M529.956-82.194c-18.286 0-33.12 14.834-33.12 33.12v99.366h-99.366c-18.286 0-33.12 14.834-33.12 33.12s14.834 33.12 33.12 33.12h99.366v99.366c0 18.286 14.834 33.12 33.12 33.12s33.12-14.834 33.12-33.12v-99.366h99.366c18.286 0 33.12-14.834 33.12-33.12s-14.834-33.12-33.12-33.12h-99.366v-99.366c0-18.286-14.834-33.12-33.12-33.12zM99.366-247.804c-54.804 0-99.366 44.561-99.366 99.366v728.686c0 54.804 44.558 99.366 99.366 99.366h165.61v99.366c0 18.286 14.834 33.12 33.12 33.12s33.12-14.834 33.12-33.12v-99.366h397.465v99.366c0 18.286 14.834 33.12 33.12 33.12s33.12-14.834 33.12-33.12v-99.366h165.61c54.801 0 99.366-44.558 99.366-99.366v-728.686c0-54.801-44.561-99.366-99.366-99.366h-861.174zM66.244-148.438c0-18.286 14.834-33.12 33.12-33.12h861.174c18.286 0 33.12 14.834 33.12 33.12v496.83h-927.419v-496.83zM993.663 580.248c0 18.286-14.834 33.12-33.12 33.12h-165.61v-66.244c0-18.286-14.834-33.12-33.12-33.12s-33.12 14.834-33.12 33.12v66.244h-397.465v-66.244c0-18.286-14.834-33.12-33.12-33.12s-33.12 14.834-33.12 33.12v66.244h-165.61c-18.286 0-33.12-14.834-33.12-33.12v-165.61h927.419v165.61z" />
<glyph unicode="&#xe93e;" glyph-name="expand-horizontal" d="M198.732 83.412c-8.837 0-17.182 3.441-23.409 9.71l-165.609 165.609c-3.092 3.092-5.516 6.717-7.199 10.821-0.131 0.349-0.306 0.753-0.436 1.148-1.409 3.801-2.075 7.592-2.075 11.48 0 3.933 0.709 7.777 2.119 11.524 0.087 0.306 0.218 0.622 0.349 0.929 1.77 4.282 4.194 7.908 7.33 11l165.566 165.566c6.269 6.27 14.572 9.71 23.409 9.71s17.182-3.441 23.409-9.71c6.269-6.226 9.71-14.572 9.71-23.409s-3.441-17.182-9.71-23.409l-109.081-109.081h284.362c18.286 0 33.12-14.834 33.12-33.12s-14.834-33.12-33.12-33.12h-284.407l109.081-109.081c12.898-12.898 12.898-33.917 0-46.856-6.226-6.269-14.572-9.71-23.409-9.71zM861.174 83.412c-8.834 0-17.179 3.441-23.405 9.71-12.901 12.898-12.901 33.917 0 46.856l109.080 109.081h-284.361c-18.286 0-33.12 14.834-33.12 33.12s14.834 33.12 33.12 33.12h284.361l-109.080 109.081c-6.273 6.226-9.714 14.572-9.714 23.409s3.441 17.182 9.714 23.409c6.268 6.226 14.572 9.71 23.405 9.71 8.839 0 17.184-3.441 23.411-9.71l165.609-165.609c3.090-3.092 5.518-6.717 7.197-10.821 0.131-0.349 0.309-0.753 0.44-1.147 1.364-3.572 2.072-7.504 2.072-11.437 0-3.845-0.708-7.679-2.072-11.393-0.089-0.262-0.178-0.48-0.262-0.709-1.857-4.587-4.327-8.214-7.417-11.35l-165.568-165.565c-6.226-6.314-14.572-9.757-23.411-9.757zM529.951 50.295c-18.286 0-33.12 14.834-33.12 33.12v397.463c0 18.286 14.834 33.12 33.12 33.12s33.12-14.834 33.12-33.12v-397.463c0-18.286-14.834-33.12-33.12-33.12z" />
<glyph unicode="&#xe93f;" glyph-name="twitter" d="M529.956-247.804c-292.534 0-529.956 237.419-529.956 529.956s237.419 529.956 529.956 529.956c292.534 0 529.956-237.419 529.956-529.956s-237.419-529.956-529.956-529.956zM514.056 381.78l1.060-19.080-18.019 2.119c-67.835 9.536-127.188 38.156-177.005 86.912l-24.381 24.381-6.357-18.019c-12.715-39.215-4.238-81.612 23.322-110.231 14.834-15.896 11.655-18.019-13.774-8.477-9.536 3.179-16.957 5.298-18.019 4.238-2.119-3.179 6.357-37.096 13.774-50.875 9.536-18.019 28.62-37.096 50.875-47.694l18.019-8.477h-22.262c-20.141 0-21.203-1.060-19.080-8.477 7.417-24.381 37.096-49.815 69.954-61.476l22.262-7.417-20.141-12.715c-29.679-16.957-63.597-26.5-98.572-27.56-16.957 0-30.739-2.119-30.739-3.179 0-3.179 45.574-24.381 72.073-32.858 78.433-24.381 172.765-13.774 242.719 27.56 49.815 29.679 99.631 89.032 122.949 145.208 12.715 30.739 25.441 85.853 25.441 112.351 0 18.019 1.060 20.141 22.262 40.275 11.655 11.655 23.322 25.441 25.441 28.62 4.238 7.417 3.179 7.417-14.834 1.060-31.798-11.655-36.037-9.536-21.203 7.417 11.655 11.655 25.441 32.858 25.441 39.215 0 2.119-5.298 0-11.655-3.179-6.357-4.238-21.203-9.536-32.858-12.715l-20.141-6.357-18.019 11.655c-9.536 7.417-24.381 14.834-31.798 16.957-18.019 5.298-47.694 4.238-64.656-2.119-45.574-16.957-75.252-60.416-72.073-107.051z" />
<glyph unicode="&#xe940;" glyph-name="no-wine-b" d="M0 306.322c0-284.265 231.252-515.512 515.512-515.512 136.439 0 265.019 52.926 362.278 149.156 0.816 0.563 1.633 1.243 2.233 1.847 0.86 0.819 1.499 1.638 2.018 2.362 96.099 97.219 148.983 225.795 148.983 362.149 0 284.263-231.25 515.512-515.512 515.512-136.526 0-265.187-53.014-362.492-149.327-0.775-0.562-1.5-1.159-2.062-1.721-0.732-0.775-1.372-1.5-1.849-2.19-96.144-97.26-149.112-225.838-149.112-362.277zM64.441 306.322c0 108.818 39.050 212.993 110.363 295.132l108.878-108.879-2.228-14.536c-0.212-1.409-0.366-2.825-0.524-4.234l-0.183-1.599c-0.366-1.57-0.556-3.1-0.556-4.599-8.621-79.812 24.822-160.391 87.359-210.47 36.239-28.997 79.229-46.488 124.951-50.939v-222.071h-69.040c-12.669 0-23.011-10.31-23.011-23.011s10.31-23.011 23.011-23.011h184.112c12.701 0 23.011 10.31 23.011 23.011s-10.31 23.011-23.011 23.011h-69.040v222.101c9.201 0.897 18.292 2.318 27.239 4.258l244.874-244.874c-82.139-71.313-186.273-110.364-295.132-110.364-248.735 0-451.075 202.339-451.075 451.075zM631.733 235.652l224.491-224.462c71.313 82.139 110.364 186.273 110.364 295.132 0 248.735-202.339 451.075-451.075 451.075-108.859 0-212.993-39.093-295.175-110.406l75.455-75.444 9.81 63.935c3.464 22.645 22.614 39.062 45.474 39.062h328.824c22.889 0 42.008-16.417 45.474-39.032l24.212-157.445c0.202-1.341 0.351-2.715 0.495-4.056l0.024-0.21 0.183-1.57c0.334-1.596 0.524-3.098 0.556-4.599 8.619-79.812-24.793-160.391-87.362-210.47-10.091-8.075-20.7-15.255-31.751-21.512zM376.917 490.433l-40.774 40.769 14.901 97.317h328.857l21.237-138.084h-324.219zM422.981 444.373h283.248c0.677-58.609-25.563-114.547-71.498-151.308-11.512-9.203-23.984-17.010-37.114-23.303l-174.637 174.61zM331.88 444.373l193.193-193.193c-3.178-0.163-6.364-0.246-9.552-0.246-42.9 0-85.212 14.98-119.182 42.132-45.937 36.792-72.2 92.73-71.498 151.341v-0.032h7.041z" />
<glyph unicode="&#xe941;" glyph-name="file-folder" d="M225.757-151.744c-88.928 0-161.255 72.327-161.255 161.255v387.013c0 17.8 14.448 32.248 32.248 32.248s32.248-14.448 32.248-32.248v-387.013c0-53.365 43.387-96.752 96.752-96.752h580.52c53.365 0 96.752 43.387 96.752 96.752v387.013c0 17.8 14.448 32.248 32.248 32.248s32.248-14.448 32.248-32.248v-387.013c0-88.928-72.327-161.255-161.255-161.255h-580.52zM32.248 493.277c-17.8 0-32.248 14.448-32.248 32.248v129.004c0 53.365 43.387 96.752 96.752 96.752h838.528c53.365 0 96.752-43.387 96.752-96.752v-129.004c0-17.8-14.448-32.248-32.248-32.248h-967.532zM967.532 557.78v96.752c0 17.8-14.448 32.248-32.248 32.248h-838.528c-17.8 0-32.248-14.448-32.248-32.248v-96.752h903.031zM451.516 235.268c-53.365 0-96.752 43.387-96.752 96.752s43.387 96.752 96.752 96.752h129.004c53.365 0 96.752-43.387 96.752-96.752s-43.387-96.752-96.752-96.752h-129.004zM451.516 364.273c-17.8 0-32.248-14.448-32.248-32.248s14.448-32.248 32.248-32.248h129.004c17.8 0 32.248 14.448 32.248 32.248s-14.448 32.248-32.248 32.248h-129.004z" />
<glyph unicode="&#xe942;" glyph-name="mail" horiz-adv-x="1463" d="M183.446-196.846c-75.886 0-137.583 61.696-137.583 137.583v733.781c0 30.82 10.032 59.985 29.104 84.385 0.424 0.677 0.918 1.342 1.342 1.897 0.362 0.484 0.918 1.1 1.403 1.655 25.986 31.432 64.574 49.649 105.725 49.649h1100.674c41.036 0 79.55-18.165 105.851-49.774 0.608-0.616 1.157-1.282 1.587-1.897 0.371-0.424 0.737-1.039 1.1-1.595 19.021-24.402 29.047-53.505 29.047-84.324v-733.781c0-75.89-61.704-137.583-137.583-137.583h-1100.674zM137.583-59.263c0-25.319 20.546-45.862 45.862-45.862h1100.674c25.319 0 45.862 20.546 45.862 45.862v714.704l-444.916-342.187c-43.050-33.14-96.798-51.426-151.281-51.426s-108.233 18.286-151.281 51.426l-444.916 342.187v-714.704zM638.389 385.959c27.147-20.909 61.025-32.408 95.392-32.408s68.18 11.494 95.335 32.408l434.823 334.482h-1060.372l434.827-334.482z" />
<glyph unicode="&#xe943;" glyph-name="music" d="M198.733-247.879c-109.568 0-198.733 89.162-198.733 198.733 0 109.562 89.164 198.733 198.733 198.733 49.287 0 96.362-18.505 132.488-50.875v416.584c0 71.367 45.485 134.519 113.144 157.086l489.542 135.978c8.656 2.381 17.575 3.627 26.457 3.627 44.557 0 83.958-29.985 95.834-72.87 2.384-8.565 3.628-17.489 3.628-26.457v-84.748c0.086-1.409 0.043-2.829-0.043-4.238l0.043-472.363c0.043-0.308 0.086-1.017 0.086-1.724 0-109.57-89.162-198.733-198.733-198.733s-198.733 89.162-198.733 198.733c0 109.564 89.162 198.73 198.733 198.73 49.244 0 96.276-18.46 132.401-50.83v283.702l-596.11-178.858v-451.473c0-109.57-89.164-198.733-198.733-198.733zM198.733 83.342c-73.045 0-132.488-59.449-132.488-132.488 0-73.047 59.445-132.488 132.488-132.488s132.488 59.443 132.488 132.488c0 73.041-59.445 132.488-132.488 132.488zM861.174 282.072c-73.047 0-132.488-59.444-132.488-132.484 0-73.047 59.443-132.488 132.488-132.488 72.516 0 131.784 58.823 132.444 131.247-0.043 0.438-0.043 2.92-0.043 2.92-0.844 72.071-60.196 130.809-132.401 130.809zM960.406 745.779c-2.957 0-5.919-0.393-8.789-1.191l-487.869-135.492c-39.346-13.206-66.288-50.964-66.288-93.802v-43.81l596.11 178.814v62.358c0 2.961-0.395 5.921-1.189 8.744-3.979 14.354-17.143 24.381-31.977 24.381z" />
<glyph unicode="&#xe944;" glyph-name="check-square" d="M400.989 45.374c-5.032 0-10.107 0.52-15.139 1.501-20.299 4.043-37.8 15.693-49.28 32.853l-104.923 148.871c-10.235 14.533-6.755 34.704 7.787 44.939 5.459 3.872 11.872 5.893 18.576 5.893 10.491 0 20.341-5.117 26.405-13.672l105.353-149.516c2.32-3.48 5.16-5.416 8.64-6.107 0.861-0.171 1.723-0.256 2.584-0.256 2.491 0 4.947 0.776 7.053 2.192 1.203 0.819 2.235 1.808 3.096 2.925l337.647 427.219c6.107 7.744 15.309 12.213 25.244 12.213 7.224 0 14.32-2.448 19.949-6.925 6.755-5.331 11.053-12.989 12.043-21.544s-1.373-16.987-6.712-23.736l-337.26-426.703c-4.861-6.405-11.053-12.213-18.192-17.032-12.768-8.597-27.608-13.117-42.875-13.117zM96.752-216.204c-53.365 0-96.752 43.387-96.752 96.752v838.528c0 53.365 43.387 96.752 96.752 96.752h838.528c53.365 0 96.752-43.387 96.752-96.752v-838.528c0-53.365-43.387-96.752-96.752-96.752h-838.528zM96.752 751.331c-17.8 0-32.248-14.448-32.248-32.248v-838.528c0-17.8 14.448-32.248 32.248-32.248h838.528c17.8 0 32.248 14.448 32.248 32.248v838.528c0 17.8-14.448 32.248-32.248 32.248h-838.528z" />
<glyph unicode="&#xe945;" glyph-name="youtube" d="M0 282.15c0 292.534 237.419 529.956 529.956 529.956s529.956-237.419 529.956-529.956c0-292.534-237.419-529.956-529.956-529.956s-529.956 237.419-529.956 529.956zM798.11 406.158c0 0-5.298 40.275-22.262 57.236-21.203 23.322-45.574 23.322-57.236 25.441-78.433 5.298-197.143 5.298-197.143 5.298v0c0 0-118.71 0-198.203-5.298-10.596-2.119-34.977-2.119-56.176-25.441-16.957-16.957-23.322-57.236-23.322-57.236s-5.298-46.633-5.298-93.272v-43.454c0-46.633 5.298-93.272 5.298-93.272s6.357-40.275 23.322-57.236c21.203-23.322 49.815-23.322 61.476-25.441 45.574-4.238 192.903-5.298 192.903-5.298s118.71 0 197.143 5.298c11.655 2.119 36.037 2.119 57.236 24.381 16.957 18.019 22.262 58.296 22.262 58.296s5.298 46.633 5.298 93.272v43.454c0 46.633-5.298 93.272-5.298 93.272zM450.46 199.477v162.165l152.627-81.612z" />
<glyph unicode="&#xe946;" glyph-name="concert-outline" d="M1035.066 280.080c0-285.826-231.706-517.53-517.53-517.53s-517.53 231.706-517.53 517.53c0 285.825 231.707 517.53 517.53 517.53s517.53-231.707 517.53-517.53zM517.53-184.373c256.51 0 464.452 207.941 464.452 464.452s-207.941 464.452-464.452 464.452c-256.51 0-464.452-207.941-464.452-464.452s207.941-464.452 464.452-464.452zM375.869 331.127c-34.575 0-62.702 28.124-62.702 62.702s28.124 62.702 62.702 62.702c34.575 0 62.702-28.124 62.702-62.702s-28.124-62.702-62.702-62.702zM375.869 428.661c-19.213 0-34.836-15.622-34.836-34.836s15.622-34.836 34.836-34.836c19.213 0 34.836 15.622 34.836 34.836s-15.622 34.836-34.836 34.836zM696.332 331.127c-34.575 0-62.702 28.124-62.702 62.702s28.124 62.702 62.702 62.702c34.575 0 62.702-28.124 62.702-62.702s-28.124-62.702-62.702-62.702zM696.332 428.661c-19.213 0-34.836-15.622-34.836-34.836s15.622-34.836 34.836-34.836c19.213 0 34.836 15.622 34.836 34.836s-15.622 34.836-34.836 34.836zM623.69 261.499c-4.216 0-8.175 1.878-10.833 5.164-18.816 23.244-46.836 36.581-76.876 36.581-22.536 0-44.566-7.807-62.068-21.956-5.348-4.345-10.274-9.252-14.6-14.6-2.661-3.286-6.609-5.164-10.833-5.164-3.176 0-6.297 1.095-8.771 3.102-5.293 4.29-6.609 11.682-3.47 17.482-12.299 21.404-35.616 35.038-60.529 35.038-9.381 0-18.541-1.897-27.234-5.606-4.668-2.007-9.142-4.51-13.266-7.484-2.375-1.713-5.183-2.625-8.12-2.625-4.473 0-8.709 2.172-11.314 5.8-2.172 3.029-3.047 6.709-2.448 10.384s2.606 6.896 5.624 9.068c5.782 4.143 12.024 7.668 18.559 10.476 12.281 5.256 25.172 7.918 38.361 7.918 12.409 0 24.617-2.375 36.28-7.043 18.136-7.263 33.215-19.36 44.069-35.24 0.055 0.055 0.11 0.092 0.165 0.147 22.812 18.486 50.292 28.237 79.44 28.237 4.473 0 9.031-0.239 13.505-0.709 24.764-2.606 47.632-12.115 66.641-27.646 10.854 15.861 25.933 27.958 44.051 35.222 11.663 4.668 23.871 7.043 36.28 7.043 13.192 0 26.080-2.661 38.361-7.918 6.536-2.808 12.777-6.315 18.559-10.476 6.242-4.492 7.649-13.211 3.176-19.452-2.625-3.646-6.859-5.819-11.332-5.819-2.937 0-5.745 0.912-8.138 2.625-4.124 2.974-8.579 5.477-13.266 7.484-8.771 3.757-17.982 5.667-27.387 5.667-8.866 0-17.574-1.695-25.933-5.036-14.564-5.837-26.679-16.423-34.444-30.039 1.353-2.448 1.915-5.275 1.621-8.138-0.386-3.702-2.191-7.024-5.091-9.362-2.466-2.025-5.569-3.121-8.751-3.121zM536.096 331.148c-42.264 0-76.634 34.367-76.634 76.634s34.367 76.634 76.634 76.634c42.246 0 76.634-34.367 76.634-76.634s-34.386-76.634-76.634-76.634zM536.096 456.549c-26.881 0-48.766-21.882-48.766-48.766s21.864-48.766 48.766-48.766c26.899 0 48.766 21.882 48.766 48.766s-21.882 48.766-48.766 48.766zM445.535 38.519c-26.899 0-48.766 21.864-48.766 48.766s21.882 48.766 48.766 48.766c7.282 0 14.416-1.639 20.897-4.742v51.184c0 18.021 11.498 33.961 28.594 39.665l84.27 23.43c3.83 1.279 8.157 1.989 12.557 1.989 18.002 0 33.942-11.516 39.646-28.649 1.426-4.253 2.136-8.709 2.136-13.211v-90.568c0-26.899-21.864-48.766-48.766-48.766s-48.766 21.864-48.766 48.766c0 26.899 21.864 48.766 48.766 48.766 7.282 0 14.416-1.639 20.897-4.742v46.536c0 1.5-0.239 2.974-0.709 4.382-1.897 5.727-7.227 9.546-13.248 9.546-1.481 0-2.974-0.239-4.4-0.709l-84.252-23.43c-5.073-1.713-8.866-7.098-8.866-13.009v-95.213c0-26.918-21.882-48.786-48.766-48.786zM445.535 108.186c-11.535 0-20.897-9.381-20.897-20.897s9.362-20.897 20.897-20.897c11.535 0 20.897 9.381 20.897 20.897s-9.381 20.897-20.897 20.897zM584.87 136.053c-11.516 0-20.897-9.381-20.897-20.897s9.362-20.897 20.897-20.897c11.535 0 20.897 9.381 20.897 20.897s-9.381 20.897-20.897 20.897z" />
<glyph unicode="&#xe947;" glyph-name="media-outline" d="M1035.066 280.080c0-285.826-231.706-517.53-517.53-517.53s-517.53 231.706-517.53 517.53c0 285.825 231.707 517.53 517.53 517.53s517.53-231.707 517.53-517.53zM517.53-184.373c256.51 0 464.452 207.941 464.452 464.452s-207.941 464.452-464.452 464.452c-256.51 0-464.452-207.941-464.452-464.452s207.941-464.452 464.452-464.452zM681.2 442.639h-290.19c-20.645 0-40.441-8.201-55.041-22.799-14.598-14.595-22.799-34.394-22.799-55.041v-169.431c0-20.645 8.201-40.441 22.799-55.041 14.595-14.598 34.394-22.799 55.041-22.799h290.19c10.224 0 20.348 2.015 29.789 5.929 9.444 3.914 18.026 9.641 25.254 16.87 7.229 7.227 12.967 15.803 16.87 25.254 3.914 9.441 5.929 19.565 5.929 29.789v169.431c0 10.224-2.015 20.348-5.929 29.789-3.914 9.444-9.641 18.026-16.87 25.254-7.227 7.229-15.803 12.967-25.254 16.87-9.441 3.914-19.565 5.929-29.789 5.929zM731.175 195.364c0-6.559-1.29-13.064-3.807-19.128s-6.194-11.569-10.836-16.216c-4.644-4.641-10.15-8.319-16.216-10.836-6.066-2.506-12.559-3.807-19.128-3.807h-290.19c-13.255 0-25.962 5.264-35.335 14.634-9.37 9.37-14.634 22.083-14.634 35.335v169.431c0 13.255 5.264 25.964 14.634 35.335 9.373 9.37 22.083 14.634 35.335 14.634h290.19c6.559 0 13.064-1.29 19.128-3.807 6.066-2.508 11.569-6.194 16.216-10.836 4.641-4.644 8.319-10.153 10.836-16.216 2.506-6.066 3.807-12.559 3.807-19.128v-169.431zM497.091 379.48c-2.102 1.321-4.515 2.065-7.006 2.138-2.48 0.076-4.944-0.507-7.122-1.71-2.18-1.193-4.001-2.95-5.272-5.083s-1.952-4.565-1.968-7.056v-160.887c0.016-2.482 0.696-4.923 1.968-7.056 1.271-2.136 3.092-3.893 5.272-5.086 2.178-1.193 4.637-1.786 7.122-1.71s4.905 0.817 7.006 2.141l125.774 80.442c1.957 1.261 3.559 2.997 4.681 5.041s1.7 4.332 1.7 6.66c0 2.325-0.586 4.615-1.7 6.657-1.111 2.046-2.724 3.783-4.681 5.044l-125.774 80.442zM503.592 232.342v109.982l86.017-55.732-86.017-54.25z" />
</font>
</defs>
</svg>
