<?xml version="1.0" standalone="no"?>
<!DOCTYPE svg PUBLIC "-//W3C//DTD SVG 1.1//EN" "http://www.w3.org/Graphics/SVG/1.1/DTD/svg11.dtd" >
<svg xmlns="http://www.w3.org/2000/svg">
<metadata>Generated by IcoMoon</metadata>
<defs>
<font id="sofarsounds-icon-font" horiz-adv-x="1024">
<font-face units-per-em="1024" ascent="870.850439882698" descent="-153.14956011730206" />
<missing-glyph horiz-adv-x="1024" />
<glyph unicode="&#x20;" horiz-adv-x="0" d="" />
<glyph unicode="&#xe830;" glyph-name="icon-search2" d="M1000.049-198.349c-13.683 0-27.371 5.263-36.844 15.789l-231.591 230.537c-73.688-56.844-164.218-88.424-257.907-88.424-232.643 0-421.072 188.43-421.072 421.072s188.43 421.072 421.072 421.072c232.643 0 421.072-188.43 421.072-421.072 0-93.687-31.581-184.22-88.424-257.907l230.537-231.591c15.789-14.736 20.001-37.897 11.578-56.844-8.421-20.001-27.371-32.634-48.422-32.634v0zM473.707 696.43c-174.745 0-315.805-141.059-315.805-315.805 0-173.692 142.113-315.805 315.805-315.805s315.805 142.113 315.805 315.805c0 173.692-142.113 315.805-315.805 315.805v0z" />
<glyph unicode="&#xe900;" glyph-name="rock" horiz-adv-x="740" d="M352.332-141.727c-194.269 0-352.304 158.035-352.304 352.304v442.024c-0.658 29.125 10.27 57.184 30.81 78.669s48.187 33.686 77.888 34.344c0.945 0 2.054 0.041 3.163 0.041 28.305 0 55.335-10.969 76.121-30.851 21.485-20.54 33.686-48.187 34.344-77.888 0.041-1.685 0.041-3.327 0-4.971v-102.413c15.118 7.599 31.796 11.584 48.886 11.584l3.327-0.041c29.742-0.658 57.635-13.228 77.847-34.426 20.786 21.854 49.583 34.467 80.23 34.467l2.589-0.041c16.432-0.369 32.454-4.395 46.996-11.666 0 0-0.041 186.135 0 187.859 1.355 59.936 51.227 108.698 111.163 108.698l2.589-0.041c61.251-1.396 109.971-52.377 108.616-113.669v-548.955c0-0.369 0-0.74-0.041-1.15-0.576-71.685-35.986-151.299-94.814-213.124-67.905-71.398-159.309-110.752-257.409-110.752zM110.040 703.992c-13.187-0.287-25.511-5.752-34.672-15.323s-14.050-22.143-13.72-35.371v-442.722c0-160.295 130.388-290.684 290.684-290.684 180.097 0 290.685 153.436 290.685 263.447-1.232 36.191-20.253 70.617-50.858 91.567-23.17 16.678-49.995 25.429-77.929 25.47-0.369-0.041-0.74-0.041-1.15-0.041-0.328 0-0.699 0-1.068 0.041h-139.591c-26.003-0.576-47.16-21.854-47.737-48.433-0.287-13.228 4.559-25.798 13.72-35.371s21.485-14.995 34.713-15.323h139.714c17.213 0 31.056-13.802 31.056-30.81s-13.802-30.81-30.81-30.81c-34.713-0.041-67.331-13.597-91.898-38.163s-38.082-57.184-38.041-91.815c0-8.216-3.204-15.981-8.997-21.813-5.834-5.834-13.556-9.038-21.772-9.038-17.008 0-30.81 13.802-30.851 30.81-0.041 48.68 18.445 94.938 50.858 130.019-30.235 0.699-58.007 12.859-78.547 34.344-7.435 7.765-13.638 16.432-18.486 25.798-1.109-0.041-2.259-0.041-3.368-0.041-18.896 0-37.712 4.93-54.39 14.296-25.962 14.583-44.656 38.368-52.705 67.001-2.753 9.778-4.149 19.841-4.149 29.988 0 0 0.041 343.759 0 344.54-0.576 27.154-22.43 48.433-49.707 48.433h-0.986zM272.102 499.493c-27.278 0-49.091-21.28-49.707-48.474v-139.961c0-4.518 0.617-8.997 1.849-13.351 3.573-12.818 11.955-23.457 23.539-29.947 4.93-2.753 10.311-4.684 15.815-5.627 3.739 36.685 25.552 69.179 57.924 86.597v102.988c-0.617 26.003-21.854 47.16-48.433 47.737l-0.986 0.041zM543.89 359.698c30.111-4.643 58.785-16.391 83.722-34.386 5.34-3.657 10.475-7.64 15.405-11.914v419.552c0.617 27.852-21.116 50.776-48.433 51.391h-0.945c-26.825 0-49.132-21.731-49.707-48.474-0.082-0.74-0.041-376.172-0.041-376.172zM432.85 499.493c-26.826 0-49.133-21.731-49.707-48.474v-89.021h99.128v89.72c-0.576 26.003-21.854 47.16-48.433 47.737l-0.986 0.041z" />
<glyph unicode="&#xe901;" glyph-name="alert-triangle" horiz-adv-x="1161" d="M489.092 783.721l-464.397-803.749c-0.026-0.045-0.051-0.089-0.077-0.134-18.51-31.539-17.871-70.166 1.608-101.116 19.327-30.703 53.747-48.581 89.866-48.585h928.785c36.119 0.004 70.538 17.882 89.864 48.585 19.477 30.948 20.117 69.578 1.609 101.121-0.027 0.040-0.053 0.085-0.080 0.129l-464.395 803.748c-18.954 32.168-54.248 51.082-91.39 51.082s-72.436-18.911-91.39-51.082zM116.089-102.886c-14.441 0-26.812 7.171-33.18 17.29-6.188 9.834-6.347 21.647-0.498 31.579l464.387 803.736c0.022 0.034 0.040 0.067 0.062 0.101zM546.859 749.818c6.215 10.464 18.798 18.005 33.624 18.005s27.408-7.538 33.624-18.005c0.022-0.034 0.040-0.067 0.062-0.101l464.386-803.736c5.85-9.932 5.69-21.745-0.499-31.579-6.367-10.119-18.74-17.29-33.18-17.29 0.004 0 0 0 0 0h-928.781zM580.482 98.059c-26.292 0-51.35-20.487-51.35-50.234s25.058-50.234 51.35-50.234c26.292 0 51.35 20.487 51.35 50.234s-25.058 50.234-51.35 50.234zM580.482 533.42c18.495 0 33.49-14.995 33.49-33.49v-301.403c0-18.495-14.995-33.49-33.49-33.49s-33.49 14.995-33.49 33.49v301.403c0 18.495 14.995 33.49 33.49 33.49z" />
<glyph unicode="&#xe902;" glyph-name="check-circle" d="M1006.474 829.222c12.568-10.475 14.264-29.155 3.789-41.725l-455.26-546.201c-18.647-22.37-46.61-34.831-75.71-33.745-29.099 1.082-56.056 15.59-72.984 39.282l-138.957 194.453c-9.512 13.312-6.432 31.815 6.88 41.327s31.815 6.432 41.327-6.879l138.956-194.453c6.257-8.755 16.223-14.122 26.986-14.524 10.759-0.398 21.098 4.206 27.989 12.474 0 0 0-0.004 0 0l455.26 546.2c10.475 12.567 29.154 14.265 41.725 3.79zM121.185 605.086c150.937 178.773 410.108 220.001 609.099 96.897 13.913-8.607 18.214-26.865 9.605-40.781s-26.867-18.216-40.781-9.606c-174.019 107.655-400.664 71.599-532.653-84.733-131.987-156.326-129.47-385.723 5.912-539.121 135.385-153.4 362.768-184.482 534.38-73.039s235.631 331.747 150.469 517.75c-6.815 14.877-0.272 32.459 14.602 39.268s32.458 0.272 39.266-14.602c97.396-212.727 24.175-464.671-172.067-592.106s-456.255-91.898-611.076 83.527c-154.824 175.424-157.702 437.774-6.761 616.55z" />
<glyph unicode="&#xe903;" glyph-name="grid" d="M96.188 595.696c-53.053 0-96.188 43.134-96.188 96.188v64.126c0 53.053 43.135 96.188 96.188 96.188h64.126c53.054 0 96.188-43.135 96.188-96.188v-64.126c0-53.054-43.134-96.188-96.188-96.188h-64.126zM96.188 788.072c-17.698 0-32.062-14.364-32.062-32.062v-64.126c0-17.698 14.364-32.062 32.062-32.062h64.126c17.698 0 32.062 14.364 32.062 32.062v64.126c0 17.698-14.364 32.062-32.062 32.062h-64.126zM480.939 595.607c-53.054 0-96.188 43.134-96.188 96.188v64.126c0 53.053 43.134 96.188 96.188 96.188h64.126c53.054 0 96.188-43.135 96.188-96.188v-64.126c0-53.054-43.134-96.188-96.188-96.188h-64.126zM480.939 787.983c-17.698 0-32.062-14.364-32.062-32.062v-64.126c0-17.698 14.364-32.062 32.062-32.062h64.126c17.698 0 32.062 14.364 32.062 32.062v64.126c0 17.698-14.364 32.062-32.062 32.062h-64.126zM865.69 595.607c-53.052 0-96.188 43.134-96.188 96.188v64.126c0 53.053 43.136 96.188 96.188 96.188h64.126c53.052 0 96.188-43.135 96.188-96.188v-64.126c0-53.054-43.136-96.188-96.188-96.188h-64.126zM865.69 787.983c-17.698 0-32.062-14.364-32.062-32.062v-64.126c0-17.698 14.364-32.062 32.062-32.062h64.126c17.698 0 32.062 14.364 32.062 32.062v64.126c0 17.698-14.364 32.062-32.062 32.062h-64.126zM96.188 210.856c-53.053 0-96.188 43.134-96.188 96.188v64.126c0 53.054 43.135 96.188 96.188 96.188h64.126c53.054 0 96.188-43.134 96.188-96.188v-64.126c0-53.054-160.313-96.188-160.313-96.188zM96.188 403.231c-17.698 0-32.062-14.364-32.062-32.062v-64.126c0-17.698 14.364-32.062 32.062-32.062h64.126c17.698 0 32.062 14.364 32.062 32.062v64.126c0 17.698-14.364 32.062-32.062 32.062h-64.126zM480.939 210.856c-53.054 0-96.188 43.134-96.188 96.188v64.126c0 53.054 43.134 96.188 96.188 96.188h64.126c53.054 0 96.188-43.134 96.188-96.188v-64.126c0-53.054-43.134-96.188-96.188-96.188h-64.126zM480.939 403.231c-17.698 0-32.062-14.364-32.062-32.062v-64.126c0-17.698 14.364-32.062 32.062-32.062h64.126c17.698 0 32.062 14.364 32.062 32.062v64.126c0 17.698-14.364 32.062-32.062 32.062h-64.126zM865.69 210.856c-53.052 0-96.188 43.134-96.188 96.188v64.126c0 53.054 43.136 96.188 96.188 96.188h64.126c53.052 0 96.188-43.134 96.188-96.188v-64.126c0-53.054-43.136-96.188-96.188-96.188h-64.126zM865.69 403.231c-17.698 0-32.062-14.364-32.062-32.062v-64.126c0-17.698 14.364-32.062 32.062-32.062h64.126c17.698 0 32.062 14.364 32.062 32.062v64.126c0 17.698-14.364 32.062-32.062 32.062h-64.126zM96.188-173.897c-53.053 0-96.188 43.136-96.188 96.188v64.126c0 53.052 43.135 96.188 96.188 96.188h64.126c53.054 0 96.188-43.136 96.188-96.188v-64.126c0-53.052-43.134-96.188-96.188-96.188h-64.126zM96.188 18.479c-17.698 0-32.062-14.364-32.062-32.062v-64.126c0-17.698 14.364-32.062 32.062-32.062h64.126c17.698 0 32.062 14.364 32.062 32.062v64.126c0 17.698-14.364 32.062-32.062 32.062h-64.126zM480.939-173.897c-53.054 0-96.188 43.136-96.188 96.188v64.126c0 53.052 43.134 96.188 96.188 96.188h64.126c53.054 0 96.188-43.136 96.188-96.188v-64.126c0-53.052-43.134-96.188-96.188-96.188h-64.126zM480.939 18.479c-17.698 0-32.062-14.364-32.062-32.062v-64.126c0-17.698 14.364-32.062 32.062-32.062h64.126c17.698 0 32.062 14.364 32.062 32.062v64.126c0 17.698-14.364 32.062-32.062 32.062h-64.126zM865.69-173.897c-53.052 0-96.188 43.136-96.188 96.188v64.126c0 53.052 43.136 96.188 96.188 96.188h64.126c53.052 0 96.188-43.136 96.188-96.188v-64.126c0-53.052-43.136-96.188-96.188-96.188h-64.126zM865.69 18.479c-17.698 0-32.062-14.364-32.062-32.062v-64.126c0-17.698 14.364-32.062 32.062-32.062h64.126c17.698 0 32.062 14.364 32.062 32.062v64.126c0 17.698-14.364 32.062-32.062 32.062h-64.126z" />
<glyph unicode="&#xe904;" glyph-name="pencil" d="M31.922-181.042c-8.472 0-16.731 3.422-22.722 9.414-7.96 7.96-11.169 19.726-8.387 30.639l75.742 295.478c0.256 0.942 0.899 2.697 1.283 3.596 0.043 0.171 0.299 0.856 0.643 1.585 1.755 3.852 3.852 6.976 6.461 9.542l621.596 621.595c35.302 35.476 82.373 55.031 132.568 55.159 50.408 0 97.437-19.428 132.913-54.73l1.24-1.24c35.131-35.988 54.090-83.358 53.532-133.553-0.6-50.195-20.625-97.096-56.485-132.099l-620.228-620.227c-2.654-2.654-5.863-4.836-9.886-6.589-2.054-0.899-3.337-1.411-4.751-1.798l-295.606-75.827c-2.612-0.643-5.263-0.942-7.917-0.942zM76.469-104.401l188.712 48.397-140.4 140.144-48.312-188.541zM327.571-27.589l557.152 557.151-174.334 174.334-557.28-557.322 174.462-174.163zM930.038 575.007c44.118 48.141 43.433 122.899-2.523 169.97l-0.856 0.856c-23.28 23.152-54.26 35.945-87.167 35.945h-0.043c-31.41-0.085-60.806-11.596-83.616-32.608l174.206-174.163z" />
<glyph unicode="&#xe905;" glyph-name="feedback" d="M224.657-181.042c-4.964 0-9.929 1.155-14.378 3.38-10.913 5.476-17.715 16.475-17.715 28.713v160.47h-96.282c-53.105 0-96.282 43.177-96.282 96.282v641.879c0 53.105 43.177 96.282 96.282 96.282h834.442c53.105 0 96.282-43.177 96.282-96.282v-641.879c0-53.105-43.177-96.282-96.282-96.282h-438.617l-248.193-186.145c-5.519-4.151-12.367-6.418-19.257-6.418zM96.282 781.778c-17.715 0-32.093-14.378-32.093-32.093v-641.879c0-17.715 14.378-32.093 32.093-32.093h128.375c17.715 0 32.093-14.378 32.093-32.093v-128.375l205.401 154.050c5.519 4.151 12.367 6.418 19.257 6.418h449.315c17.715 0 32.093 14.378 32.093 32.093v641.879c0 17.715-14.378 32.093-32.093 32.093h-834.442zM412.216 503.628c-12.324 0-23.365 6.89-28.799 17.929-7.488 15.234-20.455 26.659-36.545 32.136-6.677 2.267-13.607 3.422-20.583 3.422-9.712 0-19.086-2.225-27.942-6.546-12.537-6.162-22.85-16.432-29.012-29.012-5.434-11.041-16.475-17.929-28.799-17.929-4.879 0-9.758 1.112-14.165 3.294-15.875 7.789-22.423 27.043-14.634 42.963 12.409 25.248 33.12 45.959 58.326 58.326 17.758 8.731 36.673 13.138 56.229 13.138 14.037 0 27.942-2.31 41.336-6.89 32.308-10.998 58.368-33.934 73.388-64.573 7.789-15.875 1.24-35.131-14.633-42.963-4.364-2.182-9.286-3.294-14.165-3.294zM625.404 503.628c-4.879 0-9.801 1.155-14.165 3.294-7.658 3.767-13.436 10.313-16.219 18.443s-2.225 16.816 1.585 24.52c12.409 25.248 33.12 45.916 58.326 58.326 17.758 8.731 36.673 13.138 56.229 13.138 14.037 0 27.942-2.31 41.336-6.89 32.308-10.998 58.368-33.934 73.389-64.573 3.767-7.704 4.321-16.389 1.585-24.52-2.782-8.131-8.515-14.677-16.219-18.443-4.407-2.182-9.286-3.294-14.165-3.294-12.324 0-23.365 6.89-28.799 17.974-7.488 15.192-20.455 26.617-36.545 32.093-6.677 2.267-13.607 3.422-20.583 3.422-9.712 0-19.129-2.225-27.985-6.546-12.537-6.162-22.85-16.475-29.012-29.012-5.391-11.084-16.432-17.929-28.756-17.929zM518.81 203.658c-69.151 0-135.693 25.931-187.301 73.002-13.052 11.94-13.994 32.265-2.097 45.316 6.077 6.677 14.719 10.483 23.706 10.483 8.045 0 15.704-2.996 21.61-8.387 39.712-36.244 90.891-56.186 144.081-56.186s104.327 19.983 144.081 56.186c5.906 5.391 13.564 8.387 21.61 8.387 8.987 0 17.63-3.809 23.706-10.483 5.778-6.333 8.774-14.549 8.344-23.109-0.384-8.557-4.108-16.475-10.441-22.253-51.606-47.029-118.148-72.96-187.301-72.96z" />
<glyph unicode="&#xe906;" glyph-name="tree" d="M522.79-170.342c-17.715 0-32.093 14.378-32.093 32.093v96.282h-255.339c-14.335 0-28.372 4.836-39.584 13.607-13.479 10.526-22.037 25.718-24.136 42.707-2.097 17.032 2.569 33.806 13.095 47.285l144.123 185.247c-13.308 0.299-26.446 4.836-37.1 12.793-13.692 10.27-22.594 25.291-24.989 42.278-2.438 16.99 1.883 33.891 12.196 47.583l115.539 154.050h-4.279c-13.138 0.043-24.989 3.639-35.732 10.785-14.25 9.499-23.962 24.005-27.345 40.824s0 33.934 9.542 48.184l132.655 198.897c4.708 7.061 10.654 13.009 17.715 17.715 10.611 7.104 22.935 10.828 35.646 10.828 21.567 0 41.551-10.654 53.489-28.542l132.655-198.939c7.061-10.569 10.785-22.85 10.785-35.604 0-35.389-28.799-64.189-64.189-64.189h-4.279l115.539-154.050c8.216-10.998 12.751-24.605 12.793-38.298 0.085-35.003-27.942-63.589-62.732-64.402l144.081-185.29c8.774-11.254 13.564-25.291 13.522-39.584-0.043-17.118-6.72-33.205-18.87-45.316-12.111-12.025-28.156-18.699-45.231-18.699h-255.382v-96.154c0-17.715-14.378-32.093-32.093-32.093zM394.455 311.066c12.153 0 23.493-7.061 28.841-17.974 5.349-10.956 3.98-24.221-3.508-33.806l-184.433-237.067c0 0 574.866 0.043 574.909 0.043l-184.433 237.024c-7.488 9.627-8.859 22.893-3.508 33.806s16.688 17.974 28.841 17.974h64.189l-154.050 205.401c-7.317 9.801-8.472 22.679-3.038 33.592s16.475 17.758 28.713 17.758h68.468l-132.655 198.897-132.698-198.939h68.553c12.239 0 23.237-6.805 28.713-17.715 5.476-10.956 4.321-23.834-3.038-33.635l-154.050-205.401 64.189 0.043z" />
<glyph unicode="&#xe907;" glyph-name="pet" d="M513.845-181.042c-71.847 0-136.72 21.823-192.905 64.872-1.798 1.112-3.465 2.395-4.964 3.809-93.972 74.886-155.72 205.016-178.57 376.398-2.353 17.544 10.014 33.72 27.558 36.073 1.496 0.213 2.868 0.299 4.236 0.299 16.005 0 29.698-11.983 31.794-27.857 19.684-147.504 69.751-259.918 144.979-325.861 50.622 18.187 92.601 70.265 115.966 104.882-46.002 14.847-76.47 48.997-76.47 88.322 0 54.004 56.4 96.282 128.375 96.282s128.375-42.278 128.375-96.282c0-39.325-30.469-73.475-76.47-88.279 23.408-34.619 65.387-86.74 115.923-104.925 75.271 65.941 125.337 178.314 144.979 325.818 2.139 15.875 15.789 27.857 31.837 27.857 1.368 0 2.782-0.085 4.193-0.256 17.587-2.353 29.954-18.529 27.644-36.073-22.935-172.024-85.070-302.453-179.64-377.168-0.856-0.728-1.713-1.368-2.654-2.011-56.442-43.734-121.744-65.899-194.189-65.899zM407.978-93.917c32.779-15.234 68.254-22.935 105.866-22.935s73.13 7.704 105.866 22.935c-46.428 28.927-82.632 73.259-105.866 107.408-23.237-34.147-59.438-78.438-105.866-107.408zM513.845 171.992c-36.158 0-64.189-17.246-64.189-32.093s28.028-32.093 64.189-32.093c36.158 0 64.189 17.246 64.189 32.093s-28.028 32.093-64.189 32.093zM875.865 362.283c-16.219 0-32.352 4.193-46.687 12.196-16.432 9.158-29.698 22.765-38.427 39.41-43.262 79.852-78.223 164.794-103.855 252.26-0.043 0.213-0.256 0.984-0.299 1.155-3.98 15.746-4.922 31.88-2.74 48.056-47.114 41.208-106.851 63.845-169.199 63.845-2.31 0-4.666-0.043-7.018-0.085-63.546-1.542-123.54-26.059-169.841-69.281 1.283-14.25 0.128-28.543-3.422-42.622-0.043-0.213-0.256-0.984-0.341-1.198-25.59-87.38-60.593-172.408-104.027-252.559-8.557-16.347-21.823-29.911-38.255-39.026-14.335-7.96-30.469-12.196-46.687-12.196-8.902 0-17.843 1.24-26.531 3.724-24.733 7.061-45.231 23.322-57.725 45.788-46.428 82.461-90.077 200.353-34.104 293.639 31.752 58.881 88.151 102.273 154.308 118.448 9.67 2.182 19.3 3.252 28.927 3.252 10.611 0 21.183-1.326 31.41-3.895 29.356-7.402 54.946-24.989 72.49-49.381 54.559 43.219 122.127 67.739 192.177 69.452 2.825 0.085 5.65 0.128 8.472 0.128 70.564 0 139.16-23.408 195.088-66.2 17.459 22.807 41.766 38.898 70.007 46.044 10.27 2.612 20.839 3.895 31.496 3.895 9.584 0 19.172-1.070 28.415-3.166 66.542-16.261 123.112-59.951 155.464-119.818 55.33-92.131 11.553-209.98-34.918-292.527-12.452-22.338-32.907-38.599-57.64-45.617-8.685-2.481-17.587-3.724-26.531-3.724zM811.163 762.945c-5.348 0-10.697-0.643-15.832-1.969-34.19-8.643-55.117-43.562-46.556-77.796 24.179-82.373 57.427-163.080 98.635-239.164 3.081-5.863 7.53-10.441 13.010-13.479 4.794-2.654 10.185-4.065 15.533-4.065 2.996 0 5.949 0.427 8.859 1.24 8.259 2.353 15.106 7.789 19.257 15.277 38.212 67.825 75.271 162.567 35.174 229.408-24.349 44.975-65.899 77.238-114.427 89.093-4.236 0.942-8.902 1.454-13.65 1.454zM209.853 762.945c-4.794 0-9.542-0.515-14.165-1.585-48.098-11.766-89.477-43.777-113.227-87.725-40.739-67.995-3.767-162.824 34.362-230.52 4.236-7.616 11.084-13.052 19.342-15.405 2.953-0.856 5.906-1.283 8.902-1.283 5.348 0 10.739 1.411 15.533 4.065 5.476 3.038 9.929 7.573 12.839 13.138 41.379 76.427 74.672 157.174 98.978 240.148 3.937 15.92 1.411 33.12-7.36 47.8-8.816 14.762-22.807 25.206-39.454 29.399-5.092 1.283-10.398 1.969-15.746 1.969zM369.422 364.556c-1.883 0-3.767 0.171-5.604 0.515-21.951 2.569-39.454 20.113-42.022 42.022-0.341 1.841-0.515 3.724-0.515 5.604s0.171 3.767 0.515 5.604c2.569 21.951 20.113 39.454 42.022 42.022 1.841 0.341 3.724 0.515 5.604 0.515s3.767-0.171 5.604-0.515c21.951-2.569 39.454-20.113 42.022-42.022 0.341-1.841 0.515-3.724 0.515-5.604s-0.171-3.767-0.515-5.604c-2.569-21.951-20.113-39.454-42.022-42.022-1.841-0.341-3.724-0.515-5.604-0.515zM658.268 364.556c-1.883 0-3.767 0.171-5.604 0.469-21.951 2.569-39.454 20.113-42.064 42.064-0.299 1.798-0.469 3.681-0.469 5.562s0.171 3.767 0.469 5.562c2.569 21.951 20.113 39.497 42.064 42.064 1.841 0.384 3.724 0.558 5.604 0.558s3.767-0.171 5.604-0.469c21.951-2.569 39.454-20.113 42.022-42.064 0.341-1.798 0.469-3.681 0.469-5.562s-0.171-3.767-0.469-5.562c-2.569-21.951-20.071-39.497-42.022-42.064-1.841-0.384-3.724-0.558-5.604-0.558z" />
<glyph unicode="&#xe908;" glyph-name="byob" d="M288.846-181.042c-53.105 0-96.282 43.177-96.282 96.282v486.93c0 25.718 10.014 49.854 28.156 68.038l100.219 100.219v211.349c0 35.389 28.799 64.189 64.189 64.189h64.189c35.389 0 64.189-28.799 64.189-64.189v-211.349l100.177-100.177c6.077-6.034 9.414-14.122 9.414-22.679s-3.337-16.645-9.414-22.679c-6.077-6.034-14.122-9.414-22.679-9.414s-16.645 3.337-22.679 9.414l-109.59 109.548c-6.077 6.077-9.414 14.122-9.414 22.679v64.189h-64.189v-64.189c0-8.557-3.337-16.645-9.414-22.679l-109.59-109.59c-6.034-6.077-9.371-14.122-9.371-22.679v-486.93c0-17.715 14.378-32.093 32.093-32.093h160.47c17.715 0 32.093-14.378 32.093-32.093s-14.378-32.093-32.093-32.093h-160.47zM449.315 685.496v96.282h-64.189v-96.282h64.189zM577.691-181.042c-17.715 0-32.093 14.378-32.093 32.093s14.378 32.093 32.093 32.093h64.189v134.58c-74.115 14.978-128.375 80.191-128.375 157.174v157.561c0 17.715 14.378 32.093 32.093 32.093h256.751c17.715 0 32.093-14.378 32.093-32.093v-157.561c0-76.982-54.26-142.198-128.375-157.174v-134.58h64.189c17.715 0 32.093-14.378 32.093-32.093s-14.378-32.093-32.093-32.093h-192.564zM577.691 174.902c0-53.105 43.177-96.282 96.282-96.282s96.282 43.177 96.282 96.282v125.466h-192.564v-125.466z" />
<glyph unicode="&#xe909;" glyph-name="media" d="M847.708 706.892h-668.409c-47.552 0-93.158-18.889-126.784-52.514s-52.514-79.229-52.514-126.784v-390.262c0-47.553 18.889-93.158 52.514-126.785s79.229-52.514 126.784-52.514h668.409c23.544 0 46.862 4.64 68.613 13.645 21.755 9.013 41.521 22.219 58.172 38.868s29.856 36.416 38.868 58.172c9.008 21.75 13.645 45.069 13.645 68.613v390.262c0 23.546-4.64 46.862-13.645 68.614-9.013 21.753-22.219 41.52-38.868 58.17s-36.416 29.856-58.172 38.867c-21.75 9.011-45.069 13.647-68.613 13.647zM962.817 137.33c0-15.119-2.979-30.086-8.765-44.050-5.782-13.968-14.263-26.655-24.951-37.343s-23.378-19.167-37.343-24.951c-13.964-5.787-28.931-8.765-44.050-8.765h-668.409c-30.53 0-59.807 12.128-81.394 33.716s-33.715 50.868-33.715 81.393v390.262c0 30.53 12.128 59.807 33.715 81.394s50.867 33.715 81.394 33.715h668.409c15.119 0 30.086-2.978 44.050-8.763 13.968-5.786 26.655-14.264 37.343-24.952s19.172-23.38 24.951-37.343c5.787-13.967 8.765-28.933 8.765-44.051v-390.262zM423.64 561.388c-4.842 3.053-10.411 4.756-16.133 4.931s-11.384-1.181-16.404-3.932c-5.020-2.751-9.213-6.793-12.145-11.707s-4.494-10.525-4.528-16.25v-370.576c0.034-5.727 1.599-11.335 4.528-16.253s7.125-8.957 12.145-11.707c5.020-2.752 10.682-4.108 16.404-3.933s11.291 1.879 16.133 4.934l289.701 185.29c4.505 2.906 8.207 6.899 10.771 11.608 2.569 4.708 3.912 9.984 3.912 15.35 0 5.361-1.343 10.637-3.912 15.345-2.564 4.713-6.264 8.702-10.771 11.613l-289.701 185.288zM438.617 222.478v253.326l198.126-128.373-198.126-124.953z" />
<glyph unicode="&#xe90a;" glyph-name="concert" d="M144.423 492.932c-79.637 0-144.423 64.786-144.423 144.423s64.786 144.423 144.423 144.423c79.637 0 144.423-64.786 144.423-144.423s-64.786-144.423-144.423-144.423zM144.423 717.589c-44.246 0-80.234-35.988-80.234-80.234s35.988-80.234 80.234-80.234c44.246 0 80.234 35.988 80.234 80.234s-35.988 80.234-80.234 80.234zM882.583 492.932c-79.637 0-144.423 64.786-144.423 144.423s64.786 144.423 144.423 144.423c79.637 0 144.423-64.786 144.423-144.423s-64.786-144.423-144.423-144.423zM882.583 717.589c-44.246 0-80.234-35.988-80.234-80.234s35.988-80.234 80.234-80.234c44.246 0 80.234 35.988 80.234 80.234s-35.988 80.234-80.234 80.234zM715.249 332.505c-9.712 0-18.827 4.321-24.947 11.897-43.347 53.532-107.878 84.257-177.074 84.257-51.908 0-102.656-17.974-142.966-50.579-12.324-10.014-23.664-21.311-33.635-33.635-6.119-7.573-15.234-11.897-24.947-11.897-7.317 0-14.506 2.523-20.199 7.146-12.196 9.886-15.234 26.915-8.003 40.266-28.329 49.296-82.032 80.706-139.416 80.706-21.61 0-42.707-4.364-62.732-12.924-10.739-4.623-21.055-10.398-30.554-17.246-5.476-3.937-11.94-6.034-18.699-6.034-10.313 0-20.071 5.007-26.059 13.351-5.007 6.976-7.018 15.448-5.65 23.92s5.991 15.875 12.967 20.881c13.308 9.542 27.686 17.672 42.75 24.136 28.287 12.111 57.984 18.23 88.365 18.23 28.585 0 56.698-5.476 83.573-16.219 41.766-16.731 76.513-44.59 101.502-81.176 0.128 0.128 0.256 0.213 0.384 0.341 52.548 42.578 115.836 65.043 182.977 65.043 10.313 0 20.796-0.558 31.109-1.627 57.043-5.991 109.718-27.9 153.495-63.674 24.989 36.545 59.737 64.402 101.46 81.133 26.873 10.739 54.989 16.219 83.573 16.219 30.383 0 60.081-6.119 88.365-18.23 15.064-6.461 29.442-14.549 42.75-24.136 14.378-10.355 17.63-30.426 7.317-44.804-6.034-8.387-15.789-13.394-26.102-13.394-6.762 0-13.223 2.097-18.742 6.034-9.499 6.848-19.769 12.623-30.554 17.246-20.199 8.643-41.421 13.052-63.076 13.052-20.412 0-40.481-3.895-59.737-11.596-33.55-13.436-61.449-37.828-79.335-69.195 3.124-5.65 4.407-12.153 3.724-18.742-0.899-8.515-5.050-16.176-11.724-21.567-5.693-4.666-12.839-7.189-20.156-7.189zM513.502 492.932c-97.352 0-176.516 79.164-176.516 176.516s79.164 176.516 176.516 176.516c97.309 0 176.516-79.164 176.516-176.516s-79.207-176.516-176.516-176.516zM513.502 781.778c-61.919 0-112.329-50.408-112.329-112.329s50.366-112.329 112.329-112.329c61.962 0 112.329 50.408 112.329 112.329s-50.408 112.329-112.329 112.329zM304.892-181.046c-61.962 0-112.329 50.366-112.329 112.329s50.408 112.329 112.329 112.329c16.773 0 33.205-3.767 48.141-10.913v117.892c0 41.508 26.489 78.223 65.856 91.36l194.104 53.962c8.816 2.953 18.785 4.577 28.927 4.577 41.464 0 78.18-26.531 91.318-65.984 3.294-9.801 4.922-20.071 4.922-30.426v-208.611c0-61.962-50.366-112.329-112.329-112.329s-112.329 50.366-112.329 112.329c0 61.962 50.366 112.329 112.329 112.329 16.773 0 33.205-3.767 48.141-10.913v107.194c0 3.465-0.558 6.848-1.627 10.099-4.364 13.18-16.645 21.994-30.511 21.994-3.422 0-6.848-0.558-10.142-1.627l-194.061-53.962c-11.681-3.937-20.412-16.347-20.412-29.954v-219.309c0-62.005-50.408-112.373-112.329-112.373zM304.892-20.575c-26.574 0-48.141-21.61-48.141-48.141s21.567-48.141 48.141-48.141c26.574 0 48.141 21.61 48.141 48.141s-21.61 48.141-48.141 48.141zM625.832 43.612c-26.531 0-48.141-21.61-48.141-48.141s21.567-48.141 48.141-48.141c26.574 0 48.141 21.61 48.141 48.141s-21.61 48.141-48.141 48.141z" />
<glyph unicode="&#xe90b;" glyph-name="fan-experience" d="M224.657 396.65c-35.389 0-64.189 28.799-64.189 64.189v96.282c0 17.715 14.378 32.093 32.093 32.093s32.093 14.378 32.093 32.093c0 17.715-14.378 32.093-32.093 32.093s-32.093 14.378-32.093 32.093v96.282c0 35.389 28.799 64.189 64.189 64.189h577.691c35.389 0 64.189-28.799 64.189-64.189v-96.282c0-17.715-14.378-32.093-32.093-32.093s-32.093-14.378-32.093-32.093c0-17.715 14.378-32.093 32.093-32.093s32.093-14.378 32.093-32.093v-96.282c0-35.389-28.799-64.189-64.189-64.189h-577.691zM224.657 460.838h577.691v69.708c-37.871 13.436-64.189 49.725-64.189 90.762s26.318 77.367 64.189 90.762v69.708h-577.691v-69.708c37.871-13.436 64.189-49.725 64.189-90.762 0-41.080-26.318-77.367-64.189-90.762v-69.708zM385.127 525.025c-17.715 0-32.093 14.378-32.093 32.093v128.375c0 17.715 14.378 32.093 32.093 32.093s32.093-14.378 32.093-32.093v-128.375c0-17.715-14.378-32.093-32.093-32.093zM834.442 43.616c-70.778 0-128.375 57.597-128.375 128.375s57.597 128.375 128.375 128.375c70.778 0 128.375-57.597 128.375-128.375s-57.597-128.375-128.375-128.375zM834.442 236.18c-35.389 0-64.189-28.799-64.189-64.189s28.799-64.189 64.189-64.189c35.389 0 64.189 28.799 64.189 64.189s-28.799 64.189-64.189 64.189zM994.913-181.042c-17.715 0-32.093 14.378-32.093 32.093 0 70.778-57.597 128.375-128.375 128.375s-128.375-57.597-128.375-128.375c0-17.715-14.378-32.093-32.093-32.093s-32.093 14.378-32.093 32.093c0 70.778-57.597 128.375-128.375 128.375s-128.375-57.597-128.375-128.375c0-17.715-14.378-32.093-32.093-32.093s-32.093 14.378-32.093 32.093c0 70.778-57.597 128.375-128.375 128.375s-128.375-57.597-128.375-128.375c0-17.715-14.378-32.093-32.093-32.093s-32.093 14.378-32.093 32.093c0 106.167 86.396 192.564 192.564 192.564 64.914 0 125.123-33.163 160.47-86.524 35.346 53.361 95.554 86.524 160.47 86.524s125.123-33.163 160.47-86.524c35.346 53.361 95.554 86.524 160.47 86.524 106.167 0 192.564-86.396 192.564-192.564 0-17.715-14.378-32.093-32.093-32.093zM513.502 43.616c-70.778 0-128.375 57.597-128.375 128.375s57.597 128.375 128.375 128.375c70.778 0 128.375-57.597 128.375-128.375s-57.597-128.375-128.375-128.375zM513.502 236.18c-35.389 0-64.189-28.799-64.189-64.189s28.799-64.189 64.189-64.189c35.389 0 64.189 28.799 64.189 64.189s-28.799 64.189-64.189 64.189zM192.564 43.616c-70.778 0-128.375 57.597-128.375 128.375s57.597 128.375 128.375 128.375c70.778 0 128.375-57.597 128.375-128.375s-57.597-128.375-128.375-128.375zM192.564 236.18c-35.389 0-64.189-28.799-64.189-64.189s28.799-64.189 64.189-64.189c35.389 0 64.189 28.799 64.189 64.189s-28.799 64.189-64.189 64.189z" />
<glyph unicode="&#xe90c;" glyph-name="event-set-up" d="M96.282-181.042c-53.105 0-96.282 43.177-96.282 96.282v64.189c0 0.6 0.043 1.283 0.128 1.883 0.043 0.341 0.085 0.686 0.085 0.899 0.085 1.411 0.384 3.465 0.942 5.434 0.171 0.686 0.384 1.368 0.643 2.054 0.6 1.755 1.326 3.38 2.139 4.922 0.299 0.643 0.643 1.283 0.942 1.798l141.598 226.583c17.715 28.372 48.226 45.273 81.648 45.273h570.758c33.422 0 63.93-16.947 81.648-45.273l141.598-226.583c0.341-0.558 0.686-1.24 0.984-1.883 0.771-1.454 1.496-3.038 2.054-4.751l0.558-1.755c0.643-2.395 0.984-4.449 1.112-6.503 0.128-0.643 0.171-1.411 0.171-2.097v-64.189c0-53.105-43.177-96.282-96.282-96.282h-834.442zM64.189-84.76c0-17.715 14.378-32.093 32.093-32.093h834.442c17.715 0 32.093 14.378 32.093 32.093v32.093h-898.631v-32.093zM937.014 11.523l-110.916 177.458c-5.906 9.456-16.091 15.106-27.217 15.106h-570.758c-11.126 0-21.311-5.65-27.217-15.106l-110.916-177.458h847.023zM481.409 75.71c-17.715 0-32.093 14.378-32.093 32.093s14.378 32.093 32.093 32.093h64.189c17.715 0 32.093-14.378 32.093-32.093s-14.378-32.093-32.093-32.093h-64.189zM288.847 43.616c-4.922 0-9.886 1.155-14.335 3.38-15.832 7.917-22.253 27.217-14.378 43.049l32.093 64.189c5.476 10.956 16.475 17.715 28.756 17.715 4.922 0 9.886-1.155 14.293-3.38 15.832-7.96 22.295-27.26 14.378-43.049l-32.093-64.189c-5.476-10.913-16.475-17.715-28.713-17.715zM738.16 43.616c-12.239 0-23.237 6.805-28.713 17.758l-32.093 64.189c-7.917 15.832-1.454 35.131 14.335 43.049 4.492 2.225 9.414 3.38 14.335 3.38 12.239 0 23.237-6.805 28.713-17.715l32.093-64.189c7.917-15.832 1.454-35.131-14.335-43.049-4.449-2.267-9.414-3.422-14.335-3.422zM513.502 300.368c-106.167 0-192.564 86.396-192.564 192.564s86.396 192.564 192.564 192.564c106.167 0 192.564-86.396 192.564-192.564s-86.396-192.564-192.564-192.564zM513.502 621.307c-70.778 0-128.375-57.597-128.375-128.375s57.597-128.375 128.375-128.375c70.778 0 128.375 57.597 128.375 128.375s-57.597 128.375-128.375 128.375zM770.254 332.462c-17.715 0-32.093 14.378-32.093 32.093v192.564c0 123.883-100.774 224.657-224.657 224.657s-224.657-100.774-224.657-224.657v-192.564c0-17.715-14.378-32.093-32.093-32.093-88.493 0-160.47 71.975-160.47 160.47 0 82.117 63.845 151.441 144.551 159.528 40.224 114.469 150.756 193.506 272.67 193.506s232.446-79.036 272.627-193.506c80.706-8.088 144.594-77.411 144.594-159.528 0-88.493-71.975-160.47-160.47-160.47zM802.349 402.17c37.615 13.394 64.189 49.595 64.189 90.762s-26.574 77.367-64.189 90.762v-181.523zM224.657 583.693c-37.615-13.394-64.189-49.595-64.189-90.762s26.574-77.367 64.189-90.762v181.523z" />
<glyph unicode="&#xe90d;" glyph-name="info" horiz-adv-x="515" d="M356.028-181.042c-117.822 0-213.617 92.11-213.617 205.401v342.335h-71.205c-39.305 0-71.205 30.673-71.205 68.468s31.9 68.468 71.205 68.468h71.205c78.517 0 142.411-61.438 142.411-136.934v-342.335c0-37.794 31.9-68.468 71.205-68.468h71.205c39.304 0 71.206-30.673 71.206-68.468s-31.901-68.468-71.206-68.468h-71.205zM178.016 640.564c58.989 0 106.808 45.981 106.808 102.7s-47.821 102.7-106.808 102.7c-58.989 0-106.808-45.981-106.808-102.7s47.821-102.7 106.808-102.7z" />
<glyph unicode="&#xe90e;" glyph-name="guest-parking" d="M224.657-177.467c-70.778 0-128.375 57.597-128.375 128.375s57.597 128.375 128.375 128.375c70.778 0 128.375-57.597 128.375-128.375s-57.597-128.375-128.375-128.375zM224.657 15.096c-35.389 0-64.189-28.799-64.189-64.189s28.799-64.189 64.189-64.189c35.389 0 64.189 28.799 64.189 64.189s-28.799 64.189-64.189 64.189zM802.349-177.467c-70.778 0-128.375 57.597-128.375 128.375s57.597 128.375 128.375 128.375c70.778 0 128.375-57.597 128.375-128.375s-57.597-128.375-128.375-128.375zM802.349 15.096c-35.389 0-64.189-28.799-64.189-64.189s28.799-64.189 64.189-64.189c35.389 0 64.189 28.799 64.189 64.189s-28.799 64.189-64.189 64.189zM409.048 47.19c-10.483 0-20.369 5.135-26.361 13.778-35.945 51.649-94.956 82.502-157.902 82.502-0.171 0-0.341 0-0.558 0-65.472-0.128-127.52-31.281-166.418-83.4-6.034-8.045-15.661-12.882-25.718-12.882-3.465 0-6.89 0.558-10.142 1.627-13.138 4.364-21.951 16.645-21.951 30.469v224.657c0 0.469 0 1.027 0.043 1.542 0.085 0.899 0.171 1.883 0.299 2.868 0.171 1.070 0.299 1.969 0.515 2.868 0.171 0.771 0.427 1.67 0.728 2.569 0.384 1.112 0.686 1.969 1.027 2.782 0.171 0.469 0.384 0.984 0.6 1.368l109.974 224.529c17.8 31.325 49.982 50.28 84.385 50.323h427.962c42.75 0 80.792-28.713 92.558-69.836l42.75-122.556h170.183c53.105 0 96.282-43.177 96.282-96.282v-224.657c0-13.82-8.816-26.059-21.951-30.469-3.294-1.112-6.677-1.67-10.142-1.67-10.057 0-19.684 4.836-25.718 12.882-38.983 52.121-100.646 83.23-164.963 83.23h-2.011c-63.29 0-122.341-30.853-158.287-82.502-5.906-8.6-15.789-13.735-26.275-13.735h-208.911zM601.869 111.378c48.354 60.38 122.556 96.197 200.137 96.282 0.213 0 0.427 0 0.558 0 58.539 0 114.254-18.273 160.599-52.036v148.488c0 17.715-14.378 32.093-32.093 32.093h-189.739c-0.942-0.085-1.883-0.128-2.825-0.128-0.984 0-1.969 0.043-2.953 0.128h-74.029c-6.375 0-12.495-1.883-17.8-5.391l-63.887-42.75c-15.92-10.611-34.362-16.219-53.447-16.219h-462.195v-116.265c46.215 33.806 101.46 52.078 158.758 52.078h1.883c77.668 0 151.911-35.86 200.309-96.282h176.73zM526.341 336.035c6.333 0 12.495 1.883 17.8 5.391l63.887 42.75c15.875 10.611 34.362 16.219 53.447 16.219h31.496l-35.945 103.172c-4.449 15.32-16.947 25.032-31.41 25.032h-304.679v-192.564h205.401zM256.751 336.035v192.564h-59.054c-11.468 0-22.082-6.205-27.772-16.176l-86.396-176.388h173.222z" />
<glyph unicode="&#xe90f;" glyph-name="artist-parking" d="M513.502-181.042c-283.154 0-513.502 230.35-513.502 513.502s230.35 513.502 513.502 513.502c283.154 0 513.502-230.35 513.502-513.502s-230.35-513.502-513.502-513.502zM513.502 781.778c-247.765 0-449.315-201.55-449.315-449.315s201.55-449.315 449.315-449.315c247.765 0 449.315 201.55 449.315 449.315s-201.55 449.315-449.315 449.315zM449.315 75.71c-17.715 0-32.093 14.378-32.093 32.093v385.127c0 17.715 14.378 32.093 32.093 32.093h96.282c70.778 0 128.375-57.597 128.375-128.375s-57.597-128.375-128.375-128.375h-64.189v-160.47c0-17.715-14.378-32.093-32.093-32.093zM545.597 332.462c35.389 0 64.189 28.799 64.189 64.189s-28.799 64.189-64.189 64.189h-64.189v-128.375h64.189z" />
<glyph unicode="&#xe910;" glyph-name="disabled" d="M802.349-181.042c-17.715 0-32.093 14.378-32.093 32.093v192.564c0 41.080-26.574 77.238-64.189 90.633v-26.446c0-159.271-129.574-288.846-288.846-288.846s-288.846 129.574-288.846 288.846c0 147.675 111.602 270.958 256.751 287.048v133.467c-74.115 14.978-128.375 80.191-128.375 157.174 0 88.493 71.975 160.47 160.47 160.47s160.47-71.975 160.47-160.47c0-76.982-54.26-142.198-128.375-157.174v-131.67h224.657c17.715 0 32.093-14.378 32.093-32.093s-14.378-32.093-32.093-32.093h-224.657v-96.282c0-17.715 14.378-32.093 32.093-32.093h192.564c88.493 0 160.47-71.975 160.47-160.47v-160.47h32.093c17.715 0 32.093-14.378 32.093-32.093s-14.378-32.093-32.093-32.093h-64.189zM385.127 330.108c-109.292-15.704-192.564-110.232-192.564-222.304 0-123.883 100.774-224.657 224.657-224.657s224.657 100.774 224.657 224.657v32.093h-160.47c-53.105 0-96.282 43.177-96.282 96.282v93.929zM417.221 781.778c-53.105 0-96.282-43.177-96.282-96.282s43.177-96.282 96.282-96.282c53.105 0 96.282 43.177 96.282 96.282s-43.177 96.282-96.282 96.282z" />
<glyph unicode="&#xe911;" glyph-name="photos" d="M609.784 43.616c-141.555 0-256.751 115.195-256.751 256.751s115.195 256.751 256.751 256.751c141.555 0 256.751-115.195 256.751-256.751s-115.195-256.751-256.751-256.751zM609.784 492.932c-106.167 0-192.564-86.396-192.564-192.564s86.396-192.564 192.564-192.564c106.167 0 192.564 86.396 192.564 192.564s-86.396 192.564-192.564 192.564zM96.282-84.76c-53.105 0-96.282 43.177-96.282 96.282v513.502c0 53.105 43.177 96.282 96.282 96.282h96.282v32.093c0 17.715 14.378 32.093 32.093 32.093s32.093-14.378 32.093-32.093v-32.093h108.521l37.572 75.142c16.432 32.821 49.424 53.233 86.14 53.233h241.603c36.716 0 69.708-20.369 86.14-53.233l37.572-75.142h76.427c53.105 0 96.282-43.177 96.282-96.282v-513.502c0-53.105-43.177-96.282-96.282-96.282h-834.442zM96.282 557.119c-17.715 0-32.093-14.378-32.093-32.093v-513.502c0-17.715 14.378-32.093 32.093-32.093h834.442c17.715 0 32.093 14.378 32.093 32.093v513.502c0 17.715-14.378 32.093-32.093 32.093h-96.282c-12.239 0-23.237 6.805-28.713 17.758l-46.428 92.902c-5.476 10.913-16.475 17.715-28.713 17.715h-241.603c-12.239 0-23.237-6.805-28.713-17.758l-46.428-92.86c-5.476-10.956-16.475-17.758-28.713-17.758h-288.846zM176.516 396.65c26.588 0 48.141 21.553 48.141 48.141s-21.553 48.141-48.141 48.141c-26.588 0-48.141-21.553-48.141-48.141s21.553-48.141 48.141-48.141z" />
<glyph unicode="&#xe912;" glyph-name="reset" d="M548.045-181.042c-63.358 0-125.207 13.261-183.855 39.337-8.462 3.767-15.052 10.815-18.527 19.863s-3.475 19.035 0.046 28.083c5.352 13.748 17.794 22.607 31.703 22.607 4.527 0 8.967-0.929 13.13-2.791 50.277-22.359 103.25-33.712 157.6-33.712 106.27 0 207.049 43.253 283.813 121.782 79.049 80.928 123.926 190.086 126.351 307.417 2.421 117.331-37.926 228.545-113.545 313.093-78.043 87.239-183.355 135.287-296.578 135.287-106.27 0-207.003-43.154-283.582-121.588-73.79-75.498-118.393-176.827-125.621-285.4-6.404-97.856 17.156-193.167 66.881-273.458v133.083c0 20.258 15.371 36.699 34.309 36.699s34.31-16.441 34.31-36.699v-220.178c0-20.258-15.371-36.695-34.31-36.695h-10.889c-0.733-0.098-1.417-0.149-2.059-0.149-0.778 0-1.557 0.051-2.332 0.149h-190.581c-18.938 0-34.31 16.436-34.31 36.695s15.371 36.699 34.31 36.699h120.589c-57.549 88.459-87.743 194.878-85.499 303.501 0.228 11.301 0.915 23.143 2.15 37.232l0.32 3.72c0.273 3.23 0.55 6.409 0.87 9.64l0.273 2.199c13.814 117.674 65.051 226.783 144.469 308.054 89.847 91.889 207.873 142.528 332.302 142.528 63.363 0 125.256-13.162 183.86-39.142 4.573-2.006 8.596-5.040 11.893-8.808 56.088-27.007 106.133-64.878 148.813-112.585 182.576-204.080 175.854-529.016-14.957-724.287-89.571-91.642-207.232-142.139-331.252-142.139h-0.094v-0.047z" />
<glyph unicode="&#xe913;" glyph-name="arrow-up" d="M513.502-181.042c-18.896 0-34.232 14.378-34.232 32.093v885.323l-420.845-394.542c-6.435-6.034-15.064-9.371-24.193-9.371s-17.755 3.337-24.193 9.414c-6.481 6.034-10.042 14.122-10.042 22.679s3.559 16.645 10.042 22.679l479.224 449.315c3.196 2.996 6.937 5.348 11.182 6.976 0.367 0.128 0.733 0.256 1.142 0.384 3.925 1.368 7.896 2.054 11.914 2.054 4.061 0 8.079-0.686 11.914-2.054 0.32-0.085 0.639-0.213 0.959-0.299 4.428-1.713 8.169-4.065 11.412-7.104l479.175-449.272c6.482-6.034 10.044-14.122 10.044-22.679s-3.559-16.645-10.044-22.679c-6.478-6.034-15.064-9.414-24.191-9.414s-17.753 3.337-24.191 9.414l-420.846 394.542v-885.365c0-17.715-15.337-32.093-34.232-32.093z" />
<glyph unicode="&#xe914;" glyph-name="map" d="M353.033-181.038c-12.239 0-24.307 2.31-35.774 6.933l-256.751 102.696c-36.759 14.677-60.508 49.811-60.508 89.387v400.089c-0.043 8.216 1.496 16.303 4.623 24.046 9.801 24.476 33.248 40.308 59.651 40.308 8.173 0 16.176-1.542 23.792-4.577l253.029-101.071c3.809-1.496 7.832-2.267 11.983-2.31 1.112 0 2.225-0.085 3.337-0.256 0.686-0.043 2.353-0.256 3.038-0.384 1.198-0.256 2.267-0.6 3.337-0.942 0.942-0.256 1.883-0.558 2.782-0.942s1.841-0.899 2.782-1.411c0.899-0.469 1.755-0.942 2.523-1.454 0.6-0.384 1.84-1.368 2.395-1.841 0.941-0.728 1.713-1.368 2.438-2.097 0.469-0.469 1.496-1.67 1.883-2.182 0.771-0.856 1.411-1.67 2.011-2.523 0.384-0.6 1.155-1.969 1.496-2.612 0.558-0.899 1.070-1.926 1.496-2.953 0.256-0.643 0.771-2.182 0.942-2.825 0.341-1.027 0.685-2.097 0.899-3.209 0.128-0.686 0.342-2.31 0.384-3.038 0.213-1.24 0.299-2.31 0.299-3.422v-448.827l253.072 101.242c1.198 0.469 2.438 0.942 3.681 1.368v422.255l-18.571-7.447c-3.809-1.542-7.832-2.31-11.897-2.31-13.223 0-24.904 7.917-29.826 20.157-6.589 16.431 1.454 35.13 17.843 41.721l38.77 15.532c11.468 4.577 23.493 6.933 35.774 6.933s24.307-2.31 35.732-6.933l256.751-102.694c36.801-14.677 60.55-49.768 60.55-89.387v-400.262c0.043-8.169-1.496-16.3-4.577-24.001-9.843-24.52-33.248-40.352-59.651-40.352-8.173 0-16.176 1.542-23.792 4.577l-253.072 101.242c-3.596 1.454-7.36 2.225-11.212 2.267-0.213 0-1.112 0-1.326 0-3.809-0.085-7.616-0.856-11.212-2.267l-273.354-109.287c-11.468-4.577-23.536-6.933-35.774-6.933zM64.233 418.24h-0.043v-400.26c0-13.223 7.917-24.904 20.199-29.821l236.554-94.612v422.254c-1.198 0.427-2.438 0.899-3.596 1.326l-253.114 101.116zM709.704-5.213l253.072-101.242v400.434c0 13.219-7.917 24.9-20.156 29.779l-236.554 94.652v-422.213c1.24-0.469 2.438-0.899 3.639-1.411zM481.409 139.928c-17.715 0-32.093 14.378-32.093 32.093v356.312c-74.115 15.020-128.375 80.188-128.375 157.167 0 88.489 71.975 160.463 160.47 160.463s160.47-71.972 160.47-160.463c0-76.979-54.26-142.193-128.375-157.167v-356.312c0-17.672-14.378-32.093-32.093-32.093zM481.409 781.781c-53.105 0-96.282-43.175-96.282-96.278s43.177-96.278 96.282-96.278c53.105 0 96.282 43.175 96.282 96.278s-43.177 96.278-96.282 96.278z" />
<glyph unicode="&#xe915;" glyph-name="commercial" d="M32.093-181.042c-17.715 0-32.093 14.378-32.093 32.093s14.378 32.093 32.093 32.093h96.282v802.349c0 2.182 0.213 4.364 0.686 6.546 0.085 0.469 0.213 0.984 0.384 1.496 0.469 1.755 0.984 3.294 1.67 4.794 0.213 0.6 0.515 1.198 0.771 1.755l64.059 128.119c5.476 10.956 16.475 17.758 28.713 17.758h577.691c12.239 0 23.237-6.805 28.713-17.758l64.189-128.375c0.256-0.515 0.469-1.070 0.728-1.67 0.814-1.883 1.411-3.639 1.798-5.391 0.043-0.171 0.085-0.384 0.128-0.558 0.515-2.353 0.728-4.535 0.728-6.72v-802.349h96.282c17.715 0 32.093-14.378 32.093-32.093s-14.378-32.093-32.093-32.093h-962.817zM834.442-116.853v770.254h-641.879v-770.254h192.564v64.189c0 70.778 57.597 128.375 128.375 128.375s128.375-57.597 128.375-128.375v-64.189h192.564zM577.691-116.853v64.189c0 35.389-28.799 64.189-64.189 64.189s-64.189-28.799-64.189-64.189v-64.189h128.375zM814.63 717.589l-32.093 64.189h-538.022l-32.093-64.189h602.211zM320.939 508.978c-1.883 0-3.767 0.171-5.604 0.515-21.951 2.569-39.454 20.113-42.022 42.022-0.341 1.841-0.515 3.724-0.515 5.604s0.171 3.767 0.515 5.604c2.569 21.951 20.113 39.454 42.022 42.022 1.841 0.341 3.724 0.515 5.604 0.515s3.767-0.171 5.604-0.515c21.951-2.569 39.454-20.113 42.022-42.022 0.341-1.841 0.515-3.724 0.515-5.604s-0.171-3.767-0.515-5.604c-2.569-21.951-20.113-39.454-42.022-42.022-1.841-0.341-3.724-0.515-5.604-0.515zM320.939 316.415c-1.883 0-3.767 0.171-5.604 0.469-21.951 2.612-39.454 20.113-42.022 42.022-0.341 1.841-0.515 3.724-0.515 5.604s0.171 3.767 0.515 5.604c2.569 21.951 20.113 39.454 42.022 42.022 1.841 0.341 3.724 0.515 5.604 0.515s3.767-0.171 5.604-0.515c21.951-2.569 39.454-20.113 42.022-42.022 0.341-1.841 0.515-3.724 0.515-5.604s-0.171-3.767-0.515-5.604c-2.569-21.951-20.113-39.454-42.022-42.022-1.841-0.299-3.724-0.469-5.604-0.469zM320.938 123.851c-1.883 0-3.767 0.171-5.562 0.469-21.951 2.569-39.497 20.113-42.064 42.022-0.341 1.841-0.469 3.724-0.469 5.604s0.171 3.767 0.469 5.604c2.569 21.951 20.113 39.454 42.064 42.064 1.798 0.299 3.681 0.469 5.562 0.469s3.767-0.171 5.562-0.469c21.951-2.612 39.497-20.113 42.064-42.064 0.341-1.841 0.469-3.724 0.469-5.604s-0.171-3.767-0.469-5.604c-2.569-21.951-20.113-39.454-42.064-42.022-1.798-0.299-3.681-0.469-5.562-0.469zM513.502 508.978c-1.883 0-3.767 0.171-5.604 0.515-21.951 2.569-39.454 20.113-42.022 42.022-0.341 1.841-0.515 3.724-0.515 5.604s0.171 3.767 0.515 5.604c2.569 21.951 20.113 39.454 42.022 42.022 1.841 0.341 3.724 0.515 5.604 0.515s3.767-0.171 5.604-0.515c21.951-2.569 39.454-20.113 42.064-42.064 0.299-1.798 0.469-3.681 0.469-5.562s-0.171-3.767-0.469-5.562c-2.612-21.951-20.113-39.454-42.064-42.064-1.841-0.341-3.724-0.515-5.604-0.515zM513.502 316.415c-1.883 0-3.767 0.171-5.604 0.469-21.951 2.612-39.454 20.113-42.022 42.022-0.341 1.841-0.515 3.724-0.515 5.604s0.171 3.767 0.515 5.604c2.569 21.951 20.113 39.454 42.022 42.022 1.841 0.341 3.724 0.515 5.604 0.515s3.767-0.171 5.604-0.515c21.951-2.569 39.454-20.113 42.064-42.064 0.299-1.798 0.469-3.681 0.469-5.562s-0.171-3.767-0.469-5.562c-2.612-21.951-20.113-39.454-42.064-42.064-1.841-0.299-3.724-0.469-5.604-0.469zM513.502 123.851c-1.883 0-3.767 0.171-5.562 0.469-21.951 2.569-39.497 20.113-42.064 42.022-0.341 1.841-0.469 3.724-0.469 5.604s0.171 3.767 0.469 5.604c2.569 21.951 20.113 39.454 42.064 42.064 1.798 0.299 3.681 0.469 5.562 0.469s3.767-0.171 5.562-0.469c21.951-2.612 39.497-20.113 42.064-42.064 0.341-1.798 0.469-3.681 0.469-5.604s-0.171-3.767-0.469-5.604c-2.569-21.951-20.113-39.497-42.064-42.064-1.798-0.256-3.681-0.427-5.562-0.427zM706.067 508.98c-1.883 0-3.767 0.171-5.604 0.469-21.951 2.569-39.454 20.113-42.022 42.064-0.341 1.798-0.469 3.681-0.469 5.562s0.171 3.767 0.469 5.562c2.569 21.951 20.113 39.497 42.022 42.064 1.841 0.341 3.724 0.469 5.604 0.469s3.767-0.171 5.604-0.469c21.951-2.569 39.454-20.113 42.064-42.064 0.299-1.798 0.469-3.681 0.469-5.562s-0.171-3.767-0.469-5.562c-2.612-21.951-20.113-39.497-42.064-42.064-1.841-0.299-3.724-0.469-5.604-0.469zM706.067 316.415c-1.883 0-3.767 0.171-5.604 0.469-21.951 2.612-39.454 20.113-42.022 42.064-0.341 1.798-0.469 3.681-0.469 5.562s0.171 3.767 0.469 5.562c2.569 21.951 20.113 39.497 42.022 42.064 1.841 0.341 3.724 0.469 5.604 0.469s3.767-0.171 5.604-0.469c21.951-2.569 39.454-20.113 42.064-42.064 0.299-1.798 0.469-3.681 0.469-5.562s-0.171-3.767-0.469-5.562c-2.612-21.951-20.113-39.454-42.064-42.064-1.841-0.299-3.724-0.469-5.604-0.469zM706.067 123.851c-1.883 0-3.767 0.171-5.562 0.469-21.951 2.569-39.497 20.113-42.064 42.064-0.299 1.798-0.469 3.681-0.469 5.562s0.171 3.767 0.469 5.604c2.569 21.951 20.113 39.497 42.064 42.064 1.798 0.341 3.681 0.469 5.604 0.469s3.767-0.171 5.604-0.469c21.951-2.569 39.497-20.113 42.064-42.064 0.341-1.798 0.469-3.681 0.469-5.604s-0.171-3.767-0.469-5.604c-2.569-21.951-20.113-39.497-42.064-42.064-1.883-0.256-3.767-0.427-5.65-0.427z" />
<glyph unicode="&#xe916;" glyph-name="residential" d="M609.784-52.665c-17.715 0-32.093 14.378-32.093 32.093v192.564c0 17.715 14.378 32.093 32.093 32.093h192.564c17.715 0 32.093-14.378 32.093-32.093v-192.564c0-17.715-14.378-32.093-32.093-32.093h-192.564zM770.254 11.523v128.375h-128.375v-128.375h128.375zM32.092-181.042c-17.715 0-32.093 14.378-32.093 32.093s14.378 32.093 32.093 32.093h32.093v433.054l-13.095-9.627c-5.562-4.065-12.153-6.205-19.001-6.205-10.185 0-19.854 4.922-25.888 13.138-5.092 6.89-7.146 15.362-5.863 23.877 1.326 8.472 5.821 15.92 12.751 21.010l443.454 325.219c16.731 12.196 36.416 18.657 56.957 18.657s40.224-6.461 56.914-18.699l71.463-52.42v54.346c0 17.715 14.378 32.093 32.093 32.093h192.564c17.672 0 32.093-14.378 32.093-32.093v-242.63l115.238-84.514c14.25-10.441 17.374-30.597 6.933-44.847-6.034-8.216-15.704-13.138-25.888-13.138-6.89 0-13.436 2.139-19.001 6.247l-13.095 9.584v-433.054h32.093c17.715 0 32.093-14.378 32.093-32.093s-14.378-32.093-32.093-32.093h-962.818zM898.631-116.853v480.125l-366.128 268.519c-5.604 4.108-12.196 6.247-19.001 6.247-6.848 0-13.394-2.182-19.001-6.247l-366.129-268.519v-480.125h128.375v224.657c0 53.105 43.177 96.282 96.282 96.282h64.189c53.107 0 96.283-43.177 96.283-96.282v-224.657h385.127zM449.315-116.853v224.657c0 17.715-14.378 32.093-32.094 32.093h-64.189c-17.715 0-32.093-14.378-32.093-32.093v-224.657h128.376zM834.442 489.936v163.465h-128.375v-69.324l128.375-94.143z" />
<glyph unicode="&#xe917;" glyph-name="calendar" d="M894.78 749.066h-52.633v105.27h-105.27v-105.27h-421.072v105.27h-105.27v-105.27h-52.633c-57.897 0-104.216-47.37-104.216-105.27l-1.053-736.878c0-57.897 47.37-105.27 105.27-105.27h736.878c57.897 0 105.27 47.37 105.27 105.27v736.878c0 57.897-47.37 105.27-105.27 105.27v0zM894.78-93.080h-736.878v578.975h736.878v-578.975z" />
<glyph unicode="&#xe918;" glyph-name="close" d="M1052.682 748.014l-106.322 106.322-420.020-420.020-420.020 420.020-106.322-106.322 420.020-420.020-420.020-420.020 106.322-106.322 420.020 420.020 420.020-420.020 106.322 106.322-420.020 420.020z" />
<glyph unicode="&#xe919;" glyph-name="caret-down" d="M0 591.164l526.342-526.342 526.342 526.342z" />
<glyph unicode="&#xe91a;" glyph-name="alert-circle" d="M526.342 854.333c-289.487 0-526.342-236.854-526.342-526.342s236.854-526.342 526.342-526.342c289.487 0 526.342 236.854 526.342 526.342s-236.854 526.342-526.342 526.342v0zM578.975 64.822h-105.27v105.27h105.27v-105.27zM578.975 275.358h-105.27v315.805h105.27v-315.805z" />
<glyph unicode="&#xe91b;" glyph-name="caret-circle-down" d="M526.342 854.333c-290.54 0-526.342-235.801-526.342-526.342s235.801-526.342 526.342-526.342c290.54 0 526.342 235.801 526.342 526.342s-235.801 526.342-526.342 526.342v0zM526.342 222.724l-210.536 210.536h421.072l-210.536-210.536z" />
<glyph unicode="&#xe91c;" glyph-name="eye" d="M526.342 471.157c-78.951 0-143.165-64.215-143.165-143.165s64.215-143.165 143.165-143.165c78.951 0 143.165 64.215 143.165 143.165s-64.215 143.165-143.165 143.165v0zM526.342 89.033c-131.585 0-238.959 107.375-238.959 238.959s107.375 238.959 238.959 238.959c132.638 0 238.959-106.322 238.959-238.959s-106.322-238.959-238.959-238.959v0zM526.342 686.956c-238.959 0-443.179-148.429-526.342-358.965 83.162-209.484 287.382-358.965 526.342-358.965s443.179 149.482 526.342 358.965c-83.162 210.536-287.382 358.965-526.342 358.965z" />
<glyph unicode="&#xe91d;" glyph-name="music-love" d="M363.176-195.19c-61.056 0-110.532 49.475-110.532 110.532s49.475 110.532 110.532 110.532c16.841 0 32.634-3.158 47.37-10.526v186.325c0 41.054 26.318 76.846 65.268 89.477l190.536 53.685c8.421 3.158 18.947 4.21 28.424 4.21 14.736 0 29.476-3.158 42.107-10.526 31.581-15.789 52.633-47.37 52.633-84.214 0 0 0 0 0 0v0-244.222c0-61.056-49.475-110.532-110.532-110.532s-110.532 49.475-110.532 110.532c0 61.056 49.475 110.532 110.532 110.532 16.841 0 32.634-3.158 47.37-10.526v144.218c0 16.841-13.683 31.581-31.581 31.581v0c0 0 0 0 0 0-3.158 0-7.368-1.053-10.526-2.105h1.053l-191.589-52.633c-11.578-4.21-20.001-15.789-20.001-29.476v-286.33c0-61.056-49.475-110.532-110.532-110.532zM363.176-37.288c-26.318 0-47.37-21.056-47.37-47.37s21.056-47.37 47.37-47.37c26.318 0 47.37 21.056 47.37 47.37s-21.056 47.37-47.37 47.37zM678.98 57.453c-26.318 0-47.37-21.056-47.37-47.37s21.056-47.37 47.37-47.37c26.318 0 47.37 21.056 47.37 47.37s-21.056 47.37-47.37 47.37zM809.513 485.894c-15.789 1.053-29.476 7.368-38.949 17.894v0l-148.429 152.64c-20.001 21.056-32.634 49.475-32.634 82.109s13.683 63.163 36.844 85.267v0c18.947 18.947 46.317 30.529 75.793 30.529h4.21c29.476-1.053 56.844-12.631 77.899-34.739l26.318-27.371 27.371 27.371c20.001 22.108 48.422 34.739 80.004 34.739 0 0 0 0 0 0v0h3.158c30.529-1.053 57.897-13.683 77.899-34.739v0c20.001-21.056 32.634-49.475 32.634-81.056s-12.631-61.056-32.634-82.109v0l-149.482-154.745c-10.526-10.526-24.213-15.789-38.949-15.789h-1.053zM703.192 791.173c-12.631 0-24.213-4.21-33.686-13.683 0 0-1.053-1.053-1.053-1.053-9.473-10.526-15.789-23.161-15.789-37.897s6.315-28.424 15.789-38.949v0l142.113-147.377 143.165 148.429c20.001 21.056 20.001 54.738 0 75.793-9.473 8.421-21.056 14.736-34.739 14.736v0h-2.105c-12.631 0-25.266-5.263-33.686-14.736v0l-49.475-51.58c-6.315-5.263-13.683-9.473-23.161-9.473 0 0 0 0 0 0v0c0 0 0 0 0 0-8.421 0-16.841 4.21-22.108 9.473v0l-50.528 51.58c-8.421 8.421-20.001 14.736-33.686 14.736v0h-1.053zM284.225 222.724c-8.421 0-16.841 4.21-23.161 9.473v0l-214.748 225.274c-28.424 28.424-46.317 67.373-46.317 111.585 0 26.318 6.315 50.528 17.894 71.583h-1.053c26.318 51.58 80.004 87.372 142.113 87.372 0 0 0 0 0 0v0c25.266 0 49.475-5.263 71.583-16.841 14.736-7.368 29.476-17.894 41.054-29.476l12.631-12.631 12.631 12.631c29.476 28.424 68.425 46.317 112.638 46.317 0 0 0 0 0 0v0c0 0 0 0 1.053 0 43.16 0 83.162-17.894 111.585-46.317v0c28.424-29.476 46.317-68.425 46.317-112.638s-17.894-83.162-46.317-112.638v0l-214.748-224.222c-6.315-5.263-13.683-9.473-23.161-9.473v0zM158.955 664.852c0 0 0 0 0 0-37.897 0-69.478-21.056-85.267-52.633v0c-6.315-12.631-10.526-27.371-10.526-43.16 0-26.318 10.526-50.528 28.424-67.373v0l192.641-202.115 192.641 201.062c17.894 17.894 28.424 42.107 28.424 68.425s-10.526 50.528-27.371 67.373v0c-17.894 17.894-41.054 28.424-68.425 28.424 0 0 0 0 0 0v0c-25.266 0-49.475-9.473-67.373-28.424l-35.792-34.739c-5.263-5.263-12.631-9.473-22.108-9.473s-16.841 4.21-22.108 9.473l-34.739 34.739c-17.894 17.894-42.107 28.424-68.425 28.424v0z" />
<glyph unicode="&#xe91e;" glyph-name="facebook-outline" d="M0 327.993c0 290.54 235.801 526.342 526.342 526.342s526.342-235.801 526.342-526.342-235.801-526.342-526.342-526.342-526.342 235.801-526.342 526.342zM52.633 327.993c0-261.065 212.641-473.707 473.707-473.707s473.707 212.641 473.707 473.707-211.589 473.707-473.707 473.707-473.707-211.589-473.707-473.707zM564.237 36.399v286.33h78.951l10.526 98.952h-89.477v48.422c0 26.318 2.105 40.002 38.949 40.002h49.475v98.952h-78.951c-94.741 0-128.426-48.422-128.426-128.426v-60.003h-58.95v-97.9h58.95v-286.33h118.953z" />
<glyph unicode="&#xe91f;" glyph-name="heart-pulse" d="M526.342-121.503c-16.841 0-32.634 6.315-45.265 17.894l-2.105 2.105-196.852 206.325c-6.315 5.263-9.473 13.683-9.473 22.108 0 0 0 1.053 0 1.053v0c0 8.421 4.21 16.841 10.526 23.161v0c5.263 5.263 13.683 8.421 22.108 8.421 9.473 0 17.894-3.158 24.213-9.473v0l196.852-205.272 196.852 205.272c6.315 6.315 14.736 9.473 24.213 9.473 8.421 0 16.841-3.158 22.108-8.421v0c6.315-6.315 10.526-14.736 10.526-24.213 0-8.421-3.158-16.841-9.473-23.161v1.053l-196.852-206.325c-11.578-12.631-28.424-20.001-46.317-20.001h-1.053zM64.215 357.467c0 0 0 0 0 0-11.578 0-23.161 6.315-28.424 16.841v0c-22.108 38.949-35.792 86.319-35.792 136.849 0 46.317 11.578 89.477 30.529 127.374l-1.053-1.053c33.686 66.32 91.582 116.848 161.060 140.007l2.105 1.053c26.318 9.473 57.897 14.736 89.477 14.736v0c43.16 0 86.319-10.526 125.269-30.529 27.371-13.683 52.633-30.529 73.688-52.633l45.265-45.265 45.265 45.265c50.528 51.58 121.058 83.162 198.957 83.162 0 0 0 0 1.053 0h-1.053c75.793 0 146.323-29.476 200.009-83.162 50.528-50.528 82.109-121.058 82.109-198.957 0-50.528-12.631-97.9-35.792-137.901v1.053c-5.263-10.526-15.789-16.841-28.424-16.841-14.736 0-27.371 9.473-31.581 23.161v1.053c-1.053 2.105-1.053 5.263-1.053 8.421 0 6.315 1.053 11.578 4.21 16.841v-1.053c16.841 30.529 27.371 67.373 27.371 105.27 0 60.003-24.213 113.69-63.163 152.64v0c-38.949 38.949-92.635 63.163-152.64 63.163 0 0 0 0-1.053 0h1.053c-1.053 0-1.053 0-1.053 0-60.003 0-113.69-24.213-152.64-63.163l-68.425-68.425c-5.263-6.315-13.683-9.473-23.161-9.473-8.421 0-16.841 3.158-23.161 9.473v0l-68.425 68.425c-15.789 15.789-34.739 29.476-54.738 40.002l-2.105 1.053c-27.371 13.683-61.056 22.108-95.793 22.108-24.213 0-48.422-4.21-70.531-11.578l2.105 1.053c-86.319-29.476-147.377-110.532-147.377-205.272 0-38.949 9.473-74.741 27.371-106.322v1.053c2.105-4.21 4.21-9.473 4.21-15.789 0-17.894-14.736-32.634-33.686-32.634v0zM529.5 125.877c-22.108 0-41.054 13.683-47.37 34.739l-62.109 206.325-56.844-113.69c-8.421-16.841-25.266-27.371-44.212-27.371 0 0 0 0 0 0h-286.33c-17.894 0-32.634 14.736-32.634 32.634s14.736 32.634 32.634 32.634v0h275.803l71.583 142.113c5.263 11.578 15.789 21.056 27.371 25.266 5.263 2.105 10.526 2.105 16.841 2.105 7.368 0 14.736-1.053 21.056-4.21v0c12.631-6.315 22.108-17.894 26.318-31.581l60.003-201.062 51.58 118.953c7.368 17.894 25.266 29.476 45.265 29.476 16.841 0 31.581-8.421 41.054-21.056v-1.053l38.949-57.897h311.593c17.894 0 32.634-14.736 32.634-33.686s-14.736-32.634-32.634-32.634v0h-329.489c-10.526 0-21.056 6.315-27.371 14.736v0l-31.581 48.422-56.844-132.638c-6.315-13.683-16.841-23.161-29.476-27.371h-1.053c-4.21-2.105-9.473-3.158-14.736-3.158v0z" />
<glyph unicode="&#xe920;" glyph-name="facebook" d="M0 327.993c0 290.54 235.801 526.342 526.342 526.342s526.342-235.801 526.342-526.342c0-290.54-235.801-526.342-526.342-526.342s-526.342 235.801-526.342 526.342zM563.184 36.399v286.33h80.004l10.526 97.9h-90.53l1.053 49.475c0 26.318 2.105 40.002 38.949 40.002h49.475v98.952h-78.951c-94.741 0-128.426-48.422-128.426-128.426v-60.003h-58.95v-97.9h58.95v-286.33h118.953z" />
<glyph unicode="&#xe921;" glyph-name="video" d="M1021.101 581.689c-18.947 11.578-43.16 12.631-63.163 2.105l-168.428-83.162v90.53c0 72.636-58.95 131.585-131.585 131.585h-526.342c-72.636 0-131.585-58.95-131.585-131.585v-526.342c0-72.636 58.95-131.585 131.585-131.585h526.342c72.636 0 131.585 58.95 131.585 131.585v90.53l168.428-83.162c8.421-5.263 18.947-7.368 29.476-7.368 11.578 0 23.161 3.158 33.686 9.473 20.001 12.631 31.581 33.686 31.581 56.844v394.756c0 22.108-11.578 43.16-31.581 55.791zM131.585 64.822v526.342h526.342v-526.342h-526.342zM921.098 237.461l-131.585 65.268v50.528l131.585 65.268v-181.061z" />
<glyph unicode="&#xe922;" glyph-name="happy-mask" d="M526.342-198.349c-11.578 0-23.161 2.105-34.739 6.315-200.009 74.741-337.911 189.484-411.599 338.963-32.634 72.636-48.422 151.587-47.37 230.537v377.913c0 11.578 2.105 22.108 6.315 32.634 8.421 25.266 26.318 45.265 49.475 56.844 13.683 6.315 28.424 9.473 43.16 9.473 11.578 0 22.108-2.105 32.634-5.263 115.795-42.107 237.906-63.163 362.123-63.163s246.328 21.056 362.123 63.163c10.526 3.158 22.108 5.263 32.634 5.263 54.738 0 98.952-44.212 98.952-98.952v-378.965c2.105-77.899-14.736-156.85-47.37-228.432-73.688-150.534-211.589-265.276-411.599-340.016-11.578-4.21-23.161-6.315-34.739-6.315zM131.585 789.068c-5.263 0-9.473-1.053-14.736-4.21-7.368-3.158-13.683-10.526-15.789-17.894-2.105-4.21-2.105-7.368-2.105-11.578v-378.965c-2.105-69.478 12.631-138.954 41.054-201.062 65.268-133.69 191.589-236.854 374.755-306.331 4.21-1.053 7.368-2.105 11.578-2.105s8.421 1.053 11.578 2.105c183.167 69.478 309.488 172.639 374.755 307.383 28.424 62.109 43.16 130.531 41.054 200.009v378.965c0 18.947-14.736 33.686-32.634 33.686-3.158 0-7.368-1.053-10.526-2.105-123.163-44.212-252.643-66.32-384.228-66.32s-261.065 22.108-384.228 66.32c-3.158 1.053-7.368 2.105-10.526 2.105zM534.763 64.822c-3.158 0-5.263 0-8.421 0-2.105 0-5.263 0-7.368 0-120.006 0-216.853 93.687-223.169 212.641 0 8.421 3.158 16.841 8.421 23.161s14.736 10.526 23.161 10.526c0 0 1.053 0 1.053 0 17.894 0 32.634-13.683 33.686-30.529 3.158-84.214 72.636-150.534 155.797-150.534 2.105 0 5.263 0 7.368 1.053 0 0 2.105 0 2.105 0 3.158 0 5.263-1.053 7.368-1.053 0 0 0 0 0 0 84.214 0 152.64 66.32 155.797 150.534 1.053 16.841 15.789 31.581 32.634 31.581 1.053 0 2.105 0 3.158-1.053 7.368 0 15.789-3.158 22.108-10.526s8.421-14.736 8.421-23.161c-5.263-118.953-103.163-212.641-222.116-212.641 0 0 0 0 0 0zM394.756 442.735c-17.894 0-32.634 14.736-32.634 33.686 0 27.371-22.108 49.475-49.475 49.475s-49.475-22.108-49.475-49.475c0-18.947-14.736-33.686-32.634-33.686s-32.634 14.736-32.634 33.686c0 63.163 51.58 114.743 114.743 114.743s114.743-51.58 114.743-114.743c0-18.947-14.736-33.686-32.634-33.686zM822.145 442.735c-17.894 0-32.634 14.736-32.634 33.686 0 27.371-22.108 49.475-49.475 49.475s-49.475-22.108-49.475-49.475c0-18.947-14.736-33.686-32.634-33.686s-32.634 14.736-32.634 33.686c0 63.163 51.58 114.743 114.743 114.743s115.795-51.58 115.795-114.743c0-18.947-14.736-33.686-33.686-33.686z" />
<glyph unicode="&#xe923;" glyph-name="home-world" d="M427.389-109.924c-127.374 9.473-238.959 69.478-315.805 160.008h-1.053c-65.268 75.793-106.322 173.692-110.532 282.119v0c0 6.315 0 12.631 0 18.947 0 138.954 62.109 264.224 160.008 348.438h1.053c15.789 13.683 32.634 26.318 51.58 38.949l2.105 1.053c69.478 44.212 153.692 70.531 244.222 70.531 13.683 0 26.318 0 38.949-1.053h-2.105c202.115-15.789 366.333-160.008 412.652-349.49v-3.158c1.053-2.105 1.053-5.263 1.053-7.368 0-18.947-14.736-33.686-32.634-33.686v0c0 0 0 0 0 0-15.789 0-28.424 10.526-31.581 25.266h-1.053c-22.108 95.793-76.846 175.798-152.64 229.485l-1.053 1.053v-15.789c0-44.212-31.581-82.109-74.741-89.477l-155.797-25.266v-32.634c0 0 0 0 0 0 0-32.634-16.841-61.056-43.16-76.846v0c-13.683-8.421-29.476-12.631-46.317-12.631-7.368 0-14.736 1.053-22.108 3.158v0c-1.053 0-2.105 0-2.105 0v0l-82.109 28.424c-38.949 10.526-67.373 45.265-67.373 86.319 0 1.053 0 1.053 0 1.053v0 106.322c-74.741-67.373-123.163-162.113-130.531-268.434v-2.105l155.797 38.949c7.368 2.105 14.736 3.158 22.108 3.158 34.739 0 64.215-18.947 78.951-47.37h1.053l54.738-104.216c12.631-24.213 13.683-52.633 3.158-78.951-10.526-22.108-33.686-40.002-53.685-51.58v-155.797c30.529-10.526 64.215-17.894 100.005-21.056h2.105c16.841-1.053 30.529-15.789 30.529-32.634 0-1.053 0-2.105 0-3.158v0c-2.105-16.841-15.789-29.476-33.686-30.529v0zM68.425 305.886c8.421-82.109 42.107-154.745 92.635-213.694v1.053c28.424-33.686 62.109-62.109 100.005-84.214l2.105-1.053v144.218c0 13.683 7.368 25.266 18.947 30.529 17.894 7.368 35.792 22.108 38.949 29.476 2.105 2.105 2.105 6.315 2.105 9.473 0 4.21-1.053 8.421-2.105 11.578v0l-55.791 103.163c-4.21 8.421-11.578 12.631-21.056 12.631-2.105 0-4.21 0-6.315 0h1.053l-170.534-43.16zM365.281 484.842c2.105 0 3.158-1.053 5.263-1.053 11.578 0 21.056 8.421 23.161 18.947v0c1.053 1.053 1.053 3.158 1.053 5.263 0 0 0 0 0 0v0 61.056c0 15.789 11.578 29.476 27.371 31.581l183.167 30.529c10.526 2.105 20.001 11.578 20.001 23.161 0 0 0 1.053 0 1.053v0 53.685c-48.422 22.108-105.27 35.792-164.218 35.792 0 0-1.053 0-1.053 0v0c-72.636 0-140.007-20.001-198.957-54.738l2.105 1.053v-153.692c0 0 0-1.053 0-1.053 0-10.526 7.368-20.001 17.894-23.161v0c1.053 0 2.105 0 3.158-1.053l81.056-27.371zM668.454-154.136c0 0-1.053 0-1.053 0v0h-64.215c-54.738 0-98.952 44.212-98.952 98.952v181.061l-10.526-9.473c-6.315-5.263-13.683-8.421-22.108-8.421-9.473 0-18.947 4.21-25.266 11.578v0c-4.21 6.315-7.368 13.683-7.368 22.108 0 9.473 4.21 17.894 10.526 24.213v0l198.957 173.692c22.108 20.001 52.633 32.634 86.319 32.634 0 0 0 0 0 0v0c0 0 0 0 0 0 33.686 0 63.163-12.631 86.319-32.634v0l198.957-173.692c6.315-6.315 10.526-14.736 10.526-24.213 0-18.947-14.736-33.686-32.634-33.686v0c0 0 0 0 0 0-8.421 0-15.789 3.158-22.108 8.421v0l-10.526 10.526v-182.114c0-54.738-44.212-98.952-98.952-98.952h-64.215c0 0-1.053 0-2.105 0h-131.585zM866.357-88.87c17.894 0 32.634 14.736 32.634 33.686v0 238.959l-121.058 106.322c-11.578 9.473-26.318 15.789-43.16 15.789 0 0 0 0 0 0v0c-15.789 0-31.581-5.263-43.16-15.789l-121.058-106.322v-238.959c0-18.947 14.736-33.686 32.634-33.686h32.634v98.952c0 54.738 44.212 98.952 98.952 98.952v0c54.738 0 98.952-44.212 98.952-98.952v-98.952h32.634zM767.405-88.87v98.952c0 17.894-14.736 32.634-32.634 32.634s-32.634-14.736-32.634-32.634v0-98.952h65.268z" />
<glyph unicode="&#xe924;" glyph-name="instagram-outline" d="M526.342 609.058c-75.793 0-85.267-1.053-115.795-2.105-29.476-1.053-50.528-6.315-68.425-12.631-18.947-7.368-35.792-18.947-49.475-32.634v0c-13.683-13.683-25.266-30.529-31.581-48.422l-1.053-1.053c-6.315-17.894-11.578-38.949-12.631-68.425s-2.105-40.002-2.105-115.795 1.053-85.267 2.105-115.795c1.053-29.476 6.315-50.528 12.631-68.425 7.368-18.947 18.947-35.792 32.634-49.475v0c13.683-13.683 30.529-25.266 48.422-31.581l1.053-1.053c17.894-6.315 38.949-11.578 68.425-12.631 30.529-1.053 40.002-2.105 115.795-2.105s86.319 1.053 115.795 2.105c29.476 1.053 50.528 6.315 68.425 12.631 18.947 7.368 35.792 18.947 49.475 32.634v0c13.683 13.683 25.266 30.529 31.581 49.475h1.053c6.315 17.894 11.578 38.949 12.631 68.425 1.053 30.529 2.105 40.002 2.105 115.795s-1.053 86.319-2.105 115.795c-1.053 29.476-6.315 50.528-12.631 68.425-7.368 18.947-18.947 35.792-32.634 49.475v0c-13.683 13.683-30.529 25.266-48.422 31.581l-1.053 1.053c-17.894 6.315-38.949 11.578-68.425 12.631-30.529 1.053-40.002 2.105-115.795 2.105v0zM501.076 558.53h25.266c74.741 0 84.214-1.053 113.69-2.105 27.371-1.053 42.107-5.263 51.58-9.473 13.683-5.263 23.161-11.578 32.634-21.056s15.789-18.947 21.056-32.634c4.21-9.473 8.421-24.213 9.473-51.58 1.053-29.476 2.105-38.949 2.105-113.69s-1.053-83.162-2.105-113.69c-1.053-27.371-5.263-42.107-9.473-51.58-5.263-12.631-11.578-23.161-21.056-32.634v0c-8.421-8.421-20.001-15.789-31.581-21.056h-1.053c-9.473-3.158-24.213-8.421-51.58-9.473-29.476-1.053-38.949-1.053-113.69-1.053s-84.214 0-113.69 1.053c-27.371 1.053-42.107 6.315-51.58 9.473-12.631 5.263-23.161 12.631-32.634 21.056v0c-9.473 9.473-15.789 20.001-21.056 31.581v1.053c-3.158 9.473-8.421 24.213-9.473 51.58-1.053 30.529-2.105 38.949-2.105 113.69s1.053 84.214 2.105 113.69c1.053 27.371 6.315 42.107 9.473 51.58 5.263 13.683 11.578 23.161 21.056 32.634s20.001 16.841 31.581 21.056h1.053c9.473 4.21 24.213 8.421 51.58 9.473 26.318 1.053 35.792 2.105 88.424 2.105v0zM675.822 511.159c-17.894 0-33.686-14.736-33.686-33.686s15.789-33.686 33.686-33.686v0c18.947 0 33.686 15.789 33.686 33.686s-14.736 33.686-33.686 33.686v0zM526.342 472.21c-80.004 0-144.218-64.215-144.218-144.218s64.215-144.218 144.218-144.218v0c80.004 0 144.218 64.215 144.218 144.218s-64.215 144.218-144.218 144.218v0zM526.342 421.681c1.053 0 1.053 0 2.105 0 51.58 0 93.687-42.107 93.687-93.687s-42.107-93.687-93.687-93.687c-1.053 0-1.053 0-2.105 0v0c-50.528 1.053-91.582 43.16-91.582 93.687s41.054 92.635 91.582 93.687v0zM526.342-198.349c290.54 0 526.342 235.801 526.342 526.342s-235.801 526.342-526.342 526.342-526.342-235.801-526.342-526.342 235.801-526.342 526.342-526.342zM526.342-145.714c-261.065 0-473.707 212.641-473.707 473.707s212.641 473.707 473.707 473.707 473.707-211.589 473.707-473.707-211.589-473.707-473.707-473.707z" />
<glyph unicode="&#xe925;" glyph-name="help-circle-outline" d="M473.707 12.187h105.27v105.27h-105.27v-105.27zM526.342 854.333c-290.54 0-526.342-235.801-526.342-526.342s235.801-526.342 526.342-526.342c290.54 0 526.342 235.801 526.342 526.342s-235.801 526.342-526.342 526.342v0zM526.342-93.080c-231.591 0-421.072 189.484-421.072 421.072s189.484 421.072 421.072 421.072c232.643 0 421.072-188.43 421.072-421.072s-188.43-421.072-421.072-421.072v0zM526.342 643.797c-115.795 0-210.536-93.687-210.536-210.536h105.27c0 57.897 47.37 105.27 105.27 105.27s105.27-47.37 105.27-105.27c0-105.27-157.902-91.582-157.902-263.171h105.27c0 118.953 157.902 131.585 157.902 263.171 0 116.848-93.687 210.536-210.536 210.536v0z" />
<glyph unicode="&#xe926;" glyph-name="music-ticket" d="M98.952-99.397c-54.738 0-98.952 44.212-98.952 98.952v164.218c0 17.894 14.736 32.634 32.634 32.634v0c72.636 0 131.585 58.95 131.585 131.585s-58.95 131.585-131.585 131.585c-17.894 0-32.634 14.736-32.634 32.634v0 165.27c0 53.685 44.212 97.9 98.952 97.9h854.778c54.738 0 98.952-44.212 98.952-97.9v-165.27c0-17.894-14.736-32.634-32.634-32.634v0c-72.636 0-131.585-58.95-131.585-131.585s58.95-131.585 131.585-131.585c17.894 0 32.634-14.736 32.634-32.634v0-164.218c0-54.738-44.212-98.952-98.952-98.952h-854.778zM66.32-0.445c0-18.947 14.736-33.686 32.634-33.686h854.778c18.947 0 33.686 14.736 33.686 33.686v0 133.69c-93.687 15.789-165.27 98.952-165.27 194.747s71.583 178.956 165.27 194.747v134.743c0 17.894-14.736 32.634-33.686 32.634v0h-854.778c-17.894 0-32.634-14.736-32.634-32.634v0-134.743c92.635-15.789 164.218-98.952 164.218-194.747s-71.583-178.956-164.218-194.747v-133.69zM362.123 32.189c-54.738 0-98.952 44.212-98.952 98.952v0c0 53.685 44.212 97.9 98.952 97.9 11.578 0 23.161-2.105 33.686-5.263h-1.053v118.953c0 45.265 30.529 84.214 74.741 95.793l131.585 32.634c7.368 2.105 15.789 3.158 24.213 3.158 27.371 0 51.58-11.578 69.478-29.476v0c18.947-17.894 29.476-43.16 29.476-69.478v-178.956c0-54.738-44.212-98.952-98.952-98.952v0c-54.738 0-98.952 44.212-98.952 98.952v0c0 54.738 44.212 98.952 98.952 98.952 11.578 0 23.161-2.105 33.686-6.315h-1.053v86.319c0 0 0 0 0 0 0 17.894-14.736 32.634-32.634 32.634-3.158 0-5.263 0-8.421-1.053v0l-131.585-32.634c-13.683-3.158-24.213-16.841-24.213-31.581 0 0 0 0 0 0v0-211.589c0-54.738-44.212-98.952-98.952-98.952v0zM362.123 163.774c-17.894 0-32.634-14.736-32.634-32.634s14.736-33.686 32.634-33.686v0c17.894 0 32.634 14.736 32.634 33.686s-14.736 32.634-32.634 32.634v0zM625.293 229.040c-17.894 0-32.634-14.736-32.634-32.634s14.736-32.634 32.634-32.634v0c17.894 0 32.634 14.736 32.634 32.634s-14.736 32.634-32.634 32.634v0zM263.171 574.319c0-26.318-22.108-48.422-49.475-48.422s-49.475 22.108-49.475 48.422c0 27.371 22.108 49.475 49.475 49.475s49.475-22.108 49.475-49.475zM461.074 574.319c0-26.318-22.108-48.422-49.475-48.422s-49.475 22.108-49.475 48.422c0 27.371 22.108 49.475 49.475 49.475s49.475-22.108 49.475-49.475zM690.559 574.319c0-26.318-22.108-48.422-49.475-48.422s-48.422 22.108-48.422 48.422c0 27.371 22.108 49.475 48.422 49.475s49.475-22.108 49.475-49.475zM888.464 574.319c0-26.318-22.108-48.422-49.475-48.422s-49.475 22.108-49.475 48.422c0 27.371 22.108 49.475 49.475 49.475s49.475-22.108 49.475-49.475z" />
<glyph unicode="&#xe927;" glyph-name="spotify-outline" d="M526.342-198.349c290.54 0 526.342 235.801 526.342 526.342s-235.801 526.342-526.342 526.342-526.342-235.801-526.342-526.342 235.801-526.342 526.342-526.342zM526.342-145.714c-261.065 0-473.707 212.641-473.707 473.707s212.641 473.707 473.707 473.707 473.707-211.589 473.707-473.707-211.589-473.707-473.707-473.707zM755.826 106.929c-8.421-15.789-28.424-20.001-44.212-10.526-121.058 73.688-274.75 90.53-454.759 49.475-3.158 0-5.263-1.053-7.368-1.053-17.894 0-32.634 14.736-32.634 32.634 0 14.736 10.526 28.424 25.266 31.581v0c196.852 45.265 366.333 25.266 503.181-57.897 15.789-9.473 20.001-29.476 10.526-44.212zM820.039 247.988c-12.631-18.947-36.844-25.266-55.791-13.683-140.007 86.319-351.595 110.532-516.867 61.056-3.158-1.053-7.368-2.105-11.578-2.105-17.894 0-33.686 11.578-38.949 28.424v0c-1.053 3.158-1.053 7.368-1.053 11.578 0 18.947 11.578 33.686 28.424 38.949v0c188.43 56.844 422.125 29.476 582.133-68.425 18.947-11.578 25.266-36.844 13.683-55.791zM825.303 394.311c-167.376 100.005-443.179 108.427-602.133 60.003-4.21-1.053-9.473-2.105-14.736-2.105-26.318 0-48.422 22.108-48.422 49.475 0 21.056 14.736 40.002 34.739 45.265v1.053c183.167 54.738 487.393 44.212 680.032-69.478 13.683-8.421 23.161-24.213 23.161-42.107 0-26.318-21.056-48.422-48.422-48.422-8.421 0-16.841 2.105-24.213 7.368v-1.053z" />
<glyph unicode="&#xe928;" glyph-name="travel-world" d="M362.123 4.819c0 0 0 0 0 0-2.105 0-4.21 0-5.263 0v0c-107.375 18.947-198.957 74.741-262.117 154.745l-1.053 1.053c-2.105 1.053-3.158 3.158-4.21 5.263v0c-55.791 71.583-89.477 163.165-89.477 261.065 0 25.266 2.105 49.475 6.315 73.688v-3.158c17.894 105.27 72.636 195.799 149.482 258.96v0c7.368 6.315 14.736 11.578 23.161 17.894l1.053 1.053c68.425 49.475 154.745 78.951 247.38 78.951 25.266 0 49.475-2.105 73.688-6.315h-2.105c91.582-14.736 170.534-57.897 231.591-118.953v0c1.053-1.053 3.158-3.158 4.21-5.263v0c57.897-60.003 98.952-136.849 114.743-223.169v-2.105c0-2.105 0-3.158 0-5.263 0-18.947-14.736-32.634-32.634-32.634 0 0 0 0 0 0v0c0 0 0 0 0 0-15.789 0-29.476 11.578-32.634 26.318v1.053c-10.526 62.109-36.844 117.901-73.688 164.218v-1.053l-17.894-24.213c-12.631-16.841-20.001-36.844-20.001-58.95 0-11.578 2.105-22.108 5.263-31.581v0l11.578-33.686c1.053-3.158 2.105-6.315 2.105-10.526 0-13.683-9.473-26.318-22.108-30.529h-1.053c-3.158-1.053-6.315-2.105-10.526-2.105-13.683 0-26.318 9.473-30.529 22.108v0l-11.578 33.686c-5.263 15.789-8.421 33.686-8.421 52.633 0 36.844 11.578 70.531 32.634 97.9v0l25.266 33.686c-63.163 55.791-146.323 89.477-236.854 89.477-1.053 0-1.053 0-1.053 0v0c0 0 0 0 0 0-65.268 0-126.321-17.894-178.956-48.422l2.105 1.053 176.851-67.373c37.897-13.683 64.215-49.475 64.215-91.582 0-7.368-1.053-13.683-2.105-21.056v1.053l-13.683-68.425c-8.421-37.897-35.792-66.32-71.583-76.846h-1.053l-74.741-17.894-45.265-111.585c-12.631-31.581-33.686-56.844-60.003-75.793h-1.053l-55.791-35.792c52.633-54.738 122.111-92.635 198.957-106.322h2.105c15.789-3.158 27.371-16.841 27.371-32.634 0-2.105 0-4.21 0-5.263v0c-3.158-15.789-16.841-27.371-32.634-27.371 0 0 0 0 0 0v0zM186.325 696.43c-60.003-53.685-101.057-125.269-114.743-207.378l-1.053-2.105c-3.158-17.894-4.21-38.949-4.21-61.056 0-73.688 22.108-142.113 60.003-198.957l-1.053 1.053 61.056 38.949c15.789 11.578 28.424 27.371 35.792 45.265l51.58 127.374c3.158 9.473 11.578 16.841 22.108 18.947v0l91.582 23.161c11.578 3.158 21.056 12.631 23.161 25.266v0l14.736 68.425c0 2.105 0 5.263 0 7.368 0 13.683-8.421 25.266-21.056 30.529v0l-217.905 83.162zM767.405-198.349c-29.476 0-53.685 18.947-62.109 44.212l-1.053 1.053-58.95 178.956-178.956 60.003c-26.318 8.421-45.265 33.686-45.265 62.109 0 27.371 16.841 50.528 40.002 61.056h1.053l545.289 222.116c4.21 2.105 8.421 3.158 12.631 3.158 9.473 0 16.841-4.21 23.161-10.526v0c6.315-5.263 9.473-13.683 9.473-23.161 0-4.21-1.053-8.421-2.105-12.631v1.053l-222.116-546.342c-10.526-24.213-33.686-41.054-61.056-41.054 0 0 0 0 0 0v0zM767.405-132.030l192.641 472.655-473.707-192.641 175.798-58.95 106.322 107.375c6.315 5.263 13.683 9.473 23.161 9.473 0 0 0 0 0 0v0c17.894 0 32.634-14.736 32.634-33.686 0-8.421-3.158-16.841-9.473-23.161l-106.322-106.322 58.95-174.745z" />
<glyph unicode="&#xe929;" glyph-name="instagram" d="M0 327.993c0 290.54 235.801 526.342 526.342 526.342s526.342-235.801 526.342-526.342c0-290.54-235.801-526.342-526.342-526.342s-526.342 235.801-526.342 526.342zM526.342 609.058c-75.793 0-85.267-1.053-115.795-2.105-29.476-1.053-50.528-6.315-68.425-12.631-17.894-7.368-33.686-16.841-49.475-32.634s-25.266-31.581-32.634-49.475c-6.315-17.894-11.578-38.949-12.631-68.425s-2.105-40.002-2.105-115.795 1.053-85.267 2.105-115.795c1.053-29.476 6.315-50.528 12.631-68.425 7.368-17.894 16.841-33.686 32.634-49.475s31.581-25.266 49.475-32.634c17.894-6.315 38.949-11.578 68.425-12.631 30.529-1.053 40.002-2.105 115.795-2.105s86.319 1.053 115.795 2.105c29.476 1.053 50.528 6.315 68.425 12.631 17.894 7.368 33.686 16.841 49.475 32.634s25.266 31.581 32.634 49.475c6.315 17.894 11.578 38.949 12.631 68.425 1.053 30.529 2.105 40.002 2.105 115.795s-1.053 86.319-2.105 115.795c-1.053 29.476-6.315 50.528-12.631 68.425-7.368 17.894-16.841 33.686-32.634 49.475s-31.581 25.266-49.475 32.634c-17.894 6.315-38.949 11.578-68.425 12.631-30.529 1.053-40.002 2.105-115.795 2.105v0zM501.076 558.53c7.368 0 15.789 0 25.266 0 74.741 0 84.214-1.053 113.69-2.105 27.371-1.053 42.107-5.263 51.58-9.473 13.683-5.263 23.161-11.578 32.634-21.056s15.789-18.947 21.056-32.634c4.21-9.473 8.421-24.213 9.473-51.58 1.053-29.476 2.105-38.949 2.105-113.69s-1.053-84.214-2.105-113.69c-1.053-27.371-5.263-42.107-9.473-51.58-5.263-13.683-11.578-22.108-21.056-32.634-9.473-9.473-18.947-15.789-32.634-21.056-9.473-3.158-24.213-8.421-51.58-9.473-29.476-1.053-38.949-1.053-113.69-1.053s-84.214 0-113.69 1.053c-27.371 1.053-42.107 6.315-51.58 9.473-13.683 5.263-23.161 11.578-32.634 21.056s-15.789 18.947-21.056 32.634c-3.158 9.473-8.421 24.213-9.473 51.58-1.053 30.529-2.105 38.949-2.105 113.69s1.053 84.214 2.105 113.69c1.053 27.371 6.315 42.107 9.473 51.58 5.263 13.683 11.578 23.161 21.056 32.634s18.947 15.789 32.634 21.056c9.473 4.21 24.213 8.421 51.58 9.473 26.318 1.053 35.792 2.105 88.424 2.105v0zM675.822 511.159c-17.894 0-33.686-14.736-33.686-33.686 0-17.894 15.789-33.686 33.686-33.686s33.686 15.789 33.686 33.686c0 18.947-14.736 33.686-33.686 33.686v0zM526.342 472.21c-80.004 0-144.218-64.215-144.218-144.218s64.215-144.218 144.218-144.218c80.004 0 144.218 64.215 144.218 144.218s-64.215 144.218-144.218 144.218v0zM526.342 421.681c51.58 0 93.687-42.107 93.687-93.687s-42.107-93.687-93.687-93.687c-51.58 0-93.687 42.107-93.687 93.687s42.107 93.687 93.687 93.687v0z" />
<glyph unicode="&#xe92a;" glyph-name="chevron-left" d="M802.144-43.604l-370.545 371.597 370.545 371.597-113.69 114.743-486.339-486.339 486.339-486.339z" />
<glyph unicode="&#xe92b;" glyph-name="ellipsis-h" d="M131.585 459.578c-72.636 0-131.585-58.95-131.585-131.585s58.95-131.585 131.585-131.585c72.636 0 131.585 58.95 131.585 131.585s-58.95 131.585-131.585 131.585v0zM921.098 459.578c-72.636 0-131.585-58.95-131.585-131.585s58.95-131.585 131.585-131.585c72.636 0 131.585 58.95 131.585 131.585s-58.95 131.585-131.585 131.585v0zM526.342 459.578c-72.636 0-131.585-58.95-131.585-131.585s58.95-131.585 131.585-131.585c72.636 0 131.585 58.95 131.585 131.585s-58.95 131.585-131.585 131.585v0z" />
<glyph unicode="&#xe92c;" glyph-name="move-vertical" d="M626.346 326.94c0-52.633-44.212-95.793-100.005-95.793s-100.005 43.16-100.005 95.793c0 53.685 44.212 96.846 100.005 96.846s100.005-43.16 100.005-96.846zM676.874 548.003l-150.534 144.218-150.534-144.218-70.531 67.373 221.063 212.641 221.063-212.641zM526.342-174.137l-221.063 212.641 70.531 67.373 150.534-144.218 150.534 144.218 70.531-67.373z" />
<glyph unicode="&#xe92d;" glyph-name="twitter-outline" d="M526.342-198.349c290.54 0 526.342 235.801 526.342 526.342s-235.801 526.342-526.342 526.342-526.342-235.801-526.342-526.342 235.801-526.342 526.342-526.342zM526.342-145.714c-261.065 0-473.707 212.641-473.707 473.707s212.641 473.707 473.707 473.707 473.707-211.589 473.707-473.707-211.589-473.707-473.707-473.707zM510.551 426.944l1.053-18.947-17.894 2.105c-67.373 9.473-126.321 37.897-175.798 86.319l-24.213 24.213-6.315-17.894c-12.631-38.949-4.21-81.056 23.161-109.48 14.736-15.789 11.578-17.894-13.683-8.421-9.473 3.158-16.841 5.263-17.894 4.21-2.105-3.158 6.315-36.844 13.683-50.528 9.473-17.894 28.424-36.844 50.528-47.37l17.894-8.421h-22.108c-20.001 0-21.056-1.053-18.947-8.421 7.368-24.213 36.844-49.475 69.478-61.056l22.108-7.368-20.001-12.631c-27.371-15.789-62.109-26.318-97.9-27.371v0c-16.841 0-30.529-2.105-30.529-3.158 0-3.158 45.265-24.213 71.583-32.634 77.899-24.213 171.587-13.683 241.064 27.371 49.475 29.476 98.952 88.424 122.111 144.218 12.631 30.529 25.266 85.267 25.266 111.585 0 17.894 1.053 20.001 22.108 40.002 11.578 11.578 23.161 25.266 25.266 28.424 4.21 7.368 4.21 7.368-14.736 1.053-31.581-11.578-35.792-9.473-21.056 7.368 11.578 11.578 25.266 32.634 25.266 38.949 0 2.105-5.263 0-11.578-3.158-6.315-4.21-21.056-9.473-32.634-12.631l-20.001-6.315-17.894 11.578c-9.473 7.368-24.213 14.736-31.581 16.841-17.894 5.263-47.37 4.21-64.215-2.105-45.265-16.841-74.741-60.003-71.583-106.322z" />
<glyph unicode="&#xe92e;" glyph-name="youtube-outline" d="M0 327.993c0 290.54 235.801 526.342 526.342 526.342s526.342-235.801 526.342-526.342-235.801-526.342-526.342-526.342-526.342 235.801-526.342 526.342zM52.633 327.993c0-261.065 212.641-473.707 473.707-473.707s473.707 212.641 473.707 473.707-211.589 473.707-473.707 473.707-473.707-211.589-473.707-473.707zM792.67 451.156s5.263-46.317 5.263-92.635v-43.16c0-46.317-5.263-92.635-5.263-92.635s-5.263-40.002-22.108-56.844c-21.056-23.161-45.265-23.161-56.844-25.266-77.899-5.263-195.799-5.263-195.799-5.263s-146.323 1.053-191.589 5.263c-11.578 2.105-40.002 2.105-61.056 25.266-16.841 16.841-23.161 56.844-23.161 56.844s-5.263 46.317-5.263 92.635v43.16c0 46.317 5.263 92.635 5.263 92.635s6.315 40.002 23.161 56.844c21.056 23.161 45.265 23.161 55.791 25.266 78.951 5.263 196.852 5.263 196.852 5.263v0s117.901 0 195.799-5.263c11.578-2.105 35.792-2.105 56.844-25.266 16.841-16.841 22.108-56.844 22.108-56.844zM447.39 245.883l151.587 80.004-151.587 81.056v-161.060z" />
<glyph unicode="&#xe92f;" glyph-name="no" d="M1052.682 253.252h-1052.682v149.482h1052.682z" />
<glyph unicode="&#xe930;" glyph-name="read-glasses" d="M526.342-198.349c-3.158 0-6.315 0-9.473 1.053-1.053 0-1.053 1.053-2.105 1.053l-385.282 146.323c-37.897 12.631-63.163 48.422-63.163 89.477v321.069c0 52.633 42.107 94.741 93.687 94.741 10.526 0 20.001-1.053 29.476-4.21l336.858-130.531 334.753 129.479c10.526 3.158 21.056 5.263 31.581 5.263 41.054 0 76.846-26.318 89.477-65.268 3.158-9.473 5.263-18.947 5.263-29.476v-321.069c0-41.054-26.318-76.846-65.268-89.477l-384.228-146.323c0 0-1.053-1.053-2.105-1.053-3.158-1.053-6.315-1.053-9.473-1.053zM160.008 390.101c-15.789 0-28.424-13.683-28.424-29.476v-321.069c0-12.631 8.421-23.161 20.001-27.371l342.121-130.531v381.071l-326.332 126.321c-1.053 0-4.21 1.053-7.368 1.053zM558.974-118.345l341.069 130.531c0 0 1.053 0 1.053 0 11.578 4.21 20.001 14.736 20.001 27.371v321.069c0 3.158 0 6.315-1.053 9.473-4.21 11.578-14.736 20.001-27.371 20.001-3.158 0-6.315-1.053-9.473-2.105l-324.226-125.269v-381.071zM756.878 459.578c-106.322 0-192.641 83.162-196.852 189.484-1.053 1.053-1.053 3.158-1.053 5.263 0 17.894-14.736 32.634-32.634 32.634s-32.634-14.736-32.634-32.634c0-2.105 0-4.21-1.053-5.263-4.21-106.322-90.53-189.484-196.852-189.484-95.793 0-177.903 71.583-193.694 164.218h-69.478c-17.894 0-32.634 14.736-32.634 33.686s14.736 32.634 32.634 32.634h69.478c15.789 92.635 97.9 164.218 193.694 164.218 78.951 0 148.429-45.265 180.008-115.795 14.736 9.473 32.634 13.683 50.528 13.683s35.792-4.21 50.528-13.683c31.581 70.531 101.057 115.795 180.008 115.795 95.793 0 178.956-71.583 194.747-164.218h68.425c17.894 0 32.634-14.736 32.634-32.634s-14.736-33.686-32.634-33.686h-68.425c-15.789-92.635-98.952-164.218-194.747-164.218zM756.878 789.068c-72.636 0-131.585-60.003-131.585-131.585s58.95-131.585 131.585-131.585c72.636 0 131.585 58.95 131.585 131.585s-58.95 131.585-131.585 131.585zM295.804 789.068c-72.636 0-131.585-60.003-131.585-131.585s58.95-131.585 131.585-131.585c72.636 0 131.585 58.95 131.585 131.585s-58.95 131.585-131.585 131.585zM690.559 131.14c-13.683 0-26.318 8.421-30.529 22.108-3.158 8.421-2.105 16.841 1.053 25.266s11.578 13.683 18.947 15.789l98.952 33.686c3.158 1.053 7.368 1.053 10.526 1.053 14.736 0 26.318-8.421 31.581-22.108 5.263-16.841-4.21-35.792-21.056-42.107l-98.952-32.634c-3.158-1.053-6.315-1.053-10.526-1.053z" />
<glyph unicode="&#xe931;" glyph-name="chevron-down" d="M134.743 603.795l371.597-370.545 371.597 370.545 113.69-113.69-485.287-486.339-486.339 486.339z" />
<glyph unicode="&#xe932;" glyph-name="caret-up" d="M1052.682 64.822l-526.342 526.342-526.342-526.342z" />
<glyph unicode="&#xe933;" glyph-name="caret-left" d="M789.512 854.333l-526.342-526.342 526.342-526.342z" />
<glyph unicode="&#xe934;" glyph-name="caret-right" d="M263.171-198.349l526.342 526.342-526.342 526.342z" />
<glyph unicode="&#xe935;" glyph-name="plus" d="M987.414 262.726h-921.098v131.585h921.098zM461.074-133.082v922.151h131.585v-922.151z" />
<glyph unicode="&#xe936;" glyph-name="padlock" horiz-adv-x="819" d="M716.876 503.79h-51.58v100.005c0 137.901-114.743 250.538-255.802 250.538s-255.802-112.638-255.802-250.538v-100.005h-51.58c-55.791 0-102.111-45.265-102.111-101.057v-501.076c0-54.738 46.317-100.005 102.111-100.005h614.766c55.791 0 102.111 45.265 102.111 100.005v501.076c0 55.791-46.317 101.057-102.111 101.057zM409.494 52.189c-56.844 0-102.111 45.265-102.111 100.005s45.265 101.057 102.111 101.057 102.111-45.265 102.111-101.057-46.317-100.005-102.111-100.005zM568.449 503.79h-317.91v100.005c0 85.267 71.583 155.797 158.955 155.797s158.955-70.531 158.955-155.797v-100.005z" />
<glyph unicode="&#xe937;" glyph-name="spotify" d="M526.342 854.333c290.54 0 526.342-235.801 526.342-526.342s-235.801-526.342-526.342-526.342c-290.54 0-526.342 235.801-526.342 526.342s235.801 526.342 526.342 526.342zM755.826 106.929c9.473 14.736 5.263 34.739-10.526 44.212-136.849 83.162-306.331 103.163-503.181 57.897-17.894-4.21-28.424-21.056-24.213-38.949 4.21-16.841 21.056-28.424 38.949-24.213 180.008 41.054 333.701 24.213 454.759-49.475 15.789-9.473 35.792-5.263 44.212 10.526zM820.039 247.988c11.578 18.947 5.263 44.212-13.683 55.791-160.008 97.9-393.702 125.269-582.133 68.425-21.056-6.315-33.686-29.476-27.371-50.528s29.476-33.686 50.528-26.318c165.27 49.475 376.86 25.266 516.867-61.056 18.947-11.578 43.16-5.263 55.791 13.683zM825.303 394.311c23.161-13.683 52.633-5.263 66.32 17.894 13.683 22.108 6.315 52.633-16.841 66.32-192.641 113.69-496.866 124.216-680.032 69.478-25.266-8.421-40.002-35.792-32.634-61.056 8.421-25.266 34.739-40.002 61.056-32.634 158.955 48.422 434.758 40.002 602.133-60.003z" />
<glyph unicode="&#xe938;" glyph-name="check" d="M327.384 117.457l-245.275 245.275-82.109-81.056 327.384-328.437 702.139 702.139-82.109 82.109z" />
<glyph unicode="&#xe939;" glyph-name="time-hand" d="M32.634-198.349c-17.894 0-32.634 14.736-32.634 32.634v394.756c0 17.894 14.736 32.634 32.634 32.634s33.686-14.736 33.686-32.634v-32.634h196.852c78.951 0 146.323-55.791 161.060-131.585h134.743c90.53 0 165.27-73.688 165.27-164.218 0-18.947-14.736-33.686-33.686-33.686h-624.241v-32.634c0-17.894-14.736-32.634-33.686-32.634zM652.663-66.763c-13.683 38.949-51.58 65.268-93.687 65.268h-295.804c-17.894 0-32.634 14.736-32.634 33.686s14.736 32.634 32.634 32.634h92.635c-13.683 38.949-50.528 65.268-92.635 65.268h-196.852v-196.852h586.344zM746.351 75.349c-14.736 0-28.424 10.526-31.581 25.266-2.105 8.421-1.053 16.841 3.158 25.266s12.631 12.631 21.056 14.736c24.213 6.315 48.422 15.789 70.531 27.371 161.060 83.162 224.222 283.172 140.007 443.179-56.844 109.48-168.428 176.851-292.646 176.851-51.58 0-104.216-12.631-150.534-36.844-161.060-84.214-224.222-283.172-140.007-444.232 4.21-7.368 5.263-16.841 2.105-25.266s-8.421-14.736-15.789-18.947c-5.263-2.105-10.526-3.158-15.789-3.158-11.578 0-23.161 6.315-29.476 16.841-100.005 193.694-25.266 432.653 168.428 532.657 55.791 29.476 118.953 45.265 181.061 45.265 148.429 0 283.172-81.056 351.595-212.641 48.422-92.635 57.897-200.009 26.318-301.067s-101.057-182.114-194.747-231.591c-26.318-13.683-55.791-25.266-85.267-32.634-3.158 0-5.263-1.053-8.421-1.053zM625.293 393.259c-17.894 0-32.634 14.736-32.634 33.686v263.171c0 17.894 14.736 32.634 32.634 32.634s32.634-14.736 32.634-32.634v-230.537h131.585c17.894 0 32.634-14.736 32.634-32.634s-14.736-33.686-32.634-33.686h-164.218z" />
<glyph unicode="&#xe93a;" glyph-name="time" d="M526.342 854.333c-290.54 0-526.342-235.801-526.342-526.342s235.801-526.342 526.342-526.342c290.54 0 526.342 235.801 526.342 526.342s-235.801 526.342-526.342 526.342v0zM526.342-93.080c-232.643 0-421.072 188.43-421.072 421.072s188.43 421.072 421.072 421.072c232.643 0 421.072-188.43 421.072-421.072s-188.43-421.072-421.072-421.072v0zM592.66 591.164h-66.32v-315.805l230.537-165.27 32.634 64.215-196.852 141.059z" />
<glyph unicode="&#xe93b;" glyph-name="up" d="M917.939 52.189l-371.597 370.545-371.597-370.545-113.69 113.69 485.287 486.339 486.339-486.339z" />
<glyph unicode="&#xe93c;" glyph-name="right" d="M250.538-63.605l370.545 371.597-370.545 371.597 113.69 113.69 486.339-485.287-486.339-486.339z" />
<glyph unicode="&#xe93d;" glyph-name="calendar-add" d="M526.342-33.867c-18.16 0-32.896 14.736-32.896 32.896v98.688h-98.688c-18.16 0-32.896 14.736-32.896 32.896s14.736 32.896 32.896 32.896h98.688v98.688c0 18.16 14.736 32.896 32.896 32.896s32.896-14.736 32.896-32.896v-98.688h98.688c18.16 0 32.896-14.736 32.896-32.896s-14.736-32.896-32.896-32.896h-98.688v-98.688c0-18.16-14.736-32.896-32.896-32.896zM98.688-198.349c-54.432 0-98.688 44.259-98.688 98.688v723.719c0 54.432 44.256 98.688 98.688 98.688h164.481v98.688c0 18.16 14.736 32.896 32.896 32.896s32.896-14.736 32.896-32.896v-98.688h394.756v98.688c0 18.16 14.736 32.896 32.896 32.896s32.896-14.736 32.896-32.896v-98.688h164.481c54.429 0 98.688-44.256 98.688-98.688v-723.719c0-54.429-44.259-98.688-98.688-98.688h-855.304zM65.792-99.66c0-18.16 14.736-32.896 32.896-32.896h855.304c18.16 0 32.896 14.736 32.896 32.896v493.444h-921.098v-493.444zM986.89 624.060c0 18.16-14.736 32.896-32.896 32.896h-164.481v-65.792c0-18.16-14.736-32.896-32.896-32.896s-32.896 14.736-32.896 32.896v65.792h-394.756v-65.792c0-18.16-14.736-32.896-32.896-32.896s-32.896 14.736-32.896 32.896v65.792h-164.481c-18.16 0-32.896-14.736-32.896-32.896v-164.481h921.098v164.481z" />
<glyph unicode="&#xe93e;" glyph-name="expand-horizontal" d="M197.377 130.61c-8.774 0-17.063 3.42-23.248 9.647l-164.48 164.48c-3.071 3.071-5.481 6.668-7.15 10.744-0.131 0.349-0.306 0.746-0.436 1.141-1.402 3.773-2.061 7.543-2.061 11.403 0 3.905 0.702 7.721 2.105 11.447 0.087 0.306 0.218 0.615 0.349 0.922 1.756 4.254 4.166 7.852 7.281 10.923l164.437 164.437c6.227 6.228 14.474 9.647 23.248 9.647s17.063-3.42 23.248-9.647c6.227-6.184 9.647-14.474 9.647-23.248s-3.42-17.063-9.647-23.248l-108.338-108.338h282.424c18.16 0 32.896-14.736 32.896-32.896s-14.736-32.896-32.896-32.896h-282.469l108.338-108.338c12.807-12.807 12.807-33.686 0-46.535-6.184-6.227-14.474-9.647-23.248-9.647zM855.304 130.61c-8.771 0-17.060 3.42-23.244 9.647-12.81 12.807-12.81 33.686 0 46.535l108.337 108.338h-282.423c-18.16 0-32.896 14.736-32.896 32.896s14.736 32.896 32.896 32.896h282.423l-108.337 108.338c-6.231 6.184-9.651 14.474-9.651 23.248s3.42 17.063 9.651 23.248c6.226 6.184 14.474 9.647 23.244 9.647 8.776 0 17.065-3.42 23.25-9.647l164.48-164.48c3.069-3.071 5.483-6.668 7.148-10.744 0.131-0.349 0.309-0.746 0.44-1.14 1.357-3.551 2.058-7.455 2.058-11.36 0-3.817-0.701-7.63-2.058-11.316-0.089-0.262-0.178-0.48-0.262-0.702-1.843-4.559-4.299-8.158-7.368-11.273l-164.439-164.436c-6.184-6.272-14.474-9.691-23.25-9.691zM526.337 97.719c-18.16 0-32.896 14.736-32.896 32.896v394.754c0 18.16 14.736 32.896 32.896 32.896s32.896-14.736 32.896-32.896v-394.754c0-18.16-14.736-32.896-32.896-32.896z" />
<glyph unicode="&#xe93f;" glyph-name="twitter" d="M526.342-198.349c-290.54 0-526.342 235.801-526.342 526.342s235.801 526.342 526.342 526.342c290.54 0 526.342-235.801 526.342-526.342s-235.801-526.342-526.342-526.342zM510.551 426.944l1.053-18.947-17.894 2.105c-67.373 9.473-126.321 37.897-175.798 86.319l-24.213 24.213-6.315-17.894c-12.631-38.949-4.21-81.056 23.161-109.48 14.736-15.789 11.578-17.894-13.683-8.421-9.473 3.158-16.841 5.263-17.894 4.21-2.105-3.158 6.315-36.844 13.683-50.528 9.473-17.894 28.424-36.844 50.528-47.37l17.894-8.421h-22.108c-20.001 0-21.056-1.053-18.947-8.421 7.368-24.213 36.844-49.475 69.478-61.056l22.108-7.368-20.001-12.631c-29.476-16.841-63.163-26.318-97.9-27.371-16.841 0-30.529-2.105-30.529-3.158 0-3.158 45.265-24.213 71.583-32.634 77.899-24.213 171.587-13.683 241.064 27.371 49.475 29.476 98.952 88.424 122.111 144.218 12.631 30.529 25.266 85.267 25.266 111.585 0 17.894 1.053 20.001 22.108 40.002 11.578 11.578 23.161 25.266 25.266 28.424 4.21 7.368 3.158 7.368-14.736 1.053-31.581-11.578-35.792-9.473-21.056 7.368 11.578 11.578 25.266 32.634 25.266 38.949 0 2.105-5.263 0-11.578-3.158-6.315-4.21-21.056-9.473-32.634-12.631l-20.001-6.315-17.894 11.578c-9.473 7.368-24.213 14.736-31.581 16.841-17.894 5.263-47.37 4.21-64.215-2.105-45.265-16.841-74.741-60.003-71.583-106.322z" />
<glyph unicode="&#xe940;" glyph-name="no-wine-b" d="M0 352c0-282.327 229.675-512 512-512 135.509 0 263.212 52.565 359.809 148.139 0.809 0.556 1.619 1.236 2.219 1.833 0.853 0.812 1.492 1.624 2.004 2.348 95.444 96.556 147.968 224.256 147.968 359.68 0 282.325-229.673 512-512 512-135.595 0-263.38-52.651-360.021-148.309-0.768-0.555-1.493-1.152-2.048-1.707-0.725-0.768-1.365-1.493-1.835-2.176-95.488-96.596-148.096-224.299-148.096-359.808zM64 352c0 108.076 38.784 211.541 109.611 293.12l108.136-108.137-2.214-14.438c-0.212-1.402-0.366-2.804-0.517-4.206l-0.183-1.585c-0.366-1.556-0.549-3.079-0.549-4.571-8.565-79.267 24.654-159.298 86.764-209.035 35.994-28.801 78.69-46.173 124.099-50.59v-220.557h-68.571c-12.585 0-22.857-10.24-22.857-22.857s10.24-22.857 22.857-22.857h182.857c12.617 0 22.857 10.24 22.857 22.857s-10.24 22.857-22.857 22.857h-68.571v220.587c9.138 0.89 18.166 2.304 27.053 4.23l243.205-243.205c-81.579-70.827-185.003-109.612-293.12-109.612-247.040 0-448 200.96-448 448zM627.427 281.812l222.961-222.932c70.827 81.579 109.612 185.003 109.612 293.12 0 247.040-200.96 448-448 448-108.117 0-211.541-38.827-293.163-109.653l74.941-74.93 9.74 63.501c3.443 22.491 22.46 38.796 45.166 38.796h326.583c22.735 0 41.721-16.305 45.166-38.766l24.044-156.372c0.202-1.334 0.351-2.694 0.495-4.028l0.024-0.21 0.183-1.556c0.334-1.582 0.517-3.077 0.549-4.571 8.563-79.267-24.625-159.298-86.767-209.035-10.021-8.019-20.56-15.15-31.534-21.365zM374.348 534.857l-40.494 40.489 14.799 96.653h326.615l21.090-137.143h-322.009zM420.098 489.111h281.317c0.67-58.21-25.388-113.766-71.010-150.277-11.435-9.14-23.823-16.891-36.862-23.142l-173.446 173.419zM329.618 489.111l191.876-191.876c-3.157-0.163-6.322-0.246-9.489-0.246-42.606 0-84.631 14.875-118.37 41.845-45.622 36.54-71.709 92.099-71.010 150.309v-0.032h6.992z" />
<glyph unicode="&#xe941;" glyph-name="file-folder" d="M224.219-102.944c-88.321 0-160.156 71.835-160.156 160.156v384.375c0 17.681 14.35 32.031 32.031 32.031s32.031-14.35 32.031-32.031v-384.375c0-53.001 43.093-96.094 96.094-96.094h576.563c53.001 0 96.094 43.093 96.094 96.094v384.375c0 17.681 14.35 32.031 32.031 32.031s32.031-14.35 32.031-32.031v-384.375c0-88.321-71.835-160.156-160.156-160.156h-576.563zM32.031 537.681c-17.681 0-32.031 14.35-32.031 32.031v128.125c0 53.001 43.093 96.094 96.094 96.094h832.813c53.001 0 96.094-43.093 96.094-96.094v-128.125c0-17.681-14.35-32.031-32.031-32.031h-960.938zM960.938 601.744v96.094c0 17.681-14.35 32.031-32.031 32.031h-832.813c-17.681 0-32.031-14.35-32.031-32.031v-96.094h896.876zM448.438 281.431c-53.001 0-96.094 43.093-96.094 96.094s43.093 96.094 96.094 96.094h128.125c53.001 0 96.094-43.093 96.094-96.094s-43.093-96.094-96.094-96.094h-128.125zM448.438 409.556c-17.681 0-32.031-14.35-32.031-32.031s14.35-32.031 32.031-32.031h128.125c17.681 0 32.031 14.35 32.031 32.031s-14.35 32.031-32.031 32.031h-128.125z" />
<glyph unicode="&#xe942;" glyph-name="mail" horiz-adv-x="1456" d="M182.196-147.738c-75.368 0-136.645 61.276-136.645 136.645v728.78c0 30.61 9.962 59.577 28.908 83.811 0.424 0.67 0.911 1.335 1.335 1.883 0.362 0.484 0.911 1.093 1.396 1.641 25.811 31.215 64.133 49.313 105.004 49.313h1093.17c40.756 0 79.008-18.039 105.13-49.435 0.601-0.609 1.15-1.275 1.573-1.883 0.371-0.424 0.73-1.032 1.093-1.581 18.89-24.234 28.851-53.141 28.851-83.75v-728.78c0-75.372-61.284-136.645-136.645-136.645h-1093.17zM136.645-11.093c0-25.144 20.406-45.547 45.547-45.547h1093.17c25.144 0 45.547 20.406 45.547 45.547v709.832l-441.884-339.854c-42.756-32.916-96.139-51.076-150.25-51.076s-107.496 18.16-150.25 51.076l-441.884 339.854v-709.832zM634.038 431.095c26.964-20.769 60.61-32.186 94.741-32.186s67.716 11.417 94.684 32.186l431.859 332.202h-1053.146l431.863-332.202z" />
<glyph unicode="&#xe943;" glyph-name="music" d="M197.378-198.424c-108.821 0-197.378 88.553-197.378 197.378 0 108.815 88.555 197.378 197.378 197.378 48.951 0 95.704-18.379 131.585-50.528v413.745c0 70.881 45.177 133.602 112.374 156.015l486.205 135.051c8.6 2.367 17.456 3.599 26.275 3.599 44.255 0 83.384-29.782 95.182-72.373 2.37-8.509 3.6-17.37 3.6-26.275v-84.17c0.086-1.402 0.043-2.808-0.043-4.21l0.043-469.144c0.043-0.308 0.086-1.010 0.086-1.71 0-108.823-88.553-197.378-197.378-197.378s-197.378 88.553-197.378 197.378c0 108.817 88.553 197.375 197.378 197.375 48.908 0 95.619-18.334 131.498-50.484v281.768l-592.047-177.639v-448.396c0-108.823-88.555-197.378-197.378-197.378zM197.378 130.54c-72.548 0-131.585-59.043-131.585-131.585 0-72.55 59.039-131.585 131.585-131.585s131.585 59.037 131.585 131.585c0 72.544-59.039 131.585-131.585 131.585zM855.304 327.915c-72.55 0-131.585-59.038-131.585-131.581 0-72.55 59.037-131.585 131.585-131.585 72.021 0 130.886 58.424 131.541 130.352-0.043 0.438-0.043 2.899-0.043 2.899-0.837 71.581-59.785 129.918-131.498 129.918zM953.861 788.463c-2.936 0-5.877-0.393-8.726-1.184l-484.543-134.568c-39.080-13.115-65.836-50.615-65.836-93.163v-43.509l592.047 177.595v61.931c0 2.94-0.395 5.879-1.182 8.683-3.951 14.256-17.024 24.213-31.76 24.213z" />
<glyph unicode="&#xe944;" glyph-name="check-square" d="M398.256 92.831c-4.997 0-10.037 0.513-15.034 1.494-20.159 4.015-37.541 15.588-48.944 32.629l-104.209 147.856c-10.165 14.435-6.706 34.466 7.731 44.631 5.424 3.844 11.788 5.851 18.45 5.851 10.421 0 20.201-5.082 26.223-13.581l104.635-148.497c2.306-3.459 5.125-5.381 8.584-6.065 0.854-0.171 1.709-0.256 2.563-0.256 2.477 0 4.912 0.769 7.004 2.178 1.196 0.812 2.221 1.794 3.075 2.904l335.346 424.307c6.065 7.688 15.204 12.129 25.069 12.129 7.175 0 14.222-2.434 19.816-6.876 6.706-5.296 10.976-12.898 11.959-21.397s-1.366-16.869-6.663-23.575l-334.962-423.795c-4.826-6.363-10.976-12.129-18.066-16.913-12.684-8.541-27.419-13.026-42.581-13.026zM96.094-166.964c-53.001 0-96.094 43.093-96.094 96.094v832.813c0 53.001 43.093 96.094 96.094 96.094h832.813c53.001 0 96.094-43.093 96.094-96.094v-832.813c0-53.001-43.093-96.094-96.094-96.094h-832.813zM96.094 793.975c-17.681 0-32.031-14.35-32.031-32.031v-832.813c0-17.681 14.35-32.031 32.031-32.031h832.813c17.681 0 32.031 14.35 32.031 32.031v832.813c0 17.681-14.35 32.031-32.031 32.031h-832.813z" />
<glyph unicode="&#xe945;" glyph-name="youtube" d="M0 327.993c0 290.54 235.801 526.342 526.342 526.342s526.342-235.801 526.342-526.342c0-290.54-235.801-526.342-526.342-526.342s-526.342 235.801-526.342 526.342zM792.67 451.156c0 0-5.263 40.002-22.108 56.844-21.056 23.161-45.265 23.161-56.844 25.266-77.899 5.263-195.799 5.263-195.799 5.263v0c0 0-117.901 0-196.852-5.263-10.526-2.105-34.739-2.105-55.791-25.266-16.841-16.841-23.161-56.844-23.161-56.844s-5.263-46.317-5.263-92.635v-43.16c0-46.317 5.263-92.635 5.263-92.635s6.315-40.002 23.161-56.844c21.056-23.161 49.475-23.161 61.056-25.266 45.265-4.21 191.589-5.263 191.589-5.263s117.901 0 195.799 5.263c11.578 2.105 35.792 2.105 56.844 24.213 16.841 17.894 22.108 57.897 22.108 57.897s5.263 46.317 5.263 92.635v43.16c0 46.317-5.263 92.635-5.263 92.635zM447.39 245.883v161.060l151.587-81.056z" />
<glyph unicode="&#xe946;" glyph-name="concert-outline" d="M1028.010 325.937c0-283.878-230.127-514.004-514.004-514.004s-514.004 230.127-514.004 514.004c0 283.877 230.128 514.004 514.004 514.004s514.004-230.128 514.004-514.004zM514.004-135.35c254.762 0 461.286 206.524 461.286 461.286s-206.524 461.286-461.286 461.286c-254.762 0-461.286-206.524-461.286-461.286s206.524-461.286 461.286-461.286zM373.307 376.636c-34.337 0-62.275 27.935-62.275 62.275s27.935 62.275 62.275 62.275c34.337 0 62.275-27.935 62.275-62.275s-27.935-62.275-62.275-62.275zM373.307 473.506c-19.080 0-34.598-15.517-34.598-34.598s15.517-34.598 34.598-34.598c19.080 0 34.598 15.517 34.598 34.598s-15.517 34.598-34.598 34.598zM691.586 376.636c-34.337 0-62.275 27.935-62.275 62.275s27.935 62.275 62.275 62.275c34.337 0 62.275-27.935 62.275-62.275s-27.935-62.275-62.275-62.275zM691.586 473.506c-19.080 0-34.598-15.517-34.598-34.598s15.517-34.598 34.598-34.598c19.080 0 34.598 15.517 34.598 34.598s-15.517 34.598-34.598 34.598zM619.439 307.483c-4.188 0-8.119 1.864-10.756 5.129-18.69 23.083-46.515 36.329-76.351 36.329-22.382 0-44.264-7.751-61.646-21.809-5.313-4.317-10.204-9.189-14.502-14.502-2.64-3.265-6.567-5.129-10.756-5.129-3.155 0-6.255 1.088-8.708 3.081-5.258 4.262-6.567 11.605-3.449 17.363-12.215 21.257-35.371 34.8-60.116 34.8-9.318 0-18.415-1.883-27.048-5.571-4.633-1.993-9.079-4.482-13.175-7.435-2.361-1.699-5.148-2.604-8.064-2.604-4.445 0-8.652 2.158-11.237 5.758-2.158 3.008-3.026 6.66-2.434 10.314s2.585 6.847 5.589 9.005c5.74 4.115 11.94 7.619 18.433 10.406 12.197 5.221 25 7.862 38.102 7.862 12.325 0 24.449-2.361 36.035-6.994 18.010-7.214 32.991-19.227 43.768-35.002 0.055 0.055 0.11 0.092 0.165 0.147 22.658 18.36 49.949 28.045 78.899 28.045 4.445 0 8.968-0.239 13.414-0.702 24.596-2.585 47.309-12.031 66.186-27.457 10.777 15.756 25.758 27.769 43.75 34.984 11.586 4.633 23.71 6.994 36.035 6.994 13.101 0 25.905-2.64 38.102-7.862 6.494-2.787 12.693-6.273 18.433-10.406 6.2-4.464 7.6-13.12 3.155-19.319-2.604-3.618-6.81-5.777-11.255-5.777-2.916 0-5.703 0.905-8.082 2.604-4.096 2.953-8.523 5.442-13.175 7.435-8.708 3.729-17.859 5.626-27.198 5.626-8.803 0-17.455-1.681-25.758-5.001-14.466-5.795-26.497-16.311-34.208-29.836 1.346-2.434 1.901-5.24 1.607-8.082-0.386-3.674-2.177-6.975-5.056-9.299-2.452-2.011-5.534-3.1-8.689-3.1zM532.442 376.657c-41.977 0-76.111 34.134-76.111 76.111s34.134 76.111 76.111 76.111c41.959 0 76.111-34.134 76.111-76.111s-34.152-76.111-76.111-76.111zM532.442 501.204c-26.699 0-48.434-21.735-48.434-48.434s21.717-48.434 48.434-48.434c26.717 0 48.434 21.735 48.434 48.434s-21.735 48.434-48.434 48.434zM442.498 86.022c-26.717 0-48.434 21.717-48.434 48.434s21.735 48.434 48.434 48.434c7.233 0 14.318-1.625 20.757-4.707v50.834c0 17.896 11.421 33.73 28.398 39.392l83.696 23.269c3.802 1.272 8.101 1.975 12.473 1.975 17.878 0 33.711-11.439 39.374-28.453 1.419-4.225 2.122-8.652 2.122-13.12v-89.952c0-26.717-21.717-48.434-48.434-48.434s-48.434 21.717-48.434 48.434c0 26.717 21.717 48.434 48.434 48.434 7.233 0 14.318-1.625 20.757-4.707v46.221c0 1.493-0.239 2.953-0.702 4.354-1.883 5.685-7.178 9.483-13.157 9.483-1.474 0-2.953-0.239-4.372-0.702l-83.678-23.269c-5.038-1.699-8.803-7.049-8.803-12.918v-94.563c0-26.736-21.735-48.453-48.434-48.453zM442.498 155.215c-11.458 0-20.757-9.318-20.757-20.757s9.299-20.757 20.757-20.757c11.458 0 20.757 9.318 20.757 20.757s-9.318 20.757-20.757 20.757zM580.884 182.892c-11.439 0-20.757-9.318-20.757-20.757s9.299-20.757 20.757-20.757c11.458 0 20.757 9.318 20.757 20.757s-9.318 20.757-20.757 20.757z" />
</font>
</defs>
</svg>
