<?xml version="1.0" encoding="UTF-8"?>
<svg width="331px" height="325px" viewBox="0 0 331 325" version="1.1" xmlns="http://www.w3.org/2000/svg" xmlns:xlink="http://www.w3.org/1999/xlink">
    <!-- Generator: sketchtool 55.1 (78136) - https://sketchapp.com -->
    <title>269446B6-3CE1-494B-AFAC-43EF5EE68533</title>
    <desc>Created with sketchtool.</desc>
    <g id="Atoms" stroke="none" stroke-width="1" fill="none" fill-rule="evenodd">
        <g id="Logos" transform="translate(-735.000000, -418.000000)" fill="#FFFFFF">
            <g id="Sofar-Cable-White" transform="translate(735.000000, 418.000000)">
                <g>
                    <polygon id="Clip-2" points="319.488289 110.536589 320.213966 113.478452 301.551813 118.079765 300.825535 115.137302"></polygon>
                    <polygon id="Clip-5" points="320.81349 115.906989 321.540368 118.849452 302.877615 123.450766 302.151338 120.508303"></polygon>
                    <polygon id="Clip-8" points="329.751691 152.119518 330.477969 155.062582 311.815216 159.663895 311.088938 156.720832"></polygon>
                    <polygon id="Clip-11" points="322.266045 121.791916 327.592682 143.373781 308.93053 147.974494 303.603893 126.393229"></polygon>
                    <polygon id="Clip-14" points="328.31896 146.315643 329.026015 149.177656 310.362661 153.778969 309.656808 150.916957"></polygon>
                    <polygon id="Clip-17" points="319.336305 161.310138 324.498944 160.037932 328.695015 177.038897 323.532376 178.311702"></polygon>
                    <polygon id="Clip-20" points="329.102907 178.690542 327.404655 182.716091 323.940269 179.962748"></polygon>
                    <path d="M325.325543,183.69291 C325.026982,182.485545 325.764673,181.265573 326.972733,180.967784 C328.180793,180.669395 329.401468,181.406662 329.699428,182.614027 C329.997388,183.821391 329.259697,185.041364 328.051637,185.339152 C326.843577,185.636941 325.622902,184.899674 325.325543,183.69291 Z" id="Clip-23"></path>
                    <path d="M64.2566515,181.490115 C66.7803013,180.670596 69.5292232,179.937532 70.5276298,178.171814 C67.4909601,176.524371 63.1693376,175.972621 58.9077877,175.03843 C54.6798784,174.112043 50.305392,173.153837 46.5502541,172.642313 C44.7396661,172.395557 43.1579546,174.481878 43.0462196,175.775697 C42.6106933,180.838102 50.9866152,182.977857 56.1414446,182.964709 C59.0027024,182.957444 61.7750526,182.296425 64.2566515,181.490115 Z M126.412564,175.775697 C120.145191,181.269175 107.126858,182.702883 101.88192,175.775697 C98.7202995,178.583675 92.7755154,179.751414 87.1268893,179.462031 C85.8677677,179.39779 84.3839746,178.853245 83.2540091,179.093998 C82.0423448,179.35096 80.4912704,181.122082 79.1961053,182.227382 C75.0378802,185.775628 71.2953575,188.183153 64.8099201,189.415733 C52.0018421,191.850275 38.176735,187.466299 35.2998584,177.619464 L35.2998584,174.301163 C36.940441,164.130723 48.3386152,165.991301 58.1700962,168.033795 C60.8457296,168.589747 63.852363,169.454294 67.0229946,170.245595 C69.7274628,170.921023 74.1962632,172.720963 76.0603158,172.089363 C77.2683757,171.679903 78.1712668,169.320409 78.8272595,167.665161 C80.2383648,164.104907 80.5429328,160.304501 78.8272595,157.342826 C73.1161579,147.481582 56.4183793,149.103809 56.5102904,133.379252 C56.5721652,122.757327 64.957098,115.509538 73.1095499,112.365347 C80.3152577,109.586788 92.2102323,109.462509 97.2713485,115.130698 C98.38149,116.373485 99.9373702,119.310544 99.6688457,121.951016 C99.5024446,123.591855 97.9615826,127.787912 94.6888276,126.374617 C92.8884519,125.597125 93.1077169,122.751923 92.2913303,121.766099 C88.4929401,117.180396 78.8410762,117.28126 73.4783956,120.107849 C69.8109637,122.040473 65.3860163,127.093873 66.2853031,132.457669 C67.4795463,139.579378 78.0709456,141.708927 83.8072777,145.913989 C86.8259256,148.12699 89.6403267,152.183759 90.0776552,156.420642 C90.6861906,162.304967 88.8725989,167.681972 87.1268893,172.826029 C89.144127,173.44382 91.4292886,174.094632 93.7667132,173.747613 C95.4355299,173.500856 99.4910309,171.535212 99.8532686,170.245595 C100.056915,169.519736 99.5811397,167.648951 99.6688457,166.374344 C100.530887,153.879232 106.970069,144.877733 115.89926,140.383888 C117.27312,139.69285 126.231145,136.724571 126.412564,140.383888 C126.475641,141.65189 123.240131,143.46804 122.354661,144.439455 C118.070884,149.141032 113.423668,156.056211 111.103664,163.425277 C110.344347,165.839405 109.30449,169.452493 110.365973,172.089363 C111.445477,174.767658 115.826572,174.577338 117.927911,173.563896 C122.357664,171.427143 123.887113,166.656523 125.49045,161.950743 C126.005272,160.438986 127.77441,157.164513 127.519102,154.946108 C127.280013,152.86399 124.979232,152.447926 124.383312,149.969557 C123.509256,146.32645 124.683074,142.508633 127.334679,141.489788 C132.516541,139.498927 136.484336,143.791045 136.925269,148.310106 C137.962722,158.937435 131.852739,171.007478 126.412564,175.775697 Z" id="Clip-26"></path>
                    <path d="M202.954662,156.052609 C203.818506,154.490419 206.9579,149.998375 206.274274,148.310106 C205.584641,146.605027 202.562388,147.063117 201.479279,147.204806 C193.910132,148.191231 188.761911,155.120819 185.986557,161.397793 C184.530998,164.690278 182.171347,171.403729 185.986557,173.195263 C189.233481,174.719628 192.070109,170.854381 193.548495,169.139695 C197.388936,164.686675 199.889158,161.595318 202.954662,156.052609 Z M151.865323,167.296528 C153.728174,166.79461 154.721174,164.780935 155.738203,163.24156 C161.045617,155.209675 164.812169,145.70986 168.28016,135.77597 C169.912933,131.10141 173.914368,121.280392 169.387298,119.554299 C164.859626,117.828806 160.718822,124.981735 158.873993,129.508602 C154.671915,139.818329 152.560363,155.518871 151.865323,167.296528 Z M128.441216,223.702243 C134.00574,210.755645 136.000751,195.75995 139.323367,181.305798 C139.313154,181.193527 139.296334,181.08726 139.138944,181.121482 C133.243419,185.238288 127.630236,191.291921 123.646221,199.001403 C119.741503,206.558388 116.414682,214.922884 116.453129,224.623826 C116.468748,228.5317 117.540443,233.595907 120.694855,233.656459 C124.342463,233.725589 127.150857,226.704744 128.441216,223.702243 Z M309.853846,163.909183 L310.901512,165.975091 C310.901512,165.975091 327.203412,191.237287 306.002592,237.665284 C299.258842,252.432234 288.767764,265.129073 277.152127,276.738024 C262.26794,291.613642 244.933993,303.293438 225.630866,311.453204 C205.642911,319.902354 184.414457,324.186667 162.534817,324.186667 C140.654575,324.186667 119.426122,319.902354 99.438167,311.453204 C80.1356407,303.293438 62.8010926,291.613642 47.9169056,276.738024 C33.0327187,261.862405 21.346196,244.537835 13.1817296,225.24642 C4.72771325,205.269972 0.440932849,184.053738 0.440932849,162.186693 C0.440932849,140.319046 4.72771325,119.103413 13.1817296,99.1263643 C21.346196,79.8343491 33.0327187,62.51038 47.9169056,47.6347611 C62.8010926,32.7591423 80.1356407,21.0793469 99.438167,12.9195804 C119.426122,4.46983018 140.654575,0.186117845 162.534817,0.186117845 C184.414457,0.186117845 205.642911,4.46983018 225.630866,12.9195804 C244.933993,21.0793469 262.26794,32.7591423 277.152127,47.6347611 C292.036314,62.51038 303.722837,79.8343491 311.887303,99.1263643 C313.371697,102.631984 314.716122,106.025933 315.941603,109.605399 L302.537004,112.950117 C282.175998,55.289608 227.108652,13.8567738 162.534817,13.8567738 C80.6979201,13.8567738 14.1194628,80.3969053 14.1194628,162.186693 C14.1194628,243.975279 80.6979201,310.515411 162.534817,310.515411 C223.767414,310.515411 278.794512,274.200217 299.106258,220.242852 C309.952966,191.427607 308.507018,170.823161 299.956886,165.874828 C297.51914,164.465135 290.760973,159.211809 273.77845,172.457996 C270.908181,174.697414 268.731151,177.007677 265.663844,178.356131 C258.947127,181.3088 241.628799,182.591813 242.609183,171.720729 C243.021882,167.144031 245.301036,161.39359 247.035332,156.974192 C247.667296,155.365774 248.89518,153.76456 248.879561,152.549991 C248.845319,149.763627 245.928194,148.982532 243.899543,147.757756 C240.244726,156.697417 235.665392,167.64715 228.407421,175.03843 C224.768824,178.743376 217.909134,180.599151 210.701624,180.199898 C206.310918,179.956144 201.392174,178.652118 200.740987,174.48548 C200.349314,171.97529 201.342314,170.401094 201.663702,168.218111 C200.148672,168.968587 199.532327,170.830966 198.34349,172.273679 C194.757757,176.627036 186.182995,184.275879 178.239595,179.646948 C176.162886,178.436582 175.017301,176.358065 173.813446,173.93253 C168.13178,177.81759 159.859784,180.734837 150.021094,179.278314 C146.185459,196.846638 143.327205,217.377838 134.712194,231.444145 C131.695348,236.370864 127.392348,241.605579 120.879878,242.504348 L119.77274,242.504348 C118.666203,242.285209 117.176403,242.162131 116.268706,241.767081 C105.048947,236.880587 108.246612,218.717887 112.395225,209.140022 C117.563871,197.210469 125.649642,187.026821 134.897218,179.093998 C136.235034,177.945471 139.97155,175.631005 140.614327,174.301763 C141.121339,173.2535 141.074483,171.433748 141.352619,169.876962 C143.181829,159.629673 144.747922,148.134795 147.069728,138.725037 C150.201913,126.036603 155.180129,113.858492 166.9892,109.96923 C168.090931,109.657632 169.417334,109.712267 170.678258,109.96923 C183.173958,111.898251 179.758831,127.503332 176.949236,137.803454 C173.128018,151.809722 166.072492,164.505361 157.39861,173.010946 C163.669588,175.767291 170.131597,170.621433 173.260178,167.296528 C174.286819,158.969255 177.236383,153.113748 181.74423,148.12579 C186.505584,142.858054 195.688281,137.16525 205.168338,140.015254 C206.24604,140.339459 208.024789,141.623673 209.041218,141.489788 C210.775514,141.262844 210.947922,138.308373 212.914098,137.98777 C213.455352,137.937338 219.60198,138.307773 220.844882,140.015254 C222.088985,141.722735 219.359287,145.682843 218.262962,148.12579 C216.031866,153.102341 213.922717,157.684442 211.807561,163.425277 C210.967746,165.705521 209.098887,169.669831 209.963332,172.089363 C211.402071,176.11191 219.781597,174.159473 222.505289,172.457996 C230.927466,167.195664 234.787731,154.085163 238.366857,144.255139 C234.624935,138.519107 239.100944,129.233027 245.375526,132.457669 C246.641256,133.108481 247.53814,135.232626 247.588601,137.066187 C247.614432,137.960753 246.747584,139.268982 247.035332,140.383888 C247.375343,141.701722 252.606465,143.53108 253.859579,144.255139 C256.482949,145.771099 259.503399,147.216814 259.761111,149.969557 C260.086103,153.424745 257.082474,158.511165 255.88823,161.397793 C254.668156,164.349262 251.431445,169.999439 252.568619,172.826029 C253.384405,174.855314 258.693621,174.779666 261.421517,174.116846 C265.830846,173.045768 269.635844,167.241893 280.248269,159.837405 C285.93414,155.870093 294.218751,153.949477 302.174766,157.235958 C305.654171,158.672067 308.140575,160.994938 309.853846,163.909183 Z" id="Clip-29"></path>
                </g>
            </g>
        </g>
    </g>
</svg>