<svg width="227" height="109" viewBox="0 0 227 109" fill="none" xmlns="http://www.w3.org/2000/svg">
<path d="M127.886 1.07169C119.569 5.01559 114.605 15.6175 108.58 42.2494C107.646 46.4478 106.713 50.3068 106.5 50.7733C105.864 52.2152 99.669 53.0633 95.341 52.3848L93.7286 52.088V49.2891C93.7286 44.5818 91.3949 41.6133 87.7034 41.6133C82.8662 41.6133 80.1931 45.4724 81.3811 50.6461C81.8903 52.6817 81.8479 53.0633 80.7871 56.0319C78.411 62.5202 75.3559 67.5243 72.5979 69.3902C69.2458 71.6803 65.6816 70.1112 65.0876 66.1249C64.4935 62.2234 66.7424 54.3356 70.1369 48.2289C72.0038 44.9211 75.4408 41.2316 77.8593 40.0018C81.2114 38.3055 85.794 38.0511 89.1885 39.4505C91.0979 40.2139 91.31 40.0866 91.0554 38.3479C90.0795 32.3685 78.9201 30.0784 70.6036 34.192C63.3903 37.7118 57.7045 45.0059 55.6678 53.2754C55.2435 54.8869 54.9041 56.2863 54.8616 56.3711C54.8192 56.4559 52.9522 56.0743 50.7458 55.523L46.7148 54.5476L46.4178 51.6215C45.7389 44.8363 43.5749 40.7652 35.4281 31.4355C28.0451 22.9116 26.3903 18.9677 28.0451 13.4547C28.8089 10.9951 31.9063 7.8993 34.3249 7.26319C39.2894 5.90615 44.763 7.43282 46.4178 10.6982C47.0543 11.8856 47.0543 11.928 45.1449 13.7515C43.4052 15.4478 43.2355 15.7871 43.2355 17.6106C43.2355 18.7132 43.5325 20.1551 43.8719 20.7912C45.2297 23.4205 49.7275 24.099 52.5279 22.1058C55.7951 19.8158 56.6862 14.0908 54.5222 9.68042C52.2733 5.058 47.7756 2.13188 41.5807 1.24132C24.0141 -1.21832 11.6667 15.7871 19.6013 31.6051C21.1712 34.8281 23.2928 37.6694 27.8329 42.7583C31.9912 47.4655 33.349 49.4163 33.7309 51.155L33.9855 52.4272H25.1174C17.9889 52.4272 15.6552 52.5969 12.8972 53.233C8.31459 54.2932 5.4717 55.6078 3.18042 57.7282C0.719407 59.9758 -0.21408 62.393 0.0405076 65.7432C0.592113 73.2917 9.75725 77.8293 21.7229 76.5147C32.5004 75.2849 40.4775 70.4928 44.2114 62.9867L45.4843 60.3998L47.224 60.7815C48.1999 60.9935 50.2366 61.5448 51.7642 61.9689L54.5646 62.8171L54.8192 64.7254C55.2011 67.3123 56.8559 70.4504 58.7653 72.1467C62.8387 75.709 69.5853 76.9388 75.3983 75.1577C81.3811 73.3766 87.1942 67.8212 90.5887 60.7815L92.0314 57.7282L95.5532 57.9826C97.6747 58.1522 100.263 58.0674 101.96 57.7706C103.573 57.4737 104.93 57.3041 104.973 57.3889C105.312 57.6858 103.53 64.2165 103.021 64.683C102.682 64.9799 100.899 66.4641 98.9901 68.0332C82.6116 81.434 74.974 100.221 83.0784 107.048C84.9878 108.617 87.0669 109.169 90.5038 108.956C101.069 108.236 107.476 98.0153 113.502 72.0195L115.538 63.2836L118.296 62.0113C121.521 60.5695 127.546 58.7459 130.559 58.3219L132.638 58.0674L132.299 60.5271C131.917 63.3684 132.214 66.9306 133.062 69.3478C134.505 73.5038 138.112 75.9634 142.779 75.9634C147.404 75.9634 151.817 72.9525 155.721 67.1426C156.909 65.3615 157.927 63.8349 157.969 63.7924C158.012 63.75 158.054 65.2767 158.012 67.1851C158.012 71.341 158.818 73.3766 161.152 74.776C162.425 75.5817 163.273 75.7514 166.286 75.7514C169.383 75.7514 170.232 75.5817 172.269 74.564C176.597 72.4436 183.216 64.4286 189.411 53.8267C190.302 52.2576 191.108 51.0278 191.193 51.1126C191.278 51.155 189.666 56.4135 187.671 62.8171C184.744 72.0619 184.15 74.4367 184.574 74.7336C185.762 75.4545 189.793 76.0482 191.914 75.7938C195.521 75.3273 195.818 74.988 198.237 69.1782C200.783 63.1139 203.371 58.2371 206.935 52.8089C209.608 48.7378 213.894 43.8609 215.633 42.9279C216.567 42.419 216.779 42.5039 217.713 43.4368C221.998 47.72 229.169 41.6133 226.369 36.1427C224.756 33.0894 220.428 32.4109 216.397 34.6161C212.918 36.5244 206.68 44.5818 202.098 53.0209C201.207 54.6748 200.443 55.9471 200.358 55.8622C200.273 55.7774 201.758 51.2822 203.625 45.8116C205.535 40.3411 207.19 35.549 207.317 35.1249C207.869 33.4286 200.867 32.4533 197.261 33.7255C195.691 34.2768 195.648 34.3616 189.199 46.3629C183.343 57.3465 174.857 68.2028 171.081 69.6447C169.383 70.2808 168.026 69.7719 167.729 68.4573C167.007 65.7008 169.808 56.1591 175.197 42.6735C176.809 38.6872 178.167 35.1674 178.252 34.8705C178.464 33.8103 175.366 33.047 171.802 33.2166C166.328 33.5135 166.668 33.0894 161.788 45.3028C156.824 57.7282 155.127 61.3328 152.496 64.895C150.332 67.8636 148.465 69.1782 146.471 69.1782C142.652 69.1782 142.1 64.5558 144.901 56.1167C148.422 45.4724 155.296 38.0087 160.812 38.772C162.764 39.0264 163.146 38.3903 162.297 36.3124C161.279 33.9799 159.879 33.3438 155.466 33.3438C151.944 33.3438 151.435 33.4711 148.719 34.8281C143.67 37.3301 138.494 43.2248 135.481 49.8404L134.25 52.512L130.304 52.9785C128.14 53.2754 124.322 54.1659 121.861 54.9717C119.357 55.7774 117.278 56.3711 117.236 56.3287C117.193 56.2863 117.448 55.0141 117.787 53.4874C118.381 51.0278 118.678 50.5613 120.333 49.2891C127.631 43.6489 135.863 32.8773 139.554 23.9294C142.397 17.1866 143.458 9.5532 142.143 5.86374C141.464 3.91299 139.469 1.53817 137.815 0.647612C135.82 -0.370169 130.432 -0.158132 127.886 1.07169ZM135.566 7.05115C136.881 7.94171 137.093 9.76523 136.33 13.7515C135.311 19.2221 131.535 27.4492 126.825 34.404C124.958 37.1181 120.842 42.1646 120.63 41.9102C120.418 41.6981 124.534 24.4382 126.019 19.1373C128.904 9.17153 132.341 4.76114 135.566 7.05115ZM28.724 58.4491C34.6644 58.7459 34.6219 58.7035 32.7974 62.3082C31.482 64.9375 28.9362 67.0578 25.4992 68.3725C22.529 69.5175 15.146 69.9839 12.3031 69.1782C9.71482 68.4997 7.59326 66.3369 7.59326 64.4286C7.59326 61.6721 9.92698 59.891 14.5944 59.0428C19.2194 58.1947 22.0623 58.0674 28.724 58.4491ZM100.093 79.4408C96.1048 95.9798 93.2194 102.256 89.4855 102.341C86.7699 102.426 85.8364 99.542 86.9821 94.7075C87.7034 91.739 90.8433 85.4627 93.2619 82.2821C95.7653 78.9743 100.984 73.2917 101.239 73.5886C101.324 73.6734 100.815 76.3027 100.093 79.4408Z" fill="black"/>
</svg>
