<?xml version="1.0" encoding="UTF-8"?>
<svg width="331px" height="331px" viewBox="0 0 331 331" version="1.1" xmlns="http://www.w3.org/2000/svg" xmlns:xlink="http://www.w3.org/1999/xlink">
    <!-- Generator: sketchtool 55.1 (78136) - https://sketchapp.com -->
    <title>92C16333-8894-404F-9D68-68985911890B</title>
    <desc>Created with sketchtool.</desc>
    <g id="Atoms" stroke="none" stroke-width="1" fill="none" fill-rule="evenodd">
        <g id="Logos" transform="translate(-735.000000, -878.000000)" fill="#FFFFFF">
            <g id="Sofar-Circle-White" transform="translate(735.000000, 878.000000)">
                <g id="Fill-1">
                    <path d="M158.772694,229.698643 C156.307265,234.060078 149.51919,235.870749 143.289676,237.895535 C137.162048,239.888255 130.3176,241.52153 123.251795,241.538743 C110.524865,241.570663 89.8436034,236.28605 90.9183173,223.778924 C91.1939778,220.58271 95.0992545,215.426876 99.5708507,216.037156 C108.841939,217.301678 119.641315,219.668324 130.08228,221.957392 C140.603408,224.264045 151.273487,225.629935 158.772694,229.698643 Z M165.500259,311.346389 C84.9515345,311.346389 19.6536115,246.048466 19.6536115,165.499741 C19.6536115,84.9510173 84.9515345,19.6530943 165.500259,19.6530943 C246.048983,19.6530943 311.346906,84.9510173 311.346906,165.499741 C311.346906,167.792947 311.287429,170.071155 311.18244,172.337984 C280.034872,193.201295 253.513021,213.296584 216.184554,217.994191 C210.395684,218.722907 204.736627,218.018498 199.757671,216.492798 C204.067905,203.783969 208.544673,190.499512 207.043797,175.962428 C205.962877,165.49457 199.015508,155.473043 191.561813,150.005345 C177.396587,139.616099 151.247111,134.355276 148.297595,116.762136 C146.078347,103.510779 157.001847,91.025375 166.059855,86.2507074 C179.299834,79.2681699 203.130762,79.0188859 212.509943,90.3483776 C214.523868,92.7832925 213.983408,99.8134112 218.430179,101.733725 C226.510187,105.224736 230.31306,94.8587627 230.724224,90.8040191 C231.387774,84.2807433 227.545594,77.0261656 224.805022,73.9545938 C212.308757,59.9533157 182.939277,60.2600074 165.147537,67.1241092 C145.017597,74.8912189 124.316165,92.7962222 124.162561,119.038275 C123.935516,157.885202 165.162018,153.879074 179.265182,178.239601 C183.501976,185.557276 182.749986,194.945766 179.265182,203.74156 C177.644836,207.833024 175.415762,213.660166 172.434698,214.670749 C167.829667,216.232136 156.797041,211.785364 150.120161,210.11692 C142.290471,208.161437 134.866256,206.025973 128.261782,204.652326 C103.985556,199.605101 75.8438768,195.008862 71.7922363,220.135861 L71.7922363,228.332235 C78.8957955,252.660697 113.029083,263.491104 144.655049,257.477774 C160.668701,254.433096 169.908241,248.48338 180.176465,239.717583 C183.373713,236.987355 187.202964,232.611955 190.194889,231.975816 C192.985111,231.38312 196.647827,232.726254 199.757671,232.887099 C209.09858,233.366013 211.141984,235.319945 231.615337,231.838244 C253.907635,228.046748 259.540315,224.261976 307.45611,199.079639 C292.288576,263.439902 234.491929,311.346389 165.500259,311.346389 Z M165.500259,0 C74.0968202,0 0,74.0973373 0,165.499741 C0,256.902663 74.0968202,330.999483 165.500259,330.999483 C256.903697,330.999483 331,256.902663 331,165.499741 C331,74.0973373 256.903697,0 165.500259,0 L165.500259,0 Z"></path>
                </g>
            </g>
        </g>
    </g>
</svg>