<?xml version="1.0" encoding="UTF-8"?>
<svg width="330px" height="148px" viewBox="0 0 330 148" version="1.1" xmlns="http://www.w3.org/2000/svg" xmlns:xlink="http://www.w3.org/1999/xlink">
    <!-- Generator: sketchtool 55.1 (78136) - https://sketchapp.com -->
    <title>852FCE8E-520A-4D51-890F-F0F649B2A0F0</title>
    <desc>Created with sketchtool.</desc>
    <g id="Symbols" stroke="none" stroke-width="1" fill="none" fill-rule="evenodd">
        <g id="Sofar-Logo-Black" fill="#111111">
            <g transform="translate(0.000000, 0.000000)">
                <path d="M314.739779,55.490395 C312.355387,55.8965462 310.912576,53.3625688 311.087093,50.2104294 C311.239289,49.5758181 311.797338,49.0935136 312.304655,48.9919758 C312.168694,50.9683075 312.331036,54.9051311 314.942706,54.0688658 C315.470317,54.3523593 315.094902,55.2619349 314.739779,55.490395 M310.478312,63.8164946 C307.840261,64.4511059 306.076826,58.9711108 308.651969,57.7242266 C308.877218,58.7607245 308.063481,62.9662171 311.29002,62.1918898 C311.509182,63.2229046 310.98563,63.7657257 310.478312,63.8164946 M302.361232,42.2904809 C302.576335,42.2015338 302.779262,42.2015338 302.970013,42.2904809 C303.199321,44.3689597 303.026833,47.4494135 305.608064,46.5550686 C303.503711,51.2511918 300.232528,44.4491746 302.361232,42.2904809 M183.040155,51.6319586 C179.667712,57.7382388 176.916021,61.1442228 172.690878,66.0503262 C171.064216,67.9391324 167.943807,72.1972216 164.370871,70.5179894 C160.173123,68.54511 162.769168,61.1480812 164.370871,57.521151 C167.42472,50.6056145 173.088818,42.9711904 181.416739,41.8843297 C182.60853,41.7287738 185.933489,41.2239279 186.692841,43.1027833 C187.444483,44.9621435 183.990463,49.911299 183.040155,51.6319586 M126.829376,64.0195702 C127.594208,51.044867 129.917113,33.7476996 134.540602,22.3890721 C136.570481,17.4019415 141.126192,9.52159279 146.107441,11.4229896 C151.08869,13.3243865 146.685783,24.1438483 144.889879,29.2936425 C141.073634,40.2375897 136.929865,50.7037 131.090843,59.551907 C129.971498,61.2481975 128.878939,63.4663923 126.829376,64.0195702 M101.057647,126.160704 C99.6377666,129.468602 96.5471883,137.203549 92.5347127,137.127354 C89.0634434,137.060381 87.8846405,131.481285 87.8673917,127.176082 C87.824777,116.488213 91.4849714,107.273658 95.7815448,98.9485735 C100.164971,90.4553427 106.340445,83.7861369 112.827413,79.2502403 C113.000104,79.2128743 113.018773,79.3296428 113.03034,79.4533159 C109.37461,95.3768799 107.179549,111.897486 101.057647,126.160704 M329.553451,47.5704466 L329.553451,46.1489174 C329.159772,45.0535276 328.632162,44.0921677 327.727108,43.5089345 C322.619435,44.6244288 318.909929,47.1409417 314.333925,48.7889002 C313.664266,46.8062731 310.780674,46.0000629 310.681239,44.1181613 C312.951993,43.2686961 316.150122,42.5171133 315.957342,39.8535737 C315.606278,35.0075807 307.720535,41.122187 305.608064,41.2751029 C304.266717,38.5189609 302.259769,37.6128376 300.015396,37.7229045 C299.029171,38.3709188 298.229639,41.9247418 299.1144,43.9150857 C297.665502,42.5644299 298.053092,39.3012081 299.1144,37.8228177 C299.11643,37.82099 299.118459,37.8195685 299.120488,37.8177408 C295.007158,38.468192 290.323603,42.0264827 287.547561,43.7120101 C286.666858,46.2744181 287.052419,49.680402 287.344634,52.6473366 C285.43712,52.5667156 283.405821,52.9966266 282.88024,53.6627146 C282.354659,54.3288025 283.006055,55.4536383 282.88024,56.0996218 C272.737949,58.6108547 263.565648,62.3760794 255.688022,67.0657042 C253.118966,68.5954727 250.314515,70.6607516 247.368015,71.5333674 C244.405281,72.4100448 238.524456,72.3472944 237.627519,70.1118382 C236.377489,66.9976739 239.936828,60.7730006 241.280205,57.521151 C242.593143,54.3409871 245.898823,48.7367097 245.541672,44.9304637 C245.257574,41.8979358 241.93363,40.3050108 239.048008,38.6351201 C237.670134,37.8374392 231.913095,35.8219138 231.539709,34.3705325 C231.223143,33.1419251 232.17487,31.7004945 232.14849,30.7151717 C232.09167,28.6955849 231.105445,26.3547324 229.713366,25.6382817 C222.809789,22.0856771 217.884751,32.3156105 222.00214,38.6351201 C218.063327,49.4645327 213.816065,63.9082848 204.550418,69.705687 C201.553186,71.580481 192.334009,73.7316608 190.751382,69.2995358 C189.799654,66.6341686 191.856725,62.2666216 192.780652,59.7549826 C195.10721,53.4299899 197.427274,48.3821397 199.883097,42.8997077 C201.08828,40.2077376 204.091803,35.8456737 202.724075,33.9643813 C201.356144,32.083089 194.593804,31.674907 193.998214,31.7305497 C191.833997,32.0841043 191.643854,35.3385939 189.736747,35.5889861 C188.618619,35.7358098 186.661591,34.3215913 185.475279,33.9643813 C175.045643,30.8240202 164.942314,37.0960102 159.70355,42.8997077 C154.743608,48.3949335 151.498806,54.8452238 150.368908,64.0195702 C146.92686,67.6818356 139.816907,73.3515033 132.917186,70.3149138 C142.460031,60.9443964 150.22341,46.9579705 154.427448,31.5274741 C157.518838,20.1804218 161.276437,2.98824457 147.52793,0.863058409 C146.140518,0.580580249 144.681676,0.519860644 143.46939,0.863058409 C130.47638,5.14775051 124.998772,18.5639401 121.553274,32.5428521 C118.99822,42.9092523 117.27537,55.5728437 115.262537,66.8626286 C114.956726,68.5776021 115.008269,70.5825675 114.450829,71.736443 C113.74302,73.2018366 109.632327,75.7514507 108.160092,77.0164087 C97.9859408,85.7561733 89.0892152,96.9746787 83.4029977,110.117732 C78.8379518,120.669337 75.3194006,140.679391 87.6644647,146.062113 C88.6632714,146.49771 90.3023128,146.633365 91.5200777,146.874415 L92.7376397,146.874415 C99.903398,145.884625 104.637279,140.117887 107.957165,134.689879 C117.435479,119.192977 120.57963,96.5748228 124.800106,77.2194843 C135.624638,78.825 144.725914,75.6107193 150.977689,71.3302918 C152.302194,74.0027667 153.562573,76.2922411 155.847937,77.6256355 C164.587191,82.7248638 174.021674,74.2984448 177.96698,69.5026114 C179.274439,67.9133418 179.952824,65.8612628 181.619666,65.0349482 C181.266168,67.4399726 180.173609,69.1746443 180.605031,71.9395186 C181.321161,76.5290272 186.732209,77.9672086 191.56309,78.2348623 C199.493477,78.6743179 207.042361,76.6301589 211.044082,72.5487454 C219.029259,64.4056169 224.067937,52.3429262 228.08995,42.4935565 C230.322147,43.843197 233.530423,44.7040345 233.568979,47.7735222 C233.585213,49.1115873 232.233719,50.875705 231.539709,52.6473366 C229.632195,57.515871 227.124017,63.8514236 226.669461,68.8933846 C225.589889,80.8701743 244.644735,79.4569712 252.035336,76.2041062 C255.410012,74.7184052 257.772082,72.1298005 260.964124,69.705687 C266.98091,65.136486 273.738379,62.058063 283.286094,61.1765118 C283.844143,63.5874253 287.543503,61.9835342 289.576831,62.598041 C290.806569,64.5329453 291.472169,66.8847639 292.823663,69.0964602 C293.824093,70.7356865 295.94671,73.578948 297.896838,73.767199 C300.047865,73.9747423 303.243965,72.3249561 305.608064,71.5333674 C308.319169,70.6256195 310.780674,69.8988119 313.116363,68.8933846 C314.841243,66.0105234 313.0149,63.8207592 314.739779,61.1765118 C316.606708,58.3168012 324.539124,59.7624964 321.639298,54.0688658 C319.754106,53.360335 318.272739,54.5574657 316.566123,54.6780926 C318.8247,50.2378446 326.233565,50.950843 329.553451,47.5704466" id="Fill-1"></path>
                <path d="M25.9746562,72.5995358 C21.3221488,71.5788779 16.509735,70.523494 12.3785471,69.959553 C10.3860069,69.6874317 8.64550198,71.9864506 8.52293407,73.4118382 C8.04362049,78.9893096 17.2593473,81.3460019 22.9307512,81.3318506 C26.0791636,81.3238667 29.1289535,80.5954345 31.8595393,79.7071818 C34.6359865,78.8043077 37.6606134,77.9966761 38.7590573,76.051821 C35.4178642,74.2369344 30.6630817,73.6281137 25.9746562,72.5995358 M0,75.4425942 L0,71.7872334 C1.80523861,60.582131 14.3457215,62.6319761 25.1629482,64.882663 C28.1062014,65.4953421 31.4145203,66.4475636 34.9034443,67.3195702 C37.8789629,68.0634361 42.7950724,70.0466725 44.8468674,69.3503262 C46.1754304,68.8994984 47.1685552,66.3007399 47.8907724,64.4765118 C49.4435698,60.5541066 49.7783993,56.3675 47.8907724,53.1042782 C41.606529,42.240952 23.2353446,44.0276111 23.3366052,26.7044501 C23.4049916,15.0020155 32.6296472,7.01748905 41.6000353,3.55383161 C49.5277845,0.492873079 62.6151556,0.356203199 68.1834725,6.59996562 C69.4048902,7.96950747 71.1169853,11.2047049 70.8215236,14.1137628 C70.6380776,15.9217449 68.9432312,20.5443548 65.3424945,18.9875773 C63.3615211,18.1312074 63.6023955,14.9963294 62.7044435,13.9106872 C58.5253648,8.8581663 47.9061948,8.96945173 42.0058893,12.0830068 C37.970483,14.2124576 33.1022642,19.7799783 34.0917363,25.6890721 C35.4054857,33.5348979 47.0581629,35.8808272 53.3698014,40.5135909 C56.6915135,42.9519197 59.7877737,47.4208013 60.2693195,52.0889002 C60.9381669,58.5712764 58.9429886,64.4953978 57.0224875,70.1626286 C59.2412913,70.843135 61.7559627,71.5591795 64.3278595,71.1780066 C66.1633342,70.9058853 70.625699,68.740084 71.0244506,67.3195702 C71.2486849,66.5200616 70.7247274,64.4588442 70.8215236,63.0549826 C71.7700044,49.2888938 78.8543889,39.3718999 88.6790997,34.4213229 C90.1905,33.6597894 100.045853,30.389663 100.245939,34.4213229 C100.31534,35.8180769 96.7549856,37.8191839 95.7815448,38.8889861 C91.0679564,44.0690385 85.9552106,51.6870135 83.4029977,59.805773 C82.5671413,62.465048 81.422836,66.445939 82.5912897,69.3503262 C83.7786155,72.3012178 88.5987406,72.0918468 90.9112967,70.974931 C95.7845887,68.6210817 97.4674623,63.365079 99.2313038,58.1811682 C99.7980789,56.5155421 101.744149,52.9083102 101.463501,50.4642954 C101.200102,48.1705564 98.6685872,47.7118087 98.0137418,44.9812541 C97.0514619,40.967871 98.3432952,36.7623784 101.260574,35.6397765 C106.962011,33.4457477 111.327376,38.1751754 111.812778,43.1535737 C112.954242,54.860679 106.231271,68.1586786 100.245939,73.4118382 C93.3506822,79.4636942 79.0270798,81.0434193 73.2566476,73.4118382 C69.7774641,76.5054919 63.2371269,77.792382 57.0224875,77.4733502 C55.636496,77.4020707 54.0043542,76.8025915 52.7610204,77.067199 C51.42779,77.3506926 49.7215798,79.302046 48.2966264,80.5194843 C43.7212313,84.4286896 39.6038424,87.0816692 32.4683203,88.4394327 C18.3756488,91.1208429 3.16525537,86.291299 0,75.4425942" id="Fill-3"></path>
            </g>
        </g>
    </g>
</svg>